<?xml version="1.0" encoding="UTF-8"?>
<svg xmlns="http://www.w3.org/2000/svg" xmlns:xlink="http://www.w3.org/1999/xlink" width="500pt" height="500pt" viewBox="0 0 500 500" version="1.1">
<g id="surface19209515">
<rect x="0" y="0" width="500" height="500" style="fill:rgb(3.137255%,7.058824%,16.078431%);fill-opacity:1;stroke:none;"/>
<path style=" stroke:none;fill-rule:nonzero;fill:rgb(59.607843%,80%,99.215686%);fill-opacity:1;" d="M 81.25 468.75 L 81.25 31.25 L 309.914062 31.25 L 418.75 140.085938 L 418.75 468.75 Z M 81.25 468.75 "/>
<path style=" stroke:none;fill-rule:nonzero;fill:rgb(27.843137%,53.333333%,78.039216%);fill-opacity:1;" d="M 307.324219 37.5 L 412.5 142.675781 L 412.5 462.5 L 87.5 462.5 L 87.5 37.5 L 307.324219 37.5 M 312.5 25 L 75 25 L 75 475 L 425 475 L 425 137.5 Z M 312.5 25 "/>
<path style=" stroke:none;fill-rule:nonzero;fill:rgb(87.45098%,94.117647%,99.607843%);fill-opacity:1;" d="M 306.25 143.75 L 306.25 31.25 L 309.914062 31.25 L 418.75 140.085938 L 418.75 143.75 Z M 306.25 143.75 "/>
<path style=" stroke:none;fill-rule:nonzero;fill:rgb(27.843137%,53.333333%,78.039216%);fill-opacity:1;" d="M 312.5 42.675781 L 407.324219 137.5 L 312.5 137.5 L 312.5 42.675781 M 312.5 25 L 300 25 L 300 150 L 425 150 L 425 137.5 Z M 312.5 25 "/>
<path style=" stroke:none;fill-rule:nonzero;fill:rgb(100%,100%,100%);fill-opacity:1;" d="M 202.601562 284.039062 L 177.738281 284.039062 L 177.738281 313.613281 L 205.851562 313.613281 L 205.851562 332.136719 L 156.449219 332.136719 L 156.449219 222.613281 L 204.0625 222.613281 L 204.0625 241.136719 L 177.738281 241.136719 L 177.738281 266.324219 L 202.601562 266.324219 Z M 259.800781 332.136719 L 252.976562 311.988281 C 250.863281 305.648438 248.914062 299.476562 247.125 292.476562 L 246.636719 292.476562 C 244.851562 299.460938 243.226562 306.125 241.601562 312.300781 L 235.75 332.125 L 214.625 332.125 L 235.101562 276.0625 L 215.4375 222.601562 L 237.539062 222.601562 L 244.039062 242.914062 C 245.664062 248.601562 247.289062 254.289062 248.914062 260.460938 L 249.238281 260.460938 C 251.023438 253.800781 252.488281 248.601562 253.949219 242.585938 L 259.476562 222.601562 L 280.761719 222.601562 L 260.289062 277.039062 L 281.898438 332.125 L 259.800781 332.125 Z M 340.886719 284.039062 L 316.023438 284.039062 L 316.023438 313.613281 L 344.136719 313.613281 L 344.136719 332.136719 L 294.738281 332.136719 L 294.738281 222.613281 L 342.351562 222.613281 L 342.351562 241.136719 L 316.023438 241.136719 L 316.023438 266.324219 L 340.886719 266.324219 Z M 340.886719 284.039062 "/>
</g>
</svg>
