<?xml version="1.0" encoding="UTF-8"?>
<svg xmlns="http://www.w3.org/2000/svg" xmlns:xlink="http://www.w3.org/1999/xlink" width="500pt" height="500pt" viewBox="0 0 500 500" version="1.1">
<g id="surface19209588">
<rect x="0" y="0" width="500" height="500" style="fill:rgb(3.137255%,7.058824%,16.078431%);fill-opacity:1;stroke:none;"/>
<path style=" stroke:none;fill-rule:nonzero;fill:rgb(59.607843%,80%,99.215686%);fill-opacity:1;" d="M 81.25 468.75 L 81.25 31.25 L 309.914062 31.25 L 418.75 140.085938 L 418.75 468.75 Z M 81.25 468.75 "/>
<path style=" stroke:none;fill-rule:nonzero;fill:rgb(27.843137%,53.333333%,78.039216%);fill-opacity:1;" d="M 307.324219 37.5 L 412.5 142.675781 L 412.5 462.5 L 87.5 462.5 L 87.5 37.5 L 307.324219 37.5 M 312.5 25 L 75 25 L 75 475 L 425 475 L 425 137.5 Z M 312.5 25 "/>
<path style=" stroke:none;fill-rule:nonzero;fill:rgb(87.45098%,94.117647%,99.607843%);fill-opacity:1;" d="M 306.25 143.75 L 306.25 31.25 L 309.914062 31.25 L 418.75 140.085938 L 418.75 143.75 Z M 306.25 143.75 "/>
<path style=" stroke:none;fill-rule:nonzero;fill:rgb(27.843137%,53.333333%,78.039216%);fill-opacity:1;" d="M 312.5 42.675781 L 407.324219 137.5 L 312.5 137.5 L 312.5 42.675781 M 312.5 25 L 300 25 L 300 150 L 425 150 L 425 137.5 Z M 312.5 25 "/>
<path style=" stroke:none;fill-rule:nonzero;fill:rgb(100%,100%,100%);fill-opacity:1;" d="M 155.1875 222.675781 L 202.800781 222.675781 L 202.800781 241.199219 L 176.476562 241.199219 L 176.476562 269.3125 L 201.175781 269.3125 L 201.175781 287.023438 L 176.476562 287.023438 L 176.476562 332.199219 L 155.1875 332.199219 Z M 226.199219 222.675781 L 247.488281 222.675781 L 247.488281 314.164062 L 275.4375 314.164062 L 275.4375 332.199219 L 226.199219 332.199219 Z M 301.4375 332.199219 L 277.0625 222.675781 L 300.625 222.675781 L 308.425781 269.960938 C 310.210938 281.824219 312.488281 295.148438 313.949219 307.988281 L 314.273438 307.988281 C 315.738281 294.988281 317.523438 281.824219 319.476562 269.476562 L 326.949219 222.675781 L 350.351562 222.675781 L 325.324219 332.199219 Z M 301.4375 332.199219 "/>
</g>
</svg>
