<?xml version="1.0" encoding="UTF-8"?>
<svg xmlns="http://www.w3.org/2000/svg" xmlns:xlink="http://www.w3.org/1999/xlink" width="500pt" height="500pt" viewBox="0 0 500 500" version="1.1">
<g id="surface19209531">
<rect x="0" y="0" width="500" height="500" style="fill:rgb(3.137255%,7.058824%,16.078431%);fill-opacity:1;stroke:none;"/>
<path style=" stroke:none;fill-rule:nonzero;fill:rgb(59.607843%,80%,99.215686%);fill-opacity:1;" d="M 81.25 468.75 L 81.25 31.25 L 309.914062 31.25 L 418.75 140.085938 L 418.75 468.75 Z M 81.25 468.75 "/>
<path style=" stroke:none;fill-rule:nonzero;fill:rgb(27.843137%,53.333333%,78.039216%);fill-opacity:1;" d="M 307.324219 37.5 L 412.5 142.675781 L 412.5 462.5 L 87.5 462.5 L 87.5 37.5 L 307.324219 37.5 M 312.5 25 L 75 25 L 75 475 L 425 475 L 425 137.5 Z M 312.5 25 "/>
<path style=" stroke:none;fill-rule:nonzero;fill:rgb(87.45098%,94.117647%,99.607843%);fill-opacity:1;" d="M 306.25 143.75 L 306.25 31.25 L 309.914062 31.25 L 418.75 140.085938 L 418.75 143.75 Z M 306.25 143.75 "/>
<path style=" stroke:none;fill-rule:nonzero;fill:rgb(27.843137%,53.333333%,78.039216%);fill-opacity:1;" d="M 312.5 42.675781 L 407.324219 137.5 L 312.5 137.5 L 312.5 42.675781 M 312.5 25 L 300 25 L 300 150 L 425 150 L 425 137.5 Z M 312.5 25 "/>
<path style=" stroke:none;fill-rule:nonzero;fill:rgb(100%,100%,100%);fill-opacity:1;" d="M 223.761719 329.261719 C 219.050781 331.210938 209.136719 333.164062 201.164062 333.164062 C 188.488281 333.164062 178.914062 329.585938 171.75 322.273438 C 162.324219 313.175781 157.289062 296.925781 157.613281 278.074219 C 158.101562 238.261719 180.6875 221.6875 204.238281 221.6875 C 212.523438 221.6875 218.550781 223.3125 221.949219 224.9375 L 218.375 243.300781 C 215.125 241.675781 211.0625 240.863281 205.863281 240.863281 C 191.238281 240.863281 179.699219 250.773438 179.699219 279.210938 C 179.699219 305.539062 189.9375 315.125 200.011719 315.125 C 201.960938 315.125 203.425781 314.960938 204.238281 314.636719 L 204.238281 288.148438 L 194.324219 288.148438 L 194.324219 270.761719 L 223.75 270.761719 L 223.75 329.261719 Z M 265.039062 222.664062 L 265.039062 332.1875 L 243.75 332.1875 L 243.75 222.664062 Z M 288.113281 222.664062 L 335.726562 222.664062 L 335.726562 241.1875 L 309.414062 241.1875 L 309.414062 269.300781 L 334.113281 269.300781 L 334.113281 287.011719 L 309.414062 287.011719 L 309.414062 332.1875 L 288.125 332.1875 L 288.125 222.664062 Z M 288.113281 222.664062 "/>
</g>
</svg>
