<?xml version="1.0" encoding="UTF-8"?>
<svg xmlns="http://www.w3.org/2000/svg" xmlns:xlink="http://www.w3.org/1999/xlink" width="500pt" height="500pt" viewBox="0 0 500 500" version="1.1">
<g id="surface19209535">
<rect x="0" y="0" width="500" height="500" style="fill:rgb(3.137255%,7.058824%,16.078431%);fill-opacity:1;stroke:none;"/>
<path style=" stroke:none;fill-rule:nonzero;fill:rgb(59.607843%,80%,99.215686%);fill-opacity:1;" d="M 81.25 468.75 L 81.25 31.25 L 309.914062 31.25 L 418.75 140.085938 L 418.75 468.75 Z M 81.25 468.75 "/>
<path style=" stroke:none;fill-rule:nonzero;fill:rgb(27.843137%,53.333333%,78.039216%);fill-opacity:1;" d="M 307.324219 37.5 L 412.5 142.675781 L 412.5 462.5 L 87.5 462.5 L 87.5 37.5 L 307.324219 37.5 M 312.5 25 L 75 25 L 75 475 L 425 475 L 425 137.5 Z M 312.5 25 "/>
<path style=" stroke:none;fill-rule:nonzero;fill:rgb(87.45098%,94.117647%,99.607843%);fill-opacity:1;" d="M 306.25 143.75 L 306.25 31.25 L 309.914062 31.25 L 418.75 140.085938 L 418.75 143.75 Z M 306.25 143.75 "/>
<path style=" stroke:none;fill-rule:nonzero;fill:rgb(27.843137%,53.333333%,78.039216%);fill-opacity:1;" d="M 312.5 42.675781 L 407.324219 137.5 L 312.5 137.5 L 312.5 42.675781 M 312.5 25 L 300 25 L 300 150 L 425 150 L 425 137.5 Z M 312.5 25 "/>
<path style=" stroke:none;fill-rule:nonzero;fill:rgb(100%,100%,100%);fill-opacity:1;" d="M 167.148438 224.050781 L 188.4375 224.050781 L 188.4375 298.648438 C 188.4375 330.164062 173.164062 334.886719 157.726562 334.886719 C 153.335938 334.886719 149.273438 334.226562 147 333.25 L 148.800781 315.375 C 150.75 316.023438 153.023438 316.1875 155.789062 316.1875 C 161.960938 316.1875 167.164062 313.75 167.164062 299.613281 L 167.164062 224.050781 Z M 216.550781 225.6875 C 222.550781 224.386719 230.6875 223.5625 238.8125 223.5625 C 251.488281 223.5625 261.550781 225.363281 268.550781 232.023438 C 275.050781 237.710938 277.976562 246.8125 277.976562 256.074219 C 277.976562 267.9375 274.398438 276.386719 268.710938 282.398438 C 261.886719 289.710938 251 292.960938 242.0625 292.960938 C 240.601562 292.960938 239.300781 292.960938 237.835938 292.800781 L 237.835938 333.585938 L 216.550781 333.585938 Z M 237.835938 275.5625 C 238.976562 275.738281 240.113281 275.738281 241.414062 275.738281 C 252.125 275.738281 256.835938 268.101562 256.835938 257.851562 C 256.835938 248.261719 252.9375 240.800781 243.039062 240.800781 C 241.085938 240.800781 239.125 241.113281 237.835938 241.601562 Z M 355.648438 330.648438 C 350.9375 332.601562 341.023438 334.5625 333.050781 334.5625 C 320.375 334.5625 310.789062 330.988281 303.636719 323.675781 C 294.210938 314.5625 289.175781 298.324219 289.5 279.476562 C 289.976562 239.648438 312.574219 223.074219 336.125 223.074219 C 344.414062 223.074219 350.4375 224.710938 353.835938 226.335938 L 350.261719 244.699219 C 347.011719 243.074219 342.949219 242.261719 337.75 242.261719 C 323.125 242.261719 311.585938 252.175781 311.585938 280.613281 C 311.585938 306.9375 321.824219 316.523438 331.898438 316.523438 C 333.851562 316.523438 335.3125 316.363281 336.125 316.039062 L 336.125 289.550781 L 326.210938 289.550781 L 326.210938 272.164062 L 355.636719 272.164062 L 355.636719 330.648438 Z M 355.648438 330.648438 "/>
</g>
</svg>
