<?xml version="1.0" encoding="UTF-8"?>
<svg xmlns="http://www.w3.org/2000/svg" xmlns:xlink="http://www.w3.org/1999/xlink" width="500pt" height="500pt" viewBox="0 0 500 500" version="1.1">
<g id="surface19209584">
<rect x="0" y="0" width="500" height="500" style="fill:rgb(3.137255%,7.058824%,16.078431%);fill-opacity:1;stroke:none;"/>
<path style=" stroke:none;fill-rule:nonzero;fill:rgb(59.607843%,80%,99.215686%);fill-opacity:1;" d="M 81.25 468.75 L 81.25 31.25 L 309.914062 31.25 L 418.75 140.085938 L 418.75 468.75 Z M 81.25 468.75 "/>
<path style=" stroke:none;fill-rule:nonzero;fill:rgb(27.843137%,53.333333%,78.039216%);fill-opacity:1;" d="M 307.324219 37.5 L 412.5 142.675781 L 412.5 462.5 L 87.5 462.5 L 87.5 37.5 L 307.324219 37.5 M 312.5 25 L 75 25 L 75 475 L 425 475 L 425 137.5 Z M 312.5 25 "/>
<path style=" stroke:none;fill-rule:nonzero;fill:rgb(87.45098%,94.117647%,99.607843%);fill-opacity:1;" d="M 306.25 143.75 L 306.25 31.25 L 309.914062 31.25 L 418.75 140.085938 L 418.75 143.75 Z M 306.25 143.75 "/>
<path style=" stroke:none;fill-rule:nonzero;fill:rgb(27.843137%,53.333333%,78.039216%);fill-opacity:1;" d="M 312.5 42.675781 L 407.324219 137.5 L 312.5 137.5 L 312.5 42.675781 M 312.5 25 L 300 25 L 300 150 L 425 150 L 425 137.5 Z M 312.5 25 "/>
<path style=" stroke:none;fill-rule:nonzero;fill:rgb(100%,100%,100%);fill-opacity:1;" d="M 195.273438 292.539062 C 194.625 282.136719 193.976562 268 194.136719 256.3125 L 193.8125 256.3125 C 191.863281 268.011719 188.9375 281.5 186.824219 289.9375 L 177.238281 329.113281 L 162.289062 329.113281 L 153.1875 290.601562 C 151.074219 281.824219 148.148438 268.164062 146.363281 256.3125 L 146.039062 256.3125 C 145.710938 268.164062 144.898438 281.988281 144.414062 292.875 L 142.460938 330.898438 L 124.25 330.898438 L 132.050781 221.363281 L 154.636719 221.363281 L 163.414062 261.023438 C 166.335938 274.824219 169.101562 287.023438 171.050781 299.363281 L 171.539062 299.363281 C 173.164062 287.175781 175.601562 274.824219 178.363281 261.023438 L 187.136719 221.363281 L 209.5625 221.363281 L 216.226562 330.898438 L 197.210938 330.898438 Z M 300.5625 274.1875 C 300.5625 315.460938 285.9375 332.210938 265.136719 332.210938 C 240.273438 332.210938 230.523438 305.886719 230.523438 275.8125 C 230.523438 245.914062 242.386719 220.074219 266.761719 220.074219 C 293.085938 220.0625 300.5625 249.164062 300.5625 274.1875 Z M 252.625 276.136719 C 252.625 301 257.335938 313.675781 265.949219 313.675781 C 275.050781 313.675781 278.460938 297.425781 278.460938 275.164062 C 278.460938 255.988281 275.539062 238.601562 265.789062 238.601562 C 257.335938 238.601562 252.625 252.5625 252.625 276.136719 Z M 333.386719 330.898438 L 309.011719 221.363281 L 332.574219 221.363281 L 340.375 268.648438 C 342.164062 280.511719 344.4375 293.851562 345.898438 306.675781 L 346.226562 306.675781 C 347.6875 293.675781 349.476562 280.511719 351.425781 268.164062 L 358.898438 221.363281 L 382.300781 221.363281 L 357.273438 330.898438 Z M 333.386719 330.898438 "/>
</g>
</svg>
