<?xml version="1.0" encoding="UTF-8"?>
<svg xmlns="http://www.w3.org/2000/svg" xmlns:xlink="http://www.w3.org/1999/xlink" width="500pt" height="500pt" viewBox="0 0 500 500" version="1.1">
<g id="surface19209499">
<rect x="0" y="0" width="500" height="500" style="fill:rgb(3.137255%,7.058824%,16.078431%);fill-opacity:1;stroke:none;"/>
<path style=" stroke:none;fill-rule:nonzero;fill:rgb(87.45098%,94.117647%,99.607843%);fill-opacity:1;" d="M 81.25 468.75 L 81.25 31.25 L 309.914062 31.25 L 418.75 140.085938 L 418.75 468.75 Z M 81.25 468.75 "/>
<path style=" stroke:none;fill-rule:nonzero;fill:rgb(27.843137%,53.333333%,78.039216%);fill-opacity:1;" d="M 307.324219 37.5 L 412.5 142.675781 L 412.5 462.5 L 87.5 462.5 L 87.5 37.5 L 307.324219 37.5 M 312.5 25 L 75 25 L 75 475 L 425 475 L 425 137.5 Z M 312.5 25 "/>
<path style=" stroke:none;fill-rule:nonzero;fill:rgb(100%,100%,100%);fill-opacity:1;" d="M 306.25 143.75 L 306.25 31.25 L 309.914062 31.25 L 418.75 140.085938 L 418.75 143.75 Z M 306.25 143.75 "/>
<path style=" stroke:none;fill-rule:nonzero;fill:rgb(27.843137%,53.333333%,78.039216%);fill-opacity:1;" d="M 312.5 42.675781 L 407.324219 137.5 L 312.5 137.5 L 312.5 42.675781 M 312.5 25 L 300 25 L 300 150 L 425 150 L 425 137.5 Z M 201.0625 293.210938 C 200.414062 282.8125 199.761719 268.675781 199.925781 256.988281 L 199.601562 256.988281 C 197.648438 268.6875 194.726562 282.175781 192.613281 290.613281 L 183.023438 329.789062 L 168.074219 329.789062 L 158.976562 291.273438 C 156.863281 282.5 153.9375 268.835938 152.148438 256.988281 L 151.824219 256.988281 C 151.5 268.835938 150.6875 282.664062 150.199219 293.550781 L 148.25 331.574219 L 130.050781 331.574219 L 137.851562 222.039062 L 160.4375 222.039062 L 169.210938 261.699219 C 172.136719 275.5 174.898438 287.699219 176.851562 300.039062 L 177.335938 300.039062 C 178.960938 287.851562 181.398438 275.5 184.164062 261.699219 L 192.9375 222.039062 L 215.363281 222.039062 L 222.023438 331.574219 L 203.011719 331.574219 Z M 241.6875 223.675781 C 247.699219 222.375 255.824219 221.550781 263.949219 221.550781 C 276.625 221.550781 286.699219 223.351562 293.6875 230.011719 C 300.1875 235.699219 303.113281 244.800781 303.113281 254.0625 C 303.113281 265.925781 299.539062 274.375 293.851562 280.386719 C 287.023438 287.699219 276.136719 290.949219 267.199219 290.949219 C 265.738281 290.949219 264.4375 290.949219 262.976562 290.789062 L 262.976562 331.574219 L 241.6875 331.574219 Z M 262.976562 273.550781 C 264.113281 273.726562 265.25 273.726562 266.550781 273.726562 C 277.273438 273.726562 281.988281 266.085938 281.988281 255.835938 C 281.988281 246.25 278.085938 238.789062 268.175781 238.789062 C 266.226562 238.789062 264.273438 239.101562 262.976562 239.585938 Z M 317.414062 311.414062 C 321.636719 313.851562 327.648438 315.476562 333.175781 315.476562 C 343.574219 315.476562 349.261719 309.136719 349.261719 300.199219 C 349.261719 288.488281 340.164062 283.625 329.601562 283.449219 L 326.675781 283.449219 L 326.675781 267.851562 L 328.789062 267.851562 C 336.585938 267.6875 346.5 264.449219 346.5 254.199219 C 346.5 246.574219 341.789062 242.011719 334.3125 242.011719 C 329.4375 242.011719 324.886719 243.636719 320.988281 246.238281 L 318.0625 230.148438 C 322.449219 227.386719 331.0625 224.625 339.835938 224.625 C 358.363281 224.625 367.789062 236.648438 367.789062 250.136719 C 367.789062 260.710938 361.9375 269.488281 352.511719 273.863281 L 352.511719 274.1875 C 362.75 277.585938 370.550781 286.863281 370.550781 301 C 370.550781 317.085938 358.199219 332.863281 335.125 332.863281 C 326.675781 332.863281 319.039062 330.738281 314.488281 328.136719 Z M 317.414062 311.414062 "/>
</g>
</svg>
