<?xml version="1.0" encoding="UTF-8"?>
<svg xmlns="http://www.w3.org/2000/svg" xmlns:xlink="http://www.w3.org/1999/xlink" width="500pt" height="500pt" viewBox="0 0 500 500" version="1.1">
<g id="surface19209592">
<rect x="0" y="0" width="500" height="500" style="fill:rgb(3.137255%,7.058824%,16.078431%);fill-opacity:1;stroke:none;"/>
<path style=" stroke:none;fill-rule:nonzero;fill:rgb(59.607843%,80%,99.215686%);fill-opacity:1;" d="M 81.25 468.75 L 81.25 31.25 L 309.914062 31.25 L 418.75 140.085938 L 418.75 468.75 Z M 81.25 468.75 "/>
<path style=" stroke:none;fill-rule:nonzero;fill:rgb(27.843137%,53.333333%,78.039216%);fill-opacity:1;" d="M 307.324219 37.5 L 412.5 142.675781 L 412.5 462.5 L 87.5 462.5 L 87.5 37.5 L 307.324219 37.5 M 312.5 25 L 75 25 L 75 475 L 425 475 L 425 137.5 Z M 312.5 25 "/>
<path style=" stroke:none;fill-rule:nonzero;fill:rgb(87.45098%,94.117647%,99.607843%);fill-opacity:1;" d="M 306.25 143.75 L 306.25 31.25 L 309.914062 31.25 L 418.75 140.085938 L 418.75 143.75 Z M 306.25 143.75 "/>
<path style=" stroke:none;fill-rule:nonzero;fill:rgb(27.843137%,53.333333%,78.039216%);fill-opacity:1;" d="M 312.5 42.675781 L 407.324219 137.5 L 312.5 137.5 L 312.5 42.675781 M 312.5 25 L 300 25 L 300 150 L 425 150 L 425 137.5 Z M 312.5 25 "/>
<path style=" stroke:none;fill-rule:nonzero;fill:rgb(100%,100%,100%);fill-opacity:1;" d="M 195.585938 292.539062 C 194.9375 282.136719 194.289062 268 194.449219 256.3125 L 194.125 256.3125 C 192.1875 268.011719 189.25 281.5 187.136719 289.9375 L 177.539062 329.113281 L 162.601562 329.113281 L 153.488281 290.601562 C 151.375 281.824219 148.460938 268.164062 146.664062 256.3125 L 146.335938 256.3125 C 146.023438 268.164062 145.199219 281.988281 144.710938 292.875 L 142.773438 330.898438 L 124.585938 330.898438 L 132.386719 221.363281 L 154.976562 221.363281 L 163.75 261.023438 C 166.675781 274.824219 169.4375 287.023438 171.386719 299.363281 L 171.875 299.363281 C 173.5 287.175781 175.925781 274.824219 178.699219 261.023438 L 187.476562 221.363281 L 209.898438 221.363281 L 216.550781 330.898438 L 197.539062 330.898438 Z M 236.210938 223 C 242.210938 221.699219 250.351562 220.875 258.476562 220.875 C 271.148438 220.875 281.210938 222.675781 288.210938 229.335938 C 294.710938 235.023438 297.636719 244.125 297.636719 253.386719 C 297.636719 265.25 294.0625 273.699219 288.375 279.710938 C 281.550781 287.023438 270.664062 290.273438 261.726562 290.273438 C 260.261719 290.273438 258.960938 290.273438 257.5 290.113281 L 257.5 330.898438 L 236.210938 330.898438 Z M 257.511719 272.875 C 258.648438 273.050781 259.789062 273.050781 261.085938 273.050781 C 271.800781 273.050781 276.511719 265.414062 276.511719 255.164062 C 276.511719 245.574219 272.613281 238.113281 262.710938 238.113281 C 260.761719 238.113281 258.800781 238.425781 257.511719 238.914062 Z M 375.3125 327.960938 C 370.601562 329.914062 360.6875 331.875 352.710938 331.875 C 340.039062 331.875 330.460938 328.300781 323.300781 320.988281 C 313.875 311.875 308.835938 295.636719 309.164062 276.789062 C 309.648438 236.960938 332.238281 220.386719 355.789062 220.386719 C 364.074219 220.386719 370.101562 222.023438 373.5 223.648438 L 369.925781 242.011719 C 366.675781 240.386719 362.613281 239.574219 357.414062 239.574219 C 342.789062 239.574219 331.25 249.488281 331.25 277.925781 C 331.25 304.25 341.488281 313.835938 351.5625 313.835938 C 353.511719 313.835938 354.976562 313.675781 355.789062 313.351562 L 355.789062 286.863281 L 345.875 286.863281 L 345.875 269.476562 L 375.300781 269.476562 L 375.300781 327.960938 Z M 375.3125 327.960938 "/>
</g>
</svg>
