<?xml version="1.0" encoding="UTF-8"?>
<svg xmlns="http://www.w3.org/2000/svg" xmlns:xlink="http://www.w3.org/1999/xlink" width="500pt" height="500pt" viewBox="0 0 500 500" version="1.1">
<g id="surface19209555">
<rect x="0" y="0" width="500" height="500" style="fill:rgb(3.137255%,7.058824%,16.078431%);fill-opacity:1;stroke:none;"/>
<path style=" stroke:none;fill-rule:nonzero;fill:rgb(100%,100%,100%);fill-opacity:1;" d="M 81.25 468.75 L 81.25 31.25 L 309.914062 31.25 L 418.75 140.085938 L 418.75 468.75 Z M 81.25 468.75 "/>
<path style=" stroke:none;fill-rule:nonzero;fill:rgb(27.843137%,53.333333%,78.039216%);fill-opacity:1;" d="M 307.324219 37.5 L 412.5 142.675781 L 412.5 462.5 L 87.5 462.5 L 87.5 37.5 L 307.324219 37.5 M 312.5 25 L 75 25 L 75 475 L 425 475 L 425 137.5 Z M 312.5 25 "/>
<path style=" stroke:none;fill-rule:nonzero;fill:rgb(87.45098%,94.117647%,99.607843%);fill-opacity:1;" d="M 306.25 143.75 L 306.25 31.25 L 309.914062 31.25 L 418.75 140.085938 L 418.75 143.75 Z M 306.25 143.75 "/>
<path style=" stroke:none;fill-rule:nonzero;fill:rgb(27.843137%,53.333333%,78.039216%);fill-opacity:1;" d="M 312.5 42.675781 L 407.324219 137.5 L 312.5 137.5 L 312.5 42.675781 M 312.5 25 L 300 25 L 300 150 L 425 150 L 425 137.5 Z M 150.550781 219.1875 C 156.5625 217.886719 164.6875 217.074219 172.8125 217.074219 C 185.488281 217.074219 195.5625 218.875 202.550781 225.539062 C 209.050781 231.226562 211.976562 240.324219 211.976562 249.585938 C 211.976562 261.449219 208.398438 269.898438 202.710938 275.914062 C 195.886719 283.226562 185 286.476562 176.0625 286.476562 C 174.601562 286.476562 173.300781 286.476562 171.835938 286.3125 L 171.835938 327.101562 L 150.550781 327.101562 Z M 171.835938 269.074219 C 172.976562 269.25 174.113281 269.25 175.414062 269.25 C 186.136719 269.25 190.851562 261.613281 190.851562 251.363281 C 190.851562 241.773438 186.949219 234.3125 177.039062 234.3125 C 175.085938 234.3125 173.136719 234.625 171.835938 235.113281 Z M 224.8125 219.1875 C 230.175781 217.886719 237.976562 217.074219 246.425781 217.074219 C 260.238281 217.074219 269.824219 220.335938 276.8125 226.824219 C 286.238281 235.273438 291.113281 249.738281 291.113281 271.023438 C 291.113281 293.136719 285.425781 308.886719 275.835938 317.335938 C 268.363281 324.335938 257.636719 327.914062 242.523438 327.914062 C 235.699219 327.914062 229.039062 327.25 224.8125 326.613281 Z M 246.101562 310.199219 C 247.238281 310.511719 248.699219 310.511719 249.835938 310.511719 C 260.074219 310.511719 269.011719 300.4375 269.011719 270.210938 C 269.011719 247.789062 263.164062 234.125 250.324219 234.125 C 248.863281 234.125 247.398438 234.125 246.101562 234.613281 Z M 304.601562 217.5625 L 352.210938 217.5625 L 352.210938 236.085938 L 325.886719 236.085938 L 325.886719 264.199219 L 350.585938 264.199219 L 350.585938 281.914062 L 325.886719 281.914062 L 325.886719 327.085938 L 304.601562 327.085938 Z M 304.601562 217.5625 "/>
</g>
</svg>
