<?xml version="1.0" encoding="UTF-8"?>
<svg xmlns="http://www.w3.org/2000/svg" xmlns:xlink="http://www.w3.org/1999/xlink" width="500pt" height="500pt" viewBox="0 0 500 500" version="1.1">
<g id="surface19209539">
<rect x="0" y="0" width="500" height="500" style="fill:rgb(3.137255%,7.058824%,16.078431%);fill-opacity:1;stroke:none;"/>
<path style=" stroke:none;fill-rule:nonzero;fill:rgb(59.607843%,80%,99.215686%);fill-opacity:1;" d="M 81.25 468.75 L 81.25 31.25 L 309.914062 31.25 L 418.75 140.085938 L 418.75 468.75 Z M 81.25 468.75 "/>
<path style=" stroke:none;fill-rule:nonzero;fill:rgb(27.843137%,53.333333%,78.039216%);fill-opacity:1;" d="M 307.324219 37.5 L 412.5 142.675781 L 412.5 462.5 L 87.5 462.5 L 87.5 37.5 L 307.324219 37.5 M 312.5 25 L 75 25 L 75 475 L 425 475 L 425 137.5 Z M 312.5 25 "/>
<path style=" stroke:none;fill-rule:nonzero;fill:rgb(87.45098%,94.117647%,99.607843%);fill-opacity:1;" d="M 306.25 143.75 L 306.25 31.25 L 309.914062 31.25 L 418.75 140.085938 L 418.75 143.75 Z M 306.25 143.75 "/>
<path style=" stroke:none;fill-rule:nonzero;fill:rgb(27.843137%,53.333333%,78.039216%);fill-opacity:1;" d="M 312.5 42.675781 L 407.324219 137.5 L 312.5 137.5 L 312.5 42.675781 M 312.5 25 L 300 25 L 300 150 L 425 150 L 425 137.5 Z M 312.5 25 "/>
<path style=" stroke:none;fill-rule:nonzero;fill:rgb(100%,100%,100%);fill-opacity:1;" d="M 145.039062 226.3125 C 151.039062 225.011719 159.175781 224.199219 167.300781 224.199219 C 179.976562 224.199219 190.039062 226 197.039062 232.664062 C 203.539062 238.351562 206.460938 247.449219 206.460938 256.710938 C 206.460938 268.574219 202.886719 277.023438 197.199219 283.039062 C 190.375 290.351562 179.488281 293.601562 170.550781 293.601562 C 169.085938 293.601562 167.789062 293.601562 166.324219 293.4375 L 166.324219 334.226562 L 145.039062 334.226562 Z M 166.324219 276.210938 C 167.460938 276.386719 168.601562 276.386719 169.898438 276.386719 C 180.613281 276.386719 185.324219 268.75 185.324219 258.5 C 185.324219 248.914062 181.425781 241.449219 171.523438 241.449219 C 169.574219 241.449219 167.613281 241.761719 166.324219 242.25 Z M 219.289062 334.226562 L 219.289062 224.6875 L 238.800781 224.6875 L 255.699219 267.601562 C 259.113281 276.050781 264.3125 290.1875 267.414062 299.613281 L 267.738281 299.613281 C 267.074219 288.074219 265.613281 269.074219 265.613281 248.914062 L 265.613281 224.6875 L 284.300781 224.6875 L 284.300781 334.226562 L 264.800781 334.226562 L 248.0625 292.625 C 244.324219 283.363281 239.449219 269.386719 236.851562 259.636719 L 236.539062 259.636719 C 237.1875 270.6875 237.988281 287.574219 237.988281 309.6875 L 237.988281 334.226562 Z M 363.914062 331.300781 C 359.199219 333.25 349.289062 335.210938 341.324219 335.210938 C 328.636719 335.210938 319.0625 331.636719 311.898438 324.324219 C 302.476562 315.210938 297.4375 298.976562 297.761719 280.125 C 298.25 240.300781 320.835938 223.738281 344.398438 223.738281 C 352.6875 223.738281 358.699219 225.363281 362.113281 226.988281 L 358.539062 245.351562 C 355.289062 243.726562 351.226562 242.914062 346.023438 242.914062 C 331.398438 242.914062 319.863281 252.824219 319.863281 281.261719 C 319.863281 307.585938 330.085938 317.175781 340.175781 317.175781 C 342.113281 317.175781 343.574219 317.011719 344.398438 316.6875 L 344.398438 290.199219 L 334.488281 290.199219 L 334.488281 272.8125 L 363.898438 272.8125 L 363.898438 331.300781 Z M 363.914062 331.300781 "/>
</g>
</svg>
