<?xml version="1.0" encoding="UTF-8"?>
<svg xmlns="http://www.w3.org/2000/svg" xmlns:xlink="http://www.w3.org/1999/xlink" width="500pt" height="500pt" viewBox="0 0 500 500" version="1.1">
<g id="surface19209543">
<rect x="0" y="0" width="500" height="500" style="fill:rgb(3.137255%,7.058824%,16.078431%);fill-opacity:1;stroke:none;"/>
<path style=" stroke:none;fill-rule:nonzero;fill:rgb(71.372549%,86.27451%,99.607843%);fill-opacity:1;" d="M 81.25 468.75 L 81.25 31.25 L 309.914062 31.25 L 418.75 140.085938 L 418.75 468.75 Z M 81.25 468.75 "/>
<path style=" stroke:none;fill-rule:nonzero;fill:rgb(27.843137%,53.333333%,78.039216%);fill-opacity:1;" d="M 307.324219 37.5 L 412.5 142.675781 L 412.5 462.5 L 87.5 462.5 L 87.5 37.5 L 307.324219 37.5 M 312.5 25 L 75 25 L 75 475 L 425 475 L 425 137.5 Z M 312.5 25 "/>
<path style=" stroke:none;fill-rule:nonzero;fill:rgb(100%,100%,100%);fill-opacity:1;" d="M 306.25 143.75 L 306.25 31.25 L 309.914062 31.25 L 418.75 140.085938 L 418.75 143.75 Z M 306.25 143.75 "/>
<path style=" stroke:none;fill-rule:nonzero;fill:rgb(27.843137%,53.333333%,78.039216%);fill-opacity:1;" d="M 312.5 42.675781 L 407.324219 137.5 L 312.5 137.5 L 312.5 42.675781 M 312.5 25 L 300 25 L 300 150 L 425 150 L 425 137.5 Z M 185.085938 224.5 C 191.101562 223.199219 199.238281 222.386719 207.351562 222.386719 C 220.039062 222.386719 230.101562 224.175781 237.085938 230.835938 C 243.601562 236.523438 246.523438 245.625 246.523438 254.886719 C 246.523438 266.75 242.949219 275.199219 237.261719 281.210938 C 230.4375 288.523438 219.550781 291.773438 210.601562 291.773438 C 209.148438 291.773438 207.835938 291.773438 206.375 291.613281 L 206.375 332.398438 L 185.085938 332.398438 Z M 206.375 274.386719 C 207.523438 274.550781 208.664062 274.550781 209.949219 274.550781 C 220.675781 274.550781 225.386719 266.914062 225.386719 256.675781 C 225.386719 247.085938 221.476562 239.613281 211.574219 239.613281 C 209.636719 239.613281 207.675781 239.9375 206.375 240.425781 Z M 260.976562 310.625 C 265.363281 313.0625 273 314.851562 279 314.851562 C 288.914062 314.851562 293.949219 309.648438 293.949219 302.5 C 293.949219 294.539062 289.074219 290.636719 279.8125 284.625 C 264.863281 275.523438 259.175781 263.988281 259.175781 254.074219 C 259.175781 236.523438 270.886719 221.898438 293.636719 221.898438 C 300.949219 221.898438 307.773438 223.851562 310.863281 225.800781 L 307.449219 244.164062 C 304.363281 242.210938 299.648438 240.425781 293.648438 240.425781 C 284.539062 240.425781 280.164062 245.949219 280.164062 251.800781 C 280.164062 258.300781 283.414062 261.710938 295.101562 268.863281 C 309.726562 277.636719 314.925781 288.6875 314.925781 300.226562 C 314.925781 320.210938 300.136719 333.375 278.851562 333.375 C 270.074219 333.375 261.625 331.101562 257.886719 328.988281 Z M 260.976562 310.625 "/>
</g>
</svg>
