<?xml version="1.0" encoding="UTF-8"?>
<svg xmlns="http://www.w3.org/2000/svg" xmlns:xlink="http://www.w3.org/1999/xlink" width="500pt" height="500pt" viewBox="0 0 500 500" version="1.1">
<g id="surface19209547">
<rect x="0" y="0" width="500" height="500" style="fill:rgb(3.137255%,7.058824%,16.078431%);fill-opacity:1;stroke:none;"/>
<path style=" stroke:none;fill-rule:nonzero;fill:rgb(59.607843%,80%,99.215686%);fill-opacity:1;" d="M 81.25 468.75 L 81.25 31.25 L 309.914062 31.25 L 418.75 140.085938 L 418.75 468.75 Z M 81.25 468.75 "/>
<path style=" stroke:none;fill-rule:nonzero;fill:rgb(27.843137%,53.333333%,78.039216%);fill-opacity:1;" d="M 307.324219 37.5 L 412.5 142.675781 L 412.5 462.5 L 87.5 462.5 L 87.5 37.5 L 307.324219 37.5 M 312.5 25 L 75 25 L 75 475 L 425 475 L 425 137.5 Z M 312.5 25 "/>
<path style=" stroke:none;fill-rule:nonzero;fill:rgb(87.45098%,94.117647%,99.607843%);fill-opacity:1;" d="M 306.25 143.75 L 306.25 31.25 L 309.914062 31.25 L 418.75 140.085938 L 418.75 143.75 Z M 306.25 143.75 "/>
<path style=" stroke:none;fill-rule:nonzero;fill:rgb(27.843137%,53.333333%,78.039216%);fill-opacity:1;" d="M 312.5 42.675781 L 407.324219 137.5 L 312.5 137.5 L 312.5 42.675781 M 312.5 25 L 300 25 L 300 150 L 425 150 L 425 137.5 Z M 312.5 25 "/>
<path style=" stroke:none;fill-rule:nonzero;fill:rgb(100%,100%,100%);fill-opacity:1;" d="M 143.074219 226.761719 C 149.085938 225.460938 157.210938 224.648438 165.335938 224.648438 C 178.011719 224.648438 188.085938 226.449219 195.074219 233.113281 C 201.574219 238.800781 204.5 247.898438 204.5 257.164062 C 204.5 269.023438 200.925781 277.476562 195.238281 283.488281 C 188.414062 290.800781 177.523438 294.050781 168.585938 294.050781 C 167.125 294.050781 165.824219 294.050781 164.363281 293.886719 L 164.363281 334.675781 L 143.074219 334.675781 Z M 164.363281 276.648438 C 165.5 276.824219 166.636719 276.824219 167.9375 276.824219 C 178.664062 276.824219 183.375 269.1875 183.375 258.9375 C 183.375 249.351562 179.476562 241.886719 169.5625 241.886719 C 167.613281 241.886719 165.664062 242.199219 164.363281 242.6875 Z M 219.789062 312.886719 C 224.175781 315.324219 231.8125 317.113281 237.824219 317.113281 C 247.738281 317.113281 252.773438 311.914062 252.773438 304.761719 C 252.773438 296.800781 247.898438 292.914062 238.636719 286.886719 C 223.6875 277.789062 218 266.25 218 256.335938 C 218 238.800781 229.699219 224.175781 252.449219 224.175781 C 259.761719 224.175781 266.585938 226.113281 269.675781 228.074219 L 266.261719 246.4375 C 263.175781 244.5 258.460938 242.699219 252.449219 242.699219 C 243.351562 242.699219 238.960938 248.226562 238.960938 254.074219 C 238.960938 260.585938 242.210938 263.988281 253.914062 271.136719 C 268.539062 279.914062 273.738281 290.960938 273.738281 302.5 C 273.738281 322.5 258.949219 335.648438 237.664062 335.648438 C 228.886719 335.648438 220.4375 333.375 216.699219 331.25 Z M 294.363281 226.761719 C 299.726562 225.460938 307.523438 224.648438 315.976562 224.648438 C 329.789062 224.648438 339.375 227.914062 346.363281 234.398438 C 355.789062 242.851562 360.664062 257.3125 360.664062 278.601562 C 360.664062 300.710938 354.976562 316.460938 345.386719 324.914062 C 337.914062 331.914062 327.1875 335.488281 312.074219 335.488281 C 305.25 335.488281 298.585938 334.824219 294.363281 334.1875 Z M 315.648438 317.773438 C 316.789062 318.085938 318.25 318.085938 319.386719 318.085938 C 329.625 318.085938 338.5625 308.011719 338.5625 277.789062 C 338.5625 255.363281 332.710938 241.699219 319.875 241.699219 C 318.414062 241.699219 316.949219 241.699219 315.648438 242.1875 Z M 315.648438 317.773438 "/>
</g>
</svg>
