<?xml version="1.0" encoding="UTF-8"?>
<svg xmlns="http://www.w3.org/2000/svg" xmlns:xlink="http://www.w3.org/1999/xlink" width="500pt" height="500pt" viewBox="0 0 500 500" version="1.1">
<g id="surface19209491">
<rect x="0" y="0" width="500" height="500" style="fill:rgb(3.137255%,7.058824%,16.078431%);fill-opacity:1;stroke:none;"/>
<path style=" stroke:none;fill-rule:nonzero;fill:rgb(71.372549%,86.27451%,99.607843%);fill-opacity:1;" d="M 81.25 468.75 L 81.25 31.25 L 309.914062 31.25 L 418.75 140.085938 L 418.75 468.75 Z M 81.25 468.75 "/>
<path style=" stroke:none;fill-rule:nonzero;fill:rgb(27.843137%,53.333333%,78.039216%);fill-opacity:1;" d="M 307.324219 37.5 L 412.5 142.675781 L 412.5 462.5 L 87.5 462.5 L 87.5 37.5 L 307.324219 37.5 M 312.5 25 L 75 25 L 75 475 L 425 475 L 425 137.5 Z M 312.5 25 "/>
<path style=" stroke:none;fill-rule:nonzero;fill:rgb(100%,100%,100%);fill-opacity:1;" d="M 306.25 143.75 L 306.25 31.25 L 309.914062 31.25 L 418.75 140.085938 L 418.75 143.75 Z M 306.25 143.75 "/>
<path style=" stroke:none;fill-rule:nonzero;fill:rgb(27.843137%,53.333333%,78.039216%);fill-opacity:1;" d="M 312.5 42.675781 L 407.324219 137.5 L 312.5 137.5 L 312.5 42.675781 M 312.5 25 L 300 25 L 300 150 L 425 150 L 425 137.5 Z M 164.289062 241.898438 L 144.949219 241.898438 L 144.949219 222.238281 L 205.085938 222.238281 L 205.085938 241.898438 L 185.574219 241.898438 L 185.574219 331.761719 L 164.289062 331.761719 Z M 229.773438 306.738281 L 224.886719 331.761719 L 204.261719 331.761719 L 227.976562 222.226562 L 253.488281 222.226562 L 274.773438 331.761719 L 254.148438 331.761719 L 249.4375 306.738281 Z M 247.488281 290.164062 L 243.914062 267.25 C 242.773438 260.585938 241.3125 249.539062 240.335938 242.386719 L 239.851562 242.386719 C 238.710938 249.699219 237.085938 260.914062 235.949219 267.25 L 231.886719 290.164062 Z M 288.425781 223.851562 C 295.085938 222.550781 303.539062 221.738281 311.664062 221.738281 C 323.375 221.738281 333.925781 223.539062 340.914062 229.863281 C 347.574219 235.875 349.6875 243.1875 349.6875 252.613281 C 349.6875 264.3125 343.835938 274.875 332.789062 279.914062 L 332.789062 280.238281 C 340.261719 283.324219 343.988281 290.148438 346.101562 302.011719 C 348.210938 314.199219 351.136719 327.6875 353.101562 331.75 L 330.835938 331.75 C 329.375 328.664062 326.925781 317.613281 325.3125 305.425781 C 323.375 291.9375 319.949219 288.039062 312.976562 288.039062 L 309.710938 288.039062 L 309.710938 331.75 L 288.425781 331.75 Z M 309.710938 271.625 L 313.625 271.625 C 322.886719 271.625 328.085938 264.148438 328.085938 254.574219 C 328.085938 245.136719 324.335938 238.648438 314.914062 238.3125 C 312.976562 238.3125 310.863281 238.488281 309.710938 238.976562 Z M 309.710938 271.625 "/>
</g>
</svg>
