<?xml version="1.0" encoding="UTF-8"?>
<svg xmlns="http://www.w3.org/2000/svg" xmlns:xlink="http://www.w3.org/1999/xlink" width="500pt" height="500pt" viewBox="0 0 500 500" version="1.1">
<g id="surface19209519">
<rect x="0" y="0" width="500" height="500" style="fill:rgb(3.137255%,7.058824%,16.078431%);fill-opacity:1;stroke:none;"/>
<path style=" stroke:none;fill-rule:nonzero;fill:rgb(71.372549%,86.27451%,99.607843%);fill-opacity:1;" d="M 81.25 468.75 L 81.25 31.25 L 309.914062 31.25 L 418.75 140.085938 L 418.75 468.75 Z M 81.25 468.75 "/>
<path style=" stroke:none;fill-rule:nonzero;fill:rgb(27.843137%,53.333333%,78.039216%);fill-opacity:1;" d="M 307.324219 37.5 L 412.5 142.675781 L 412.5 462.5 L 87.5 462.5 L 87.5 37.5 L 307.324219 37.5 M 312.5 25 L 75 25 L 75 475 L 425 475 L 425 137.5 Z M 312.5 25 "/>
<path style=" stroke:none;fill-rule:nonzero;fill:rgb(100%,100%,100%);fill-opacity:1;" d="M 306.25 143.75 L 306.25 31.25 L 309.914062 31.25 L 418.75 140.085938 L 418.75 143.75 Z M 306.25 143.75 "/>
<path style=" stroke:none;fill-rule:nonzero;fill:rgb(27.843137%,53.333333%,78.039216%);fill-opacity:1;" d="M 312.5 42.675781 L 407.324219 137.5 L 312.5 137.5 L 312.5 42.675781 M 312.5 25 L 300 25 L 300 150 L 425 150 L 425 137.5 Z M 166.636719 237 L 147.300781 237 L 147.300781 217.335938 L 207.4375 217.335938 L 207.4375 237 L 187.925781 237 L 187.925781 326.863281 L 166.636719 326.863281 Z M 241.886719 237 L 222.550781 237 L 222.550781 217.335938 L 282.675781 217.335938 L 282.675781 237 L 263.175781 237 L 263.175781 326.863281 L 241.886719 326.863281 Z M 298.738281 217.335938 L 346.363281 217.335938 L 346.363281 235.863281 L 320.039062 235.863281 L 320.039062 263.976562 L 344.75 263.976562 L 344.75 281.6875 L 320.039062 281.6875 L 320.039062 326.863281 L 298.75 326.863281 L 298.75 217.335938 Z M 298.738281 217.335938 "/>
</g>
</svg>
