<?xml version="1.0" encoding="UTF-8"?>
<svg xmlns="http://www.w3.org/2000/svg" xmlns:xlink="http://www.w3.org/1999/xlink" width="500pt" height="500pt" viewBox="0 0 500 500" version="1.1">
<g id="surface19209576">
<rect x="0" y="0" width="500" height="500" style="fill:rgb(3.137255%,7.058824%,16.078431%);fill-opacity:1;stroke:none;"/>
<path style=" stroke:none;fill-rule:nonzero;fill:rgb(71.372549%,86.27451%,99.607843%);fill-opacity:1;" d="M 81.25 468.75 L 81.25 31.25 L 309.914062 31.25 L 418.75 140.085938 L 418.75 468.75 Z M 81.25 468.75 "/>
<path style=" stroke:none;fill-rule:nonzero;fill:rgb(27.843137%,53.333333%,78.039216%);fill-opacity:1;" d="M 307.324219 37.5 L 412.5 142.675781 L 412.5 462.5 L 87.5 462.5 L 87.5 37.5 L 307.324219 37.5 M 312.5 25 L 75 25 L 75 475 L 425 475 L 425 137.5 Z M 312.5 25 "/>
<path style=" stroke:none;fill-rule:nonzero;fill:rgb(100%,100%,100%);fill-opacity:1;" d="M 306.25 143.75 L 306.25 31.25 L 309.914062 31.25 L 418.75 140.085938 L 418.75 143.75 Z M 306.25 143.75 "/>
<path style=" stroke:none;fill-rule:nonzero;fill:rgb(27.843137%,53.333333%,78.039216%);fill-opacity:1;" d="M 312.5 42.675781 L 407.324219 137.5 L 312.5 137.5 L 312.5 42.675781 M 312.5 25 L 300 25 L 300 150 L 425 150 L 425 137.5 Z M 168.3125 242.050781 L 148.976562 242.050781 L 148.976562 222.386719 L 209.113281 222.386719 L 209.113281 242.050781 L 189.613281 242.050781 L 189.613281 331.914062 L 168.324219 331.914062 L 168.324219 242.050781 Z M 260.613281 331.925781 L 253.789062 311.773438 C 251.675781 305.4375 249.726562 299.261719 247.9375 292.273438 L 247.449219 292.273438 C 245.664062 299.261719 244.039062 305.925781 242.414062 312.101562 L 236.5625 331.925781 L 215.4375 331.925781 L 235.914062 275.863281 L 216.25 222.386719 L 238.351562 222.386719 L 244.851562 242.699219 C 246.476562 248.386719 248.101562 254.074219 249.726562 260.25 L 250.050781 260.25 C 251.835938 253.585938 253.300781 248.386719 254.761719 242.375 L 260.289062 222.375 L 281.574219 222.375 L 261.101562 276.8125 L 282.710938 331.898438 L 260.613281 331.898438 Z M 307.738281 242.050781 L 288.398438 242.050781 L 288.398438 222.386719 L 348.523438 222.386719 L 348.523438 242.050781 L 329.023438 242.050781 L 329.023438 331.914062 L 307.738281 331.914062 Z M 307.738281 242.050781 "/>
</g>
</svg>
