<?xml version="1.0" encoding="UTF-8"?>
<svg xmlns="http://www.w3.org/2000/svg" xmlns:xlink="http://www.w3.org/1999/xlink" width="500pt" height="500pt" viewBox="0 0 500 500" version="1.1">
<g id="surface19209507">
<rect x="0" y="0" width="500" height="500" style="fill:rgb(3.137255%,7.058824%,16.078431%);fill-opacity:1;stroke:none;"/>
<path style=" stroke:none;fill-rule:nonzero;fill:rgb(87.45098%,94.117647%,99.607843%);fill-opacity:1;" d="M 81.25 468.75 L 81.25 31.25 L 309.914062 31.25 L 418.75 140.085938 L 418.75 468.75 Z M 81.25 468.75 "/>
<path style=" stroke:none;fill-rule:nonzero;fill:rgb(27.843137%,53.333333%,78.039216%);fill-opacity:1;" d="M 307.324219 37.5 L 412.5 142.675781 L 412.5 462.5 L 87.5 462.5 L 87.5 37.5 L 307.324219 37.5 M 312.5 25 L 75 25 L 75 475 L 425 475 L 425 137.5 Z M 312.5 25 "/>
<path style=" stroke:none;fill-rule:nonzero;fill:rgb(100%,100%,100%);fill-opacity:1;" d="M 306.25 143.75 L 306.25 31.25 L 309.914062 31.25 L 418.75 140.085938 L 418.75 143.75 Z M 306.25 143.75 "/>
<path style=" stroke:none;fill-rule:nonzero;fill:rgb(27.843137%,53.333333%,78.039216%);fill-opacity:1;" d="M 312.5 42.675781 L 407.324219 137.5 L 312.5 137.5 L 312.5 42.675781 M 312.5 25 L 300 25 L 300 150 L 425 150 L 425 137.5 Z M 124.226562 331.925781 L 105.539062 222.386719 L 127.636719 222.386719 L 133.011719 266.101562 C 134.460938 278.613281 135.4375 291.136719 136.75 304.449219 L 137.238281 304.449219 C 138.699219 290.960938 141.136719 279.101562 143.414062 265.9375 L 151.210938 222.386719 L 168.4375 222.386719 L 175.75 265.625 C 177.699219 277.960938 179.648438 290.164062 180.949219 304.449219 L 181.261719 304.449219 C 182.726562 290.148438 184.039062 278.449219 185.5 265.773438 L 190.863281 222.375 L 211.664062 222.375 L 192.324219 331.914062 L 170.375 331.914062 L 163.875 296 C 162.085938 285.925781 160.460938 273.398438 159 260.085938 L 158.675781 260.085938 C 156.726562 273.25 154.9375 285.4375 152.664062 296.164062 L 145.351562 331.914062 L 124.226562 331.914062 Z M 291.773438 293.5625 C 291.113281 283.164062 290.476562 269.023438 290.625 257.335938 L 290.3125 257.335938 C 288.363281 269.039062 285.425781 282.523438 283.3125 290.960938 L 273.726562 330.136719 L 258.773438 330.136719 L 249.675781 291.625 C 247.5625 282.851562 244.636719 269.1875 242.851562 257.335938 L 242.523438 257.335938 C 242.199219 269.1875 241.386719 283.011719 240.898438 293.898438 L 238.949219 331.925781 L 220.75 331.925781 L 228.550781 222.386719 L 251.136719 222.386719 L 259.914062 262.050781 C 262.835938 275.851562 265.601562 288.050781 267.550781 300.386719 L 268.039062 300.386719 C 269.664062 288.199219 272.101562 275.851562 274.863281 262.050781 L 283.636719 222.386719 L 306.0625 222.386719 L 312.726562 331.925781 L 293.710938 331.925781 Z M 347.335938 306.898438 L 342.449219 331.925781 L 321.824219 331.925781 L 345.539062 222.386719 L 371.050781 222.386719 L 392.335938 331.925781 L 371.710938 331.925781 L 367 306.898438 Z M 365.050781 290.324219 L 361.476562 267.414062 C 360.335938 260.75 358.875 249.699219 357.898438 242.550781 L 357.414062 242.550781 C 356.273438 249.863281 354.648438 261.074219 353.511719 267.414062 L 349.449219 290.324219 Z M 365.050781 290.324219 "/>
</g>
</svg>
