<?xml version="1.0" encoding="UTF-8"?>
<svg xmlns="http://www.w3.org/2000/svg" xmlns:xlink="http://www.w3.org/1999/xlink" width="500pt" height="500pt" viewBox="0 0 500 500" version="1.1">
<g id="surface19209495">
<rect x="0" y="0" width="500" height="500" style="fill:rgb(3.137255%,7.058824%,16.078431%);fill-opacity:1;stroke:none;"/>
<path style=" stroke:none;fill-rule:nonzero;fill:rgb(87.45098%,94.117647%,99.607843%);fill-opacity:1;" d="M 81.25 468.75 L 81.25 31.25 L 309.914062 31.25 L 418.75 140.085938 L 418.75 468.75 Z M 81.25 468.75 "/>
<path style=" stroke:none;fill-rule:nonzero;fill:rgb(27.843137%,53.333333%,78.039216%);fill-opacity:1;" d="M 307.324219 37.5 L 412.5 142.675781 L 412.5 462.5 L 87.5 462.5 L 87.5 37.5 L 307.324219 37.5 M 312.5 25 L 75 25 L 75 475 L 425 475 L 425 137.5 Z M 312.5 25 "/>
<path style=" stroke:none;fill-rule:nonzero;fill:rgb(100%,100%,100%);fill-opacity:1;" d="M 306.25 143.75 L 306.25 31.25 L 309.914062 31.25 L 418.75 140.085938 L 418.75 143.75 Z M 306.25 143.75 "/>
<path style=" stroke:none;fill-rule:nonzero;fill:rgb(27.843137%,53.333333%,78.039216%);fill-opacity:1;" d="M 312.5 42.675781 L 407.324219 137.5 L 312.5 137.5 L 312.5 42.675781 M 312.5 25 L 300 25 L 300 150 L 425 150 L 425 137.5 Z M 312.5 25 "/>
<path style=" stroke:none;fill-rule:nonzero;fill:rgb(27.843137%,53.333333%,78.039216%);fill-opacity:1;" d="M 220.460938 334.601562 L 155.25 334.601562 L 155.25 320.375 L 196.738281 245.101562 L 158.238281 245.101562 L 158.238281 225 L 220.351562 225 L 220.351562 238.824219 L 179.75 314.574219 L 220.460938 314.574219 Z M 220.460938 334.601562 "/>
<path style=" stroke:none;fill-rule:nonzero;fill:rgb(27.843137%,53.333333%,78.039216%);fill-opacity:1;" d="M 256.386719 225 L 256.386719 334.601562 L 238.050781 334.601562 L 238.050781 225 Z M 256.386719 225 "/>
<path style=" stroke:none;fill-rule:nonzero;fill:rgb(27.843137%,53.333333%,78.039216%);fill-opacity:1;" d="M 298.824219 296.835938 L 298.824219 334.601562 L 280.585938 334.601562 L 280.585938 225 L 309.148438 225 C 329.550781 225 339.75 236.636719 339.75 259.925781 C 339.75 270.9375 336.824219 279.835938 330.976562 286.636719 C 325.113281 293.4375 317.300781 296.835938 307.511719 296.835938 Z M 298.824219 243.949219 L 298.824219 278.113281 L 305.988281 278.113281 C 315.699219 278.113281 320.550781 272.351562 320.550781 260.835938 C 320.550781 249.585938 315.699219 243.9375 305.988281 243.9375 L 298.824219 243.9375 Z M 298.824219 243.949219 "/>
</g>
</svg>
