<?xml version="1.0" encoding="UTF-8"?>
<svg xmlns="http://www.w3.org/2000/svg" xmlns:xlink="http://www.w3.org/1999/xlink" width="500pt" height="500pt" viewBox="0 0 500 500" version="1.1">
<g id="surface19209580">
<rect x="0" y="0" width="500" height="500" style="fill:rgb(3.137255%,7.058824%,16.078431%);fill-opacity:1;stroke:none;"/>
<path style=" stroke:none;fill-rule:nonzero;fill:rgb(59.607843%,80%,99.215686%);fill-opacity:1;" d="M 81.25 468.75 L 81.25 31.25 L 309.914062 31.25 L 418.75 140.085938 L 418.75 468.75 Z M 81.25 468.75 "/>
<path style=" stroke:none;fill-rule:nonzero;fill:rgb(27.843137%,53.333333%,78.039216%);fill-opacity:1;" d="M 307.324219 37.5 L 412.5 142.675781 L 412.5 462.5 L 87.5 462.5 L 87.5 37.5 L 307.324219 37.5 M 312.5 25 L 75 25 L 75 475 L 425 475 L 425 137.5 Z M 312.5 25 "/>
<path style=" stroke:none;fill-rule:nonzero;fill:rgb(87.45098%,94.117647%,99.607843%);fill-opacity:1;" d="M 306.25 143.75 L 306.25 31.25 L 309.914062 31.25 L 418.75 140.085938 L 418.75 143.75 Z M 306.25 143.75 "/>
<path style=" stroke:none;fill-rule:nonzero;fill:rgb(27.843137%,53.333333%,78.039216%);fill-opacity:1;" d="M 312.5 42.675781 L 407.324219 137.5 L 312.5 137.5 L 312.5 42.675781 M 312.5 25 L 300 25 L 300 150 L 425 150 L 425 137.5 Z M 312.5 25 "/>
<path style=" stroke:none;fill-rule:nonzero;fill:rgb(100%,100%,100%);fill-opacity:1;" d="M 178.199219 306.710938 L 173.324219 331.738281 L 152.6875 331.738281 L 176.414062 222.210938 L 201.925781 222.210938 L 223.210938 331.738281 L 202.574219 331.738281 L 197.863281 306.710938 Z M 195.914062 290.125 L 192.335938 267.210938 C 191.199219 260.550781 189.738281 249.5 188.761719 242.351562 L 188.273438 242.351562 C 187.136719 249.664062 185.511719 260.875 184.375 267.210938 L 180.3125 290.125 Z M 251.175781 331.738281 L 226.800781 222.210938 L 250.363281 222.210938 L 258.164062 269.5 C 259.949219 281.363281 262.226562 294.6875 263.6875 307.523438 L 264.011719 307.523438 C 265.476562 294.523438 267.261719 281.363281 269.210938 269.011719 L 276.6875 222.210938 L 300.085938 222.210938 L 275.0625 331.738281 Z M 334.6875 222.199219 L 334.6875 331.726562 L 313.398438 331.726562 L 313.398438 222.199219 Z M 334.6875 222.199219 "/>
</g>
</svg>
