<?xml version="1.0" encoding="UTF-8"?>
<svg xmlns="http://www.w3.org/2000/svg" xmlns:xlink="http://www.w3.org/1999/xlink" width="500pt" height="500pt" viewBox="0 0 500 500" version="1.1">
<g id="surface19209511">
<rect x="0" y="0" width="500" height="500" style="fill:rgb(3.137255%,7.058824%,16.078431%);fill-opacity:1;stroke:none;"/>
<path style=" stroke:none;fill-rule:nonzero;fill:rgb(59.607843%,80%,99.215686%);fill-opacity:1;" d="M 81.25 468.75 L 81.25 31.25 L 309.914062 31.25 L 418.75 140.085938 L 418.75 468.75 Z M 81.25 468.75 "/>
<path style=" stroke:none;fill-rule:nonzero;fill:rgb(27.843137%,53.333333%,78.039216%);fill-opacity:1;" d="M 307.324219 37.5 L 412.5 142.675781 L 412.5 462.5 L 87.5 462.5 L 87.5 37.5 L 307.324219 37.5 M 312.5 25 L 75 25 L 75 475 L 425 475 L 425 137.5 Z M 312.5 25 "/>
<path style=" stroke:none;fill-rule:nonzero;fill:rgb(87.45098%,94.117647%,99.607843%);fill-opacity:1;" d="M 306.25 143.75 L 306.25 31.25 L 309.914062 31.25 L 418.75 140.085938 L 418.75 143.75 Z M 306.25 143.75 "/>
<path style=" stroke:none;fill-rule:nonzero;fill:rgb(27.843137%,53.333333%,78.039216%);fill-opacity:1;" d="M 312.5 42.675781 L 407.324219 137.5 L 312.5 137.5 L 312.5 42.675781 M 312.5 25 L 300 25 L 300 150 L 425 150 L 425 137.5 Z M 312.5 25 "/>
<path style=" stroke:none;fill-rule:nonzero;fill:rgb(100%,100%,100%);fill-opacity:1;" d="M 123.324219 224.5 C 128.6875 223.199219 136.488281 222.386719 144.9375 222.386719 C 158.75 222.386719 168.335938 225.636719 175.324219 232.136719 C 184.75 240.585938 189.625 255.050781 189.625 276.335938 C 189.625 298.4375 183.9375 314.199219 174.351562 322.648438 C 166.875 329.636719 156.148438 333.210938 141.039062 333.210938 C 134.210938 333.210938 127.550781 332.5625 123.324219 331.914062 Z M 144.613281 315.5 C 145.75 315.824219 147.210938 315.824219 148.351562 315.824219 C 158.585938 315.824219 167.523438 305.75 167.523438 275.523438 C 167.523438 253.101562 161.675781 239.449219 148.835938 239.449219 C 147.375 239.449219 145.914062 239.449219 144.613281 239.9375 Z M 274.136719 294.050781 C 273.488281 283.648438 272.835938 269.511719 273 257.8125 L 272.675781 257.8125 C 270.726562 269.511719 267.800781 283 265.6875 291.449219 L 256.101562 330.613281 L 241.148438 330.613281 L 232.050781 292.101562 C 229.9375 283.324219 227.011719 269.675781 225.226562 257.8125 L 224.898438 257.8125 C 224.574219 269.675781 223.761719 283.488281 223.273438 294.375 L 221.324219 332.398438 L 203.125 332.398438 L 210.925781 222.875 L 233.511719 222.875 L 242.289062 262.523438 C 245.210938 276.335938 247.976562 288.523438 249.925781 300.875 L 250.414062 300.875 C 252.039062 288.6875 254.476562 276.335938 257.238281 262.523438 L 266.011719 222.875 L 288.4375 222.875 L 295.101562 332.398438 L 276.085938 332.398438 Z M 375.523438 329.476562 C 370.8125 331.425781 360.898438 333.375 352.9375 333.375 C 340.261719 333.375 330.675781 329.800781 323.523438 322.488281 C 314.101562 313.386719 309.0625 297.136719 309.386719 278.289062 C 309.875 238.476562 332.460938 221.898438 356.023438 221.898438 C 364.3125 221.898438 370.324219 223.523438 373.738281 225.148438 L 370.164062 243.511719 C 366.914062 241.886719 362.851562 241.074219 357.648438 241.074219 C 343.023438 241.074219 331.488281 250.988281 331.488281 279.425781 C 331.488281 305.75 341.726562 315.335938 351.800781 315.335938 C 353.75 315.335938 355.210938 315.175781 356.023438 314.851562 L 356.023438 288.363281 L 346.113281 288.363281 L 346.113281 270.976562 L 375.523438 270.976562 Z M 375.523438 329.476562 "/>
</g>
</svg>
