<?xml version="1.0" encoding="UTF-8"?>
<svg xmlns="http://www.w3.org/2000/svg" xmlns:xlink="http://www.w3.org/1999/xlink" width="500pt" height="500pt" viewBox="0 0 500 500" version="1.1">
<g id="surface19209571">
<rect x="0" y="0" width="500" height="500" style="fill:rgb(3.137255%,7.058824%,16.078431%);fill-opacity:1;stroke:none;"/>
<path style=" stroke:none;fill-rule:nonzero;fill:rgb(71.372549%,86.27451%,99.607843%);fill-opacity:1;" d="M 81.25 468.75 L 81.25 31.25 L 309.914062 31.25 L 418.75 140.085938 L 418.75 468.75 Z M 81.25 468.75 "/>
<path style=" stroke:none;fill-rule:nonzero;fill:rgb(27.843137%,53.333333%,78.039216%);fill-opacity:1;" d="M 307.324219 37.5 L 412.5 142.675781 L 412.5 462.5 L 87.5 462.5 L 87.5 37.5 L 307.324219 37.5 M 312.5 25 L 75 25 L 75 475 L 425 475 L 425 137.5 Z M 312.5 25 "/>
<path style=" stroke:none;fill-rule:nonzero;fill:rgb(100%,100%,100%);fill-opacity:1;" d="M 306.25 143.75 L 306.25 31.25 L 309.914062 31.25 L 418.75 140.085938 L 418.75 143.75 Z M 306.25 143.75 "/>
<path style=" stroke:none;fill-rule:nonzero;fill:rgb(27.843137%,53.333333%,78.039216%);fill-opacity:1;" d="M 312.5 42.675781 L 407.324219 137.5 L 312.5 137.5 L 312.5 42.675781 M 312.5 25 L 300 25 L 300 150 L 425 150 L 425 137.5 Z M 142.261719 224.5 C 147.625 223.199219 155.425781 222.386719 163.875 222.386719 C 177.6875 222.386719 187.273438 225.636719 194.273438 232.136719 C 203.699219 240.585938 208.574219 255.050781 208.574219 276.335938 C 208.574219 298.4375 202.886719 314.199219 193.300781 322.648438 C 185.824219 329.636719 175.101562 333.210938 159.988281 333.210938 C 153.164062 333.210938 146.5 332.5625 142.273438 331.914062 L 142.273438 224.5 Z M 163.550781 315.5 C 164.6875 315.824219 166.148438 315.824219 167.289062 315.824219 C 177.523438 315.824219 186.460938 305.75 186.460938 275.523438 C 186.460938 253.101562 180.613281 239.449219 167.773438 239.449219 C 166.3125 239.449219 164.851562 239.449219 163.550781 239.9375 Z M 290.789062 275.6875 C 290.789062 316.960938 276.164062 333.699219 255.363281 333.699219 C 230.5 333.699219 220.75 307.375 220.75 277.3125 C 220.75 247.414062 232.601562 221.574219 256.976562 221.574219 C 283.3125 221.574219 290.789062 250.664062 290.789062 275.6875 Z M 242.851562 277.636719 C 242.851562 302.5 247.5625 315.175781 256.175781 315.175781 C 265.273438 315.175781 268.6875 298.925781 268.6875 276.664062 C 268.6875 257.488281 265.761719 240.101562 256 240.101562 C 247.5625 240.101562 242.851562 254.074219 242.851562 277.636719 Z M 360.8125 330.773438 C 357.726562 332.238281 351.710938 333.375 344.398438 333.375 C 316.289062 333.375 302.960938 310.460938 302.960938 279.261719 C 302.960938 237.988281 325.875 221.898438 347.164062 221.898438 C 354.636719 221.898438 359.835938 223.363281 361.949219 224.824219 L 358.386719 242.699219 C 355.949219 241.5625 353.1875 240.585938 348.476562 240.585938 C 336.4375 240.585938 325.550781 250.988281 325.550781 278.125 C 325.550781 304.289062 335.476562 314.523438 348.476562 314.523438 C 352.039062 314.523438 356.101562 313.710938 358.699219 312.898438 Z M 360.8125 330.773438 "/>
</g>
</svg>
