<?xml version="1.0" encoding="UTF-8"?>
<svg xmlns="http://www.w3.org/2000/svg" xmlns:xlink="http://www.w3.org/1999/xlink" width="500pt" height="500pt" viewBox="0 0 500 500" version="1.1">
<g id="surface19209597">
<rect x="0" y="0" width="500" height="500" style="fill:rgb(3.137255%,7.058824%,16.078431%);fill-opacity:1;stroke:none;"/>
<path style=" stroke:none;fill-rule:nonzero;fill:rgb(100%,100%,100%);fill-opacity:1;" d="M 81.25 468.75 L 81.25 31.25 L 309.914062 31.25 L 418.75 140.085938 L 418.75 456.449219 C 418.75 463.238281 413.238281 468.75 406.449219 468.75 Z M 81.25 468.75 "/>
<path style=" stroke:none;fill-rule:nonzero;fill:rgb(27.843137%,53.333333%,78.039216%);fill-opacity:1;" d="M 307.324219 37.5 L 412.5 142.675781 L 412.5 456.4375 C 412.5 459.789062 409.789062 462.5 406.449219 462.5 L 87.5 462.5 L 87.5 37.5 L 307.324219 37.5 M 312.5 25 L 75 25 L 75 475 L 406.449219 475 C 416.6875 475 425 466.6875 425 456.449219 L 425 137.5 Z M 312.5 25 "/>
<path style=" stroke:none;fill-rule:nonzero;fill:rgb(87.45098%,94.117647%,99.607843%);fill-opacity:1;" d="M 306.25 143.75 L 306.25 31.25 L 309.914062 31.25 L 418.75 140.085938 L 418.75 143.75 Z M 306.25 143.75 "/>
<path style=" stroke:none;fill-rule:nonzero;fill:rgb(27.843137%,53.333333%,78.039216%);fill-opacity:1;" d="M 312.5 42.675781 L 407.324219 137.5 L 312.5 137.5 L 312.5 42.675781 M 312.5 25 L 300 25 L 300 150 L 425 150 L 425 137.5 Z M 312.5 25 "/>
<path style=" stroke:none;fill-rule:nonzero;fill:rgb(100%,100%,100%);fill-opacity:1;" d="M 400 250.398438 L 400 325 L 425 325 L 425 262.5 Z M 275 450 L 277.1875 475 L 337.5 475 L 337.5 450 Z M 275 450 "/>
<path style=" stroke:none;fill-rule:nonzero;fill:rgb(59.607843%,80%,99.215686%);fill-opacity:1;" d="M 363.0625 466.476562 L 327.710938 471.476562 L 321.539062 436.3125 L 290 419.574219 L 305.6875 387.5 L 290 355.425781 L 321.539062 338.6875 L 327.710938 303.523438 L 363.0625 308.523438 L 388.726562 283.699219 L 414.386719 308.523438 L 449.738281 303.523438 L 455.914062 338.6875 L 487.449219 355.425781 L 471.761719 387.5 L 487.449219 419.574219 L 455.914062 436.3125 L 449.738281 471.476562 L 414.386719 466.476562 L 388.726562 491.300781 Z M 363.0625 466.476562 "/>
<path style=" stroke:none;fill-rule:nonzero;fill:rgb(27.843137%,53.333333%,78.039216%);fill-opacity:1;" d="M 388.726562 292.386719 L 407.851562 310.886719 L 412.238281 315.136719 L 418.289062 314.289062 L 444.625 310.5625 L 449.226562 336.761719 L 450.273438 342.773438 L 455.675781 345.636719 L 479.175781 358.101562 L 467.488281 382 L 464.8125 387.5 L 467.5 392.988281 L 479.1875 416.886719 L 455.6875 429.351562 L 450.289062 432.210938 L 449.238281 438.226562 L 444.636719 464.425781 L 418.300781 460.699219 L 412.25 459.851562 L 407.863281 464.101562 L 388.738281 482.601562 L 369.613281 464.101562 L 365.226562 459.851562 L 359.175781 460.699219 L 332.835938 464.425781 L 328.238281 438.226562 L 327.1875 432.210938 L 321.789062 429.351562 L 298.289062 416.886719 L 309.976562 392.988281 L 312.636719 387.5 L 309.949219 382.011719 L 298.261719 358.113281 L 321.761719 345.648438 L 327.164062 342.789062 L 328.210938 336.773438 L 332.8125 310.574219 L 359.148438 314.300781 L 365.199219 315.148438 L 369.585938 310.898438 L 388.726562 292.386719 M 388.726562 275 L 360.914062 301.898438 L 322.601562 296.476562 L 315.914062 334.585938 L 281.726562 352.726562 L 298.726562 387.5 L 281.726562 422.261719 L 315.914062 440.398438 L 322.601562 478.511719 L 360.914062 473.085938 L 388.726562 500 L 416.539062 473.101562 L 454.851562 478.523438 L 461.539062 440.414062 L 495.726562 422.273438 L 478.726562 387.5 L 495.726562 352.738281 L 461.539062 334.601562 L 454.851562 296.488281 L 416.539062 301.914062 Z M 418.75 225 C 422.1875 225 425 227.8125 425 231.25 L 425 268.75 C 425 272.1875 422.1875 275 418.75 275 C 415.3125 275 412.5 272.1875 412.5 268.75 L 412.5 231.25 C 412.5 227.8125 415.3125 225 418.75 225 Z M 218.75 462.5 L 281.25 462.5 C 284.6875 462.5 287.5 465.3125 287.5 468.75 C 287.5 472.1875 284.6875 475 281.25 475 L 218.75 475 C 215.3125 475 212.5 472.1875 212.5 468.75 C 212.5 465.3125 215.3125 462.5 218.75 462.5 Z M 218.75 462.5 "/>
</g>
</svg>
