<?xml version="1.0" encoding="UTF-8"?>
<svg xmlns="http://www.w3.org/2000/svg" xmlns:xlink="http://www.w3.org/1999/xlink" width="500pt" height="500pt" viewBox="0 0 500 500" version="1.1">
<g id="surface19214325">
<rect x="0" y="0" width="500" height="500" style="fill:rgb(3.137255%,7.058824%,16.078431%);fill-opacity:1;stroke:none;"/>
<path style=" stroke:none;fill-rule:nonzero;fill:rgb(87.45098%,94.117647%,99.607843%);fill-opacity:1;" d="M 81.25 468.75 L 81.25 31.25 L 309.914062 31.25 L 418.75 140.085938 L 418.75 468.75 Z M 81.25 468.75 "/>
<path style=" stroke:none;fill-rule:nonzero;fill:rgb(27.843137%,53.333333%,78.039216%);fill-opacity:1;" d="M 307.324219 37.5 L 412.5 142.675781 L 412.5 462.5 L 87.5 462.5 L 87.5 37.5 L 307.324219 37.5 M 312.5 25 L 75 25 L 75 475 L 425 475 L 425 137.5 Z M 312.5 25 "/>
<path style=" stroke:none;fill-rule:nonzero;fill:rgb(100%,100%,100%);fill-opacity:1;" d="M 306.25 143.75 L 306.25 31.25 L 309.914062 31.25 L 418.75 140.085938 L 418.75 143.75 Z M 306.25 143.75 "/>
<path style=" stroke:none;fill-rule:nonzero;fill:rgb(27.843137%,53.333333%,78.039216%);fill-opacity:1;" d="M 312.5 42.675781 L 407.324219 137.5 L 312.5 137.5 L 312.5 42.675781 M 312.5 25 L 300 25 L 300 150 L 425 150 L 425 137.5 Z M 136.914062 227.914062 L 156.550781 227.914062 L 156.550781 296.738281 C 156.550781 325.8125 142.460938 330.164062 128.210938 330.164062 C 124.164062 330.164062 120.414062 329.5625 118.3125 328.664062 L 119.960938 312.1875 C 121.773438 312.789062 123.875 312.9375 126.414062 312.9375 C 132.113281 312.9375 136.914062 310.6875 136.914062 297.636719 Z M 174.261719 308.875 C 178.3125 311.136719 185.363281 312.789062 190.914062 312.789062 C 200.050781 312.789062 204.699219 307.988281 204.699219 301.386719 C 204.699219 294.039062 200.210938 290.449219 191.664062 284.898438 C 177.863281 276.511719 172.625 265.875 172.625 256.710938 C 172.625 240.523438 183.425781 227.039062 204.414062 227.039062 C 211.164062 227.039062 217.449219 228.835938 220.300781 230.625 L 217.148438 247.5625 C 214.289062 245.761719 209.949219 244.125 204.398438 244.125 C 196 244.125 191.960938 249.210938 191.960938 254.625 C 191.960938 260.613281 194.949219 263.761719 205.75 270.363281 C 219.25 278.449219 224.050781 288.648438 224.050781 299.289062 C 224.050781 317.738281 210.398438 329.875 190.761719 329.875 C 182.675781 329.875 174.875 327.773438 171.425781 325.824219 Z M 299.039062 276.648438 C 299.039062 314.726562 285.550781 330.164062 266.363281 330.164062 C 243.425781 330.164062 234.425781 305.886719 234.425781 278.148438 C 234.425781 250.5625 245.363281 226.726562 267.863281 226.726562 C 292.136719 226.726562 299.039062 253.5625 299.039062 276.648438 Z M 254.8125 278.4375 C 254.8125 301.375 259.164062 313.074219 267.101562 313.074219 C 275.5 313.074219 278.648438 298.085938 278.648438 277.550781 C 278.648438 259.851562 275.949219 243.8125 266.949219 243.8125 C 259.148438 243.8125 254.8125 256.699219 254.8125 278.4375 Z M 315.273438 328.960938 L 315.273438 227.914062 L 333.25 227.914062 L 348.851562 267.5 C 351.988281 275.289062 356.789062 288.335938 359.636719 297.023438 L 359.925781 297.023438 C 359.324219 286.375 357.988281 268.835938 357.988281 250.25 L 357.988281 227.914062 L 375.226562 227.914062 L 375.226562 328.960938 L 357.238281 328.960938 L 341.800781 290.585938 C 338.363281 282.039062 333.851562 269.148438 331.460938 260.148438 L 331.164062 260.148438 C 331.773438 270.335938 332.511719 285.9375 332.511719 306.324219 L 332.511719 328.960938 Z M 315.273438 328.960938 "/>
</g>
</svg>
