<?xml version="1.0" encoding="UTF-8"?>
<svg xmlns="http://www.w3.org/2000/svg" xmlns:xlink="http://www.w3.org/1999/xlink" width="500pt" height="500pt" viewBox="0 0 500 500" version="1.1">
<g id="surface19209523">
<rect x="0" y="0" width="500" height="500" style="fill:rgb(3.137255%,7.058824%,16.078431%);fill-opacity:1;stroke:none;"/>
<path style=" stroke:none;fill-rule:nonzero;fill:rgb(71.372549%,86.27451%,99.607843%);fill-opacity:1;" d="M 81.25 468.75 L 81.25 31.25 L 309.914062 31.25 L 418.75 140.085938 L 418.75 468.75 Z M 81.25 468.75 "/>
<path style=" stroke:none;fill-rule:nonzero;fill:rgb(27.843137%,53.333333%,78.039216%);fill-opacity:1;" d="M 307.324219 37.5 L 412.5 142.675781 L 412.5 462.5 L 87.5 462.5 L 87.5 37.5 L 307.324219 37.5 M 312.5 25 L 75 25 L 75 475 L 425 475 L 425 137.5 Z M 312.5 25 "/>
<path style=" stroke:none;fill-rule:nonzero;fill:rgb(100%,100%,100%);fill-opacity:1;" d="M 306.25 143.75 L 306.25 31.25 L 309.914062 31.25 L 418.75 140.085938 L 418.75 143.75 Z M 306.25 143.75 "/>
<path style=" stroke:none;fill-rule:nonzero;fill:rgb(27.843137%,53.333333%,78.039216%);fill-opacity:1;" d="M 312.5 42.675781 L 407.324219 137.5 L 312.5 137.5 L 312.5 42.675781 M 312.5 25 L 300 25 L 300 150 L 425 150 L 425 137.5 Z M 220.1875 270.386719 C 220.1875 311.664062 205.5625 328.398438 184.761719 328.398438 C 159.898438 328.398438 150.148438 302.085938 150.148438 272.011719 C 150.148438 242.113281 162.011719 216.273438 186.386719 216.273438 C 212.710938 216.273438 220.1875 245.363281 220.1875 270.386719 Z M 172.25 272.335938 C 172.25 297.1875 176.960938 309.875 185.574219 309.875 C 194.675781 309.875 198.085938 293.625 198.085938 271.363281 C 198.085938 252.1875 195.164062 234.789062 185.414062 234.789062 C 176.960938 234.789062 172.25 248.761719 172.25 272.335938 Z M 244.398438 237.238281 L 225.0625 237.238281 L 225.0625 217.574219 L 285.199219 217.574219 L 285.199219 237.238281 L 265.699219 237.238281 L 265.699219 327.101562 L 244.414062 327.101562 L 244.414062 237.238281 Z M 299.636719 217.5625 L 347.25 217.5625 L 347.25 236.085938 L 320.925781 236.085938 L 320.925781 264.199219 L 345.625 264.199219 L 345.625 281.914062 L 320.925781 281.914062 L 320.925781 327.085938 L 299.636719 327.085938 Z M 299.636719 217.5625 "/>
</g>
</svg>
