<?xml version="1.0" encoding="UTF-8"?>
<svg xmlns="http://www.w3.org/2000/svg" xmlns:xlink="http://www.w3.org/1999/xlink" width="500pt" height="500pt" viewBox="0 0 500 500" version="1.1">
<g id="surface19209559">
<rect x="0" y="0" width="500" height="500" style="fill:rgb(3.137255%,7.058824%,16.078431%);fill-opacity:1;stroke:none;"/>
<path style=" stroke:none;fill-rule:nonzero;fill:rgb(59.607843%,80%,99.215686%);fill-opacity:1;" d="M 81.25 468.75 L 81.25 31.25 L 309.914062 31.25 L 418.75 140.085938 L 418.75 468.75 Z M 81.25 468.75 "/>
<path style=" stroke:none;fill-rule:nonzero;fill:rgb(27.843137%,53.333333%,78.039216%);fill-opacity:1;" d="M 307.324219 37.5 L 412.5 142.675781 L 412.5 462.5 L 87.5 462.5 L 87.5 37.5 L 307.324219 37.5 M 312.5 25 L 75 25 L 75 475 L 425 475 L 425 137.5 Z M 312.5 25 "/>
<path style=" stroke:none;fill-rule:nonzero;fill:rgb(87.45098%,94.117647%,99.607843%);fill-opacity:1;" d="M 306.25 143.75 L 306.25 31.25 L 309.914062 31.25 L 418.75 140.085938 L 418.75 143.75 Z M 306.25 143.75 "/>
<path style=" stroke:none;fill-rule:nonzero;fill:rgb(27.843137%,53.333333%,78.039216%);fill-opacity:1;" d="M 312.5 42.675781 L 407.324219 137.5 L 312.5 137.5 L 312.5 42.675781 M 312.5 25 L 300 25 L 300 150 L 425 150 L 425 137.5 Z M 312.5 25 "/>
<path style=" stroke:none;fill-rule:nonzero;fill:rgb(100%,100%,100%);fill-opacity:1;" d="M 156.238281 226.3125 C 162.25 225.011719 170.386719 224.199219 178.5 224.199219 C 191.1875 224.199219 201.25 226 208.238281 232.664062 C 214.75 238.351562 217.675781 247.449219 217.675781 256.710938 C 217.675781 268.574219 214.101562 277.023438 208.414062 283.039062 C 201.585938 290.351562 190.699219 293.601562 181.75 293.601562 C 180.300781 293.601562 178.988281 293.601562 177.523438 293.4375 L 177.523438 334.226562 L 156.238281 334.226562 Z M 177.523438 276.210938 C 178.675781 276.386719 179.8125 276.386719 181.101562 276.386719 C 191.824219 276.386719 196.539062 268.75 196.539062 258.5 C 196.539062 248.914062 192.625 241.449219 182.726562 241.449219 C 180.789062 241.449219 178.824219 241.761719 177.523438 242.25 Z M 230.5 226.3125 C 236.5 225.011719 244.636719 224.199219 252.761719 224.199219 C 265.4375 224.199219 275.5 226 282.5 232.664062 C 289 238.351562 291.925781 247.449219 291.925781 256.710938 C 291.925781 268.574219 288.351562 277.023438 282.664062 283.039062 C 275.835938 290.351562 264.949219 293.601562 256.011719 293.601562 C 254.550781 293.601562 253.25 293.601562 251.789062 293.4375 L 251.789062 334.226562 L 230.5 334.226562 Z M 251.800781 276.210938 C 252.9375 276.386719 254.074219 276.386719 255.375 276.386719 C 266.085938 276.386719 270.800781 268.75 270.800781 258.5 C 270.800781 248.914062 266.898438 241.449219 257 241.449219 C 255.050781 241.449219 253.085938 241.761719 251.800781 242.25 Z M 316.625 244.363281 L 297.289062 244.363281 L 297.289062 224.699219 L 357.425781 224.699219 L 357.425781 244.363281 L 337.914062 244.363281 L 337.914062 334.226562 L 316.625 334.226562 Z M 316.625 244.363281 "/>
</g>
</svg>
