<?xml version="1.0" encoding="UTF-8"?>
<svg xmlns="http://www.w3.org/2000/svg" xmlns:xlink="http://www.w3.org/1999/xlink" width="500pt" height="500pt" viewBox="0 0 500 500" version="1.1">
<g id="surface19209487">
<rect x="0" y="0" width="500" height="500" style="fill:rgb(3.137255%,7.058824%,16.078431%);fill-opacity:1;stroke:none;"/>
<path style=" stroke:none;fill-rule:nonzero;fill:rgb(71.372549%,86.27451%,99.607843%);fill-opacity:1;" d="M 81.25 468.75 L 81.25 31.25 L 309.914062 31.25 L 418.75 140.085938 L 418.75 468.75 Z M 81.25 468.75 "/>
<path style=" stroke:none;fill-rule:nonzero;fill:rgb(27.843137%,53.333333%,78.039216%);fill-opacity:1;" d="M 307.324219 37.5 L 412.5 142.675781 L 412.5 462.5 L 87.5 462.5 L 87.5 37.5 L 307.324219 37.5 M 312.5 25 L 75 25 L 75 475 L 425 475 L 425 137.5 Z M 312.5 25 "/>
<path style=" stroke:none;fill-rule:nonzero;fill:rgb(100%,100%,100%);fill-opacity:1;" d="M 306.25 143.75 L 306.25 31.25 L 309.914062 31.25 L 418.75 140.085938 L 418.75 143.75 Z M 306.25 143.75 "/>
<path style=" stroke:none;fill-rule:nonzero;fill:rgb(27.843137%,53.333333%,78.039216%);fill-opacity:1;" d="M 312.5 42.675781 L 407.324219 137.5 L 312.5 137.5 L 312.5 42.675781 M 312.5 25 L 300 25 L 300 150 L 425 150 L 425 137.5 Z M 143.398438 225.25 C 150.0625 223.949219 158.511719 223.136719 166.636719 223.136719 C 178.335938 223.136719 188.898438 224.9375 195.886719 231.261719 C 202.550781 237.273438 204.664062 244.585938 204.664062 254.011719 C 204.664062 265.710938 198.8125 276.273438 187.761719 281.3125 L 187.761719 281.636719 C 195.238281 284.726562 198.976562 291.550781 201.085938 303.414062 C 203.199219 315.601562 206.125 329.085938 208.074219 333.148438 L 185.8125 333.148438 C 184.351562 330.0625 181.914062 319.011719 180.289062 306.824219 C 178.335938 293.335938 174.925781 289.4375 167.9375 289.4375 L 164.6875 289.4375 L 164.6875 333.148438 L 143.398438 333.148438 Z M 164.6875 273.023438 L 168.585938 273.023438 C 177.851562 273.023438 183.050781 265.550781 183.050781 255.976562 C 183.050781 246.539062 179.3125 240.050781 169.886719 239.710938 C 167.9375 239.710938 165.824219 239.886719 164.6875 240.375 Z M 238.789062 308.125 L 233.914062 333.148438 L 213.273438 333.148438 L 237 223.613281 L 262.511719 223.613281 L 283.800781 333.148438 L 263.164062 333.148438 L 258.449219 308.125 Z M 256.5 291.550781 L 252.925781 268.636719 C 251.789062 261.976562 250.324219 250.925781 249.351562 243.773438 L 248.863281 243.773438 C 247.726562 251.085938 246.101562 262.300781 244.960938 268.636719 L 240.898438 291.550781 Z M 297.449219 225.25 C 304.113281 223.949219 312.5625 223.136719 320.6875 223.136719 C 332.386719 223.136719 342.949219 224.9375 349.9375 231.261719 C 356.601562 237.273438 358.710938 244.585938 358.710938 254.011719 C 358.710938 265.710938 352.863281 276.273438 341.8125 281.3125 L 341.8125 281.636719 C 349.289062 284.726562 353.023438 291.550781 355.136719 303.414062 C 357.25 315.601562 360.175781 329.085938 362.125 333.148438 L 339.863281 333.148438 C 338.398438 330.0625 335.960938 319.011719 334.335938 306.824219 C 332.386719 293.335938 328.976562 289.4375 321.988281 289.4375 L 318.738281 289.4375 L 318.738281 333.148438 L 297.449219 333.148438 Z M 318.738281 273.023438 L 322.636719 273.023438 C 331.898438 273.023438 337.101562 265.550781 337.101562 255.976562 C 337.101562 246.539062 333.363281 240.050781 323.9375 239.710938 C 321.988281 239.710938 319.875 239.886719 318.738281 240.375 Z M 318.738281 273.023438 "/>
</g>
</svg>
