<?xml version="1.0" encoding="UTF-8"?>
<svg xmlns="http://www.w3.org/2000/svg" xmlns:xlink="http://www.w3.org/1999/xlink" width="500pt" height="500pt" viewBox="0 0 500 500" version="1.1">
<g id="surface19209503">
<rect x="0" y="0" width="500" height="500" style="fill:rgb(3.137255%,7.058824%,16.078431%);fill-opacity:1;stroke:none;"/>
<path style=" stroke:none;fill-rule:nonzero;fill:rgb(87.45098%,94.117647%,99.607843%);fill-opacity:1;" d="M 81.25 468.75 L 81.25 31.25 L 309.914062 31.25 L 418.75 140.085938 L 418.75 468.75 Z M 81.25 468.75 "/>
<path style=" stroke:none;fill-rule:nonzero;fill:rgb(27.843137%,53.333333%,78.039216%);fill-opacity:1;" d="M 307.324219 37.5 L 412.5 142.675781 L 412.5 462.5 L 87.5 462.5 L 87.5 37.5 L 307.324219 37.5 M 312.5 25 L 75 25 L 75 475 L 425 475 L 425 137.5 Z M 312.5 25 "/>
<path style=" stroke:none;fill-rule:nonzero;fill:rgb(100%,100%,100%);fill-opacity:1;" d="M 306.25 143.75 L 306.25 31.25 L 309.914062 31.25 L 418.75 140.085938 L 418.75 143.75 Z M 306.25 143.75 "/>
<path style=" stroke:none;fill-rule:nonzero;fill:rgb(27.843137%,53.333333%,78.039216%);fill-opacity:1;" d="M 312.5 42.675781 L 407.324219 137.5 L 312.5 137.5 L 312.5 42.675781 M 312.5 25 L 300 25 L 300 150 L 425 150 L 425 137.5 Z M 142.261719 331.925781 L 123.574219 222.386719 L 145.6875 222.386719 L 151.050781 266.101562 C 152.511719 278.613281 153.488281 291.136719 154.789062 304.449219 L 155.273438 304.449219 C 156.738281 290.960938 159.1875 279.101562 161.449219 265.9375 L 169.25 222.386719 L 186.476562 222.386719 L 193.789062 265.625 C 195.738281 277.960938 197.699219 290.164062 198.988281 304.449219 L 199.3125 304.449219 C 200.773438 290.148438 202.074219 278.449219 203.539062 265.773438 L 208.898438 222.375 L 229.699219 222.375 L 210.363281 331.914062 L 188.425781 331.914062 L 181.914062 296 C 180.125 285.925781 178.511719 273.398438 177.039062 260.085938 L 176.710938 260.085938 C 174.773438 273.25 172.976562 285.4375 170.710938 296.164062 L 163.398438 331.914062 L 142.261719 331.914062 Z M 257.636719 306.898438 L 252.75 331.925781 L 232.125 331.925781 L 255.835938 222.386719 L 281.351562 222.386719 L 302.636719 331.925781 L 282.011719 331.925781 L 277.300781 306.898438 Z M 275.351562 290.324219 L 271.773438 267.414062 C 270.636719 260.75 269.175781 249.699219 268.199219 242.550781 L 267.710938 242.550781 C 266.574219 249.863281 264.949219 261.074219 263.8125 267.414062 L 259.75 290.324219 Z M 328.164062 331.925781 L 303.789062 222.386719 L 327.363281 222.386719 L 335.164062 269.675781 C 336.949219 281.539062 339.210938 294.875 340.675781 307.699219 L 341 307.699219 C 342.460938 294.699219 344.25 281.539062 346.199219 269.1875 L 353.675781 222.386719 L 377.074219 222.386719 L 352.050781 331.925781 Z M 328.164062 331.925781 "/>
</g>
</svg>
