<?xml version="1.0" encoding="UTF-8"?>
<svg xmlns="http://www.w3.org/2000/svg" xmlns:xlink="http://www.w3.org/1999/xlink" width="500pt" height="500pt" viewBox="0 0 500 500" version="1.1">
<g id="surface19285260">
<rect x="0" y="0" width="500" height="500" style="fill:rgb(3.137255%,7.058824%,16.078431%);fill-opacity:1;stroke:none;"/>
<path style=" stroke:none;fill-rule:nonzero;fill:rgb(100%,100%,100%);fill-opacity:1;" d="M 75 456.25 C 57.773438 456.25 43.75 442.238281 43.75 425 L 43.75 75 C 43.75 57.761719 57.773438 43.75 75 43.75 L 425 43.75 C 442.226562 43.75 456.25 57.761719 456.25 75 L 456.25 425 C 456.25 442.238281 442.226562 456.25 425 456.25 Z M 75 456.25 "/>
<path style=" stroke:none;fill-rule:nonzero;fill:rgb(27.843137%,53.333333%,78.039216%);fill-opacity:1;" d="M 425 50 C 438.789062 50 450 61.210938 450 75 L 450 425 C 450 438.789062 438.789062 450 425 450 L 75 450 C 61.210938 450 50 438.789062 50 425 L 50 75 C 50 61.210938 61.210938 50 75 50 L 425 50 M 425 37.5 L 75 37.5 C 54.289062 37.5 37.5 54.289062 37.5 75 L 37.5 425 C 37.5 445.710938 54.289062 462.5 75 462.5 L 425 462.5 C 445.710938 462.5 462.5 445.710938 462.5 425 L 462.5 75 C 462.5 54.289062 445.710938 37.5 425 37.5 Z M 425 37.5 "/>
<path style=" stroke:none;fill-rule:nonzero;fill:rgb(59.607843%,80%,99.215686%);fill-opacity:1;" d="M 131.25 156.25 L 368.75 156.25 L 368.75 343.75 L 131.25 343.75 Z M 131.25 156.25 "/>
<path style=" stroke:none;fill-rule:nonzero;fill:rgb(27.843137%,53.333333%,78.039216%);fill-opacity:1;" d="M 362.5 162.5 L 362.5 337.5 L 137.5 337.5 L 137.5 162.5 L 362.5 162.5 M 375 150 L 125 150 L 125 350 L 375 350 Z M 375 150 "/>
<path style=" stroke:none;fill-rule:nonzero;fill:rgb(100%,100%,100%);fill-opacity:1;" d="M 137.5 225 L 362.5 225 L 362.5 337.5 L 137.5 337.5 Z M 137.5 225 "/>
<path style=" stroke:none;fill-rule:nonzero;fill:rgb(27.843137%,53.333333%,78.039216%);fill-opacity:1;" d="M 125 212.5 L 375 212.5 L 375 225 L 125 225 Z M 125 212.5 "/>
<path style=" stroke:none;fill-rule:nonzero;fill:rgb(27.843137%,53.333333%,78.039216%);fill-opacity:1;" d="M 137.5 275 L 362.5 275 L 362.5 287.5 L 137.5 287.5 Z M 137.5 275 "/>
<path style=" stroke:none;fill-rule:nonzero;fill:rgb(27.843137%,53.333333%,78.039216%);fill-opacity:1;" d="M 200 150 L 212.5 150 L 212.5 350 L 200 350 Z M 200 150 "/>
</g>
</svg>
