<svg id="Layer_1" data-name="Layer 1" xmlns="http://www.w3.org/2000/svg" xmlns:xlink="http://www.w3.org/1999/xlink" viewBox="0 0 1843.61 987.73">
  <defs>
    <linearGradient id="linear-gradient" x1="2366.62" y1="-2121.69" x2="3133.86" y2="-2121.69" gradientTransform="translate(3347.16 -1303.96) rotate(180)" gradientUnits="userSpaceOnUse">
      <stop offset="0" stop-color="#bc82ff"/>
      <stop offset="0.12" stop-color="#b782ff"/>
      <stop offset="0.22" stop-color="#a980ff"/>
      <stop offset="0.34" stop-color="#917eff"/>
      <stop offset="0.46" stop-color="#707aff"/>
      <stop offset="1" stop-color="#5778ff"/>
    </linearGradient>
    <linearGradient id="linear-gradient-2" x1="95.52" y1="578.8" x2="679.29" y2="578.8" gradientTransform="matrix(1, 0.08, 0.08, -1, -14.29, 920)" gradientUnits="userSpaceOnUse">
      <stop offset="0" stop-color="#c0d6ff"/>
      <stop offset="0.3" stop-color="#c5dbff"/>
      <stop offset="0.65" stop-color="#d3e9ff"/>
      <stop offset="1" stop-color="#e9ffff"/>
    </linearGradient>
    <linearGradient id="linear-gradient-3" x1="95.49" y1="428.54" x2="195.86" y2="428.54" gradientTransform="matrix(1, 0.08, 0.08, -1, -14.29, 920)" gradientUnits="userSpaceOnUse">
      <stop offset="0" stop-color="#5778ff"/>
      <stop offset="0.18" stop-color="#5c7dff"/>
      <stop offset="0.39" stop-color="#6a8aff"/>
      <stop offset="0.61" stop-color="#82a0ff"/>
      <stop offset="0.85" stop-color="#a3beff"/>
      <stop offset="1" stop-color="#bcd5ff"/>
    </linearGradient>
    <linearGradient id="linear-gradient-4" x1="173.87" y1="259.25" x2="998.28" y2="259.25" xlink:href="#linear-gradient-3"/>
    <linearGradient id="linear-gradient-5" x1="450.84" y1="286.97" x2="1275.72" y2="286.97" xlink:href="#linear-gradient-2"/>
    <linearGradient id="linear-gradient-6" x1="590.54" y1="239.97" x2="801.53" y2="239.97" xlink:href="#linear-gradient-2"/>
    <clipPath id="clip-path" transform="translate(120.65 -48.71)">
      <polygon points="668.1 78.21 158.92 318.27 189.01 679.91 697.78 440.05 668.1 78.21" fill="none"/>
    </clipPath>
    <linearGradient id="linear-gradient-7" x1="135.62" y1="470.75" x2="960.52" y2="470.75" xlink:href="#linear-gradient-2"/>
    <linearGradient id="linear-gradient-8" x1="81.46" y1="531.67" x2="292.45" y2="531.67" xlink:href="#linear-gradient-2"/>
    <linearGradient id="linear-gradient-9" x1="465.52" y1="628.84" x2="387.86" y2="795.38" gradientTransform="matrix(1, 0, 0, -1, 120.65, 1031.29)" gradientUnits="userSpaceOnUse">
      <stop offset="0.38" stop-color="#e57fff" stop-opacity="0"/>
      <stop offset="1" stop-color="#d500e9"/>
    </linearGradient>
    <linearGradient id="linear-gradient-10" x1="1327.01" y1="760.68" x2="1739.98" y2="752.8" gradientTransform="translate(18.76 -53.53) rotate(2.52)" xlink:href="#linear-gradient"/>
    <linearGradient id="linear-gradient-11" x1="2208.7" y1="452.75" x2="2609.94" y2="452.75" gradientTransform="matrix(1.06, 0, 0, -1, -1040.86, 1080)" gradientUnits="userSpaceOnUse">
      <stop offset="0" stop-color="#a31fa9"/>
      <stop offset="0.07" stop-color="#8b17a0"/>
      <stop offset="0.15" stop-color="#740f98"/>
      <stop offset="0.24" stop-color="#640a92"/>
      <stop offset="0.34" stop-color="#5b078f"/>
      <stop offset="0.48" stop-color="#58068e"/>
      <stop offset="0.63" stop-color="#4d22a3"/>
      <stop offset="0.94" stop-color="#3168da"/>
      <stop offset="1" stop-color="#2c75e4"/>
    </linearGradient>
    <linearGradient id="linear-gradient-12" x1="1773.06" y1="191.26" x2="1975.62" y2="366.69" gradientTransform="matrix(0.92, 0.5, 1.06, -0.58, -510.43, -337.42)" gradientUnits="userSpaceOnUse">
      <stop offset="0" stop-color="#8d139b"/>
      <stop offset="0.17" stop-color="#851ba1"/>
      <stop offset="0.43" stop-color="#6e33b2"/>
      <stop offset="0.76" stop-color="#4958cd"/>
      <stop offset="1" stop-color="#2979e4"/>
    </linearGradient>
    <linearGradient id="linear-gradient-13" x1="1808.59" y1="222.14" x2="1941.45" y2="337.2" gradientTransform="matrix(0.92, 0.5, 1.06, -0.58, -510.43, -337.42)" gradientUnits="userSpaceOnUse">
      <stop offset="0" stop-color="#630692"/>
      <stop offset="0.23" stop-color="#5b0e94"/>
      <stop offset="0.59" stop-color="#432399"/>
      <stop offset="1" stop-color="#2142a1"/>
    </linearGradient>
    <clipPath id="clip-path-2" transform="translate(120.65 -48.71)">
      <path d="M1578.9,470.55l-115.6-69.24c-8.25-4.94-7.22-13.6,2.26-19.16l-43.48,26.17c9.48-5.77,23.91-6.39,32.15-1.45l115.6,69.24c8.24,4.95,7.21,13.6-2.27,19.17L1611,469.11C1601.36,474.88,1587.14,475.49,1578.9,470.55Z" fill="none"/>
    </clipPath>
    <linearGradient id="linear-gradient-14" x1="2208.7" y1="653.76" x2="2609.94" y2="653.76" xlink:href="#linear-gradient-11"/>
    <linearGradient id="linear-gradient-15" x1="1720.1" y1="237.12" x2="1922.66" y2="412.55" xlink:href="#linear-gradient-12"/>
    <linearGradient id="linear-gradient-16" x1="1755.63" y1="268" x2="1888.49" y2="383.06" xlink:href="#linear-gradient-13"/>
    <clipPath id="clip-path-5" transform="translate(120.65 -48.71)">
      <path d="M1578.9,417.59l-115.6-69.24c-8.25-4.94-7.22-13.6,2.26-19.16l-43.48,26.17c9.48-5.77,23.91-6.39,32.15-1.44l115.6,69.23c8.24,5,7.21,13.6-2.27,19.17L1611,416.15C1601.36,421.92,1587.14,422.54,1578.9,417.59Z" fill="none"/>
    </clipPath>
    <linearGradient id="linear-gradient-17" x1="2208.7" y1="698.89" x2="2609.94" y2="698.89" xlink:href="#linear-gradient-11"/>
    <linearGradient id="linear-gradient-18" x1="1674.97" y1="276.2" x2="1877.54" y2="451.63" xlink:href="#linear-gradient-12"/>
    <linearGradient id="linear-gradient-19" x1="1478.77" y1="357.2" x2="1554.05" y2="492.74" gradientTransform="translate(3088.43 1080) rotate(180) scale(1.06 1)" gradientUnits="userSpaceOnUse">
      <stop offset="0" stop-color="#5778ff"/>
      <stop offset="0.04" stop-color="#5c7dff"/>
      <stop offset="0.09" stop-color="#6a8aff"/>
      <stop offset="0.14" stop-color="#82a0ff"/>
      <stop offset="0.19" stop-color="#a3beff"/>
      <stop offset="0.22" stop-color="#bcd5ff"/>
    </linearGradient>
    <linearGradient id="linear-gradient-20" x1="1573.79" y1="351.61" x2="1520.16" y2="456.46" gradientTransform="translate(3088.43 1080) rotate(180) scale(1.06 1)" xlink:href="#linear-gradient-2"/>
    <linearGradient id="Áåçûìÿííûé_ãðàäèåíò_2" data-name="Áåçûìÿííûé ãðàäèåíò 2" x1="1185.19" y1="869.96" x2="1164.41" y2="847.68" gradientTransform="translate(-9.42 3.46) rotate(0.46)" gradientUnits="userSpaceOnUse">
      <stop offset="0" stop-color="#bc82ff"/>
      <stop offset="0.18" stop-color="#b782ff"/>
      <stop offset="0.39" stop-color="#a980ff"/>
      <stop offset="0.61" stop-color="#917eff"/>
      <stop offset="0.85" stop-color="#707aff"/>
      <stop offset="1" stop-color="#5778ff"/>
    </linearGradient>
    <linearGradient id="Áåçûìÿííûé_ãðàäèåíò_2-2" x1="1189.96" y1="875.08" x2="1159.64" y2="842.57" xlink:href="#Áåçûìÿííûé_ãðàäèåíò_2"/>
    <linearGradient id="Áåçûìÿííûé_ãðàäèåíò_2-3" x1="980.5" y1="-30.17" x2="1130.77" y2="-30.17" gradientTransform="matrix(1, 0, 0, -0.88, 0, 809.26)" xlink:href="#Áåçûìÿííûé_ãðàäèåíò_2"/>
    <linearGradient id="Áåçûìÿííûé_ãðàäèåíò_2-4" x1="1183.52" y1="798.34" x2="1312.9" y2="798.34" gradientTransform="matrix(1, 0, 0, 1, 0, 0)" xlink:href="#Áåçûìÿííûé_ãðàäèåíò_2"/>
    <linearGradient id="Áåçûìÿííûé_ãðàäèåíò_38" data-name="Áåçûìÿííûé ãðàäèåíò 38" x1="-197.09" y1="807.14" x2="-290.78" y2="641.13" gradientTransform="matrix(-1.06, 0, 0, 1, 1157, 0)" gradientUnits="userSpaceOnUse">
      <stop offset="0" stop-color="#c0d6ff"/>
      <stop offset="0.12" stop-color="#d6ecff"/>
      <stop offset="0.21" stop-color="#e9ffff"/>
      <stop offset="0.25" stop-color="#e3f9ff"/>
      <stop offset="0.41" stop-color="#c9dfff"/>
      <stop offset="0.51" stop-color="#c0d6ff"/>
      <stop offset="0.62" stop-color="#d0e6ff"/>
      <stop offset="0.75" stop-color="#e9ffff"/>
      <stop offset="1" stop-color="#c0d6ff"/>
    </linearGradient>
  </defs>
  <title>Page_2_Step_3 Vector</title>
  <g id="SurfaceSpline" opacity="0.5">
    <path d="M692,637.25,270.2,836.1a5.25,5.25,0,0,0-.83,9.07L481.62,993.74a32.78,32.78,0,0,0,32.76,2.88l404.5-190.81a5.25,5.25,0,0,0,.83-9.07Z" transform="translate(120.65 -48.71)" fill="#242993"/>
  </g>
  <path id="Surface_Path" data-name="Surface Path" d="M905.9,735.54l68.21,51.11a13.42,13.42,0,0,1-3.1,22.66l-489.8,224.41a14.36,14.36,0,0,1-13.81-1.24L220.54,854.85a13.49,13.49,0,0,1,2.06-23.28L706,601.81a14.33,14.33,0,0,1,13.81,1L904.66,734.72A13.69,13.69,0,0,1,905.9,735.54Z" transform="translate(120.65 -48.71)" fill="none" stroke-miterlimit="1" stroke-width="3" stroke="url(#linear-gradient)"/>
  <g id="Icon_Laptop" data-name="Icon Laptop">
    <g>
      <g>
        <g>
          <path d="M708.29,437,677,56.16l5.16-1.65-7.22-4.95h0c-1.44-1-3.5-1.23-6,0L141,298.49c-4.33,2.06-8,7.83-7.63,12.36L164.9,694.74a5.16,5.16,0,0,0,2.27,4.12h0l7,4.95L176,697h-.41l525-247.69C705,447.26,708.7,441.49,708.29,437Z" transform="translate(120.65 -48.71)" fill="url(#linear-gradient-2)"/>
          <path d="M142.85,309l-8-4.33c-1,2.06-1.86,4.33-1.65,6.18l31.52,383.89a5.16,5.16,0,0,0,2.27,4.12h0l7,4.95,1.85-6.8h-.41L202,684.44Z" transform="translate(120.65 -48.71)" fill="url(#linear-gradient-3)"/>
          <path d="M708.08,454.47,179.94,703.6c-4.12,1.86-7.21.42-7.62-3.71L140.79,316c-.41-4.33,3.3-10.3,7.63-12.36L676.55,54.71c4.12-1.85,7.21-.41,7.63,3.71l31.52,383.9C716.12,446.64,712.61,452.41,708.08,454.47Z" transform="translate(120.65 -48.71)" fill="#242993"/>
          <g opacity="0.51">
            <polygon points="788.75 29.49 279.57 269.56 309.65 631.2 818.42 391.34 788.75 29.49" fill="#4553c7"/>
          </g>
        </g>
        <g>
          <path d="M1009.55,660.74,980.91,672.9,718.79,489.71c-4.32-3.09-12.36-3.5-18.13-.82L202.4,723.8c-4.32-2.89-24.31-14.63-24.31-14.63l7.83,27.2h0a5.46,5.46,0,0,0,2.47,3.29L464.31,932.74c4.33,3.1,12.36,3.51,18.13.83L992.65,692.89a9.59,9.59,0,0,0,4.53-3.92h0Z" transform="translate(120.65 -48.71)" fill="url(#linear-gradient-4)"/>
          <path d="M1004.81,664.86,482.24,911.52c-5.77,2.68-14,2.27-18.55-.82L180.77,712.88c-4.54-3.09-3.51-7.83,2.26-10.51L705.81,455.71c5.77-2.68,14-2.27,18.55.83l282.92,197.82C1011.61,657.45,1010.58,662.19,1004.81,664.86Z" transform="translate(120.65 -48.71)" fill="url(#linear-gradient-5)"/>
          <path d="M337.17,836.1l.41-5.56c0-.62.41-.83.82-.41l18.34,12.77a1.6,1.6,0,0,1,.62,1.44l-.41,5.57c0,.62-.41.82-.82.41l-18.34-12.78A1.24,1.24,0,0,1,337.17,836.1Z" transform="translate(120.65 -48.71)" fill="#2859cb"/>
          <path d="M364.57,855.27l.42-5.57c0-.62.41-.82.82-.41l18.34,12.78a1.6,1.6,0,0,1,.62,1.44l-.41,5.56c0,.62-.42.83-.83.41l-18.34-12.77A1.27,1.27,0,0,1,364.57,855.27Z" transform="translate(120.65 -48.71)" fill="#2859cb"/>
          <path d="M259.69,703.19,694.07,498.37a8.56,8.56,0,0,1,8.86.82l140.33,98.29a3.21,3.21,0,0,1-.42,5.57L408.67,807.87a8.58,8.58,0,0,1-8.86-.82L259.28,709A3.37,3.37,0,0,1,259.69,703.19Z" transform="translate(120.65 -48.71)" fill="#adc8ff"/>
          <path d="M259.28,708.76l1.44,1L693.66,505.58a8.59,8.59,0,0,1,8.86.82L841.4,603.66l1.65-.82a3.2,3.2,0,0,0,.41-5.56L703.13,499.19a9.1,9.1,0,0,0-8.86-.82L259.69,703.19A3.21,3.21,0,0,0,259.28,708.76Z" transform="translate(120.65 -48.71)" fill="#91afff"/>
          <g>
            <polygon points="833.05 473.15 455.55 650.98 440.5 640.47 817.8 462.43 833.05 473.15" fill="#242993"/>
            <polygon points="870.35 499.11 516.34 666.02 501.09 655.51 855.1 488.6 870.35 499.11" fill="#242993"/>
            <polygon points="894.66 516.21 477.8 712.8 462.55 702.08 879.42 505.5 894.66 516.21" fill="#242993"/>
            <polygon points="918.77 533.11 502.12 729.69 486.87 718.98 903.73 522.6 918.77 533.11" fill="#242993"/>
            <polygon points="943.09 550.21 526.43 746.59 511.18 736.08 928.05 539.5 943.09 550.21" fill="#242993"/>
            <polygon points="432.88 661.9 415.98 669.73 400.94 659.01 417.63 651.18 432.88 661.9" fill="#242993"/>
            <polygon points="488.11 679.41 453.28 695.9 438.24 685.18 473.06 668.7 488.11 679.41" fill="#242993"/>
          </g>
          <path d="M684.79,798l117.05-55.22c4.53-2.06,4.94-6.19.82-9.07l-72.53-50.9c-4.12-2.88-11.13-3.5-15.87-1.44l-117,55.22c-4.54,2.06-5,6.19-.83,9.07l72.54,50.9C673.26,799.63,680.26,800.25,684.79,798Z" transform="translate(120.65 -48.71)" fill="url(#linear-gradient-6)"/>
          <path d="M597,740.49l117-55.23c4.53-2.06,11.74-1.64,15.86,1.45l72.54,50.89a6.5,6.5,0,0,1,2.47,2.89c1.44-2.06.62-4.74-2.27-6.6L730.13,683c-4.12-2.89-11.13-3.51-15.87-1.44l-117,55.22c-3.09,1.44-4.33,3.91-3.3,6.18A6.39,6.39,0,0,1,597,740.49Z" transform="translate(120.65 -48.71)" fill="#91afff"/>
        </g>
      </g>
      <g opacity="0.11" style="isolation: isolate">
        <g clip-path="url(#clip-path)">
          <g>
            <path d="M706.43,455.09,183.65,701.75c-5.77,2.68-14,2.27-18.54-.82L-117.82,503.11c-4.53-3.1-3.5-7.83,2.27-10.51L407.23,245.94c5.77-2.68,14-2.27,18.54.82L708.7,444.58C713,447.67,712,452.41,706.43,455.09Z" transform="translate(120.65 -48.71)" fill="url(#linear-gradient-7)"/>
            <path d="M202.2,464.37l117-55.23c4.53-2.06,4.95-6.18.82-9.07l-72.53-50.89c-4.12-2.89-11.13-3.51-15.87-1.45L114.62,403c-4.53,2.06-4.94,6.18-.82,9.07l72.53,50.89C190.45,465.81,197.46,466.43,202.2,464.37Z" transform="translate(120.65 -48.71)" fill="url(#linear-gradient-8)"/>
            <path d="M114.21,406.87l117-55.22c4.54-2.06,11.75-1.65,15.87,1.44L319.65,404a6.46,6.46,0,0,1,2.48,2.88c1.44-2.06.61-4.73-2.27-6.59l-72.54-50.9c-4.12-2.88-11.12-3.5-15.86-1.44l-117,55.23c-3.09,1.44-4.32,3.91-3.29,6.18A6.41,6.41,0,0,1,114.21,406.87Z" transform="translate(120.65 -48.71)" fill="#91afff"/>
            <g>
              <path d="M52.39,553.59,486.77,348.77a8.54,8.54,0,0,1,8.86.82L636,447.88a3.2,3.2,0,0,1-.41,5.56L201.37,658.27a8.59,8.59,0,0,1-8.86-.82L51.77,559A3.13,3.13,0,0,1,52.39,553.59Z" transform="translate(120.65 -48.71)" fill="#adc8ff"/>
              <path d="M51.77,559l1.44,1L486.15,355.77a8.56,8.56,0,0,1,8.86.83L633.9,453.86l1.65-.83a3.2,3.2,0,0,0,.41-5.56L495.63,349.18a9.11,9.11,0,0,0-8.86-.83L52.39,553.18C50.12,554.62,49.92,557.71,51.77,559Z" transform="translate(120.65 -48.71)" fill="#91afff"/>
              <g>
                <polygon points="718.48 389.9 339.95 568.35 353.55 577.83 732.08 399.38 718.48 389.9" fill="#242993"/>
                <polygon points="682.22 364.55 322.64 534.14 336.24 543.62 695.82 374.03 682.22 364.55" fill="#242993"/>
                <polygon points="295.64 546.92 262.06 562.78 275.65 572.26 309.24 556.39 295.64 546.92" fill="#242993"/>
                <polygon points="321.61 577 298.32 587.92 311.92 597.4 335.21 586.48 321.61 577" fill="#242993"/>
                <polygon points="659.75 348.68 239.39 546.92 252.99 556.39 673.15 358.16 659.75 348.68" fill="#242993"/>
                <polygon points="637.09 332.82 216.93 531.05 230.32 540.53 650.69 342.3 637.09 332.82" fill="#242993"/>
                <polygon points="614.42 316.95 194.26 515.18 207.86 524.66 628.02 326.43 614.42 316.95" fill="#242993"/>
              </g>
            </g>
          </g>
        </g>
      </g>
    </g>
  </g>
  <g id="Screen_Icon" data-name="Screen Icon">
    <g>
      <path d="M544.67,239.55c0-20.19-12.77-27.4-29.88-17.51-5.15,3.09-10.51,6-15.66,9.06-2.06,1.24-3.09,1.24-3.71-.82-2.06-5.56-4.32-10.92-6.38-16.49-5.16-13-19.79-16.89-34.42-8.44C425.36,222,396.31,238.93,367.05,256c-14.63,8.45-29.26,29.26-34.42,48-2.06,7.83-4.32,15.45-6.18,23.28a9.36,9.36,0,0,1-4.74,6.6c-6.59,3.5-13.18,7-19.57,11.74-13.81,10.1-22.88,29.06-22.88,46.16V538.34c0,2.27.21,4.54.42,6.8,1.65,13.19,12.77,23.7,29.67,13.4,34-20.4,68-39.57,102-59.35,34.41-20,69-40,103.44-60a44.82,44.82,0,0,0,5.77-3.71c13.81-11.34,24.32-33,24.32-50.69V341.55C544.67,307.55,544.67,273.55,544.67,239.55ZM484.5,376a145.31,145.31,0,0,1-42.45,73.77c-20.81,19.78-41.62,31.73-62.23,35.64-21.43,4.13-35.65-4.74-41.83-26.37-5.77-19.78-6.59-42.24,2.06-69.65,11.75-37.3,32.35-66.35,60.59-87.78,34.41-26.17,76.24-27.82,86.75,18.95,1.23,5.36,1.44,11.54,2.06,17.31A210.59,210.59,0,0,1,484.5,376Z" transform="translate(120.65 -48.71)" fill="#242993"/>
      <path d="M400.64,301.58C372.4,323,351.8,352.06,340.05,389.36c-8.65,27.41-7.83,50.07-2.06,69.65,6.18,21.63,20.4,30.5,41.83,26.37,20.61-3.91,41.63-16.07,62.23-35.64A149.93,149.93,0,0,0,484.5,376a210.78,210.78,0,0,0,4.95-37.92c-.62-5.77-1-11.95-2.06-17.31C476.88,273.76,435.05,275.41,400.64,301.58Zm10.71,153.1c-33.59,19.37-60.58,3.71-60.58-35.24,0-38.74,27.2-86.13,61-105.71,33.59-19.37,60.58-3.7,60.58,35.45C472.14,388.33,444.94,435.31,411.35,454.68Z" transform="translate(120.65 -48.71)" fill="#fff"/>
      <path d="M411.76,313.94c-33.59,19.37-61,66.76-61,105.71,0,38.74,27.2,54.4,60.58,35.24,33.59-19.37,60.79-66.35,60.79-105.3C472.34,310.23,445.35,294.36,411.76,313.94Z" transform="translate(120.65 -48.71)" fill="#242993"/>
    </g>
  </g>
  <polygon id="Scan_ICon" data-name="Scan ICon" points="811.83 269.14 302.86 538.26 285.75 334.88 797.61 112.54 811.83 269.14" fill="url(#linear-gradient-9)"/>
  <path d="M1318.74,725.65l259.89,163.27a29.91,29.91,0,0,0,31,.48l105.93-62.06a11.89,11.89,0,0,0,.22-20.37L1460.33,649.76a23.45,23.45,0,0,0-22.74-1l-117.93,58.5A10.58,10.58,0,0,0,1318.74,725.65Z" transform="translate(120.65 -48.71)" fill="none" stroke-miterlimit="10" stroke-width="3" stroke="url(#linear-gradient-10)"/>
  <g id="Server">
    <g>
      <path d="M1691.61,485H1585.28L1466.8,414.09c-15.25-9.07-41.83-8-59.55,2.47l40.38-24.32H1341.31v319h0c-.42,6.18,2.88,12.16,10.3,16.48l214.51,128.38c15.25,9.07,41.83,8,59.55-2.47l51.52-30.71c9.06-5.56,14-12.36,14.42-19.16h0Z" transform="translate(120.65 -48.71)" fill="url(#linear-gradient-11)"/>
      <path d="M1688.52,485V807.46h0a18.81,18.81,0,0,1-3.71,9.68c4.12-4.12,6.39-8.65,6.8-13.18h0V485Z" transform="translate(120.65 -48.71)" fill="#6ee8fc"/>
      <path d="M1566.12,537.31,1351.61,408.94c-15.25-9.07-13.39-25.14,4.33-35.65l51.51-30.71c17.52-10.51,44.31-11.74,59.55-2.47l214.51,128.38c15.25,9.06,13.4,25.14-4.32,35.65l-51.52,30.7C1608,545.35,1581.37,546.38,1566.12,537.31Z" transform="translate(120.65 -48.71)" fill="url(#linear-gradient-12)"/>
      <path d="M1570.45,537.31,1355.94,408.94c-15.25-9.07-13.4-25.14,4.32-35.65l51.52-30.71c9.07-5.35,20.4-8.24,31.53-8.65-12.37-.41-25.55,2.47-35.65,8.65l-51.52,30.71c-17.51,10.51-19.57,26.58-4.32,35.65l214.51,128.37c7.41,4.54,17.51,6.39,28,6.18C1585.28,543.08,1576.84,541.23,1570.45,537.31Z" transform="translate(120.65 -48.71)" fill="#f88b93"/>
      <path d="M1681.31,468.49,1466.8,340.11c-7.42-4.53-17.72-6.39-28.23-6.18,8.86.21,17.31,2.27,23.7,6.18l214.51,128.38c15.24,9.06,13.39,25.14-4.33,35.65l-51.52,30.7c-9.06,5.36-20.4,8.24-31.32,8.65,12.37.42,25.55-2.47,35.65-8.65l51.52-30.7C1694.7,493.63,1696.56,477.55,1681.31,468.49Z" transform="translate(120.65 -48.71)" fill="#6ee8fc"/>
      <path d="M1573.13,500.22l-159.7-95.61c-11.34-6.8-9.89-18.75,3.09-26.58l-1.24.82c13.19-7.83,33-8.65,44.31-1.85l159.69,95.61c11.34,6.8,9.9,18.75-3.09,26.58l1.24-.82C1604.45,506.2,1584.46,507,1573.13,500.22Z" transform="translate(120.65 -48.71)" fill="url(#linear-gradient-13)"/>
      <g>
        <path id="SVGID" d="M1578.9,470.55l-115.6-69.24c-8.25-4.94-7.22-13.6,2.26-19.16l-43.48,26.17c9.48-5.77,23.91-6.39,32.15-1.45l115.6,69.24c8.24,4.95,7.21,13.6-2.27,19.17L1611,469.11C1601.36,474.88,1587.14,475.49,1578.9,470.55Z" transform="translate(120.65 -48.71)" fill="#6de0f6"/>
        <g clip-path="url(#clip-path-2)">
          <path d="M1465.36,391.42l-43.28,26.17c9.48-5.77,23.91-6.39,32.15-1.44L1570,485.38a14.76,14.76,0,0,1,4.12,3.71c2.68-4.74,1.64-9.68-4.12-13.18l-115.81-69.24c-8.24-4.95-22.67-4.33-32.15,1.44l43.28-26.17c-7.42,4.33-9.69,10.51-6.39,15.46A22.39,22.39,0,0,1,1465.36,391.42Z" transform="translate(120.65 -48.71)" fill="#267fe5"/>
        </g>
        <g clip-path="url(#clip-path-2)">
          <path d="M1465.36,402.75l-43.28,26.17c9.48-5.77,23.91-6.38,32.15-1.44L1570,496.72a11.32,11.32,0,0,1,3.29,2.88c3.71-4.94,2.68-10.51-3.29-14.22l-115.81-69.23c-8.24-4.95-22.67-4.33-32.15,1.44l43.28-26.17c-7.83,4.74-9.9,11.33-5.77,16.28A23.3,23.3,0,0,1,1465.36,402.75Z" transform="translate(120.65 -48.71)" fill="#25bfec"/>
        </g>
        <g clip-path="url(#clip-path-2)">
          <path d="M1460.82,420.27a20.71,20.71,0,0,1,4.54-3.71l-43.28,26.17c9.48-5.77,23.91-6.39,32.15-1.44L1570,510.52a22.11,22.11,0,0,1,2.26,1.65c5-5.35,4.33-11.54-2.26-15.45l-115.81-69.24c-8.24-4.94-22.67-4.33-32.15,1.44l43.28-26.17C1456.91,407.91,1455.26,415.32,1460.82,420.27Z" transform="translate(120.65 -48.71)" fill="#18d0f7"/>
        </g>
      </g>
    </g>
    <g>
      <path d="M1691.61,432H1585.28L1466.8,361.13c-15.25-9.07-41.83-8-59.55,2.47l40.38-24.31H1341.31v22.87h0c-.42,6.18,2.88,12.16,10.3,16.48L1566.12,507c15.25,9.07,41.83,8,59.55-2.47l51.52-30.7c9.06-5.57,14-12.37,14.42-19.17h0Z" transform="translate(120.65 -48.71)" fill="url(#linear-gradient-14)"/>
      <path d="M1688.52,432v26.38h0a18.88,18.88,0,0,1-3.71,9.69c4.12-4.13,6.39-8.66,6.8-13.19h0V432Z" transform="translate(120.65 -48.71)" fill="#6ee8fc"/>
      <path d="M1566.12,484.35,1351.61,356c-15.25-9.07-13.39-25.14,4.33-35.65l51.51-30.7c17.52-10.51,44.31-11.75,59.55-2.48l214.51,128.38c15.25,9.07,13.4,25.14-4.32,35.65l-51.52,30.7C1608,492.39,1581.37,493.42,1566.12,484.35Z" transform="translate(120.65 -48.71)" fill="url(#linear-gradient-15)"/>
      <path d="M1570.45,484.35,1355.94,356c-15.25-9.07-13.4-25.14,4.32-35.65l51.52-30.7c9.07-5.36,20.4-8.25,31.53-8.66-12.37-.41-25.55,2.47-35.65,8.66l-51.52,30.7c-17.51,10.51-19.57,26.58-4.32,35.65l214.51,128.37c7.41,4.54,17.51,6.39,28,6.19C1585.28,490.12,1576.84,488.27,1570.45,484.35Z" transform="translate(120.65 -48.71)" fill="#f88b93"/>
      <path d="M1681.31,415.53,1466.8,287.15c-7.42-4.53-17.72-6.38-28.23-6.18,8.86.21,17.31,2.27,23.7,6.18l214.51,128.38c15.24,9.07,13.39,25.14-4.33,35.65l-51.52,30.7c-9.06,5.36-20.4,8.24-31.32,8.66,12.37.41,25.55-2.48,35.65-8.66l51.52-30.7C1694.7,440.67,1696.56,424.6,1681.31,415.53Z" transform="translate(120.65 -48.71)" fill="#6ee8fc"/>
      <path d="M1573.13,447.26l-159.7-95.61c-11.34-6.8-9.89-18.75,3.09-26.58l-1.24.82c13.19-7.83,33-8.65,44.31-1.85l159.69,95.61c11.34,6.8,9.9,18.75-3.09,26.58l1.24-.82C1604.45,453.24,1584.46,454.06,1573.13,447.26Z" transform="translate(120.65 -48.71)" fill="url(#linear-gradient-16)"/>
      <g>
        <path id="SVGID-2" data-name="SVGID" d="M1578.9,417.59l-115.6-69.24c-8.25-4.94-7.22-13.6,2.26-19.16l-43.48,26.17c9.48-5.77,23.91-6.39,32.15-1.44l115.6,69.23c8.24,5,7.21,13.6-2.27,19.17L1611,416.15C1601.36,421.92,1587.14,422.54,1578.9,417.59Z" transform="translate(120.65 -48.71)" fill="#6de0f6"/>
        <g clip-path="url(#clip-path-5)">
          <path d="M1465.36,338.46l-43.28,26.17c9.48-5.77,23.91-6.39,32.15-1.44L1570,432.43a14.61,14.61,0,0,1,4.12,3.71c2.68-4.74,1.64-9.69-4.12-13.19l-115.81-69.24c-8.24-4.94-22.67-4.33-32.15,1.44L1465.36,329c-7.42,4.33-9.69,10.51-6.39,15.46A22.53,22.53,0,0,1,1465.36,338.46Z" transform="translate(120.65 -48.71)" fill="#267fe5"/>
        </g>
        <g clip-path="url(#clip-path-5)">
          <path d="M1465.36,349.8,1422.08,376c9.48-5.77,23.91-6.39,32.15-1.45L1570,443.76a11.32,11.32,0,0,1,3.29,2.88c3.71-4.94,2.68-10.5-3.29-14.21l-115.81-69.24c-8.24-4.95-22.67-4.33-32.15,1.44l43.28-26.17c-7.83,4.74-9.9,11.34-5.77,16.28A23.07,23.07,0,0,1,1465.36,349.8Z" transform="translate(120.65 -48.71)" fill="#25bfec"/>
        </g>
        <g clip-path="url(#clip-path-5)">
          <path d="M1460.82,367.31a20.71,20.71,0,0,1,4.54-3.71l-43.28,26.17c9.48-5.77,23.91-6.39,32.15-1.44L1570,457.57a22.11,22.11,0,0,1,2.26,1.64c5-5.35,4.33-11.53-2.26-15.45l-115.81-69.24c-8.24-4.94-22.67-4.32-32.15,1.45l43.28-26.17C1456.91,355,1455.26,362.37,1460.82,367.31Z" transform="translate(120.65 -48.71)" fill="#18d0f7"/>
        </g>
      </g>
    </g>
    <g>
      <path d="M1691.61,386.89H1585.28L1466.8,316c-15.25-9.07-41.83-8-59.55,2.47l40.38-24.31H1341.31V317h0c-.42,6.18,2.88,12.16,10.3,16.49l214.51,128.37c15.25,9.07,41.83,8,59.55-2.47l51.52-30.7c9.06-5.57,14-12.37,14.42-19.17h0Z" transform="translate(120.65 -48.71)" fill="url(#linear-gradient-17)"/>
      <path d="M1688.52,386.89v26.37h0a18.88,18.88,0,0,1-3.71,9.69c4.12-4.12,6.39-8.66,6.8-13.19h0V386.89Z" transform="translate(120.65 -48.71)" fill="#6ee8fc"/>
      <path d="M1566.12,439.23,1351.61,310.85c-15.25-9.07-13.39-25.14,4.33-35.65l51.51-30.7C1425,234,1451.76,232.75,1467,242L1681.51,370.4c15.25,9.07,13.4,25.14-4.32,35.65l-51.52,30.7C1608,447.26,1581.37,448.29,1566.12,439.23Z" transform="translate(120.65 -48.71)" fill="url(#linear-gradient-18)"/>
      <path d="M1575.39,417.18,1387.05,304.46c-9.06-5.56-8-15,2.47-21.22l30.91-18.34c10.51-6.39,26.59-7,35.65-1.44l188.34,112.71c9.07,5.57,8,15-2.47,21.23L1611,415.74C1600.53,421.92,1584.46,422.74,1575.39,417.18Z" transform="translate(120.65 -48.71)" fill="#6ee8fc"/>
      <path d="M1389.73,286.53l30.91-18.33c10.51-6.39,26.58-7,35.65-1.45l188.34,112.72c3.5,2.06,5.36,4.74,6,7.42.82-4.12-1.24-8-6-10.92L1456.08,263.25c-9.06-5.56-25.14-4.74-35.65,1.44L1389.52,283c-6.59,3.92-9.47,9.07-8.44,13.81C1381.69,293.33,1384.58,289.63,1389.73,286.53Z" transform="translate(120.65 -48.71)" fill="#267fe5"/>
      <path d="M1570.45,439.23,1355.94,310.85c-15.25-9.07-13.4-25.14,4.32-35.65l51.52-30.7c9.07-5.36,20.4-8.24,31.53-8.66-12.37-.41-25.55,2.48-35.65,8.66l-51.52,30.7c-17.51,10.51-19.57,26.58-4.32,35.65l214.51,128.38c7.41,4.53,17.51,6.38,28,6.18C1585.28,445,1576.84,443.14,1570.45,439.23Z" transform="translate(120.65 -48.71)" fill="#f88b93"/>
      <path d="M1681.31,370.4,1466.8,242c-7.42-4.54-17.72-6.39-28.23-6.19,8.86.21,17.31,2.27,23.7,6.19L1676.78,370.4c15.24,9.07,13.39,25.14-4.33,35.65l-51.52,30.7c-9.06,5.36-20.4,8.25-31.32,8.66,12.37.41,25.55-2.47,35.65-8.66l51.52-30.7C1694.7,395.54,1696.56,379.47,1681.31,370.4Z" transform="translate(120.65 -48.71)" fill="#6ee8fc"/>
    </g>
    <path d="M1550.46,808.28,1376.34,704c-4.74-2.89-8.45-10.31-8.45-16.9V465.4c0-6.39,3.71-9.48,8.45-6.6l174.12,104.27c4.74,2.88,8.45,10.3,8.45,16.9V801.69C1558.91,808.08,1555.2,811.17,1550.46,808.28Z" transform="translate(120.65 -48.71)" fill="#6de0f6"/>
    <path d="M1553.55,806.84,1379.43,702.57c-4.74-2.88-8.45-10.3-8.45-16.89V464c0-2.88.82-5.15,2.06-6.38-3.09,0-5.15,2.88-5.15,7.62V686.91c0,6.39,3.71,14,8.45,16.9l174.12,104.27c2.68,1.65,5,1.23,6.39-.41A4.21,4.21,0,0,1,1553.55,806.84Z" transform="translate(120.65 -48.71)" fill="#267fe5"/>
    <g>
      <path d="M1382.52,594.19l11.74-6.6h0c.21,0,.42-.2.62,0l148.37,83a2.15,2.15,0,0,1,.82,1.65v27.2c0,.21,0,.62-.2.62h0l-12,6.6V693.51l-137-76.66a2.13,2.13,0,0,1-.82-1.65v-9.27Z" transform="translate(120.65 -48.71)" fill="url(#linear-gradient-19)"/>
      <path d="M1382.93,623.65,1531.3,706.7c.41.2.82,0,.82-.62v-27.2a2.13,2.13,0,0,0-.82-1.65l-148.37-83c-.41-.21-.82,0-.82.61V622A2.13,2.13,0,0,0,1382.93,623.65Z" transform="translate(120.65 -48.71)" fill="url(#linear-gradient-20)"/>
      <path d="M1387.26,615.41l139.91,78.3c.42.21.62,0,.62-.41v-6.8a1.13,1.13,0,0,0-.62-1l-139.91-78.3c-.41-.21-.62,0-.62.41v6.8A1.14,1.14,0,0,0,1387.26,615.41Z" transform="translate(120.65 -48.71)" fill="#242993"/>
      <path d="M1387.26,607.17l2.88,1.65v3.7a1.15,1.15,0,0,0,.62,1l137,76.86v3.09c0,.41-.2.62-.62.41l-139.91-78.3a1.14,1.14,0,0,1-.62-1v-6.8C1386.64,607.17,1386.85,607,1387.26,607.17Z" transform="translate(120.65 -48.71)" fill="#4553c7"/>
    </g>
    <path d="M1399.83,614.17l116.42,65.12a31.46,31.46,0,0,0-2.68,1.65h0l-116.42-65.12A11.82,11.82,0,0,1,1399.83,614.17Z" transform="translate(120.65 -48.71)" fill="#4553c7" opacity="0.8" style="isolation: isolate"/>
    <text transform="matrix(1.03, 0.6, 0, 1, 1504.86, 502.11)" font-size="33.79" fill="#991fe8" font-family="Montserrat-Bold, Montserrat" font-weight="700"><tspan letter-spacing="-0.01em">P</tspan><tspan x="24.37" y="0">o</tspan><tspan x="46.5" y="0" letter-spacing="0.01em">r</tspan><tspan x="61.57" y="0" letter-spacing="0em">t</tspan><tspan x="76.27" y="0" letter-spacing="-0.01em">f</tspan><tspan x="89.12" y="0" letter-spacing="0em">olio</tspan></text>
  </g>
  <g id="Path_Line5" data-name="Path Line5">
    <path d="M1171.87,864.08c-7.37-4.35-19.37-4.45-26.81-.22s-7.49,11.19-.12,15.54,19.37,4.46,26.81.23S1179.24,868.44,1171.87,864.08ZM1165.62,876a16,16,0,0,1-14.49-.13c-4-2.35-4-6.11.06-8.4a16,16,0,0,1,14.49.12C1169.67,870,1169.64,873.72,1165.62,876Z" transform="translate(120.65 -48.71)" fill="url(#Áåçûìÿííûé_ãðàäèåíò_2)"/>
    <path d="M1158.28,888.16c-6.88,0-13.74-1.63-19-4.71s-8.24-7.39-8.2-11.94,3-8.74,8.38-11.8c10.52-6,27.56-5.84,38,.33,5.33,3.14,8.24,7.38,8.21,11.93s-3,8.74-8.39,11.8h0C1172.05,886.76,1165.16,888.22,1158.28,888.16Zm.23-29.93c-6.35-.05-12.7,1.3-17.55,4.06-4.43,2.51-6.87,5.8-6.9,9.24s2.37,6.78,6.75,9.37c9.62,5.69,25.34,5.82,35,.3h0c4.43-2.52,6.88-5.8,6.9-9.25s-2.37-6.78-6.75-9.37C1171.19,859.74,1164.85,858.29,1158.51,858.23Z" transform="translate(120.65 -48.71)" fill="url(#Áåçûìÿííûé_ãðàäèåíò_2-2)"/>
  </g>
  <path id="Path1" d="M1130.74,871.82,1074.5,871c-11.47-.17-20.55-8.54-20.17-18.59l1.31-34.84c.36-9.53-8.3-17.45-19.18-17.53l-55.94-.43" transform="translate(120.65 -48.71)" fill="none" stroke-miterlimit="10" stroke-width="3" stroke="url(#Áåçûìÿííûé_ãðàäèåíò_2-3)"/>
  <path id="Path2" d="M1312.87,722.42l-31-.51a14.53,14.53,0,0,0-14.72,14.45l-.84,125a13.54,13.54,0,0,1-13.68,13.45l-69-.71" transform="translate(120.65 -48.71)" fill="none" stroke-miterlimit="10" stroke-width="3" stroke="url(#Áåçûìÿííûé_ãðàäèåíò_2-4)"/>
  <g id="Paper">
    <path d="M1296.67,757.21l12.81-7.42c27.58-15.44,45.45-43.24,47.32-74.07,1.59-26,21.87-51.62,37.62-60.44h0l131,73.36h0c-15.51,8.69-32.59,33-34.54,58.55a92.71,92.71,0,0,1-47.22,74.18l-16,12.35Z" transform="translate(120.65 -48.71)" opacity="0.96" fill="url(#Áåçûìÿííûé_ãðàäèåíò_38)"/>
  </g>
  <g id="Paper-2" data-name="Paper">
    <g>
      <path d="M1464.18,741.47c4.16-4.81,2.11-10.79-4.64-14-2-.93-4.06-2-6.08-2.88-.8-.37-1.07-.7-.84-1.4.55-2,1-4.08,1.54-6.12,1.19-4.92-2-10.64-7.66-13.19-11-5.06-21.66-9.85-32.12-14.52a17.82,17.82,0,0,0-16.45,1.51c-1.74,1.28-3.49,2.44-5.15,3.76a1.82,1.82,0,0,1-2.15.18,43.82,43.82,0,0,0-6.37-2.9,10.11,10.11,0,0,0-12,4.19l-19.47,31.46a16,16,0,0,0-.76,1.49c-1.29,3.08-.3,8.16,4.49,10.72,9.79,5.33,19.71,11.07,30,16.84,10.72,6,21.82,12.31,33.21,18.71a16.51,16.51,0,0,0,2,1c5.26,2,11.59.88,14.73-2.75l7.87-9.1C1450.73,757,1457.34,749.38,1464.18,741.47ZM1423.05,753c-6.5,4-13.93,4.86-22.12,2.62a42.51,42.51,0,0,1-19.41-10.81c-5.32-5.25-7.21-11.09-5.56-17.35,1.51-5.86,4.54-11,10.55-14.56,8.43-5,18-5.71,28.48-2.26,13.26,4.34,24.37,17.05,18.51,31.11a35.77,35.77,0,0,1-2.57,4.5A38.29,38.29,0,0,1,1423.05,753Z" transform="translate(120.65 -48.71)" fill="#242993"/>
      <path d="M1415,710.64c-10.49-3.45-20-2.79-28.48,2.26A22.59,22.59,0,0,0,1376,727.46c-1.65,6.26.24,12.1,5.56,17.35a42.75,42.75,0,0,0,19.41,10.81c8.18,2.14,15.6,1.3,22.12-2.62a38.05,38.05,0,0,0,7.84-6.71c.87-1.47,1.87-3,2.57-4.49C1439.36,727.69,1428.25,715,1415,710.64Zm-21.88,37c-10.43-5.72-14.22-16.68-8.6-25,5.78-8.56,19.66-11.37,31.18-5.76,11.8,5.79,15.87,17.8,9,26.58C1417.94,751.86,1403.85,753.52,1393.11,747.63Z" transform="translate(120.65 -48.71)" fill="#fff"/>
      <path d="M1415.65,716.92c-11.43-5.6-25.36-2.85-31.17,5.75-5.59,8.28-1.76,19.3,8.6,25,10.73,5.89,24.83,4.23,31.45-4.2C1431.52,734.72,1427.49,722.66,1415.65,716.92Z" transform="translate(120.65 -48.71)" fill="#242993"/>
    </g>
  </g>
</svg>
