<svg id="Layer_1" data-name="Layer 1" xmlns="http://www.w3.org/2000/svg" viewBox="0 0 1839.69 346.89">
  <title>Portfolio_Full_Logo</title>
  <g style="isolation: isolate">
    <path d="M51.94,14.92H123.5q37.58,0,61.26,17.07t34.58,42.47q10.89,25.41,9.28,54.87a139.44,139.44,0,0,1-14.16,54.77,114.59,114.59,0,0,1-35.74,42.24Q155.51,243.27,123,243.27q-24.61,0-37.83-8.12T67.34,215.66A41.67,41.67,0,0,1,65,191.76a55.1,55.1,0,0,1,8.82-21.82c1.55,3.41,4.48,6,8.82,7.89A64.69,64.69,0,0,0,97.27,182a94.42,94.42,0,0,0,16,1.4,73.68,73.68,0,0,0,13-.94,40.88,40.88,0,0,0,21.58-11.14,55.6,55.6,0,0,0,13.46-20.64,71.22,71.22,0,0,0,4.41-25.07,55.65,55.65,0,0,0-5.34-24.37,44.17,44.17,0,0,0-16.71-18.33q-11.37-7.19-29-7.19H62.23V340.28H.5V72.09q0-25.56,11.69-41.36T51.94,14.92Z" fill="#ff0051" stroke="#3f1737" stroke-miterlimit="10"/>
    <path d="M382,94.29q36.66,0,65.21,17.64t44.79,45q16.25,27.41,17.4,60.81t-16.93,65.44a121.67,121.67,0,0,1-39.92,42.24,130,130,0,0,1-52.45,19.72,127.85,127.85,0,0,1-55.92-4.64q-28.1-8.58-50.36-30.86-25.06-25.53-33.42-58.95a125.68,125.68,0,0,1,1.39-66.83,50,50,0,0,1,13.69-22.28,60.79,60.79,0,0,1,21.59-13,68.74,68.74,0,0,1,25.06-3.71,65.44,65.44,0,0,1,24.13,5.34,50.94,50.94,0,0,1,18.8,13.92,39.81,39.81,0,0,1,9.05,22.05,28.74,28.74,0,0,0-16.71-5.34A40.22,40.22,0,0,0,338.62,185a39.62,39.62,0,0,0-15.32,13.46Q317,207.55,317,221q0,23.2,9.75,38.52t24.37,23a66.91,66.91,0,0,0,31.56,7.66,65.33,65.33,0,0,0,31.56-7.89q14.63-7.87,24.36-23.43t9.75-38.76q0-18.09-6.5-32a65.18,65.18,0,0,0-17.4-23,61.85,61.85,0,0,0-25.29-12.53,70.5,70.5,0,0,0-30.64-.23,50.68,50.68,0,0,0-16.94-13.23,71.58,71.58,0,0,0-21.58-6.5,72.84,72.84,0,0,0-23.2.47A65.22,65.22,0,0,0,285,141.17a133.66,133.66,0,0,1,43.16-34.58A118.83,118.83,0,0,1,382,94.29Z" fill="#ff0051" stroke="#3f1737" stroke-miterlimit="10"/>
    <path d="M546.77,98.93h52v30.64q7.89-16.25,20.2-25.76A48.55,48.55,0,0,1,646.1,93.36q19.49-1.38,31.56,7.2t16.94,20.89a44.88,44.88,0,0,1,2.55,25.06,30.84,30.84,0,0,1-12.53,20.18,23.1,23.1,0,0,0-16-15.08q-11.83-3.48-24.84.93T620.34,169Q609.9,181.08,608,200.57q-.94,11.16-.93,22.06V340.28H546.77Z" fill="#ff0051" stroke="#3f1737" stroke-miterlimit="10"/>
    <path d="M759.81,62.73q0-13,4.87-22a40.92,40.92,0,0,1,13-14.62,56,56,0,0,1,18.8-8.12,93.53,93.53,0,0,1,21.81-2.56v86.33h53.84a100,100,0,0,1-1.62,18.11,44,44,0,0,1-6.27,16,35,35,0,0,1-12.53,11.61q-7.9,4.41-20.42,4.4h-13V283.19q0,7.44,5.57,10.44a25.11,25.11,0,0,0,13,2.79,39.87,39.87,0,0,0,14.86-3.48c4.94-2.16,8.51-5.1,10.67-8.82q6,15.31.7,27.15a43.15,43.15,0,0,1-16.71,19,65.7,65.7,0,0,1-26.45,9.28,61.73,61.73,0,0,1-28.32-2.32,48.36,48.36,0,0,1-22.51-15.78q-9.29-11.37-9.28-30.87V151.84H730.1V101.71h29.71Z" fill="#ff0051" stroke="#3f1737" stroke-miterlimit="10"/>
    <path d="M909.25,99.4h21.36q0-12.06-.24-23.91a169.44,169.44,0,0,1,.93-22.27A114.44,114.44,0,0,1,935,34a45.07,45.07,0,0,1,8.12-15.79A42.87,42.87,0,0,1,960.54,5.88q10.9-4.42,28.54-5.35a97,97,0,0,1,34.81,5.11q15.78,5.58,24.37,15.55a33.21,33.21,0,0,1,8.35,23q-.22,13-13.22,27.39a28.63,28.63,0,0,0-11.84-14.85,35.52,35.52,0,0,0-17.63-6,25,25,0,0,0-16,4.41q-7,4.88-7,16.48V99.4h59.41q0,23.21-13,37.36t-32.48,14.16H990.94V340.28H930.61V150.92H909.25Z" fill="#ff0051" stroke="#3f1737" stroke-miterlimit="10"/>
    <path d="M1201.19,94.29q36.66,0,65.21,17.64t44.79,45q16.23,27.41,17.4,60.81t-16.94,65.44a121.58,121.58,0,0,1-39.92,42.24,130,130,0,0,1-52.44,19.72,127.9,127.9,0,0,1-55.93-4.64q-28.08-8.58-50.36-30.86-25.07-25.53-33.41-58.95a125.68,125.68,0,0,1,1.39-66.83,49.77,49.77,0,0,1,13.69-22.28,60.75,60.75,0,0,1,21.58-13,68.77,68.77,0,0,1,25.06-3.71,65.54,65.54,0,0,1,24.14,5.34,51.11,51.11,0,0,1,18.8,13.92,39.88,39.88,0,0,1,9,22.05,28.76,28.76,0,0,0-16.71-5.34,40.23,40.23,0,0,0-18.8,4.18,39.6,39.6,0,0,0-15.31,13.46q-6.27,9.06-6.27,22.51,0,23.2,9.75,38.52t24.36,23a66.94,66.94,0,0,0,31.56,7.66,65.3,65.3,0,0,0,31.56-7.89q14.63-7.87,24.37-23.43t9.75-38.76q0-18.09-6.5-32a65.2,65.2,0,0,0-17.41-23,61.79,61.79,0,0,0-25.29-12.53,70.45,70.45,0,0,0-30.63-.23,50.78,50.78,0,0,0-16.94-13.23,71.65,71.65,0,0,0-21.59-6.5,72.85,72.85,0,0,0-23.2.47,65.17,65.17,0,0,0-21.81,8.12,133.45,133.45,0,0,1,43.16-34.58A118.8,118.8,0,0,1,1201.19,94.29Z" fill="#ff0051" stroke="#3f1737" stroke-miterlimit="10"/>
    <path d="M1424.43,15.38v324.9H1366V62.73q0-22.29,15.78-35T1424.43,15.38Z" fill="#ff0051" stroke="#3f1737" stroke-miterlimit="10"/>
    <path d="M1510.29,1a36,36,0,0,1,26.92,11.61A36.48,36.48,0,0,1,1548.82,40a38.81,38.81,0,0,1-11.14,27.85,35.14,35.14,0,0,1-15.09,9q-8.6,2.57-17.17,5.11a105.15,105.15,0,0,0-15.78,6,19.15,19.15,0,0,0-10,11.38q-2.33-7.43-4.87-19a149.47,149.47,0,0,1-3.25-24.12,105.71,105.71,0,0,1,1.39-24.37,36,36,0,0,1,10-19.73A37.21,37.21,0,0,1,1510.29,1Zm-30.17,147.59q.93-13.9,5.81-23.2a41.16,41.16,0,0,1,12.76-14.85,53.67,53.67,0,0,1,18.33-8.13,96.83,96.83,0,0,1,23-2.55V340.28h-59.88Z" fill="#ff0051" stroke="#3f1737" stroke-miterlimit="10"/>
    <path d="M1711.72,94.29q36.66,0,65.21,17.64t44.79,45q16.23,27.41,17.4,60.81t-16.94,65.44a121.58,121.58,0,0,1-39.92,42.24,130,130,0,0,1-52.44,19.72,127.9,127.9,0,0,1-55.93-4.64q-28.08-8.58-50.36-30.86-25.07-25.53-33.41-58.95a125.68,125.68,0,0,1,1.39-66.83,49.77,49.77,0,0,1,13.69-22.28,60.75,60.75,0,0,1,21.58-13,68.77,68.77,0,0,1,25.06-3.71,65.54,65.54,0,0,1,24.14,5.34,51.11,51.11,0,0,1,18.8,13.92,39.88,39.88,0,0,1,9,22.05,28.76,28.76,0,0,0-16.71-5.34,40.23,40.23,0,0,0-18.8,4.18A39.6,39.6,0,0,0,1653,198.49q-6.27,9.06-6.27,22.51,0,23.2,9.75,38.52t24.36,23a66.94,66.94,0,0,0,31.56,7.66,65.33,65.33,0,0,0,31.56-7.89q14.63-7.87,24.37-23.43t9.75-38.76q0-18.09-6.5-32a65.2,65.2,0,0,0-17.41-23,61.79,61.79,0,0,0-25.29-12.53,70.45,70.45,0,0,0-30.63-.23,50.78,50.78,0,0,0-16.94-13.23,71.65,71.65,0,0,0-21.59-6.5,72.85,72.85,0,0,0-23.2.47,65.09,65.09,0,0,0-21.81,8.12,133.45,133.45,0,0,1,43.16-34.58A118.8,118.8,0,0,1,1711.72,94.29Z" fill="#ff0051" stroke="#3f1737" stroke-miterlimit="10"/>
  </g>
</svg>
