<?xml version="1.0" encoding="utf-8"?>
<!-- Generator: Adobe Illustrator 21.0.2, SVG Export Plug-In . SVG Version: 6.00 Build 0)  -->
<svg version="1.1" id="bg" xmlns="http://www.w3.org/2000/svg" xmlns:xlink="http://www.w3.org/1999/xlink" x="0px" y="0px"
	 viewBox="0 0 1920 1080" style="enable-background:new 0 0 1920 1080;" xml:space="preserve">
<style type="text/css">
	.st0{opacity:0.5;}
	.st1{fill:#FFFFFF;}
	.st2{fill:#FFFDFD;}
	.st0,.st1,.st2{
	animation: dotsAnimation 15s infinite linear;}
@keyframes dotsAnimation { 
  0% {
        
        transform: rotate(0deg) translate3d(0, 2%, 0) rotate(0deg)
    }
    to {
        
        transform: rotate(-1turn) translate3d(0, 2%, 0) rotate(1turn)
    }
}
</style>
<g id="set_1" class="st0">
	<path id="image" class="st1" d="M406.9,147.6v40.8h50.2v-40.8H406.9z M454,185.2H410v-34.5H454V185.2z M441.4,158.6
		c0,2.6,2.1,4.7,4.7,4.7s4.7-2.1,4.7-4.7c0-2.6-2.1-4.7-4.7-4.7S441.4,156,441.4,158.6z M450.8,182.1h-37.7l9.4-25.1l12.6,15.7
		l6.3-4.7L450.8,182.1z"/>
	<path id="Audio_1" class="st1" d="M634.3,298.9c-16,0-29,13-29,29s13,29,29,29s29-13,29-29S650.3,298.9,634.3,298.9z M634.3,300.9
		c14.9,0,27,12.1,27,27s-12.1,27-27,27s-27-12.1-27-27S619.4,300.9,634.3,300.9z M633.8,304.9c-5.9,0.1-11.6,2.5-15.8,6.7
		c-9,9-9,23.6,0,32.5c0.2,0.2,0.5,0.3,0.7,0.3c0.3,0,0.5-0.1,0.7-0.3c0.4-0.4,0.4-1,0-1.4c-8.2-8.2-8.2-21.5,0-29.7
		c4.7-4.8,11.5-7,18.2-5.9c0.5,0.1,1.1-0.3,1.1-0.8c0.1-0.5-0.3-1.1-0.8-1.1C636.6,304.9,635.2,304.9,633.8,304.9z M641.9,306.3
		c-0.4,0-0.7,0.3-0.9,0.6c-0.2,0.5,0.1,1.1,0.6,1.3c0.7,0.3,1.4,0.6,2.1,0.9c0.1,0.1,0.3,0.1,0.4,0.1c0.4,0,0.7-0.2,0.9-0.6
		c0.2-0.5,0-1.1-0.4-1.3c-0.7-0.4-1.5-0.7-2.3-1C642.2,306.3,642.1,306.3,641.9,306.3z M647.7,309.5c-0.3,0-0.5,0.2-0.7,0.4
		c-0.3,0.4-0.3,1.1,0.2,1.4c0.7,0.5,1.3,1.1,1.9,1.7c8.2,8.2,8.2,21.5,0,29.7c-0.4,0.4-0.4,1,0,1.4c0.2,0.2,0.5,0.3,0.7,0.3
		c0.3,0,0.5-0.1,0.7-0.3c9-9,9-23.6,0-32.5c-0.7-0.7-1.4-1.3-2.1-1.9C648.2,309.6,648,309.5,647.7,309.5z M632.4,312.9
		c-0.3,0-0.6,0-0.8,0.2c-0.2,0.2-0.4,0.5-0.4,0.8v13.2c-0.7-0.1-1.3-0.2-2-0.2c-4.4,0-8,3.1-8,7s3.6,7,8,7s8-3.1,8-7v-11.2l6.8,1.1
		c0.3,0.1,0.6,0,0.8-0.2c0.2-0.2,0.4-0.5,0.4-0.8v-7c0-0.5-0.4-0.9-0.8-1L632.4,312.9z M633.3,315.1l10,1.7v5l-6.8-1.1
		c-0.3,0-0.6,0-0.8,0.2c-0.2,0.2-0.4,0.5-0.4,0.8v12.3c0,2.8-2.7,5-6,5s-6-2.2-6-5s2.7-5,6-5c0.9,0,1.8,0.2,2.6,0.5
		c0.3,0.1,0.7,0.1,0.9-0.1s0.4-0.5,0.4-0.8V315.1z M624.6,344.3c-0.4,0-0.8,0.1-1,0.5l-1,1.7c-0.3,0.5-0.1,1.1,0.4,1.4
		c0.2,0.1,0.3,0.1,0.5,0.1c0.3,0,0.7-0.2,0.9-0.5l1-1.7c0.3-0.5,0.1-1.1-0.4-1.4C624.9,344.3,624.8,344.3,624.6,344.3z M643.9,344.3
		c-0.1,0-0.3,0.1-0.4,0.1c-0.5,0.3-0.6,0.9-0.4,1.4l1,1.7c0.2,0.3,0.5,0.5,0.9,0.5c0.2,0,0.3,0,0.5-0.1c0.5-0.3,0.6-0.9,0.4-1.4
		l-1-1.7C644.7,344.4,644.3,344.2,643.9,344.3z M629.1,346.2c-0.4,0.1-0.7,0.3-0.8,0.7l-0.5,1.9c-0.1,0.5,0.2,1.1,0.7,1.2
		c0.1,0,0.2,0,0.3,0c0.4,0,0.8-0.3,1-0.7l0.5-1.9c0.1-0.5-0.2-1.1-0.7-1.2C629.3,346.2,629.2,346.2,629.1,346.2z M639.5,346.2
		c-0.1,0-0.3,0-0.4,0c-0.5,0.1-0.8,0.7-0.7,1.2l0.5,1.9c0.1,0.4,0.5,0.7,1,0.7c0.1,0,0.2,0,0.3,0c0.5-0.1,0.9-0.7,0.7-1.2l-0.5-1.9
		C640.2,346.5,639.8,346.3,639.5,346.2z M634.3,346.9c-0.6,0-1,0.4-1,1v2c0,0.6,0.4,1,1,1s1-0.4,1-1v-2
		C635.3,347.3,634.8,346.9,634.3,346.9z"/>
	<path id="Video_1" class="st1" d="M573,377.9c-9.3-15.2-30-20.4-46.2-11.6c-16.2,8.8-21.7,28.2-12.4,43.4
		c9.3,15.2,30,20.4,46.2,11.6C576.8,412.6,582.3,393.1,573,377.9z M557.2,415.8c-12.9,7-29.5,2.9-37-9.3c-7.5-12.2-3-27.7,9.9-34.7
		c12.9-7,29.5-2.9,37,9.3C574.6,393.3,570.1,408.8,557.2,415.8z M555.8,392.5l-17.7-9.7c-1.6-0.9-2.9-0.2-2.9,1.6l0.1,19.3
		c0,1.8,1.3,2.5,2.9,1.6l17.6-9.5C557.5,394.8,557.5,393.4,555.8,392.5z"/>
	<path id="text_1_1_" class="st2" d="M308.2,354.4h-31.4c-2.1,0-3.8,1.7-3.8,3.8V413c0,2.1,1.7,3.8,3.8,3.8h38.5
		c2.1,0,3.8-1.7,3.8-3.8v-46.8L308.2,354.4z M309.1,360.1l4.8,5.2h-4.8V360.1z M315.9,413c0,0.3-0.3,0.6-0.6,0.6h-38.5
		c-0.3,0-0.6-0.3-0.6-0.6v-54.8c0-0.3,0.3-0.6,0.6-0.6h29.1v9.3c0,0.9,0.7,1.6,1.6,1.6h8.4V413z M281.9,371.5h27.3
		c0.7,0,1.2,0.5,1.2,1.2s-0.5,1.2-1.2,1.2h-27.3c-0.7,0-1.2-0.5-1.2-1.2C280.7,372,281.2,371.5,281.9,371.5z M310.4,380.8
		c0,0.7-0.5,1.2-1.2,1.2h-27.3c-0.7,0-1.2-0.5-1.2-1.2s0.5-1.2,1.2-1.2h27.3C309.8,379.6,310.4,380.1,310.4,380.8z M310.4,388.6
		c0,0.7-0.5,1.2-1.2,1.2h-27.3c-0.7,0-1.2-0.5-1.2-1.2s0.5-1.2,1.2-1.2h27.3C309.8,387.4,310.4,387.9,310.4,388.6z M310.4,396.6
		c0,0.7-0.5,1.2-1.2,1.2h-27.3c-0.7,0-1.2-0.5-1.2-1.2s0.5-1.2,1.2-1.2h27.3C309.8,395.3,310.4,395.9,310.4,396.6z"/>
	<path id="image_1_" class="st1" d="M577.8,722.9v40.8H628v-40.8H577.8z M624.8,760.6h-43.9v-34.5h43.9V760.6z M612.3,733.9
		c0,2.6,2.1,4.7,4.7,4.7s4.7-2.1,4.7-4.7c0-2.6-2.1-4.7-4.7-4.7S612.3,731.3,612.3,733.9z M621.7,757.4H584l9.4-25.1L606,748
		l6.3-4.7L621.7,757.4z"/>
	<g>
		<path class="st1" d="M471.1,863.5l-17.7-9.7c-1.6-0.9-2.9-0.2-2.9,1.6l0.1,19.3c0,1.8,1.3,2.5,2.9,1.6l17.6-9.5
			C472.7,865.8,472.7,864.4,471.1,863.5z"/>
		<path class="st1" d="M488.2,848.9c-9.3-15.2-30-20.4-46.2-11.6c-16.2,8.8-21.7,28.2-12.4,43.4c9.3,15.2,30,20.4,46.2,11.6
			C492,883.6,497.6,864.1,488.2,848.9z M472.5,886.8c-12.9,7-29.5,2.9-37-9.3c-7.5-12.2-3-27.7,9.9-34.7c12.9-7,29.5-2.9,37,9.3
			C489.8,864.3,485.4,879.8,472.5,886.8z"/>
	</g>
	<path id="text_1" class="st1" d="M677.7,512.9h-31.4c-2.1,0-3.8,1.7-3.8,3.8v54.8c0,2.1,1.7,3.8,3.8,3.8h38.5
		c2.1,0,3.8-1.7,3.8-3.8v-46.8L677.7,512.9z M678.6,518.6l4.8,5.2h-4.8V518.6z M685.4,571.5c0,0.3-0.3,0.6-0.6,0.6h-38.5
		c-0.3,0-0.6-0.3-0.6-0.6v-54.8c0-0.3,0.3-0.6,0.6-0.6h29.1v9.3c0,0.9,0.7,1.6,1.6,1.6h8.4V571.5z M651.4,530h27.3
		c0.7,0,1.2,0.5,1.2,1.2c0,0.7-0.5,1.2-1.2,1.2h-27.3c-0.7,0-1.2-0.5-1.2-1.2C650.2,530.5,650.7,530,651.4,530z M679.9,539.3
		c0,0.7-0.5,1.2-1.2,1.2h-27.3c-0.7,0-1.2-0.5-1.2-1.2c0-0.7,0.5-1.2,1.2-1.2h27.3C679.3,538.1,679.9,538.6,679.9,539.3z
		 M679.9,547.1c0,0.7-0.5,1.2-1.2,1.2h-27.3c-0.7,0-1.2-0.5-1.2-1.2c0-0.7,0.5-1.2,1.2-1.2h27.3
		C679.3,545.9,679.9,546.4,679.9,547.1z M679.9,555.1c0,0.7-0.5,1.2-1.2,1.2h-27.3c-0.7,0-1.2-0.5-1.2-1.2c0-0.7,0.5-1.2,1.2-1.2
		h27.3C679.3,553.8,679.9,554.4,679.9,555.1z"/>
	<path id="Audio_1_1_" class="st1" d="M374,534c-16,0-29,13-29,29s13,29,29,29s29-13,29-29S390,534,374,534z M374,536
		c14.9,0,27,12.1,27,27s-12.1,27-27,27s-27-12.1-27-27S359.1,536,374,536z M373.6,540c-5.9,0.1-11.6,2.5-15.8,6.7
		c-9,9-9,23.6,0,32.5c0.2,0.2,0.5,0.3,0.7,0.3c0.3,0,0.5-0.1,0.7-0.3c0.4-0.4,0.4-1,0-1.4c-8.2-8.2-8.2-21.5,0-29.7
		c4.7-4.8,11.5-7,18.2-5.9c0.5,0.1,1.1-0.3,1.1-0.8c0.1-0.5-0.3-1.1-0.8-1.1C376.3,540.1,374.9,540,373.6,540z M381.7,541.4
		c-0.4,0-0.7,0.3-0.9,0.6c-0.2,0.5,0.1,1.1,0.6,1.3c0.7,0.3,1.4,0.6,2.1,0.9c0.1,0.1,0.3,0.1,0.4,0.1c0.4,0,0.7-0.2,0.9-0.6
		c0.2-0.5,0-1.1-0.4-1.3c-0.7-0.4-1.5-0.7-2.3-1C381.9,541.4,381.8,541.4,381.7,541.4z M387.4,544.7c-0.3,0-0.5,0.2-0.7,0.4
		c-0.3,0.4-0.3,1.1,0.2,1.4c0.7,0.5,1.3,1.1,1.9,1.7c8.2,8.2,8.2,21.5,0,29.7c-0.4,0.4-0.4,1,0,1.4c0.2,0.2,0.5,0.3,0.7,0.3
		c0.3,0,0.5-0.1,0.7-0.3c9-9,9-23.6,0-32.5c-0.7-0.7-1.4-1.3-2.1-1.9C388,544.7,387.7,544.7,387.4,544.7z M372.2,548.1
		c-0.3,0-0.6,0-0.8,0.2c-0.2,0.2-0.4,0.5-0.4,0.8v13.2c-0.7-0.1-1.3-0.2-2-0.2c-4.4,0-8,3.1-8,7s3.6,7,8,7s8-3.1,8-7v-11.2l6.8,1.1
		c0.3,0.1,0.6,0,0.8-0.2c0.2-0.2,0.4-0.5,0.4-0.8v-7c0-0.5-0.4-0.9-0.8-1L372.2,548.1z M373,550.2l10,1.7v5l-6.8-1.1
		c-0.3,0-0.6,0-0.8,0.2c-0.2,0.2-0.4,0.5-0.4,0.8V569c0,2.8-2.7,5-6,5s-6-2.2-6-5s2.7-5,6-5c0.9,0,1.8,0.2,2.6,0.5
		c0.3,0.1,0.7,0.1,0.9-0.1s0.4-0.5,0.4-0.8V550.2z M364.4,579.4c-0.4,0-0.8,0.1-1,0.5l-1,1.7c-0.3,0.5-0.1,1.1,0.4,1.4
		c0.2,0.1,0.3,0.1,0.5,0.1c0.3,0,0.7-0.2,0.9-0.5l1-1.7c0.3-0.5,0.1-1.1-0.4-1.4C364.6,579.5,364.5,579.4,364.4,579.4z M383.6,579.4
		c-0.1,0-0.3,0.1-0.4,0.1c-0.5,0.3-0.6,0.9-0.4,1.4l1,1.7c0.2,0.3,0.5,0.5,0.9,0.5c0.2,0,0.3,0,0.5-0.1c0.5-0.3,0.6-0.9,0.4-1.4
		l-1-1.7C384.4,579.6,384,579.4,383.6,579.4z M368.8,581.4c-0.4,0.1-0.7,0.3-0.8,0.7l-0.5,1.9c-0.1,0.5,0.2,1.1,0.7,1.2
		c0.1,0,0.2,0,0.3,0c0.4,0,0.8-0.3,1-0.7l0.5-1.9c0.1-0.5-0.2-1.1-0.7-1.2C369.1,581.4,369,581.4,368.8,581.4z M379.2,581.4
		c-0.1,0-0.3,0-0.4,0c-0.5,0.1-0.8,0.7-0.7,1.2l0.5,1.9c0.1,0.4,0.5,0.7,1,0.7c0.1,0,0.2,0,0.3,0c0.5-0.1,0.9-0.7,0.7-1.2l-0.5-1.9
		C379.9,581.7,379.6,581.4,379.2,581.4z M374,582c-0.6,0-1,0.4-1,1v2c0,0.6,0.4,1,1,1s1-0.4,1-1v-2C375,582.5,374.6,582,374,582z"/>
</g>
<g id="set_2" class="st0">
	<path id="image_3_" class="st1" d="M803,306.2v27.8h34.2v-27.8H803z M835.1,331.8h-29.9v-23.5h29.9V331.8z M826.5,313.6
		c0,1.8,1.4,3.2,3.2,3.2s3.2-1.4,3.2-3.2c0-1.8-1.4-3.2-3.2-3.2S826.5,311.9,826.5,313.6z M832.9,329.6h-25.6l6.4-17.1l8.5,10.7
		l4.3-3.2L832.9,329.6z"/>
	<path id="Audio_1_3_" class="st1" d="M869.1,505.5c-10.9,0-19.7,8.9-19.7,19.7s8.9,19.7,19.7,19.7s19.7-8.9,19.7-19.7
		S880,505.5,869.1,505.5z M869.1,506.8c10.1,0,18.4,8.2,18.4,18.4c0,10.1-8.2,18.4-18.4,18.4c-10.1,0-18.4-8.2-18.4-18.4
		C850.7,515.1,859,506.8,869.1,506.8z M868.8,509.6c-4,0.1-7.9,1.7-10.8,4.6c-6.1,6.1-6.1,16,0,22.1c0.1,0.1,0.3,0.2,0.5,0.2
		c0.2,0,0.4-0.1,0.5-0.2c0.3-0.3,0.3-0.7,0-1c-5.6-5.6-5.6-14.6,0-20.2c3.2-3.2,7.9-4.7,12.4-4c0.4,0.1,0.7-0.2,0.8-0.6
		c0.1-0.4-0.2-0.7-0.6-0.8C870.7,509.6,869.7,509.5,868.8,509.6z M874.3,510.5c-0.3,0-0.5,0.2-0.6,0.4c-0.1,0.4,0,0.7,0.4,0.9
		c0.5,0.2,1,0.4,1.4,0.6c0.1,0.1,0.2,0.1,0.3,0.1c0.2,0,0.5-0.1,0.6-0.4c0.2-0.3,0-0.7-0.3-0.9c-0.5-0.3-1-0.5-1.6-0.7
		C874.5,510.5,874.4,510.5,874.3,510.5z M878.2,512.7c-0.2,0-0.3,0.1-0.5,0.3c-0.2,0.3-0.2,0.7,0.1,1c0.5,0.4,0.9,0.7,1.3,1.2
		c5.6,5.6,5.6,14.6,0,20.2c-0.3,0.3-0.3,0.7,0,1c0.1,0.1,0.3,0.2,0.5,0.2c0.2,0,0.3-0.1,0.5-0.2c6.1-6.1,6.1-16,0-22.1
		c-0.4-0.4-0.9-0.9-1.4-1.3C878.6,512.8,878.4,512.7,878.2,512.7z M867.9,515c-0.2,0-0.4,0-0.6,0.2c-0.2,0.1-0.2,0.3-0.2,0.5v9
		c-0.4-0.1-0.9-0.2-1.4-0.2c-3,0-5.4,2.1-5.4,4.8s2.4,4.8,5.4,4.8c3,0,5.4-2.1,5.4-4.8v-7.6l4.7,0.8c0.2,0,0.4,0,0.6-0.1
		c0.2-0.1,0.2-0.3,0.2-0.5V517c0-0.3-0.2-0.6-0.6-0.7L867.9,515z M868.4,516.5l6.8,1.1v3.4l-4.7-0.8c-0.2,0-0.4,0-0.6,0.2
		c-0.2,0.1-0.2,0.3-0.2,0.5v8.4c0,1.9-1.8,3.4-4.1,3.4c-2.3,0-4.1-1.5-4.1-3.4s1.8-3.4,4.1-3.4c0.6,0,1.2,0.1,1.8,0.3
		c0.2,0.1,0.4,0.1,0.6-0.1c0.2-0.1,0.3-0.3,0.3-0.6V516.5z M862.6,536.3c-0.3,0-0.5,0.1-0.7,0.3l-0.7,1.2c-0.2,0.3-0.1,0.7,0.2,0.9
		c0.1,0.1,0.2,0.1,0.3,0.1c0.2,0,0.5-0.1,0.6-0.3l0.7-1.2c0.2-0.3,0.1-0.7-0.2-0.9C862.7,536.4,862.6,536.4,862.6,536.3z
		 M875.7,536.3c-0.1,0-0.2,0-0.3,0.1c-0.3,0.2-0.4,0.6-0.2,0.9l0.7,1.2c0.1,0.2,0.4,0.3,0.6,0.3c0.1,0,0.2,0,0.3-0.1
		c0.3-0.2,0.4-0.6,0.2-0.9l-0.7-1.2C876.2,536.4,875.9,536.3,875.7,536.3z M865.6,537.7c-0.3,0-0.5,0.2-0.6,0.5l-0.4,1.3
		c-0.1,0.4,0.1,0.7,0.5,0.8c0.1,0,0.1,0,0.2,0c0.3,0,0.6-0.2,0.7-0.5l0.4-1.3c0.1-0.4-0.1-0.7-0.5-0.8
		C865.8,537.7,865.7,537.7,865.6,537.7z M872.6,537.7c-0.1,0-0.2,0-0.3,0c-0.4,0.1-0.6,0.5-0.5,0.8l0.4,1.3c0.1,0.3,0.4,0.5,0.7,0.5
		c0.1,0,0.1,0,0.2,0c0.4-0.1,0.6-0.5,0.5-0.8l-0.4-1.3C873.1,537.9,872.9,537.7,872.6,537.7z M869.1,538.1c-0.4,0-0.7,0.3-0.7,0.7
		v1.4c0,0.4,0.3,0.7,0.7,0.7s0.7-0.3,0.7-0.7v-1.4C869.8,538.4,869.5,538.1,869.1,538.1z"/>
	<path id="Video_1_3_" class="st1" d="M930.9,157.2c-6.4-10.3-20.4-13.9-31.4-7.9c-11,6-14.8,19.2-8.4,29.5
		c6.4,10.3,20.4,13.9,31.4,7.9C933.5,180.8,937.2,167.5,930.9,157.2z M920.2,183c-8.8,4.8-20.1,1.9-25.2-6.3
		c-5.1-8.3-2.1-18.9,6.7-23.6c8.8-4.8,20.1-1.9,25.2,6.3C932,167.6,929,178.2,920.2,183z M919.2,167.1l-12.1-6.6
		c-1.1-0.6-2-0.1-2,1.1l0.1,13.1c0,1.2,0.9,1.7,2,1.1l12-6.5C920.3,168.7,920.3,167.7,919.2,167.1z"/>
	<path id="text_1_3_" class="st1" d="M754.5,623.2h-21.4c-1.4,0-2.6,1.2-2.6,2.6v37.3c0,1.4,1.2,2.6,2.6,2.6h26.2
		c1.4,0,2.6-1.2,2.6-2.6v-31.8L754.5,623.2z M755.1,627.1l3.2,3.5h-3.2V627.1z M758.7,663.1c1,0.2,0.8,0.4,0.6,0.4h-26.2
		c-0.2,0-0.4-0.2-0.4-0.4v-37.3c0-0.2,0.2-0.4,0.4-0.4h19.8v6.3c0,0.6,0.5,1.1,1.1,1.1h4.7V663.1z M735.6,634.9h18.6
		c1.5,0,1.8,0.4,1.8,0.8s-0.4,0.8-0.8,0.8h-18.6c-0.5,0-0.8-0.4-0.8-0.8C735.8,635.2,736.1,634.9,735.6,634.9z M756,641.2
		c0,0.5-0.4,0.8-1.8,0.8h-18.6c0.5,0,0.2-0.4,0.2-0.8s0.4-0.8,0.8-0.8h18.6C755.6,640.4,756,640.7,756,641.2z M756,646.5
		c0,0.5-0.4,0.8-1.8,0.8h-18.6c0.5,0,0.2-0.4,0.2-0.8s0.4-0.8,0.8-0.8h18.6C755.6,645.7,756,646.1,756,646.5z M756,651.9
		c0,0.5-0.4,0.8-1.8,0.8h-18.6c0.5,0,0.2-0.4,0.2-0.8s0.4-0.8,0.8-0.8h18.6C755.6,651.1,756,651.5,756,651.9z"/>
	<path id="image_2_" class="st1" d="M901.4,718.3v27.8h34.2v-27.8H901.4z M933.4,744h-29.9v-23.5h29.9V744z M924.9,725.8
		c0,1.8,1.4,3.2,3.2,3.2c1.8,0,3.2-1.4,3.2-3.2c0-1.8-1.4-3.2-3.2-3.2C926.3,722.6,924.9,724.1,924.9,725.8z M931.3,741.8h-25.6
		l6.4-17.1l8.5,10.7l4.3-3.2L931.3,741.8z"/>
	<path id="Video_1_2_" class="st1" d="M955.4,925.7c-6.4-10.3-20.4-13.9-31.4-7.9c-11,6-14.8,19.2-8.4,29.5
		c6.4,10.3,20.4,13.9,31.4,7.9C958,949.3,961.8,936,955.4,925.7z M944.7,951.5c-8.8,4.8-20.1,1.9-25.2-6.3
		c-5.1-8.3-2.1-18.9,6.7-23.6c8.8-4.8,20.1-1.9,25.2,6.3C956.5,936.1,953.5,946.7,944.7,951.5z M943.8,935.6l-12.1-6.6
		c-1.1-0.6-2-0.1-2,1.1l0.1,13.1c0,1.2,0.9,1.7,2,1.1l12-6.5C944.8,937.2,944.9,936.2,943.8,935.6z"/>
	<path id="text_1_2_" class="st1" d="M1079.5,803.4h-21.4c-1.4,0-2.6,1.2-2.6,2.6v37.3c0,1.4,1.2,2.6,2.6,2.6h26.2
		c1.4,0,2.6-1.2,2.6-2.6v-31.8L1079.5,803.4z M1080.1,807.3l3.2,3.5h-3.2V807.3z M1084.7,843.3c0,0.2-0.2,0.4-0.4,0.4h-26.2
		c-0.2,0-0.4-0.2-0.4-0.4V806c0-0.2,0.2-0.4,0.4-0.4h19.8v6.3c0,0.6,0.5,1.1,1.1,1.1h5.7V843.3z M1061.6,815.1h18.6
		c0.5,0,0.8,0.4,0.8,0.8s-0.4,0.8-0.8,0.8h-18.6c-0.5,0-0.8-0.4-0.8-0.8C1060.7,815.4,1061.1,815.1,1061.6,815.1z M1081,821.4
		c0,0.5-0.4,0.8-0.8,0.8h-18.6c-0.5,0-0.8-0.4-0.8-0.8s0.4-0.8,0.8-0.8h18.6C1080.6,820.6,1081,820.9,1081,821.4z M1081,826.7
		c0,0.5-0.4,0.8-0.8,0.8h-18.6c-0.5,0-0.8-0.4-0.8-0.8c0-0.5,0.4-0.8,0.8-0.8h18.6C1080.6,825.9,1081,826.3,1081,826.7z M1081,832.1
		c0,0.5-0.4,0.8-0.8,0.8h-18.6c-0.5,0-0.8-0.4-0.8-0.8s0.4-0.8,0.8-0.8h18.6C1080.6,831.3,1081,831.7,1081,832.1z"/>
	<path id="Audio_1_2_" class="st1" d="M772,835.5c-10.9,0-19.7,8.9-19.7,19.7c0,10.9,8.9,19.7,19.7,19.7s19.7-8.9,19.7-19.7
		C791.8,844.3,782.9,835.5,772,835.5z M772,836.8c10.1,0,18.4,8.2,18.4,18.4c0,10.1-8.2,18.4-18.4,18.4s-18.4-8.2-18.4-18.4
		C753.7,845.1,761.9,836.8,772,836.8z M771.7,839.5c-4,0.1-7.9,1.7-10.8,4.6c-6.1,6.1-6.1,16,0,22.1c0.1,0.1,0.3,0.2,0.5,0.2
		c0.2,0,0.4-0.1,0.5-0.2c0.3-0.3,0.3-0.7,0-1c-5.6-5.6-5.6-14.6,0-20.2c3.2-3.2,7.9-4.7,12.4-4c0.4,0.1,0.7-0.2,0.8-0.6
		c0.1-0.4-0.2-0.7-0.6-0.8C773.6,839.6,772.7,839.5,771.7,839.5z M777.3,840.5c-0.3,0-0.5,0.2-0.6,0.4c-0.1,0.4,0,0.7,0.4,0.9
		c0.5,0.2,1,0.4,1.4,0.6c0.1,0.1,0.2,0.1,0.3,0.1c0.2,0,0.5-0.1,0.6-0.4c0.2-0.3,0-0.7-0.3-0.9c-0.5-0.3-1-0.5-1.6-0.7
		C777.4,840.5,777.3,840.5,777.3,840.5z M781.2,842.7c-0.2,0-0.3,0.1-0.5,0.3c-0.2,0.3-0.2,0.7,0.1,1c0.5,0.4,0.9,0.7,1.3,1.2
		c5.6,5.6,5.6,14.6,0,20.2c-0.3,0.3-0.3,0.7,0,1c0.1,0.1,0.3,0.2,0.5,0.2c0.2,0,0.3-0.1,0.5-0.2c6.1-6.1,6.1-16,0-22.1
		c-0.4-0.4-0.9-0.9-1.4-1.3C781.5,842.7,781.4,842.7,781.2,842.7z M770.8,845c-0.2,0-0.4,0-0.6,0.2c-0.2,0.1-0.2,0.3-0.2,0.5v9
		c-0.4-0.1-0.9-0.2-1.4-0.2c-3,0-5.4,2.1-5.4,4.8s2.4,4.8,5.4,4.8s5.4-2.1,5.4-4.8v-7.6l4.7,0.8c0.2,0,0.4,0,0.6-0.1
		c0.2-0.1,0.2-0.3,0.2-0.5V847c0-0.3-0.2-0.6-0.6-0.7L770.8,845z M771.4,846.5l6.8,1.1v3.4l-4.7-0.8c-0.2,0-0.4,0-0.6,0.2
		c-0.2,0.1-0.2,0.3-0.2,0.5v8.4c0,1.9-1.8,3.4-4.1,3.4s-4.1-1.5-4.1-3.4s1.8-3.4,4.1-3.4c0.6,0,1.2,0.1,1.8,0.3
		c0.2,0.1,0.4,0.1,0.6-0.1c0.2-0.1,0.3-0.3,0.3-0.6V846.5z M765.5,866.3c-0.3,0-0.5,0.1-0.7,0.3l-0.7,1.2c-0.2,0.3-0.1,0.7,0.2,0.9
		c0.1,0.1,0.2,0.1,0.3,0.1c0.2,0,0.5-0.1,0.6-0.3l0.7-1.2c0.2-0.3,0.1-0.7-0.2-0.9C765.7,866.4,765.6,866.4,765.5,866.3z
		 M778.6,866.3c-0.1,0-0.2,0-0.3,0.1c-0.3,0.2-0.4,0.6-0.2,0.9l0.7,1.2c0.1,0.2,0.4,0.3,0.6,0.3c0.1,0,0.2,0,0.3-0.1
		c0.3-0.2,0.4-0.6,0.2-0.9l-0.7-1.2C779.1,866.4,778.9,866.3,778.6,866.3z M768.5,867.7c-0.3,0-0.5,0.2-0.6,0.5l-0.4,1.3
		c-0.1,0.4,0.1,0.7,0.5,0.8c0.1,0,0.1,0,0.2,0c0.3,0,0.6-0.2,0.7-0.5l0.4-1.3c0.1-0.4-0.1-0.7-0.5-0.8
		C768.7,867.7,768.6,867.7,768.5,867.7z M775.6,867.7c-0.1,0-0.2,0-0.3,0c-0.4,0.1-0.6,0.5-0.5,0.8l0.4,1.3c0.1,0.3,0.4,0.5,0.7,0.5
		c0.1,0,0.1,0,0.2,0c0.4-0.1,0.6-0.5,0.5-0.8l-0.4-1.3C776.1,867.9,775.8,867.7,775.6,867.7z M772,868.1c-0.4,0-0.7,0.3-0.7,0.7v1.4
		c0,0.4,0.3,0.7,0.7,0.7s0.7-0.3,0.7-0.7v-1.4C772.7,868.4,772.4,868.1,772,868.1z"/>
</g>
<g id="set_4" class="st0">
	<path id="image_7_" class="st1" d="M1027,220.9v22.4h27.6v-22.4H1027z M1052.8,241.6h-24.1v-19h24.1V241.6z M1046,227
		c0,1.4,1.2,2.6,2.6,2.6s2.6-1.2,2.6-2.6s-1.2-2.6-2.6-2.6S1046,225.5,1046,227z M1051.1,239.9h-20.7l5.2-13.8l6.9,8.6l3.4-2.6
		L1051.1,239.9z"/>
	<path id="Audio_1_7_" class="st1" d="M1163.3,314.9c-8.8,0-15.9,7.1-15.9,15.9s7.1,15.9,15.9,15.9s15.9-7.1,15.9-15.9
		S1172,314.9,1163.3,314.9z M1163.3,316c8.2,0,14.8,6.7,14.8,14.8s-6.7,14.8-14.8,14.8s-14.8-6.7-14.8-14.8S1155.1,316,1163.3,316z
		 M1163,318.2c-3.2,0.1-6.4,1.4-8.7,3.7c-4.9,4.9-4.9,12.9,0,17.9c0.1,0.1,0.2,0.2,0.4,0.2c0.1,0,0.3-0.1,0.4-0.2
		c0.2-0.2,0.2-0.6,0-0.8c-4.5-4.5-4.5-11.8,0-16.3c2.6-2.6,6.3-3.8,10-3.2c0.3,0,0.6-0.2,0.6-0.5c0-0.3-0.2-0.6-0.5-0.6
		C1164.5,318.2,1163.8,318.2,1163,318.2z M1167.5,319c-0.2,0-0.4,0.1-0.5,0.4c-0.1,0.3,0,0.6,0.3,0.7c0.4,0.1,0.8,0.3,1.2,0.5
		c0.1,0,0.2,0.1,0.2,0.1c0.2,0,0.4-0.1,0.5-0.3c0.1-0.3,0-0.6-0.2-0.7c-0.4-0.2-0.8-0.4-1.3-0.6C1167.6,319,1167.5,319,1167.5,319z
		 M1170.6,320.8c-0.1,0-0.3,0.1-0.4,0.2c-0.2,0.2-0.1,0.6,0.1,0.8c0.4,0.3,0.7,0.6,1,0.9c4.5,4.5,4.5,11.8,0,16.3
		c-0.2,0.2-0.2,0.6,0,0.8c0.1,0.1,0.2,0.2,0.4,0.2c0.1,0,0.3-0.1,0.4-0.2c4.9-4.9,4.9-12.9,0-17.9c-0.4-0.4-0.7-0.7-1.1-1
		C1170.9,320.8,1170.8,320.8,1170.6,320.8z M1162.2,322.6c-0.2,0-0.3,0-0.4,0.1c-0.1,0.1-0.2,0.3-0.2,0.4v7.3
		c-0.4-0.1-0.7-0.1-1.1-0.1c-2.4,0-4.4,1.7-4.4,3.8s2,3.8,4.4,3.8c2.4,0,4.4-1.7,4.4-3.8V328l3.8,0.6c0.2,0,0.3,0,0.4-0.1
		c0.1-0.1,0.2-0.3,0.2-0.4v-3.8c0-0.3-0.2-0.5-0.5-0.5L1162.2,322.6z M1162.7,323.8l5.5,0.9v2.7l-3.8-0.6c-0.2,0-0.3,0-0.4,0.1
		c-0.1,0.1-0.2,0.3-0.2,0.4v6.8c0,1.5-1.5,2.7-3.3,2.7c-1.8,0-3.3-1.2-3.3-2.7c0-1.5,1.5-2.7,3.3-2.7c0.5,0,1,0.1,1.4,0.3
		c0.2,0.1,0.4,0,0.5-0.1c0.2-0.1,0.2-0.3,0.2-0.5V323.8z M1158,339.8c-0.2,0-0.4,0.1-0.5,0.3l-0.5,1c-0.2,0.3-0.1,0.6,0.2,0.8
		c0.1,0,0.2,0.1,0.3,0.1c0.2,0,0.4-0.1,0.5-0.3l0.5-1c0.2-0.3,0.1-0.6-0.2-0.8C1158.1,339.9,1158,339.8,1158,339.8z M1168.5,339.8
		c-0.1,0-0.1,0-0.2,0.1c-0.3,0.2-0.4,0.5-0.2,0.8l0.5,1c0.1,0.2,0.3,0.3,0.5,0.3c0.1,0,0.2,0,0.3-0.1c0.3-0.2,0.4-0.5,0.2-0.7
		l-0.5-1C1169,339.9,1168.8,339.8,1168.5,339.8z M1160.4,340.9c-0.2,0-0.4,0.2-0.5,0.4l-0.3,1.1c-0.1,0.3,0.1,0.6,0.4,0.7
		c0,0,0.1,0,0.1,0c0.2,0,0.5-0.2,0.5-0.4l0.3-1.1c0.1-0.3-0.1-0.6-0.4-0.7C1160.6,340.9,1160.5,340.9,1160.4,340.9z M1166.1,340.9
		c-0.1,0-0.1,0-0.2,0c-0.3,0.1-0.5,0.4-0.4,0.7l0.3,1.1c0.1,0.2,0.3,0.4,0.5,0.4c0,0,0.1,0,0.1,0c0.3-0.1,0.5-0.4,0.4-0.7l-0.3-1.1
		C1166.5,341.1,1166.3,340.9,1166.1,340.9z M1163.3,341.3c-0.3,0-0.5,0.2-0.5,0.5v1.1c0,0.3,0.2,0.5,0.5,0.5s0.5-0.2,0.5-0.5v-1.1
		C1163.8,341.5,1163.6,341.3,1163.3,341.3z"/>
	<path id="Video_1_7_" class="st1" d="M1108.7,383c-5.1-8.3-16.5-11.2-25.4-6.4c-8.9,4.8-11.9,15.5-6.8,23.8
		c5.1,8.3,16.5,11.2,25.4,6.4C1110.8,402,1113.9,391.4,1108.7,383z M1100.1,403.8c-7.1,3.9-16.2,1.6-20.3-5.1
		c-4.1-6.7-1.7-15.2,5.4-19.1c7.1-3.9,16.2-1.6,20.3,5.1C1109.6,391.4,1107.2,400,1100.1,403.8z M1099.3,391l-9.7-5.3
		c-0.9-0.5-1.6-0.1-1.6,0.9l0,10.6c0,1,0.7,1.4,1.6,0.9l9.7-5.2C1100.2,392.3,1100.2,391.5,1099.3,391z"/>
	<path id="text_1_7_" class="st1" d="M986.2,365.4H969c-1.2,0-2.1,0.9-2.1,2.1v30.1c0,1.2,0.9,2.1,2.1,2.1h21.1
		c1.2,0,2.1-0.9,2.1-2.1v-25.7L986.2,365.4z M986.7,368.5l2.6,2.8h-2.6V368.5z M990.4,397.5c0,0.2-0.2,0.3-0.3,0.3H969
		c-0.2,0-0.3-0.2-0.3-0.3v-30.1c0-0.2,0.2-0.3,0.3-0.3h16v5.1c0,0.5,0.4,0.9,0.9,0.9h4.6V397.5z M971.7,374.8h15
		c0.4,0,0.7,0.3,0.7,0.7s-0.3,0.7-0.7,0.7h-15c-0.4,0-0.7-0.3-0.7-0.7C971.1,375.1,971.4,374.8,971.7,374.8z M987.4,379.9
		c0,0.4-0.3,0.7-0.7,0.7h-15c-0.4,0-0.7-0.3-0.7-0.7s0.3-0.7,0.7-0.7h15C987.1,379.2,987.4,379.5,987.4,379.9z M987.4,384.2
		c0,0.4-0.3,0.7-0.7,0.7h-15c-0.4,0-0.7-0.3-0.7-0.7s0.3-0.7,0.7-0.7h15C987.1,383.5,987.4,383.8,987.4,384.2z M987.4,388.5
		c0,0.4-0.3,0.7-0.7,0.7h-15c-0.4,0-0.7-0.3-0.7-0.7s0.3-0.7,0.7-0.7h15C987.1,387.9,987.4,388.2,987.4,388.5z"/>
	<path id="image_6_" class="st1" d="M1121.5,442.6V465h27.6v-22.4H1121.5z M1147.4,463.3h-24.1v-19h24.1V463.3z M1140.5,448.6
		c0,1.4,1.2,2.6,2.6,2.6s2.6-1.2,2.6-2.6s-1.2-2.6-2.6-2.6S1140.5,447.2,1140.5,448.6z M1145.7,461.5H1125l5.2-13.8l6.9,8.6l3.4-2.6
		L1145.7,461.5z"/>
	<path id="Video_1_6_" class="st1" d="M1059.4,620.7c-5.1-8.3-16.5-11.2-25.4-6.4c-8.9,4.8-11.9,15.5-6.8,23.8
		c5.1,8.3,16.5,11.2,25.4,6.4C1061.5,639.7,1064.6,629,1059.4,620.7z M1050.8,641.5c-7.1,3.9-16.2,1.6-20.3-5.1
		c-4.1-6.7-1.7-15.2,5.4-19.1c7.1-3.9,16.2-1.6,20.3,5.1C1060.3,629.1,1057.9,637.6,1050.8,641.5z M1050,628.7l-9.7-5.3
		c-0.9-0.5-1.6-0.1-1.6,0.9l0,10.6c0,1,0.7,1.4,1.6,0.9l9.7-5.2C1050.9,630,1050.9,629.2,1050,628.7z"/>
	<path id="text_1_6_" class="st1" d="M1240.1,414h-17.2c-1.2,0-2.1,0.9-2.1,2.1v30.1c0,1.2,0.9,2.1,2.1,2.1h21.1
		c1.2,0,2.1-0.9,2.1-2.1v-25.7L1240.1,414z M1240.6,417.1l2.6,2.8h-2.6V417.1z M1244.3,446.1c0,0.2-0.2,0.3-0.3,0.3h-21.1
		c-0.2,0-0.3-0.2-0.3-0.3v-30.1c0-0.2,0.2-0.3,0.3-0.3h16v5.1c0,0.5,0.4,0.9,0.9,0.9h4.6V446.1z M1225.6,423.4h15
		c0.4,0,0.7,0.3,0.7,0.7s-0.3,0.7-0.7,0.7h-15c-0.4,0-0.7-0.3-0.7-0.7C1224.9,423.7,1225.2,423.4,1225.6,423.4z M1241.2,428.5
		c0,0.4-0.3,0.7-0.7,0.7h-15c-0.4,0-0.7-0.3-0.7-0.7s0.3-0.7,0.7-0.7h15C1240.9,427.8,1241.2,428.1,1241.2,428.5z M1241.2,432.8
		c0,0.4-0.3,0.7-0.7,0.7h-15c-0.4,0-0.7-0.3-0.7-0.7s0.3-0.7,0.7-0.7h15C1240.9,432.1,1241.2,432.4,1241.2,432.8z M1241.2,437.1
		c0,0.4-0.3,0.7-0.7,0.7h-15c-0.4,0-0.7-0.3-0.7-0.7s0.3-0.7,0.7-0.7h15C1240.9,436.5,1241.2,436.8,1241.2,437.1z"/>
	<path id="Audio_1_6_" class="st1" d="M990.4,534c-8.8,0-15.9,7.1-15.9,15.9c0,8.8,7.1,15.9,15.9,15.9s15.9-7.1,15.9-15.9
		C1006.3,541.2,999.1,534,990.4,534z M990.4,535.1c8.2,0,14.8,6.7,14.8,14.8s-6.7,14.8-14.8,14.8s-14.8-6.7-14.8-14.8
		S982.2,535.1,990.4,535.1z M990.1,537.3c-3.2,0.1-6.4,1.4-8.7,3.7c-4.9,4.9-4.9,12.9,0,17.9c0.1,0.1,0.2,0.2,0.4,0.2
		c0.1,0,0.3-0.1,0.4-0.2c0.2-0.2,0.2-0.6,0-0.8c-4.5-4.5-4.5-11.8,0-16.3c2.6-2.6,6.3-3.8,10-3.2c0.3,0,0.6-0.2,0.6-0.5
		c0-0.3-0.2-0.6-0.5-0.6C991.6,537.4,990.9,537.3,990.1,537.3z M994.6,538.1c-0.2,0-0.4,0.1-0.5,0.4c-0.1,0.3,0,0.6,0.3,0.7
		c0.4,0.1,0.8,0.3,1.2,0.5c0.1,0,0.2,0.1,0.2,0.1c0.2,0,0.4-0.1,0.5-0.3c0.1-0.3,0-0.6-0.2-0.7c-0.4-0.2-0.8-0.4-1.3-0.6
		C994.7,538.1,994.6,538.1,994.6,538.1z M997.7,539.9c-0.1,0-0.3,0.1-0.4,0.2c-0.2,0.2-0.1,0.6,0.1,0.8c0.4,0.3,0.7,0.6,1,0.9
		c4.5,4.5,4.5,11.8,0,16.3c-0.2,0.2-0.2,0.6,0,0.8c0.1,0.1,0.2,0.2,0.4,0.2c0.1,0,0.3-0.1,0.4-0.2c4.9-4.9,4.9-12.9,0-17.9
		c-0.4-0.4-0.7-0.7-1.1-1C998,539.9,997.9,539.9,997.7,539.9z M989.4,541.7c-0.2,0-0.3,0-0.4,0.1c-0.1,0.1-0.2,0.3-0.2,0.4v7.3
		c-0.4-0.1-0.7-0.1-1.1-0.1c-2.4,0-4.4,1.7-4.4,3.8c0,2.1,2,3.8,4.4,3.8c2.4,0,4.4-1.7,4.4-3.8v-6.1l3.8,0.6c0.2,0,0.3,0,0.4-0.1
		c0.1-0.1,0.2-0.3,0.2-0.4v-3.8c0-0.3-0.2-0.5-0.5-0.5L989.4,541.7z M989.8,542.9l5.5,0.9v2.7l-3.8-0.6c-0.2,0-0.3,0-0.4,0.1
		c-0.1,0.1-0.2,0.3-0.2,0.4v6.8c0,1.5-1.5,2.7-3.3,2.7c-1.8,0-3.3-1.2-3.3-2.7c0-1.5,1.5-2.7,3.3-2.7c0.5,0,1,0.1,1.4,0.3
		c0.2,0.1,0.4,0,0.5-0.1c0.2-0.1,0.2-0.3,0.2-0.5V542.9z M985.1,558.9c-0.2,0-0.4,0.1-0.5,0.3l-0.5,1c-0.2,0.3-0.1,0.6,0.2,0.8
		c0.1,0,0.2,0.1,0.3,0.1c0.2,0,0.4-0.1,0.5-0.3l0.5-1c0.2-0.3,0.1-0.6-0.2-0.8C985.2,559,985.2,559,985.1,558.9z M995.7,558.9
		c-0.1,0-0.1,0-0.2,0.1c-0.3,0.2-0.4,0.5-0.2,0.8l0.5,1c0.1,0.2,0.3,0.3,0.5,0.3c0.1,0,0.2,0,0.3-0.1c0.3-0.2,0.4-0.5,0.2-0.7
		l-0.5-1C996.1,559,995.9,558.9,995.7,558.9z M987.5,560c-0.2,0-0.4,0.2-0.5,0.4l-0.3,1.1c-0.1,0.3,0.1,0.6,0.4,0.7c0,0,0.1,0,0.1,0
		c0.2,0,0.5-0.2,0.5-0.4l0.3-1.1c0.1-0.3-0.1-0.6-0.4-0.7C987.7,560,987.6,560,987.5,560z M993.2,560c-0.1,0-0.1,0-0.2,0
		c-0.3,0.1-0.5,0.4-0.4,0.7l0.3,1.1c0.1,0.2,0.3,0.4,0.5,0.4c0,0,0.1,0,0.1,0c0.3-0.1,0.5-0.4,0.4-0.7l-0.3-1.1
		C993.6,560.2,993.4,560,993.2,560z M990.4,560.4c-0.3,0-0.5,0.2-0.5,0.5v1.1c0,0.3,0.2,0.5,0.5,0.5s0.5-0.2,0.5-0.5v-1.1
		C990.9,560.6,990.7,560.4,990.4,560.4z"/>
</g>
<g id="set_5_1_" class="st0">
	<path id="image_13_" class="st1" d="M1395.4,504.7v17.5h22.9v-17.5H1395.4z M1416.9,520.9h-20.1v-14.8h20.1V520.9z M1411.2,509.4
		c0,1.1,1,2,2.2,2s2.2-0.9,2.2-2c0-1.1-1-2-2.2-2S1411.2,508.3,1411.2,509.4z M1415.5,519.5h-17.2l4.3-10.8l5.7,6.7l2.9-2
		L1415.5,519.5z"/>
	<path id="Audio_1_13_" class="st1" d="M1492.2,515.6c-7.3,0-13.2,5.6-13.2,12.4c0,6.9,5.9,12.4,13.2,12.4c7.3,0,13.2-5.6,13.2-12.4
		C1505.4,521.2,1499.5,515.6,1492.2,515.6z M1492.2,516.5c6.8,0,12.3,5.2,12.3,11.6c0,6.4-5.5,11.6-12.3,11.6
		c-6.8,0-12.3-5.2-12.3-11.6C1479.8,521.7,1485.4,516.5,1492.2,516.5z M1492,518.2c-2.7,0.1-5.3,1.1-7.2,2.9
		c-4.1,3.8-4.1,10.1,0,13.9c0.1,0.1,0.2,0.1,0.3,0.1c0.1,0,0.2,0,0.3-0.1c0.2-0.2,0.2-0.4,0-0.6c-3.7-3.5-3.7-9.2,0-12.7
		c2.2-2,5.3-3,8.3-2.5c0.2,0,0.5-0.1,0.5-0.4c0-0.2-0.1-0.5-0.4-0.5C1493.2,518.2,1492.6,518.2,1492,518.2z M1495.7,518.8
		c-0.2,0-0.3,0.1-0.4,0.3c-0.1,0.2,0,0.5,0.3,0.6c0.3,0.1,0.6,0.2,1,0.4c0.1,0,0.1,0,0.2,0c0.2,0,0.3-0.1,0.4-0.2
		c0.1-0.2,0-0.5-0.2-0.6c-0.3-0.2-0.7-0.3-1.1-0.4C1495.8,518.8,1495.7,518.8,1495.7,518.8z M1498.3,520.2c-0.1,0-0.2,0.1-0.3,0.2
		c-0.2,0.2-0.1,0.5,0.1,0.6c0.3,0.2,0.6,0.5,0.9,0.7c3.7,3.5,3.7,9.2,0,12.7c-0.2,0.2-0.2,0.4,0,0.6c0.1,0.1,0.2,0.1,0.3,0.1
		c0.1,0,0.2,0,0.3-0.1c4.1-3.8,4.1-10.1,0-13.9c-0.3-0.3-0.6-0.5-1-0.8C1498.5,520.2,1498.4,520.2,1498.3,520.2z M1491.3,521.6
		c-0.1,0-0.3,0-0.4,0.1c-0.1,0.1-0.2,0.2-0.2,0.3v5.7c-0.3-0.1-0.6-0.1-0.9-0.1c-2,0-3.7,1.3-3.7,3s1.6,3,3.7,3c2,0,3.7-1.3,3.7-3
		v-4.8l3.1,0.5c0.1,0,0.3,0,0.4-0.1c0.1-0.1,0.2-0.2,0.2-0.3v-3c0-0.2-0.2-0.4-0.4-0.4L1491.3,521.6z M1491.7,522.6l4.6,0.7v2.1
		l-3.1-0.5c-0.1,0-0.3,0-0.4,0.1c-0.1,0.1-0.2,0.2-0.2,0.3v5.3c0,1.2-1.2,2.1-2.7,2.1s-2.7-1-2.7-2.1s1.2-2.1,2.7-2.1
		c0.4,0,0.8,0.1,1.2,0.2c0.1,0.1,0.3,0,0.4,0c0.1-0.1,0.2-0.2,0.2-0.4V522.6z M1487.8,535.1c-0.2,0-0.4,0.1-0.5,0.2l-0.5,0.7
		c-0.1,0.2-0.1,0.5,0.2,0.6c0.1,0,0.1,0.1,0.2,0.1c0.2,0,0.3-0.1,0.4-0.2l0.5-0.7c0.1-0.2,0.1-0.5-0.2-0.6
		C1487.9,535.1,1487.8,535.1,1487.8,535.1z M1496.6,535.1c-0.1,0-0.1,0-0.2,0.1c-0.2,0.1-0.3,0.4-0.2,0.6l0.5,0.7
		c0.1,0.1,0.2,0.2,0.4,0.2c0.1,0,0.2,0,0.2-0.1c0.2-0.1,0.3-0.4,0.2-0.6l-0.5-0.7C1496.9,535.1,1496.7,535.1,1496.6,535.1z
		 M1489.8,535.9c-0.2,0-0.3,0.1-0.4,0.3l-0.2,0.8c-0.1,0.2,0.1,0.5,0.3,0.5c0,0,0.1,0,0.1,0c0.2,0,0.4-0.1,0.4-0.3l0.2-0.8
		c0.1-0.2-0.1-0.5-0.3-0.5C1489.9,535.9,1489.8,535.9,1489.8,535.9z M1494.5,535.9c-0.1,0-0.1,0-0.2,0c-0.2,0.1-0.4,0.3-0.3,0.5
		l0.2,0.8c0.1,0.2,0.2,0.3,0.4,0.3c0,0,0.1,0,0.1,0c0.2-0.1,0.4-0.3,0.3-0.5l-0.2-0.8C1494.9,536.1,1494.7,535.9,1494.5,535.9z
		 M1492.2,536.2c-0.3,0-0.5,0.2-0.5,0.4v0.9c0,0.2,0.2,0.4,0.5,0.4c0.3,0,0.5-0.2,0.5-0.4v-0.9
		C1492.6,536.4,1492.4,536.2,1492.2,536.2z"/>
	<path id="Video_1_13_" class="st1" d="M1446.8,568.8c-4.3-6.5-13.7-8.8-21.1-5c-7.4,3.8-9.9,12.1-5.7,18.6c4.3,6.5,13.7,8.8,21.1,5
		C1448.5,583.7,1451.1,575.3,1446.8,568.8z M1439.6,585.1c-5.9,3-13.5,1.2-16.9-4c-3.4-5.2-1.4-11.9,4.5-14.9c5.9-3,13.5-1.2,16.9,4
		C1447.5,575.4,1445.5,582.1,1439.6,585.1z M1439,575.1l-8.1-4.2c-0.7-0.4-1.3-0.1-1.3,0.7l0,8.3c0,0.8,0.6,1.1,1.3,0.7l8-4.1
		C1439.7,576.1,1439.7,575.5,1439,575.1z"/>
	<path id="text_1_13_" class="st1" d="M1361.5,539.4h-14.3c-1,0-1.7,0.7-1.7,1.6v23.5c0,0.9,0.8,1.6,1.7,1.6h17.6
		c1,0,1.7-0.7,1.7-1.6v-20L1361.5,539.4z M1361.9,541.9l2.2,2.2h-2.2V541.9z M1365,564.5c0,0.1-0.1,0.3-0.3,0.3h-17.6
		c-0.2,0-0.3-0.1-0.3-0.3v-23.5c0-0.1,0.1-0.3,0.3-0.3h13.3v4c0,0.4,0.3,0.7,0.7,0.7h3.8V564.5z M1349.5,546.8h12.5
		c0.3,0,0.6,0.2,0.6,0.5c0,0.3-0.2,0.5-0.6,0.5h-12.5c-0.3,0-0.5-0.2-0.5-0.5S1349.2,546.8,1349.5,546.8z M1362.5,550.7
		c0,0.3-0.2,0.5-0.6,0.5h-12.5c-0.3,0-0.5-0.2-0.5-0.5c0-0.3,0.2-0.5,0.5-0.5h12.5C1362.2,550.2,1362.5,550.5,1362.5,550.7z
		 M1362.5,554.1c0,0.3-0.2,0.5-0.6,0.5h-12.5c-0.3,0-0.5-0.2-0.5-0.5c0-0.3,0.2-0.5,0.5-0.5h12.5
		C1362.2,553.6,1362.5,553.8,1362.5,554.1z M1362.5,557.5c0,0.3-0.2,0.5-0.6,0.5h-12.5c-0.3,0-0.5-0.2-0.5-0.5s0.2-0.5,0.5-0.5h12.5
		C1362.2,557,1362.5,557.2,1362.5,557.5z"/>
	<path id="image_12_" class="st1" d="M1457.4,615.3v17.5h22.9v-17.5H1457.4z M1478.9,631.5h-20.1v-14.8h20.1V631.5z M1473.2,620
		c0,1.1,1,2,2.2,2s2.2-0.9,2.2-2s-1-2-2.2-2S1473.2,618.9,1473.2,620z M1477.5,630.1h-17.2l4.3-10.8l5.7,6.7l2.9-2L1477.5,630.1z"/>
	<path id="Video_1_12_" class="st1" d="M1447.4,668.5c-4.3-6.5-13.7-8.8-21.1-5c-7.4,3.8-9.9,12.1-5.7,18.6c4.3,6.5,13.7,8.8,21.1,5
		C1449.1,683.4,1451.6,675,1447.4,668.5z M1440.2,684.8c-5.9,3-13.5,1.2-16.9-4c-3.4-5.2-1.4-11.9,4.5-14.9c5.9-3,13.5-1.2,16.9,4
		C1448.1,675.1,1446.1,681.7,1440.2,684.8z M1439.6,674.8l-8.1-4.2c-0.7-0.4-1.3-0.1-1.3,0.7l0,8.3c0,0.8,0.6,1.1,1.3,0.7l8-4.1
		C1440.3,675.8,1440.3,675.1,1439.6,674.8z"/>
	<path id="text_1_12_" class="st1" d="M1539.4,577.4h-14.3c-1,0-1.7,0.7-1.7,1.6v23.5c0,0.9,0.8,1.6,1.7,1.6h17.6
		c1,0,1.7-0.7,1.7-1.6v-20L1539.4,577.4z M1539.8,579.8l2.2,2.2h-2.2V579.8z M1542.9,602.5c0,0.1-0.1,0.3-0.3,0.3h-17.6
		c-0.2,0-0.3-0.1-0.3-0.3V579c0-0.1,0.1-0.3,0.3-0.3h13.3v4c0,0.4,0.3,0.7,0.7,0.7h3.8V602.5z M1527.4,584.7h12.5
		c0.3,0,0.6,0.2,0.6,0.5c0,0.3-0.2,0.5-0.6,0.5h-12.5c-0.3,0-0.6-0.2-0.6-0.5S1527.1,584.7,1527.4,584.7z M1540.4,588.7
		c0,0.3-0.2,0.5-0.6,0.5h-12.5c-0.3,0-0.6-0.2-0.6-0.5c0-0.3,0.2-0.5,0.6-0.5h12.5C1540.1,588.2,1540.4,588.4,1540.4,588.7z
		 M1540.4,592c0,0.3-0.2,0.5-0.6,0.5h-12.5c-0.3,0-0.6-0.2-0.6-0.5c0-0.3,0.2-0.5,0.6-0.5h12.5
		C1540.1,591.5,1540.4,591.8,1540.4,592z M1540.4,595.5c0,0.3-0.2,0.5-0.6,0.5h-12.5c-0.3,0-0.6-0.2-0.6-0.5c0-0.3,0.2-0.5,0.6-0.5
		h12.5C1540.1,594.9,1540.4,595.2,1540.4,595.5z"/>
	<path id="Audio_1_12_" class="st1" d="M1373.3,616.5c-7.3,0-13.2,5.6-13.2,12.4c0,6.9,5.9,12.4,13.2,12.4c7.3,0,13.2-5.6,13.2-12.4
		C1386.5,622,1380.6,616.5,1373.3,616.5z M1373.3,617.3c6.8,0,12.3,5.2,12.3,11.6c0,6.4-5.5,11.6-12.3,11.6
		c-6.8,0-12.3-5.2-12.3-11.6C1361,622.5,1366.5,617.3,1373.3,617.3z M1373.1,619c-2.7,0.1-5.3,1.1-7.2,2.9c-4.1,3.8-4.1,10.1,0,13.9
		c0.1,0.1,0.2,0.1,0.3,0.1c0.1,0,0.2,0,0.3-0.1c0.2-0.2,0.2-0.4,0-0.6c-3.7-3.5-3.7-9.2,0-12.7c2.2-2,5.3-3,8.3-2.5
		c0.2,0,0.5-0.1,0.5-0.4c0-0.2-0.1-0.5-0.4-0.5C1374.3,619.1,1373.7,619,1373.1,619z M1376.8,619.6c-0.2,0-0.3,0.1-0.4,0.3
		c-0.1,0.2,0,0.5,0.3,0.6c0.3,0.1,0.6,0.2,1,0.4c0.1,0,0.1,0,0.2,0c0.2,0,0.3-0.1,0.4-0.2c0.1-0.2,0-0.5-0.2-0.6
		c-0.3-0.2-0.7-0.3-1.1-0.4C1376.9,619.6,1376.8,619.6,1376.8,619.6z M1379.4,621c-0.1,0-0.2,0.1-0.3,0.2c-0.2,0.2-0.1,0.5,0.1,0.6
		c0.3,0.2,0.6,0.5,0.9,0.7c3.7,3.5,3.7,9.2,0,12.7c-0.2,0.2-0.2,0.4,0,0.6c0.1,0.1,0.2,0.1,0.3,0.1c0.1,0,0.2,0,0.3-0.1
		c4.1-3.8,4.1-10.1,0-13.9c-0.3-0.3-0.6-0.5-1-0.8C1379.7,621,1379.5,621,1379.4,621z M1372.5,622.5c-0.1,0-0.3,0-0.4,0.1
		c-0.1,0.1-0.2,0.2-0.2,0.3v5.7c-0.3-0.1-0.6-0.1-0.9-0.1c-2,0-3.7,1.3-3.7,3c0,1.7,1.6,3,3.7,3c2,0,3.7-1.3,3.7-3v-4.8l3.1,0.5
		c0.1,0,0.3,0,0.4-0.1c0.1-0.1,0.2-0.2,0.2-0.3v-3c0-0.2-0.2-0.4-0.4-0.4L1372.5,622.5z M1372.8,623.4l4.6,0.7v2.1l-3.1-0.5
		c-0.1,0-0.3,0-0.4,0.1c-0.1,0.1-0.2,0.2-0.2,0.3v5.3c0,1.2-1.2,2.1-2.7,2.1s-2.7-1-2.7-2.1c0-1.2,1.2-2.1,2.7-2.1
		c0.4,0,0.8,0.1,1.2,0.2c0.1,0.1,0.3,0,0.4,0c0.1-0.1,0.2-0.2,0.2-0.4V623.4z M1368.9,635.9c-0.2,0-0.4,0.1-0.5,0.2l-0.5,0.7
		c-0.1,0.2-0.1,0.5,0.2,0.6c0.1,0,0.1,0.1,0.2,0.1c0.2,0,0.3-0.1,0.4-0.2l0.5-0.7c0.1-0.2,0.1-0.5-0.2-0.6
		C1369,635.9,1369,635.9,1368.9,635.9z M1377.7,635.9c-0.1,0-0.1,0-0.2,0.1c-0.2,0.1-0.3,0.4-0.2,0.6l0.5,0.7
		c0.1,0.1,0.2,0.2,0.4,0.2c0.1,0,0.2,0,0.2-0.1c0.2-0.1,0.3-0.4,0.2-0.6l-0.5-0.7C1378,636,1377.9,635.9,1377.7,635.9z
		 M1370.9,636.8c-0.2,0-0.3,0.1-0.4,0.3l-0.2,0.8c-0.1,0.2,0.1,0.5,0.3,0.5c0,0,0.1,0,0.1,0c0.2,0,0.4-0.1,0.4-0.3l0.2-0.8
		c0.1-0.2-0.1-0.5-0.3-0.5C1371,636.7,1371,636.7,1370.9,636.8z M1375.7,636.8c-0.1,0-0.1,0-0.2,0c-0.2,0.1-0.4,0.3-0.3,0.5l0.2,0.8
		c0.1,0.2,0.2,0.3,0.4,0.3c0,0,0.1,0,0.1,0c0.2-0.1,0.4-0.3,0.3-0.5l-0.2-0.8C1376,636.9,1375.8,636.8,1375.7,636.8z M1373.3,637
		c-0.3,0-0.5,0.2-0.5,0.4v0.9c0,0.2,0.2,0.4,0.5,0.4c0.3,0,0.5-0.2,0.5-0.4v-0.9C1373.7,637.2,1373.5,637,1373.3,637z"/>
</g>
<g id="set_6_1_" class="st0">
	<path id="image_19_" class="st1" d="M1174.3,585.2v17.5h22.9v-17.5H1174.3z M1195.8,601.4h-20.1v-14.8h20.1V601.4z M1190.1,589.9
		c0,1.1,1,2,2.2,2s2.2-0.9,2.2-2s-1-2-2.2-2S1190.1,588.8,1190.1,589.9z M1194.4,600h-17.2l4.3-10.8l5.7,6.7l2.9-2L1194.4,600z"/>
	<path id="Audio_1_19_" class="st1" d="M1271,596.1c-7.3,0-13.2,5.6-13.2,12.4s5.9,12.4,13.2,12.4s13.2-5.6,13.2-12.4
		S1278.3,596.1,1271,596.1z M1271,597c6.8,0,12.3,5.2,12.3,11.6s-5.5,11.6-12.3,11.6c-6.8,0-12.3-5.2-12.3-11.6S1264.2,597,1271,597
		z M1270.8,598.7c-2.7,0.1-5.3,1.1-7.2,2.9c-4.1,3.8-4.1,10.1,0,13.9c0.1,0.1,0.2,0.1,0.3,0.1c0.1,0,0.2,0,0.3-0.1
		c0.2-0.2,0.2-0.4,0-0.6c-3.7-3.5-3.7-9.2,0-12.7c2.2-2,5.3-3,8.3-2.5c0.2,0,0.5-0.1,0.5-0.4c0-0.2-0.1-0.5-0.4-0.5
		C1272.1,598.7,1271.4,598.7,1270.8,598.7z M1274.5,599.3c-0.2,0-0.3,0.1-0.4,0.3c-0.1,0.2,0,0.5,0.3,0.6c0.3,0.1,0.6,0.2,1,0.4
		c0.1,0,0.1,0,0.2,0c0.2,0,0.3-0.1,0.4-0.2c0.1-0.2,0-0.5-0.2-0.6c-0.3-0.2-0.7-0.3-1.1-0.4C1274.6,599.3,1274.6,599.3,1274.5,599.3
		z M1277.1,600.7c-0.1,0-0.2,0.1-0.3,0.2c-0.2,0.2-0.1,0.5,0.1,0.6c0.3,0.2,0.6,0.5,0.9,0.7c3.7,3.5,3.7,9.2,0,12.7
		c-0.2,0.2-0.2,0.4,0,0.6c0.1,0.1,0.2,0.1,0.3,0.1c0.1,0,0.2,0,0.3-0.1c4.1-3.8,4.1-10.1,0-13.9c-0.3-0.3-0.6-0.5-1-0.8
		C1277.4,600.7,1277.3,600.7,1277.1,600.7z M1270.2,602.1c-0.1,0-0.3,0-0.4,0.1c-0.1,0.1-0.2,0.2-0.2,0.3v5.7
		c-0.3-0.1-0.6-0.1-0.9-0.1c-2,0-3.7,1.3-3.7,3c0,1.7,1.6,3,3.7,3c2,0,3.7-1.3,3.7-3v-4.8l3.1,0.5c0.1,0,0.3,0,0.4-0.1
		c0.1-0.1,0.2-0.2,0.2-0.3v-3c0-0.2-0.2-0.4-0.4-0.4L1270.2,602.1z M1270.6,603.1l4.6,0.7v2.1l-3.1-0.5c-0.1,0-0.3,0-0.4,0.1
		c-0.1,0.1-0.2,0.2-0.2,0.3v5.3c0,1.2-1.2,2.1-2.7,2.1s-2.7-1-2.7-2.1c0-1.2,1.2-2.1,2.7-2.1c0.4,0,0.8,0.1,1.2,0.2
		c0.1,0.1,0.3,0,0.4,0c0.1-0.1,0.2-0.2,0.2-0.4V603.1z M1266.6,615.6c-0.2,0-0.4,0.1-0.5,0.2l-0.5,0.7c-0.1,0.2-0.1,0.5,0.2,0.6
		c0.1,0,0.1,0.1,0.2,0.1c0.2,0,0.3-0.1,0.4-0.2l0.5-0.7c0.1-0.2,0.1-0.5-0.2-0.6C1266.7,615.6,1266.7,615.6,1266.6,615.6z
		 M1275.4,615.6c-0.1,0-0.1,0-0.2,0.1c-0.2,0.1-0.3,0.4-0.2,0.6l0.5,0.7c0.1,0.1,0.2,0.2,0.4,0.2c0.1,0,0.2,0,0.2-0.1
		c0.2-0.1,0.3-0.4,0.2-0.6l-0.5-0.7C1275.8,615.6,1275.6,615.6,1275.4,615.6z M1268.6,616.4c-0.2,0-0.3,0.1-0.4,0.3l-0.2,0.8
		c-0.1,0.2,0.1,0.5,0.3,0.5c0,0,0.1,0,0.1,0c0.2,0,0.4-0.1,0.4-0.3l0.2-0.8c0.1-0.2-0.1-0.5-0.3-0.5
		C1268.8,616.4,1268.7,616.4,1268.6,616.4z M1273.4,616.4c-0.1,0-0.1,0-0.2,0c-0.2,0.1-0.4,0.3-0.3,0.5l0.2,0.8
		c0.1,0.2,0.2,0.3,0.4,0.3c0,0,0.1,0,0.1,0c0.2-0.1,0.4-0.3,0.3-0.5l-0.2-0.8C1273.7,616.6,1273.6,616.4,1273.4,616.4z M1271,616.7
		c-0.3,0-0.5,0.2-0.5,0.4v0.9c0,0.2,0.2,0.4,0.5,0.4c0.3,0,0.5-0.2,0.5-0.4v-0.9C1271.5,616.9,1271.3,616.7,1271,616.7z"/>
	<path id="Video_1_19_" class="st1" d="M1225.7,649.3c-4.3-6.5-13.7-8.8-21.1-5c-7.4,3.8-9.9,12.1-5.7,18.6c4.3,6.5,13.7,8.8,21.1,5
		C1227.4,664.2,1229.9,655.8,1225.7,649.3z M1218.5,665.6c-5.9,3-13.5,1.2-16.9-4c-3.4-5.2-1.4-11.9,4.5-14.9c5.9-3,13.5-1.2,16.9,4
		C1226.4,655.9,1224.4,662.6,1218.5,665.6z M1217.8,655.6l-8.1-4.2c-0.7-0.4-1.3-0.1-1.3,0.7l0,8.3c0,0.8,0.6,1.1,1.3,0.7l8-4.1
		C1218.6,656.6,1218.6,656,1217.8,655.6z"/>
	<path id="text_1_19_" class="st1" d="M1140.4,619.9H1126c-1,0-1.7,0.7-1.7,1.6V645c0,0.9,0.8,1.6,1.7,1.6h17.6c1,0,1.7-0.7,1.7-1.6
		v-20L1140.4,619.9z M1140.8,622.4l2.2,2.2h-2.2V622.4z M1143.9,645c0,0.1-0.1,0.3-0.3,0.3H1126c-0.2,0-0.3-0.1-0.3-0.3v-23.5
		c0-0.1,0.1-0.3,0.3-0.3h13.3v4c0,0.4,0.3,0.7,0.7,0.7h3.8V645z M1128.3,627.3h12.5c0.3,0,0.6,0.2,0.6,0.5s-0.2,0.5-0.6,0.5h-12.5
		c-0.3,0-0.5-0.2-0.5-0.5C1127.8,627.5,1128,627.3,1128.3,627.3z M1141.3,631.2c0,0.3-0.2,0.5-0.6,0.5h-12.5c-0.3,0-0.5-0.2-0.5-0.5
		s0.2-0.5,0.5-0.5h12.5C1141.1,630.7,1141.3,631,1141.3,631.2z M1141.3,634.6c0,0.3-0.2,0.5-0.6,0.5h-12.5c-0.3,0-0.5-0.2-0.5-0.5
		c0-0.3,0.2-0.5,0.5-0.5h12.5C1141.1,634.1,1141.3,634.3,1141.3,634.6z M1141.3,638c0,0.3-0.2,0.5-0.6,0.5h-12.5
		c-0.3,0-0.5-0.2-0.5-0.5c0-0.3,0.2-0.5,0.5-0.5h12.5C1141.1,637.5,1141.3,637.7,1141.3,638z"/>
	<path id="image_18_" class="st1" d="M1236.3,695.8v17.5h22.9v-17.5H1236.3z M1257.8,712h-20.1v-14.8h20.1V712z M1252.1,700.5
		c0,1.1,1,2,2.2,2s2.2-0.9,2.2-2c0-1.1-1-2-2.2-2S1252.1,699.4,1252.1,700.5z M1256.4,710.6h-17.2l4.3-10.8l5.7,6.7l2.9-2
		L1256.4,710.6z"/>
	<path id="Video_1_18_" class="st1" d="M1226.2,749c-4.3-6.5-13.7-8.8-21.1-5c-7.4,3.8-9.9,12.1-5.7,18.6c4.3,6.5,13.7,8.8,21.1,5
		C1228,763.9,1230.5,755.5,1226.2,749z M1219,765.3c-5.9,3-13.5,1.2-16.9-4c-3.4-5.2-1.4-11.9,4.5-14.9c5.9-3,13.5-1.2,16.9,4
		C1227,755.6,1224.9,762.2,1219,765.3z M1218.4,755.3l-8.1-4.2c-0.7-0.4-1.3-0.1-1.3,0.7l0,8.3c0,0.8,0.6,1.1,1.3,0.7l8-4.1
		C1219.1,756.3,1219.1,755.6,1218.4,755.3z"/>
	<path id="text_1_18_" class="st1" d="M1318.3,657.9h-14.3c-1,0-1.7,0.7-1.7,1.6V683c0,0.9,0.8,1.6,1.7,1.6h17.6
		c1,0,1.7-0.7,1.7-1.6v-20L1318.3,657.9z M1318.7,660.3l2.2,2.2h-2.2V660.3z M1321.8,683c0,0.1-0.1,0.3-0.3,0.3h-17.6
		c-0.2,0-0.3-0.1-0.3-0.3v-23.5c0-0.1,0.1-0.3,0.3-0.3h13.3v4c0,0.4,0.3,0.7,0.7,0.7h3.8V683z M1306.2,665.2h12.5
		c0.3,0,0.6,0.2,0.6,0.5c0,0.3-0.2,0.5-0.6,0.5h-12.5c-0.3,0-0.6-0.2-0.6-0.5C1305.7,665.4,1305.9,665.2,1306.2,665.2z
		 M1319.2,669.2c0,0.3-0.2,0.5-0.6,0.5h-12.5c-0.3,0-0.6-0.2-0.6-0.5c0-0.3,0.2-0.5,0.6-0.5h12.5
		C1319,668.7,1319.2,668.9,1319.2,669.2z M1319.2,672.5c0,0.3-0.2,0.5-0.6,0.5h-12.5c-0.3,0-0.6-0.2-0.6-0.5c0-0.3,0.2-0.5,0.6-0.5
		h12.5C1319,672,1319.2,672.3,1319.2,672.5z M1319.2,676c0,0.3-0.2,0.5-0.6,0.5h-12.5c-0.3,0-0.6-0.2-0.6-0.5c0-0.3,0.2-0.5,0.6-0.5
		h12.5C1319,675.4,1319.2,675.7,1319.2,676z"/>
	<path id="Audio_1_18_" class="st1" d="M1152.1,697c-7.3,0-13.2,5.6-13.2,12.4c0,6.9,5.9,12.4,13.2,12.4c7.3,0,13.2-5.6,13.2-12.4
		C1165.4,702.5,1159.4,697,1152.1,697z M1152.1,697.8c6.8,0,12.3,5.2,12.3,11.6c0,6.4-5.5,11.6-12.3,11.6c-6.8,0-12.3-5.2-12.3-11.6
		C1139.8,703,1145.3,697.8,1152.1,697.8z M1151.9,699.5c-2.7,0.1-5.3,1.1-7.2,2.9c-4.1,3.8-4.1,10.1,0,13.9c0.1,0.1,0.2,0.1,0.3,0.1
		c0.1,0,0.2,0,0.3-0.1c0.2-0.2,0.2-0.4,0-0.6c-3.7-3.5-3.7-9.2,0-12.7c2.2-2,5.3-3,8.3-2.5c0.2,0,0.5-0.1,0.5-0.4
		c0-0.2-0.1-0.5-0.4-0.5C1153.2,699.6,1152.6,699.5,1151.9,699.5z M1155.6,700.1c-0.2,0-0.3,0.1-0.4,0.3c-0.1,0.2,0,0.5,0.3,0.6
		c0.3,0.1,0.6,0.2,1,0.4c0.1,0,0.1,0,0.2,0c0.2,0,0.3-0.1,0.4-0.2c0.1-0.2,0-0.5-0.2-0.6c-0.3-0.2-0.7-0.3-1.1-0.4
		C1155.8,700.1,1155.7,700.1,1155.6,700.1z M1158.3,701.5c-0.1,0-0.2,0.1-0.3,0.2c-0.2,0.2-0.1,0.5,0.1,0.6c0.3,0.2,0.6,0.5,0.9,0.7
		c3.7,3.5,3.7,9.2,0,12.7c-0.2,0.2-0.2,0.4,0,0.6c0.1,0.1,0.2,0.1,0.3,0.1c0.1,0,0.2,0,0.3-0.1c4.1-3.8,4.1-10.1,0-13.9
		c-0.3-0.3-0.6-0.5-1-0.8C1158.5,701.5,1158.4,701.5,1158.3,701.5z M1151.3,703c-0.1,0-0.3,0-0.4,0.1c-0.1,0.1-0.2,0.2-0.2,0.3v5.7
		c-0.3-0.1-0.6-0.1-0.9-0.1c-2,0-3.7,1.3-3.7,3s1.6,3,3.7,3c2,0,3.7-1.3,3.7-3v-4.8l3.1,0.5c0.1,0,0.3,0,0.4-0.1
		c0.1-0.1,0.2-0.2,0.2-0.3v-3c0-0.2-0.2-0.4-0.4-0.4L1151.3,703z M1151.7,703.9l4.6,0.7v2.1l-3.1-0.5c-0.1,0-0.3,0-0.4,0.1
		c-0.1,0.1-0.2,0.2-0.2,0.3v5.3c0,1.2-1.2,2.1-2.7,2.1s-2.7-1-2.7-2.1s1.2-2.1,2.7-2.1c0.4,0,0.8,0.1,1.2,0.2c0.1,0.1,0.3,0,0.4,0
		c0.1-0.1,0.2-0.2,0.2-0.4V703.9z M1147.7,716.4c-0.2,0-0.4,0.1-0.5,0.2l-0.5,0.7c-0.1,0.2-0.1,0.5,0.2,0.6c0.1,0,0.1,0.1,0.2,0.1
		c0.2,0,0.3-0.1,0.4-0.2l0.5-0.7c0.1-0.2,0.1-0.5-0.2-0.6C1147.9,716.4,1147.8,716.4,1147.7,716.4z M1156.5,716.4
		c-0.1,0-0.1,0-0.2,0.1c-0.2,0.1-0.3,0.4-0.2,0.6l0.5,0.7c0.1,0.1,0.2,0.2,0.4,0.2c0.1,0,0.2,0,0.2-0.1c0.2-0.1,0.3-0.4,0.2-0.6
		l-0.5-0.7C1156.9,716.5,1156.7,716.4,1156.5,716.4z M1149.8,717.3c-0.2,0-0.3,0.1-0.4,0.3l-0.2,0.8c-0.1,0.2,0.1,0.5,0.3,0.5
		c0,0,0.1,0,0.1,0c0.2,0,0.4-0.1,0.4-0.3l0.2-0.8c0.1-0.2-0.1-0.5-0.3-0.5C1149.9,717.2,1149.8,717.2,1149.8,717.3z M1154.5,717.3
		c-0.1,0-0.1,0-0.2,0c-0.2,0.1-0.4,0.3-0.3,0.5l0.2,0.8c0.1,0.2,0.2,0.3,0.4,0.3c0,0,0.1,0,0.1,0c0.2-0.1,0.4-0.3,0.3-0.5l-0.2-0.8
		C1154.8,717.4,1154.7,717.3,1154.5,717.3z M1152.1,717.5c-0.3,0-0.5,0.2-0.5,0.4v0.9c0,0.2,0.2,0.4,0.5,0.4c0.3,0,0.5-0.2,0.5-0.4
		V718C1152.6,717.7,1152.4,717.5,1152.1,717.5z"/>
</g>
<g id="set_7" class="st0">
	<path id="image_11_" class="st1" d="M1576.8,505.1v7.7h9.5v-7.7H1576.8z M1585.8,512.2h-8.3v-6.5h8.3V512.2z M1583.4,507.2
		c0,0.5,0.4,0.9,0.9,0.9s0.9-0.4,0.9-0.9c0-0.5-0.4-0.9-0.9-0.9S1583.4,506.7,1583.4,507.2z M1585.2,511.6h-7.1l1.8-4.8l2.4,3
		l1.2-0.9L1585.2,511.6z"/>
	<path id="Audio_1_11_" class="st1" d="M1616.9,509.9c-3,0-5.5,2.5-5.5,5.5s2.5,5.5,5.5,5.5s5.5-2.5,5.5-5.5
		S1620,509.9,1616.9,509.9z M1616.9,510.3c2.8,0,5.1,2.3,5.1,5.1s-2.3,5.1-5.1,5.1c-2.8,0-5.1-2.3-5.1-5.1
		S1614.1,510.3,1616.9,510.3z M1616.8,511.1c-1.1,0-2.2,0.5-3,1.3c-1.7,1.7-1.7,4.5,0,6.2c0,0,0.1,0.1,0.1,0.1c0,0,0.1,0,0.1-0.1
		c0.1-0.1,0.1-0.2,0-0.3c-1.6-1.6-1.6-4.1,0-5.6c0.9-0.9,2.2-1.3,3.4-1.1c0.1,0,0.2-0.1,0.2-0.2c0-0.1-0.1-0.2-0.2-0.2
		C1617.4,511.1,1617.1,511.1,1616.8,511.1z M1618.4,511.3c-0.1,0-0.1,0-0.2,0.1c0,0.1,0,0.2,0.1,0.2c0.1,0.1,0.3,0.1,0.4,0.2
		c0,0,0.1,0,0.1,0c0.1,0,0.1,0,0.2-0.1c0-0.1,0-0.2-0.1-0.3C1618.7,511.5,1618.6,511.4,1618.4,511.3
		C1618.4,511.3,1618.4,511.3,1618.4,511.3z M1619.5,511.9c0,0-0.1,0-0.1,0.1c-0.1,0.1-0.1,0.2,0,0.3c0.1,0.1,0.2,0.2,0.4,0.3
		c1.6,1.6,1.6,4.1,0,5.6c-0.1,0.1-0.1,0.2,0,0.3c0,0,0.1,0.1,0.1,0.1c0,0,0.1,0,0.1-0.1c1.7-1.7,1.7-4.5,0-6.2
		c-0.1-0.1-0.3-0.2-0.4-0.4C1619.6,512,1619.5,511.9,1619.5,511.9z M1616.6,512.6c-0.1,0-0.1,0-0.2,0c0,0-0.1,0.1-0.1,0.1v2.5
		c-0.1,0-0.3,0-0.4,0c-0.8,0-1.5,0.6-1.5,1.3s0.7,1.3,1.5,1.3s1.5-0.6,1.5-1.3v-2.1l1.3,0.2c0.1,0,0.1,0,0.2,0c0,0,0.1-0.1,0.1-0.1
		v-1.3c0-0.1-0.1-0.2-0.2-0.2L1616.6,512.6z M1616.7,513l1.9,0.3v0.9l-1.3-0.2c-0.1,0-0.1,0-0.2,0c0,0-0.1,0.1-0.1,0.1v2.3
		c0,0.5-0.5,0.9-1.1,0.9c-0.6,0-1.1-0.4-1.1-0.9s0.5-0.9,1.1-0.9c0.2,0,0.3,0,0.5,0.1c0.1,0,0.1,0,0.2,0c0.1,0,0.1-0.1,0.1-0.2V513z
		 M1615.1,518.5c-0.1,0-0.1,0-0.2,0.1l-0.2,0.3c-0.1,0.1,0,0.2,0.1,0.3c0,0,0.1,0,0.1,0c0.1,0,0.1,0,0.2-0.1l0.2-0.3
		C1615.3,518.7,1615.3,518.6,1615.1,518.5C1615.2,518.5,1615.1,518.5,1615.1,518.5z M1618.8,518.5
		C1618.7,518.5,1618.7,518.5,1618.8,518.5c-0.2,0.1-0.2,0.2-0.1,0.3l0.2,0.3c0,0.1,0.1,0.1,0.2,0.1c0,0,0.1,0,0.1,0
		c0.1-0.1,0.1-0.2,0.1-0.3l-0.2-0.3C1618.9,518.5,1618.8,518.5,1618.8,518.5z M1615.9,518.9c-0.1,0-0.1,0.1-0.2,0.1l-0.1,0.4
		c0,0.1,0,0.2,0.1,0.2c0,0,0,0,0,0c0.1,0,0.2-0.1,0.2-0.1l0.1-0.4C1616.2,519,1616.1,518.9,1615.9,518.9
		C1616,518.9,1616,518.9,1615.9,518.9z M1617.9,518.9C1617.9,518.9,1617.9,518.9,1617.9,518.9c-0.2,0-0.2,0.1-0.2,0.2l0.1,0.4
		c0,0.1,0.1,0.1,0.2,0.1c0,0,0,0,0,0c0.1,0,0.2-0.1,0.1-0.2l-0.1-0.4C1618,519,1618,518.9,1617.9,518.9z M1616.9,519
		c-0.1,0-0.2,0.1-0.2,0.2v0.4c0,0.1,0.1,0.2,0.2,0.2s0.2-0.1,0.2-0.2v-0.4C1617.1,519.1,1617,519,1616.9,519z"/>
	<path id="Video_1_11_" class="st1" d="M1598.1,533.4c-1.8-2.9-5.7-3.9-8.8-2.2c-3.1,1.7-4.1,5.3-2.3,8.2c1.8,2.9,5.7,3.9,8.8,2.2
		C1598.8,540,1599.9,536.3,1598.1,533.4z M1595.1,540.6c-2.5,1.3-5.6,0.5-7-1.8c-1.4-2.3-0.6-5.2,1.9-6.6c2.5-1.3,5.6-0.5,7,1.8
		C1598.4,536.3,1597.6,539.3,1595.1,540.6z M1594.9,536.2l-3.4-1.8c-0.3-0.2-0.6,0-0.6,0.3l0,3.6c0,0.3,0.3,0.5,0.6,0.3l3.3-1.8
		C1595.2,536.6,1595.2,536.3,1594.9,536.2z"/>
	<path id="text_1_11_" class="st1" d="M1562.8,520.4h-5.9c-0.4,0-0.7,0.3-0.7,0.7v10.4c0,0.4,0.3,0.7,0.7,0.7h7.3
		c0.4,0,0.7-0.3,0.7-0.7v-8.9L1562.8,520.4z M1562.9,521.5l0.9,1h-0.9V521.5z M1564.2,531.5c0,0.1-0.1,0.1-0.1,0.1h-7.3
		c-0.1,0-0.1-0.1-0.1-0.1v-10.4c0-0.1,0.1-0.1,0.1-0.1h5.5v1.8c0,0.2,0.1,0.3,0.3,0.3h1.6V531.5z M1557.8,523.7h5.2
		c0.1,0,0.2,0.1,0.2,0.2c0,0.1-0.1,0.2-0.2,0.2h-5.2c-0.1,0-0.2-0.1-0.2-0.2S1557.7,523.7,1557.8,523.7z M1563.2,525.4
		c0,0.1-0.1,0.2-0.2,0.2h-5.2c-0.1,0-0.2-0.1-0.2-0.2c0-0.1,0.1-0.2,0.2-0.2h5.2C1563.1,525.2,1563.2,525.3,1563.2,525.4z
		 M1563.2,526.9c0,0.1-0.1,0.2-0.2,0.2h-5.2c-0.1,0-0.2-0.1-0.2-0.2c0-0.1,0.1-0.2,0.2-0.2h5.2
		C1563.1,526.7,1563.2,526.8,1563.2,526.9z M1563.2,528.4c0,0.1-0.1,0.2-0.2,0.2h-5.2c-0.1,0-0.2-0.1-0.2-0.2c0-0.1,0.1-0.2,0.2-0.2
		h5.2C1563.1,528.2,1563.2,528.3,1563.2,528.4z"/>
	<path id="image_10_" class="st1" d="M1602.5,554v7.7h9.5V554H1602.5z M1611.5,561.1h-8.3v-6.5h8.3V561.1z M1609.1,556
		c0,0.5,0.4,0.9,0.9,0.9s0.9-0.4,0.9-0.9s-0.4-0.9-0.9-0.9S1609.1,555.5,1609.1,556z M1610.9,560.5h-7.1l1.8-4.8l2.4,3l1.2-0.9
		L1610.9,560.5z"/>
	<path id="Video_1_10_" class="st1" d="M1598.4,577.4c-1.8-2.9-5.7-3.9-8.8-2.2c-3.1,1.7-4.1,5.3-2.3,8.2c1.8,2.9,5.7,3.9,8.8,2.2
		C1599.1,584,1600.1,580.3,1598.4,577.4z M1595.4,584.6c-2.5,1.3-5.6,0.5-7-1.8c-1.4-2.3-0.6-5.2,1.9-6.6c2.5-1.3,5.6-0.5,7,1.8
		C1598.7,580.3,1597.8,583.3,1595.4,584.6z M1595.1,580.2l-3.4-1.8c-0.3-0.2-0.6,0-0.6,0.3l0,3.6c0,0.3,0.3,0.5,0.6,0.3l3.3-1.8
		C1595.4,580.6,1595.4,580.4,1595.1,580.2z"/>
	<path id="text_1_10_" class="st1" d="M1636.5,537.2h-5.9c-0.4,0-0.7,0.3-0.7,0.7v10.4c0,0.4,0.3,0.7,0.7,0.7h7.3
		c0.4,0,0.7-0.3,0.7-0.7v-8.9L1636.5,537.2z M1636.7,538.3l0.9,1h-0.9V538.3z M1638,548.3c0,0.1-0.1,0.1-0.1,0.1h-7.3
		c-0.1,0-0.1-0.1-0.1-0.1v-10.4c0-0.1,0.1-0.1,0.1-0.1h5.5v1.8c0,0.2,0.1,0.3,0.3,0.3h1.6V548.3z M1631.5,540.4h5.2
		c0.1,0,0.2,0.1,0.2,0.2c0,0.1-0.1,0.2-0.2,0.2h-5.2c-0.1,0-0.2-0.1-0.2-0.2C1631.3,540.5,1631.4,540.4,1631.5,540.4z M1636.9,542.2
		c0,0.1-0.1,0.2-0.2,0.2h-5.2c-0.1,0-0.2-0.1-0.2-0.2c0-0.1,0.1-0.2,0.2-0.2h5.2C1636.8,542,1636.9,542.1,1636.9,542.2z
		 M1636.9,543.7c0,0.1-0.1,0.2-0.2,0.2h-5.2c-0.1,0-0.2-0.1-0.2-0.2c0-0.1,0.1-0.2,0.2-0.2h5.2
		C1636.8,543.4,1636.9,543.5,1636.9,543.7z M1636.9,545.2c0,0.1-0.1,0.2-0.2,0.2h-5.2c-0.1,0-0.2-0.1-0.2-0.2c0-0.1,0.1-0.2,0.2-0.2
		h5.2C1636.8,545,1636.9,545.1,1636.9,545.2z"/>
	<path id="Audio_1_10_" class="st1" d="M1567.7,554.5c-3,0-5.5,2.5-5.5,5.5s2.5,5.5,5.5,5.5s5.5-2.5,5.5-5.5
		S1570.7,554.5,1567.7,554.5z M1567.7,554.8c2.8,0,5.1,2.3,5.1,5.1s-2.3,5.1-5.1,5.1c-2.8,0-5.1-2.3-5.1-5.1
		S1564.8,554.8,1567.7,554.8z M1567.6,555.6c-1.1,0-2.2,0.5-3,1.3c-1.7,1.7-1.7,4.5,0,6.2c0,0,0.1,0.1,0.1,0.1c0,0,0.1,0,0.1-0.1
		c0.1-0.1,0.1-0.2,0-0.3c-1.6-1.6-1.6-4.1,0-5.6c0.9-0.9,2.2-1.3,3.4-1.1c0.1,0,0.2-0.1,0.2-0.2c0-0.1-0.1-0.2-0.2-0.2
		C1568.1,555.6,1567.8,555.6,1567.6,555.6z M1569.1,555.9c-0.1,0-0.1,0-0.2,0.1c0,0.1,0,0.2,0.1,0.2c0.1,0.1,0.3,0.1,0.4,0.2
		c0,0,0.1,0,0.1,0c0.1,0,0.1,0,0.2-0.1c0-0.1,0-0.2-0.1-0.3C1569.5,556,1569.3,555.9,1569.1,555.9
		C1569.2,555.9,1569.1,555.9,1569.1,555.9z M1570.2,556.5c0,0-0.1,0-0.1,0.1c-0.1,0.1-0.1,0.2,0,0.3c0.1,0.1,0.2,0.2,0.4,0.3
		c1.6,1.6,1.6,4.1,0,5.6c-0.1,0.1-0.1,0.2,0,0.3c0,0,0.1,0.1,0.1,0.1c0,0,0.1,0,0.1-0.1c1.7-1.7,1.7-4.5,0-6.2
		c-0.1-0.1-0.3-0.2-0.4-0.4C1570.3,556.5,1570.2,556.5,1570.2,556.5z M1567.3,557.1c-0.1,0-0.1,0-0.2,0c0,0-0.1,0.1-0.1,0.1v2.5
		c-0.1,0-0.3,0-0.4,0c-0.8,0-1.5,0.6-1.5,1.3s0.7,1.3,1.5,1.3s1.5-0.6,1.5-1.3V559l1.3,0.2c0.1,0,0.1,0,0.2,0c0,0,0.1-0.1,0.1-0.1
		v-1.3c0-0.1-0.1-0.2-0.2-0.2L1567.3,557.1z M1567.5,557.5l1.9,0.3v0.9l-1.3-0.2c-0.1,0-0.1,0-0.2,0c0,0-0.1,0.1-0.1,0.1v2.3
		c0,0.5-0.5,0.9-1.1,0.9c-0.6,0-1.1-0.4-1.1-0.9s0.5-0.9,1.1-0.9c0.2,0,0.3,0,0.5,0.1c0.1,0,0.1,0,0.2,0c0.1,0,0.1-0.1,0.1-0.2
		V557.5z M1565.8,563c-0.1,0-0.1,0-0.2,0.1l-0.2,0.3c-0.1,0.1,0,0.2,0.1,0.3c0,0,0.1,0,0.1,0c0.1,0,0.1,0,0.2-0.1l0.2-0.3
		C1566,563.2,1566,563.1,1565.8,563C1565.9,563.1,1565.9,563.1,1565.8,563z M1569.5,563C1569.5,563.1,1569.4,563.1,1569.5,563
		c-0.2,0.1-0.2,0.2-0.1,0.3l0.2,0.3c0,0.1,0.1,0.1,0.2,0.1c0,0,0.1,0,0.1,0c0.1-0.1,0.1-0.2,0.1-0.3l-0.2-0.3
		C1569.6,563.1,1569.6,563,1569.5,563z M1566.7,563.4c-0.1,0-0.1,0.1-0.2,0.1l-0.1,0.4c0,0.1,0,0.2,0.1,0.2c0,0,0,0,0,0
		c0.1,0,0.2-0.1,0.2-0.1l0.1-0.4C1566.9,563.6,1566.9,563.4,1566.7,563.4C1566.7,563.4,1566.7,563.4,1566.7,563.4z M1568.6,563.4
		C1568.6,563.4,1568.6,563.4,1568.6,563.4c-0.2,0-0.2,0.1-0.2,0.2l0.1,0.4c0,0.1,0.1,0.1,0.2,0.1c0,0,0,0,0,0c0.1,0,0.2-0.1,0.1-0.2
		l-0.1-0.4C1568.8,563.5,1568.7,563.4,1568.6,563.4z M1567.7,563.5c-0.1,0-0.2,0.1-0.2,0.2v0.4c0,0.1,0.1,0.2,0.2,0.2
		c0.1,0,0.2-0.1,0.2-0.2v-0.4C1567.8,563.6,1567.8,563.5,1567.7,563.5z"/>
</g>
</svg>
