  <svg
  version="1.1"
  id="bg"
  xmlnsXlink="http://www.w3.org/1999/xlink"
  x="0px"
  y="0px"
  viewBox="0 0 1920 1080"
  style={{ enableBackground: "new 0 0 1920 1080" }}
  xmlSpace="preserve"
>
  <g id="INC_L_S_1" className="st0landingpage">
    <path
      id="image"
      className="st1landingpage"
      d="M406.9 147.6v40.8h50.2v-40.8h-50.2zm47.1 37.6h-43.9v-34.5H454v34.5zm-12.6-26.6c0 2.6 2.1 4.7 4.7 4.7s4.7-2.1 4.7-4.7-2.1-4.7-4.7-4.7-4.7 2.1-4.7 4.7zm9.4 23.5h-37.7l9.4-25.1 12.6 15.7 6.3-4.7 9.4 14.1z"
    />
    <path
      id="Audio_1"
      className="st1landingpage"
      d="M634.3 298.9c-16 0-29 13-29 29s13 29 29 29 29-13 29-29-13-29-29-29zm0 2c14.9 0 27 12.1 27 27s-12.1 27-27 27-27-12.1-27-27 12.1-27 27-27zm-.5 4c-5.9.1-11.6 2.5-15.8 6.7-9 9-9 23.6 0 32.5.2.2.5.3.7.3.3 0 .5-.1.7-.3.4-.4.4-1 0-1.4-8.2-8.2-8.2-21.5 0-29.7 4.7-4.8 11.5-7 18.2-5.9.5.1 1.1-.3 1.1-.8.1-.5-.3-1.1-.8-1.1-1.3-.3-2.7-.3-4.1-.3zm8.1 1.4c-.4 0-.7.3-.9.6-.2.5.1 1.1.6 1.3l2.1.9c.1.1.3.1.4.1.4 0 .7-.2.9-.6.2-.5 0-1.1-.4-1.3-.7-.4-1.5-.7-2.3-1h-.4zm5.8 3.2c-.3 0-.5.2-.7.4-.3.4-.3 1.1.2 1.4.7.5 1.3 1.1 1.9 1.7 8.2 8.2 8.2 21.5 0 29.7-.4.4-.4 1 0 1.4.2.2.5.3.7.3.3 0 .5-.1.7-.3 9-9 9-23.6 0-32.5-.7-.7-1.4-1.3-2.1-1.9-.2-.1-.4-.2-.7-.2zm-15.3 3.4c-.3 0-.6 0-.8.2-.2.2-.4.5-.4.8v13.2c-.7-.1-1.3-.2-2-.2-4.4 0-8 3.1-8 7s3.6 7 8 7 8-3.1 8-7v-11.2l6.8 1.1c.3.1.6 0 .8-.2.2-.2.4-.5.4-.8v-7c0-.5-.4-.9-.8-1l-12-1.9zm.9 2.2l10 1.7v5l-6.8-1.1c-.3 0-.6 0-.8.2-.2.2-.4.5-.4.8V334c0 2.8-2.7 5-6 5s-6-2.2-6-5 2.7-5 6-5c.9 0 1.8.2 2.6.5.3.1.7.1.9-.1s.4-.5.4-.8l.1-13.5zm-8.7 29.2c-.4 0-.8.1-1 .5l-1 1.7c-.3.5-.1 1.1.4 1.4.2.1.3.1.5.1.3 0 .7-.2.9-.5l1-1.7c.3-.5.1-1.1-.4-1.4-.1-.1-.2-.1-.4-.1zm19.3 0c-.1 0-.3.1-.4.1-.5.3-.6.9-.4 1.4l1 1.7c.2.3.5.5.9.5.2 0 .3 0 .5-.1.5-.3.6-.9.4-1.4l-1-1.7c-.2-.4-.6-.6-1-.5zm-14.8 1.9c-.4.1-.7.3-.8.7l-.5 1.9c-.1.5.2 1.1.7 1.2h.3c.4 0 .8-.3 1-.7l.5-1.9c.1-.5-.2-1.1-.7-1.2h-.5zm10.4 0h-.4c-.5.1-.8.7-.7 1.2l.5 1.9c.1.4.5.7 1 .7h.3c.5-.1.9-.7.7-1.2l-.5-1.9c-.2-.4-.6-.6-.9-.7zm-5.2.7c-.6 0-1 .4-1 1v2c0 .6.4 1 1 1s1-.4 1-1v-2c0-.6-.5-1-1-1z"
    />
    <path
      id="Video_1"
      className="st1landingpage"
      d="M573 377.9c-9.3-15.2-30-20.4-46.2-11.6-16.2 8.8-21.7 28.2-12.4 43.4 9.3 15.2 30 20.4 46.2 11.6 16.2-8.7 21.7-28.2 12.4-43.4zm-15.8 37.9c-12.9 7-29.5 2.9-37-9.3-7.5-12.2-3-27.7 9.9-34.7 12.9-7 29.5-2.9 37 9.3 7.5 12.2 3 27.7-9.9 34.7zm-1.4-23.3l-17.7-9.7c-1.6-.9-2.9-.2-2.9 1.6l.1 19.3c0 1.8 1.3 2.5 2.9 1.6l17.6-9.5c1.7-1 1.7-2.4 0-3.3z"
    />
    <path
      id="text_1_1_"
      className="st2landingpage"
      d="M308.2 354.4h-31.4c-2.1 0-3.8 1.7-3.8 3.8V413c0 2.1 1.7 3.8 3.8 3.8h38.5c2.1 0 3.8-1.7 3.8-3.8v-46.8l-10.9-11.8zm.9 5.7l4.8 5.2h-4.8v-5.2zm6.8 52.9c0 .3-.3.6-.6.6h-38.5c-.3 0-.6-.3-.6-.6v-54.8c0-.3.3-.6.6-.6h29.1v9.3c0 .9.7 1.6 1.6 1.6h8.4V413zm-34-41.5h27.3c.7 0 1.2.5 1.2 1.2s-.5 1.2-1.2 1.2h-27.3c-.7 0-1.2-.5-1.2-1.2s.5-1.2 1.2-1.2zm28.5 9.3c0 .7-.5 1.2-1.2 1.2h-27.3c-.7 0-1.2-.5-1.2-1.2s.5-1.2 1.2-1.2h27.3c.6 0 1.2.5 1.2 1.2zm0 7.8c0 .7-.5 1.2-1.2 1.2h-27.3c-.7 0-1.2-.5-1.2-1.2s.5-1.2 1.2-1.2h27.3c.6 0 1.2.5 1.2 1.2zm0 8c0 .7-.5 1.2-1.2 1.2h-27.3c-.7 0-1.2-.5-1.2-1.2s.5-1.2 1.2-1.2h27.3c.6-.1 1.2.5 1.2 1.2z"
    />
    <path
      id="image_1_"
      className="st1landingpage"
      d="M577.8 722.9v40.8H628v-40.8h-50.2zm47 37.7h-43.9v-34.5h43.9v34.5zm-12.5-26.7c0 2.6 2.1 4.7 4.7 4.7s4.7-2.1 4.7-4.7-2.1-4.7-4.7-4.7-4.7 2.1-4.7 4.7zm9.4 23.6H584l9.4-25.1L606 748l6.3-4.7 9.4 14.2z"
    />
    <path
      className="st1landingpage"
      d="M471.1 863.5l-17.7-9.7c-1.6-.9-2.9-.2-2.9 1.6l.1 19.3c0 1.8 1.3 2.5 2.9 1.6l17.6-9.5c1.6-1 1.6-2.4 0-3.3z"
    />
    <path
      className="st1landingpage"
      d="M488.2 848.9c-9.3-15.2-30-20.4-46.2-11.6-16.2 8.8-21.7 28.2-12.4 43.4 9.3 15.2 30 20.4 46.2 11.6 16.2-8.7 21.8-28.2 12.4-43.4zm-15.7 37.9c-12.9 7-29.5 2.9-37-9.3-7.5-12.2-3-27.7 9.9-34.7 12.9-7 29.5-2.9 37 9.3 7.4 12.2 3 27.7-9.9 34.7z"
    />
    <path
      id="text_1"
      className="st2landingpage"
      d="M677.7 512.9h-31.4c-2.1 0-3.8 1.7-3.8 3.8v54.8c0 2.1 1.7 3.8 3.8 3.8h38.5c2.1 0 3.8-1.7 3.8-3.8v-46.8l-10.9-11.8zm.9 5.7l4.8 5.2h-4.8v-5.2zm6.8 52.9c0 .3-.3.6-.6.6h-38.5c-.3 0-.6-.3-.6-.6v-54.8c0-.3.3-.6.6-.6h29.1v9.3c0 .9.7 1.6 1.6 1.6h8.4v44.5zm-34-41.5h27.3c.7 0 1.2.5 1.2 1.2s-.5 1.2-1.2 1.2h-27.3c-.7 0-1.2-.5-1.2-1.2s.5-1.2 1.2-1.2zm28.5 9.3c0 .7-.5 1.2-1.2 1.2h-27.3c-.7 0-1.2-.5-1.2-1.2s.5-1.2 1.2-1.2h27.3c.6 0 1.2.5 1.2 1.2zm0 7.8c0 .7-.5 1.2-1.2 1.2h-27.3c-.7 0-1.2-.5-1.2-1.2s.5-1.2 1.2-1.2h27.3c.6 0 1.2.5 1.2 1.2zm0 8c0 .7-.5 1.2-1.2 1.2h-27.3c-.7 0-1.2-.5-1.2-1.2s.5-1.2 1.2-1.2h27.3c.6-.1 1.2.5 1.2 1.2z"
    />
    <path
      id="Audio_1_1_"
      className="st1landingpage"
      d="M374 534c-16 0-29 13-29 29s13 29 29 29 29-13 29-29-13-29-29-29zm0 2c14.9 0 27 12.1 27 27s-12.1 27-27 27-27-12.1-27-27 12.1-27 27-27zm-.4 4c-5.9.1-11.6 2.5-15.8 6.7-9 9-9 23.6 0 32.5.2.2.5.3.7.3.3 0 .5-.1.7-.3.4-.4.4-1 0-1.4-8.2-8.2-8.2-21.5 0-29.7 4.7-4.8 11.5-7 18.2-5.9.5.1 1.1-.3 1.1-.8.1-.5-.3-1.1-.8-1.1-1.4-.2-2.8-.3-4.1-.3zm8.1 1.4c-.4 0-.7.3-.9.6-.2.5.1 1.1.6 1.3l2.1.9c.1.1.3.1.4.1.4 0 .7-.2.9-.6.2-.5 0-1.1-.4-1.3-.7-.4-1.5-.7-2.3-1h-.4zm5.7 3.3c-.3 0-.5.2-.7.4-.3.4-.3 1.1.2 1.4.7.5 1.3 1.1 1.9 1.7 8.2 8.2 8.2 21.5 0 29.7-.4.4-.4 1 0 1.4.2.2.5.3.7.3.3 0 .5-.1.7-.3 9-9 9-23.6 0-32.5-.7-.7-1.4-1.3-2.1-1.9-.1-.1-.4-.2-.7-.2zm-15.2 3.4c-.3 0-.6 0-.8.2-.2.2-.4.5-.4.8v13.2c-.7-.1-1.3-.2-2-.2-4.4 0-8 3.1-8 7s3.6 7 8 7 8-3.1 8-7v-11.2l6.8 1.1c.3.1.6 0 .8-.2.2-.2.4-.5.4-.8v-7c0-.5-.4-.9-.8-1l-12-1.9zm.8 2.1l10 1.7v5l-6.8-1.1c-.3 0-.6 0-.8.2-.2.2-.4.5-.4.8V569c0 2.8-2.7 5-6 5s-6-2.2-6-5 2.7-5 6-5c.9 0 1.8.2 2.6.5.3.1.7.1.9-.1s.4-.5.4-.8v-13.4zm-8.6 29.2c-.4 0-.8.1-1 .5l-1 1.7c-.3.5-.1 1.1.4 1.4.2.1.3.1.5.1.3 0 .7-.2.9-.5l1-1.7c.3-.5.1-1.1-.4-1.4-.2 0-.3-.1-.4-.1zm19.2 0c-.1 0-.3.1-.4.1-.5.3-.6.9-.4 1.4l1 1.7c.2.3.5.5.9.5.2 0 .3 0 .5-.1.5-.3.6-.9.4-1.4l-1-1.7c-.2-.3-.6-.5-1-.5zm-14.8 2c-.4.1-.7.3-.8.7l-.5 1.9c-.1.5.2 1.1.7 1.2h.3c.4 0 .8-.3 1-.7l.5-1.9c.1-.5-.2-1.1-.7-1.2h-.5zm10.4 0h-.4c-.5.1-.8.7-.7 1.2l.5 1.9c.1.4.5.7 1 .7h.3c.5-.1.9-.7.7-1.2l-.5-1.9c-.2-.4-.5-.7-.9-.7zm-5.2.6c-.6 0-1 .4-1 1v2c0 .6.4 1 1 1s1-.4 1-1v-2c0-.5-.4-1-1-1z"
    />
  </g>
  <g id="INC_L_S_2" className="st0landingpage">
    <path
      id="image_3_"
      className="st1landingpage"
      d="M803 306.2V334h34.2v-27.8H803zm32.1 25.6h-29.9v-23.5h29.9v23.5zm-8.6-18.2c0 1.8 1.4 3.2 3.2 3.2s3.2-1.4 3.2-3.2-1.4-3.2-3.2-3.2-3.2 1.5-3.2 3.2zm6.4 16h-25.6l6.4-17.1 8.5 10.7 4.3-3.2 6.4 9.6z"
    />
    <path
      id="Audio_1_3_"
      className="st1landingpage"
      d="M869.1 505.5c-10.9 0-19.7 8.9-19.7 19.7s8.9 19.7 19.7 19.7 19.7-8.9 19.7-19.7-8.8-19.7-19.7-19.7zm0 1.3c10.1 0 18.4 8.2 18.4 18.4s-8.2 18.4-18.4 18.4-18.4-8.2-18.4-18.4 8.3-18.4 18.4-18.4zm-.3 2.8c-4 .1-7.9 1.7-10.8 4.6-6.1 6.1-6.1 16 0 22.1.1.1.3.2.5.2s.4-.1.5-.2c.3-.3.3-.7 0-1-5.6-5.6-5.6-14.6 0-20.2 3.2-3.2 7.9-4.7 12.4-4 .4.1.7-.2.8-.6.1-.4-.2-.7-.6-.8-.9-.1-1.9-.2-2.8-.1zm5.5.9c-.3 0-.5.2-.6.4-.1.4 0 .7.4.9.5.2 1 .4 1.4.6.1 0 .2.1.3.1.2 0 .5-.1.6-.4.2-.3 0-.7-.3-.9-.5-.3-1-.5-1.6-.7h-.2zm3.9 2.2c-.2 0-.3.1-.5.3-.2.3-.2.7.1 1 .5.4.9.7 1.3 1.2 5.6 5.6 5.6 14.6 0 20.2-.3.3-.3.7 0 1 .1.1.3.2.5.2s.3-.1.5-.2c6.1-6.1 6.1-16 0-22.1-.4-.4-.9-.9-1.4-1.3-.1-.2-.3-.3-.5-.3zm-10.3 2.3c-.2 0-.4 0-.5.2-.2.1-.2.3-.2.5v9c-.4-.1-.9-.2-1.4-.2-3 0-5.4 2.1-5.4 4.8s2.4 4.8 5.4 4.8c3 0 5.4-2.1 5.4-4.8v-7.6l4.7.8c.2 0 .4 0 .5-.1.2-.1.2-.3.2-.5V517c0-.3-.2-.6-.6-.7l-8.1-1.3zm.5 1.5l6.8 1.1v3.4l-4.7-.8c-.2 0-.4 0-.5.2-.2.1-.2.3-.2.5v8.4c0 1.9-1.8 3.4-4.1 3.4s-4.1-1.5-4.1-3.4 1.8-3.4 4.1-3.4c.6 0 1.2.1 1.8.3.2.1.4.1.6-.1.2-.1.3-.3.3-.6v-9zm-5.8 19.8c-.3 0-.5.1-.7.3l-.7 1.2c-.2.3-.1.7.2.9.1.1.2.1.3.1.2 0 .5-.1.6-.3l.7-1.2c.2-.3.1-.7-.2-.9-.1 0-.2 0-.2-.1zm13.1 0c-.1 0-.2 0-.3.1-.3.2-.4.6-.2.9l.7 1.2c.1.2.4.3.6.3.1 0 .2 0 .3-.1.3-.2.4-.6.2-.9l-.7-1.2c-.1-.2-.4-.3-.6-.3zm-10.1 1.4c-.3 0-.5.2-.6.5l-.4 1.3c-.1.4.1.7.5.8h.2c.3 0 .6-.2.7-.5l.4-1.3c.1-.4-.1-.7-.5-.8h-.3zm7 0h-.3c-.4.1-.6.5-.5.8l.4 1.3c.1.3.4.5.7.5h.2c.4-.1.6-.5.5-.8l-.4-1.3c-.1-.3-.3-.5-.6-.5zm-3.5.4c-.4 0-.7.3-.7.7v1.4c0 .4.3.7.7.7s.7-.3.7-.7v-1.4c0-.4-.3-.7-.7-.7z"
    />
    <path
      id="Video_1_3_"
      className="st1landingpage"
      d="M930.9 157.2c-6.4-10.3-20.4-13.9-31.4-7.9s-14.8 19.2-8.4 29.5 20.4 13.9 31.4 7.9c11-5.9 14.7-19.2 8.4-29.5zM920.2 183c-8.8 4.8-20.1 1.9-25.2-6.3-5.1-8.3-2.1-18.9 6.7-23.6 8.8-4.8 20.1-1.9 25.2 6.3 5.1 8.2 2.1 18.8-6.7 23.6zm-1-15.9l-12.1-6.6c-1.1-.6-2-.1-2 1.1l.1 13.1c0 1.2.9 1.7 2 1.1l12-6.5c1.1-.6 1.1-1.6 0-2.2z"
    />
    <path
      id="text_1_3_"
      className="st2landingpage"
      d="M754.5 623.2h-21.4c-1.4 0-2.6 1.2-2.6 2.6v37.3c0 1.4 1.2 2.6 2.6 2.6h26.2c1.4 0 2.6-1.2 2.6-2.6v-31.8l-7.4-8.1zm.6 3.9l3.2 3.5h-3.2v-3.5zm3.6 36c1 .2.8.4.6.4h-26.2c-.2 0-.4-.2-.4-.4v-37.3c0-.2.2-.4.4-.4h19.8v6.3c0 .6.5 1.1 1.1 1.1h4.7v30.3zm-23.1-28.2h18.6c1.5 0 1.8.4 1.8.8s-.4.8-.8.8h-18.6c-.5 0-.8-.4-.8-.8 0-.5.3-.8-.2-.8zm20.4 6.3c0 .5-.4.8-1.8.8h-18.6c.5 0 .2-.4.2-.8s.4-.8.8-.8h18.6c.4 0 .8.3.8.8zm0 5.3c0 .5-.4.8-1.8.8h-18.6c.5 0 .2-.4.2-.8s.4-.8.8-.8h18.6c.4 0 .8.4.8.8zm0 5.4c0 .5-.4.8-1.8.8h-18.6c.5 0 .2-.4.2-.8s.4-.8.8-.8h18.6c.4 0 .8.4.8.8z"
    />
    <path
      id="image_2_"
      className="st1landingpage"
      d="M901.4 718.3v27.8h34.2v-27.8h-34.2zm32 25.7h-29.9v-23.5h29.9V744zm-8.5-18.2c0 1.8 1.4 3.2 3.2 3.2s3.2-1.4 3.2-3.2-1.4-3.2-3.2-3.2c-1.8 0-3.2 1.5-3.2 3.2zm6.4 16h-25.6l6.4-17.1 8.5 10.7 4.3-3.2 6.4 9.6z"
    />
    <path
      id="Video_1_2_"
      className="st1landingpage"
      d="M955.4 925.7c-6.4-10.3-20.4-13.9-31.4-7.9s-14.8 19.2-8.4 29.5 20.4 13.9 31.4 7.9c11-5.9 14.8-19.2 8.4-29.5zm-10.7 25.8c-8.8 4.8-20.1 1.9-25.2-6.3-5.1-8.3-2.1-18.9 6.7-23.6 8.8-4.8 20.1-1.9 25.2 6.3 5.1 8.2 2.1 18.8-6.7 23.6zm-.9-15.9l-12.1-6.6c-1.1-.6-2-.1-2 1.1l.1 13.1c0 1.2.9 1.7 2 1.1l12-6.5c1-.6 1.1-1.6 0-2.2z"
    />
    <path
      id="text_1_2_"
      className="st2landingpage"
      d="M1079.5 803.4h-21.4c-1.4 0-2.6 1.2-2.6 2.6v37.3c0 1.4 1.2 2.6 2.6 2.6h26.2c1.4 0 2.6-1.2 2.6-2.6v-31.8l-7.4-8.1zm.6 3.9l3.2 3.5h-3.2v-3.5zm4.6 36c0 .2-.2.4-.4.4h-26.2c-.2 0-.4-.2-.4-.4V806c0-.2.2-.4.4-.4h19.8v6.3c0 .6.5 1.1 1.1 1.1h5.7v30.3zm-23.1-28.2h18.6c.5 0 .8.4.8.8s-.4.8-.8.8h-18.6c-.5 0-.8-.4-.8-.8s.3-.8.8-.8zm19.4 6.3c0 .5-.4.8-.8.8h-18.6c-.5 0-.8-.4-.8-.8s.4-.8.8-.8h18.6c.4 0 .8.3.8.8zm0 5.3c0 .5-.4.8-.8.8h-18.6c-.5 0-.8-.4-.8-.8 0-.5.4-.8.8-.8h18.6c.4 0 .8.4.8.8zm0 5.4c0 .5-.4.8-.8.8h-18.6c-.5 0-.8-.4-.8-.8s.4-.8.8-.8h18.6c.4 0 .8.4.8.8z"
    />
    <path
      id="Audio_1_2_"
      className="st1landingpage"
      d="M772 835.5c-10.9 0-19.7 8.9-19.7 19.7 0 10.9 8.9 19.7 19.7 19.7s19.7-8.9 19.7-19.7c.1-10.9-8.8-19.7-19.7-19.7zm0 1.3c10.1 0 18.4 8.2 18.4 18.4s-8.2 18.4-18.4 18.4-18.4-8.2-18.4-18.4c.1-10.1 8.3-18.4 18.4-18.4zm-.3 2.7c-4 .1-7.9 1.7-10.8 4.6-6.1 6.1-6.1 16 0 22.1.1.1.3.2.5.2s.4-.1.5-.2c.3-.3.3-.7 0-1-5.6-5.6-5.6-14.6 0-20.2 3.2-3.2 7.9-4.7 12.4-4 .4.1.7-.2.8-.6.1-.4-.2-.7-.6-.8-.9 0-1.8-.1-2.8-.1zm5.6 1c-.3 0-.5.2-.6.4-.1.4 0 .7.4.9.5.2 1 .4 1.4.6.1 0 .2.1.3.1.2 0 .5-.1.6-.4.2-.3 0-.7-.3-.9-.5-.3-1-.5-1.6-.7h-.2zm3.9 2.2c-.2 0-.3.1-.5.3-.2.3-.2.7.1 1 .5.4.9.7 1.3 1.2 5.6 5.6 5.6 14.6 0 20.2-.3.3-.3.7 0 1 .1.1.3.2.5.2s.3-.1.5-.2c6.1-6.1 6.1-16 0-22.1-.4-.4-.9-.9-1.4-1.3-.2-.3-.3-.3-.5-.3zm-10.4 2.3c-.2 0-.4 0-.5.2-.2.1-.2.3-.2.5v9c-.4-.1-.9-.2-1.4-.2-3 0-5.4 2.1-5.4 4.8s2.4 4.8 5.4 4.8 5.4-2.1 5.4-4.8v-7.6l4.7.8c.2 0 .4 0 .5-.1.2-.1.2-.3.2-.5V847c0-.3-.2-.6-.6-.7l-8.1-1.3zm.6 1.5l6.8 1.1v3.4l-4.7-.8c-.2 0-.4 0-.5.2-.2.1-.2.3-.2.5v8.4c0 1.9-1.8 3.4-4.1 3.4s-4.1-1.5-4.1-3.4 1.8-3.4 4.1-3.4c.6 0 1.2.1 1.8.3.2.1.4.1.6-.1.2-.1.3-.3.3-.6v-9zm-5.9 19.8c-.3 0-.5.1-.7.3l-.7 1.2c-.2.3-.1.7.2.9.1.1.2.1.3.1.2 0 .5-.1.6-.3l.7-1.2c.2-.3.1-.7-.2-.9 0 0-.1 0-.2-.1zm13.1 0c-.1 0-.2 0-.3.1-.3.2-.4.6-.2.9l.7 1.2c.1.2.4.3.6.3.1 0 .2 0 .3-.1.3-.2.4-.6.2-.9l-.7-1.2c-.1-.2-.3-.3-.6-.3zm-10.1 1.4c-.3 0-.5.2-.6.5l-.4 1.3c-.1.4.1.7.5.8h.2c.3 0 .6-.2.7-.5l.4-1.3c.1-.4-.1-.7-.5-.8h-.3zm7.1 0h-.3c-.4.1-.6.5-.5.8l.4 1.3c.1.3.4.5.7.5h.2c.4-.1.6-.5.5-.8l-.4-1.3c-.1-.3-.4-.5-.6-.5zm-3.6.4c-.4 0-.7.3-.7.7v1.4c0 .4.3.7.7.7s.7-.3.7-.7v-1.4c0-.4-.3-.7-.7-.7z"
    />
  </g>
  <g id="INC_L_S_3" className="st0landingpage">
    <path
      id="image_7_"
      className="st1landingpage"
      d="M1027 220.9v22.4h27.6v-22.4H1027zm25.8 20.7h-24.1v-19h24.1v19zM1046 227c0 1.4 1.2 2.6 2.6 2.6s2.6-1.2 2.6-2.6-1.2-2.6-2.6-2.6-2.6 1.1-2.6 2.6zm5.1 12.9h-20.7l5.2-13.8 6.9 8.6 3.4-2.6 5.2 7.8z"
    />
    <path
      id="Audio_1_7_"
      className="st1landingpage"
      d="M1163.3 314.9c-8.8 0-15.9 7.1-15.9 15.9s7.1 15.9 15.9 15.9 15.9-7.1 15.9-15.9-7.2-15.9-15.9-15.9zm0 1.1c8.2 0 14.8 6.7 14.8 14.8s-6.7 14.8-14.8 14.8-14.8-6.7-14.8-14.8 6.6-14.8 14.8-14.8zm-.3 2.2c-3.2.1-6.4 1.4-8.7 3.7-4.9 4.9-4.9 12.9 0 17.9.1.1.2.2.4.2.1 0 .3-.1.4-.2.2-.2.2-.6 0-.8-4.5-4.5-4.5-11.8 0-16.3 2.6-2.6 6.3-3.8 10-3.2.3 0 .6-.2.6-.5s-.2-.6-.5-.6c-.7-.2-1.4-.2-2.2-.2zm4.5.8c-.2 0-.4.1-.5.4-.1.3 0 .6.3.7.4.1.8.3 1.2.5.1 0 .2.1.2.1.2 0 .4-.1.5-.3.1-.3 0-.6-.2-.7-.4-.2-.8-.4-1.3-.6-.1-.1-.2-.1-.2-.1zm3.1 1.8c-.1 0-.3.1-.4.2-.2.2-.1.6.1.8.4.3.7.6 1 .9 4.5 4.5 4.5 11.8 0 16.3-.2.2-.2.6 0 .8.1.1.2.2.4.2.1 0 .3-.1.4-.2 4.9-4.9 4.9-12.9 0-17.9-.4-.4-.7-.7-1.2-1 0-.1-.1-.1-.3-.1zm-8.4 1.8c-.2 0-.3 0-.4.1-.1.1-.2.3-.2.4v7.3c-.4-.1-.7-.1-1.1-.1-2.4 0-4.4 1.7-4.4 3.8s2 3.8 4.4 3.8 4.4-1.7 4.4-3.8V328l3.8.6c.2 0 .3 0 .4-.1.1-.1.2-.3.2-.4v-3.8c0-.3-.2-.5-.5-.5l-6.6-1.2zm.5 1.2l5.5.9v2.7l-3.8-.6c-.2 0-.3 0-.4.1-.1.1-.2.3-.2.4v6.8c0 1.5-1.5 2.7-3.3 2.7-1.8 0-3.3-1.2-3.3-2.7s1.5-2.7 3.3-2.7c.5 0 1 .1 1.4.3.2.1.4 0 .5-.1s.2-.3.2-.5v-7.3zm-4.7 16c-.2 0-.4.1-.5.3l-.5 1c-.2.3-.1.6.2.8.1 0 .2.1.3.1.2 0 .4-.1.5-.3l.5-1c.2-.3.1-.6-.2-.8-.2 0-.3-.1-.3-.1zm10.5 0c-.1 0-.1 0-.2.1-.3.2-.4.5-.2.8l.5 1c.1.2.3.3.5.3.1 0 .2 0 .3-.1.3-.2.4-.5.2-.7l-.5-1c-.1-.3-.3-.4-.6-.4zm-8.1 1.1c-.2 0-.4.2-.5.4l-.3 1.1c-.1.3.1.6.4.7h.1c.2 0 .5-.2.5-.4l.3-1.1c.1-.3-.1-.6-.4-.7h-.1zm5.7 0h-.2c-.3.1-.5.4-.4.7l.3 1.1c.1.2.3.4.5.4h.1c.3-.1.5-.4.4-.7l-.3-1.1c0-.2-.2-.4-.4-.4zm-2.8.4c-.3 0-.5.2-.5.5v1.1c0 .3.2.5.5.5s.5-.2.5-.5v-1.1c0-.3-.2-.5-.5-.5z"
    />
    <path
      id="Video_1_7_"
      className="st1landingpage"
      d="M1108.7 383c-5.1-8.3-16.5-11.2-25.4-6.4-8.9 4.8-11.9 15.5-6.8 23.8 5.1 8.3 16.5 11.2 25.4 6.4 8.9-4.8 12-15.4 6.8-23.8zm-8.6 20.8c-7.1 3.9-16.2 1.6-20.3-5.1-4.1-6.7-1.7-15.2 5.4-19.1 7.1-3.9 16.2-1.6 20.3 5.1 4.1 6.7 1.7 15.3-5.4 19.1zm-.8-12.8l-9.7-5.3c-.9-.5-1.6-.1-1.6.9l.1 10.6c0 1 .7 1.4 1.6.9l9.7-5.2c.8-.6.8-1.4-.1-1.9z"
    />
    <path
      id="text_1_7_"
      className="st2landingpage"
      d="M986.2 365.4H969c-1.2 0-2.1.9-2.1 2.1v30.1c0 1.2.9 2.1 2.1 2.1h21.1c1.2 0 2.1-.9 2.1-2.1v-25.7l-6-6.5zm.5 3.1l2.6 2.8h-2.6v-2.8zm3.7 29c0 .2-.2.3-.3.3H969c-.2 0-.3-.2-.3-.3v-30.1c0-.2.2-.3.3-.3h16v5.1c0 .5.4.9.9.9h4.6v24.4zm-18.7-22.7h15c.4 0 .7.3.7.7s-.3.7-.7.7h-15c-.4 0-.7-.3-.7-.7.1-.4.4-.7.7-.7zm15.7 5.1c0 .4-.3.7-.7.7h-15c-.4 0-.7-.3-.7-.7s.3-.7.7-.7h15c.4 0 .7.3.7.7zm0 4.3c0 .4-.3.7-.7.7h-15c-.4 0-.7-.3-.7-.7s.3-.7.7-.7h15c.4 0 .7.3.7.7zm0 4.3c0 .4-.3.7-.7.7h-15c-.4 0-.7-.3-.7-.7s.3-.7.7-.7h15c.4.1.7.4.7.7z"
    />
    <path
      id="image_6_"
      className="st1landingpage"
      d="M1121.5 442.6V465h27.6v-22.4h-27.6zm25.9 20.7h-24.1v-19h24.1v19zm-6.9-14.7c0 1.4 1.2 2.6 2.6 2.6s2.6-1.2 2.6-2.6-1.2-2.6-2.6-2.6-2.6 1.2-2.6 2.6zm5.2 12.9H1125l5.2-13.8 6.9 8.6 3.4-2.6 5.2 7.8z"
    />
    <path
      id="Video_1_6_"
      className="st1landingpage"
      d="M1059.4 620.7c-5.1-8.3-16.5-11.2-25.4-6.4-8.9 4.8-11.9 15.5-6.8 23.8 5.1 8.3 16.5 11.2 25.4 6.4 8.9-4.8 12-15.5 6.8-23.8zm-8.6 20.8c-7.1 3.9-16.2 1.6-20.3-5.1-4.1-6.7-1.7-15.2 5.4-19.1 7.1-3.9 16.2-1.6 20.3 5.1 4.1 6.7 1.7 15.2-5.4 19.1zm-.8-12.8l-9.7-5.3c-.9-.5-1.6-.1-1.6.9l.1 10.6c0 1 .7 1.4 1.6.9l9.7-5.2c.8-.6.8-1.4-.1-1.9z"
    />
    <path
      id="text_1_6_"
      className="st2landingpage"
      d="M1240.1 414h-17.2c-1.2 0-2.1.9-2.1 2.1v30.1c0 1.2.9 2.1 2.1 2.1h21.1c1.2 0 2.1-.9 2.1-2.1v-25.7l-6-6.5zm.5 3.1l2.6 2.8h-2.6v-2.8zm3.7 29c0 .2-.2.3-.3.3h-21.1c-.2 0-.3-.2-.3-.3V416c0-.2.2-.3.3-.3h16v5.1c0 .5.4.9.9.9h4.6l-.1 24.4zm-18.7-22.7h15c.4 0 .7.3.7.7s-.3.7-.7.7h-15c-.4 0-.7-.3-.7-.7 0-.4.3-.7.7-.7zm15.6 5.1c0 .4-.3.7-.7.7h-15c-.4 0-.7-.3-.7-.7s.3-.7.7-.7h15c.4 0 .7.3.7.7zm0 4.3c0 .4-.3.7-.7.7h-15c-.4 0-.7-.3-.7-.7s.3-.7.7-.7h15c.4 0 .7.3.7.7zm0 4.3c0 .4-.3.7-.7.7h-15c-.4 0-.7-.3-.7-.7s.3-.7.7-.7h15c.4.1.7.4.7.7z"
    />
    <path
      id="Audio_1_6_"
      className="st1landingpage"
      d="M990.4 534c-8.8 0-15.9 7.1-15.9 15.9s7.1 15.9 15.9 15.9 15.9-7.1 15.9-15.9-7.2-15.9-15.9-15.9zm0 1.1c8.2 0 14.8 6.7 14.8 14.8s-6.7 14.8-14.8 14.8-14.8-6.7-14.8-14.8 6.6-14.8 14.8-14.8zm-.3 2.2c-3.2.1-6.4 1.4-8.7 3.7-4.9 4.9-4.9 12.9 0 17.9.1.1.2.2.4.2.1 0 .3-.1.4-.2.2-.2.2-.6 0-.8-4.5-4.5-4.5-11.8 0-16.3 2.6-2.6 6.3-3.8 10-3.2.3 0 .6-.2.6-.5s-.2-.6-.5-.6c-.7-.1-1.4-.2-2.2-.2zm4.5.8c-.2 0-.4.1-.5.4-.1.3 0 .6.3.7.4.1.8.3 1.2.5.1 0 .2.1.2.1.2 0 .4-.1.5-.3.1-.3 0-.6-.2-.7-.4-.2-.8-.4-1.3-.6-.1-.1-.2-.1-.2-.1zm3.1 1.8c-.1 0-.3.1-.4.2-.2.2-.1.6.1.8.4.3.7.6 1 .9 4.5 4.5 4.5 11.8 0 16.3-.2.2-.2.6 0 .8.1.1.2.2.4.2.1 0 .3-.1.4-.2 4.9-4.9 4.9-12.9 0-17.9-.4-.4-.7-.7-1.2-1 0-.1-.1-.1-.3-.1zm-8.3 1.8c-.2 0-.3 0-.4.1-.1.1-.2.3-.2.4v7.3c-.4-.1-.7-.1-1.1-.1-2.4 0-4.4 1.7-4.4 3.8s2 3.8 4.4 3.8 4.4-1.7 4.4-3.8v-6.1l3.8.6c.2 0 .3 0 .4-.1.1-.1.2-.3.2-.4v-3.8c0-.3-.2-.5-.5-.5l-6.6-1.2zm.4 1.2l5.5.9v2.7l-3.8-.6c-.2 0-.3 0-.4.1-.1.1-.2.3-.2.4v6.8c0 1.5-1.5 2.7-3.3 2.7-1.8 0-3.3-1.2-3.3-2.7s1.5-2.7 3.3-2.7c.5 0 1 .1 1.4.3.2.1.4 0 .5-.1.2-.1.2-.3.2-.5l.1-7.3zm-4.7 16c-.2 0-.4.1-.5.3l-.5 1c-.2.3-.1.6.2.8.1 0 .2.1.3.1.2 0 .4-.1.5-.3l.5-1c.2-.3.1-.6-.2-.8-.2 0-.2 0-.3-.1zm10.6 0c-.1 0-.1 0-.2.1-.3.2-.4.5-.2.8l.5 1c.1.2.3.3.5.3.1 0 .2 0 .3-.1.3-.2.4-.5.2-.7l-.5-1c-.2-.3-.4-.4-.6-.4zm-8.2 1.1c-.2 0-.4.2-.5.4l-.3 1.1c-.1.3.1.6.4.7h.1c.2 0 .5-.2.5-.4l.3-1.1c.1-.3-.1-.6-.4-.7h-.1zm5.7 0h-.2c-.3.1-.5.4-.4.7l.3 1.1c.1.2.3.4.5.4h.1c.3-.1.5-.4.4-.7l-.3-1.1c0-.2-.2-.4-.4-.4zm-2.8.4c-.3 0-.5.2-.5.5v1.1c0 .3.2.5.5.5s.5-.2.5-.5v-1.1c0-.3-.2-.5-.5-.5z"
    />
  </g>
  <g id="INC_L_S_4" className="st0landingpage">
    <path
      id="image_13_"
      className="st1landingpage"
      d="M1395.4 504.7v17.5h22.9v-17.5h-22.9zm21.5 16.2h-20.1v-14.8h20.1v14.8zm-5.7-11.5c0 1.1 1 2 2.2 2s2.2-.9 2.2-2-1-2-2.2-2-2.2.9-2.2 2zm4.3 10.1h-17.2l4.3-10.8 5.7 6.7 2.9-2 4.3 6.1z"
    />
    <path
      id="Audio_1_13_"
      className="st1landingpage"
      d="M1492.2 515.6c-7.3 0-13.2 5.6-13.2 12.4 0 6.9 5.9 12.4 13.2 12.4s13.2-5.6 13.2-12.4-5.9-12.4-13.2-12.4zm0 .9c6.8 0 12.3 5.2 12.3 11.6s-5.5 11.6-12.3 11.6c-6.8 0-12.3-5.2-12.3-11.6s5.5-11.6 12.3-11.6zm-.2 1.7c-2.7.1-5.3 1.1-7.2 2.9-4.1 3.8-4.1 10.1 0 13.9.1.1.2.1.3.1.1 0 .2 0 .3-.1.2-.2.2-.4 0-.6-3.7-3.5-3.7-9.2 0-12.7 2.2-2 5.3-3 8.3-2.5.2 0 .5-.1.5-.4 0-.2-.1-.5-.4-.5-.6-.1-1.2-.1-1.8-.1zm3.7.6c-.2 0-.3.1-.4.3-.1.2 0 .5.3.6.3.1.6.2 1 .4h.2c.2 0 .3-.1.4-.2.1-.2 0-.5-.2-.6-.3-.2-.7-.3-1.1-.4-.1-.1-.2-.1-.2-.1zm2.6 1.4c-.1 0-.2.1-.3.2-.2.2-.1.5.1.6.3.2.6.5.9.7 3.7 3.5 3.7 9.2 0 12.7-.2.2-.2.4 0 .6.1.1.2.1.3.1.1 0 .2 0 .3-.1 4.1-3.8 4.1-10.1 0-13.9-.3-.3-.6-.5-1-.8-.1-.1-.2-.1-.3-.1zm-7 1.4c-.1 0-.3 0-.4.1-.1.1-.2.2-.2.3v5.7c-.3-.1-.6-.1-.9-.1-2 0-3.7 1.3-3.7 3s1.6 3 3.7 3 3.7-1.3 3.7-3v-4.8l3.1.5c.1 0 .3 0 .4-.1.1-.1.2-.2.2-.3v-3c0-.2-.2-.4-.4-.4l-5.5-.9zm.4 1l4.6.7v2.1l-3.1-.5c-.1 0-.3 0-.4.1-.1.1-.2.2-.2.3v5.3c0 1.2-1.2 2.1-2.7 2.1s-2.7-1-2.7-2.1 1.2-2.1 2.7-2.1c.4 0 .8.1 1.2.2.1.1.3 0 .4 0 .1-.1.2-.2.2-.4v-5.7zm-3.9 12.5c-.2 0-.4.1-.5.2l-.5.7c-.1.2-.1.5.2.6.1 0 .2.1.2.1.2 0 .3-.1.4-.2l.5-.7c.1-.2.1-.5-.2-.6 0-.1-.1-.1-.1-.1zm8.8 0c-.1 0-.1 0-.2.1-.2.1-.3.4-.2.6l.5.7c.1.1.2.2.4.2.1 0 .2 0 .2-.1.2-.1.3-.4.2-.6l-.5-.7c-.1-.2-.3-.2-.4-.2zm-6.8.8c-.2 0-.3.1-.4.3l-.2.8c-.1.2.1.5.3.5h.1c.2 0 .4-.1.4-.3l.2-.8c.1-.2-.1-.5-.3-.5h-.1zm4.7 0h-.2c-.2.1-.4.3-.3.5l.2.8c.1.2.2.3.4.3h.1c.2-.1.4-.3.3-.5l-.2-.8c.1-.1-.1-.2-.3-.3zm-2.3.3c-.3 0-.5.2-.5.4v.9c0 .2.2.4.5.4s.5-.2.5-.4v-.9c-.1-.2-.3-.4-.5-.4z"
    />
    <path
      id="Video_1_13_"
      className="st1landingpage"
      d="M1446.8 568.8c-4.3-6.5-13.7-8.8-21.1-5-7.4 3.8-9.9 12.1-5.7 18.6 4.3 6.5 13.7 8.8 21.1 5 7.4-3.7 10-12.1 5.7-18.6zm-7.2 16.3c-5.9 3-13.5 1.2-16.9-4-3.4-5.2-1.4-11.9 4.5-14.9s13.5-1.2 16.9 4c3.4 5.2 1.4 11.9-4.5 14.9zm-.6-10l-8.1-4.2c-.7-.4-1.3-.1-1.3.7v8.3c0 .8.6 1.1 1.3.7l8-4.1c.8-.4.8-1 .1-1.4z"
    />
    <path
      id="text_1_13_"
      className="st2landingpage"
      d="M1361.5 539.4h-14.3c-1 0-1.7.7-1.7 1.6v23.5c0 .9.8 1.6 1.7 1.6h17.6c1 0 1.7-.7 1.7-1.6v-20l-5-5.1zm.4 2.5l2.2 2.2h-2.2v-2.2zm3.1 22.6c0 .1-.1.3-.3.3h-17.6c-.2 0-.3-.1-.3-.3V541c0-.1.1-.3.3-.3h13.3v4c0 .4.3.7.7.7h3.8l.1 19.1zm-15.5-17.7h12.5c.3 0 .6.2.6.5s-.2.5-.6.5h-12.5c-.3 0-.6-.2-.6-.5s.3-.5.6-.5zm13 3.9c0 .3-.2.5-.6.5h-12.5c-.3 0-.6-.2-.6-.5s.2-.5.6-.5h12.5c.3 0 .6.3.6.5zm0 3.4c0 .3-.2.5-.6.5h-12.5c-.3 0-.6-.2-.6-.5s.2-.5.6-.5h12.5c.3 0 .6.2.6.5zm0 3.4c0 .3-.2.5-.6.5h-12.5c-.3 0-.6-.2-.6-.5s.2-.5.6-.5h12.5c.3 0 .6.2.6.5z"
    />
    <path
      id="image_12_"
      className="st1landingpage"
      d="M1457.4 615.3v17.5h22.9v-17.5h-22.9zm21.5 16.2h-20.1v-14.8h20.1v14.8zm-5.7-11.5c0 1.1 1 2 2.2 2s2.2-.9 2.2-2-1-2-2.2-2-2.2.9-2.2 2zm4.3 10.1h-17.2l4.3-10.8 5.7 6.7 2.9-2 4.3 6.1z"
    />
    <path
      id="Video_1_12_"
      className="st1landingpage"
      d="M1447.4 668.5c-4.3-6.5-13.7-8.8-21.1-5-7.4 3.8-9.9 12.1-5.7 18.6 4.3 6.5 13.7 8.8 21.1 5 7.4-3.7 9.9-12.1 5.7-18.6zm-7.2 16.3c-5.9 3-13.5 1.2-16.9-4-3.4-5.2-1.4-11.9 4.5-14.9s13.5-1.2 16.9 4c3.4 5.2 1.4 11.8-4.5 14.9zm-.6-10l-8.1-4.2c-.7-.4-1.3-.1-1.3.7v8.3c0 .8.6 1.1 1.3.7l8-4.1c.8-.4.8-1.1.1-1.4z"
    />
    <path
      id="text_1_12_"
      className="st2landingpage"
      d="M1539.4 577.4h-14.3c-1 0-1.7.7-1.7 1.6v23.5c0 .9.8 1.6 1.7 1.6h17.6c1 0 1.7-.7 1.7-1.6v-20l-5-5.1zm.4 2.4l2.2 2.2h-2.2v-2.2zm3.1 22.7c0 .1-.1.3-.3.3H1525c-.2 0-.3-.1-.3-.3V579c0-.1.1-.3.3-.3h13.3v4c0 .4.3.7.7.7h3.8v19.1zm-15.5-17.8h12.5c.3 0 .6.2.6.5s-.2.5-.6.5h-12.5c-.3 0-.6-.2-.6-.5s.3-.5.6-.5zm13 4c0 .3-.2.5-.6.5h-12.5c-.3 0-.6-.2-.6-.5s.2-.5.6-.5h12.5c.3 0 .6.2.6.5zm0 3.3c0 .3-.2.5-.6.5h-12.5c-.3 0-.6-.2-.6-.5s.2-.5.6-.5h12.5c.3 0 .6.3.6.5zm0 3.5c0 .3-.2.5-.6.5h-12.5c-.3 0-.6-.2-.6-.5s.2-.5.6-.5h12.5c.3-.1.6.2.6.5z"
    />
    <path
      id="Audio_1_12_"
      className="st1landingpage"
      d="M1373.3 616.5c-7.3 0-13.2 5.6-13.2 12.4 0 6.9 5.9 12.4 13.2 12.4s13.2-5.6 13.2-12.4c0-6.9-5.9-12.4-13.2-12.4zm0 .8c6.8 0 12.3 5.2 12.3 11.6s-5.5 11.6-12.3 11.6c-6.8 0-12.3-5.2-12.3-11.6 0-6.4 5.5-11.6 12.3-11.6zm-.2 1.7c-2.7.1-5.3 1.1-7.2 2.9-4.1 3.8-4.1 10.1 0 13.9.1.1.2.1.3.1.1 0 .2 0 .3-.1.2-.2.2-.4 0-.6-3.7-3.5-3.7-9.2 0-12.7 2.2-2 5.3-3 8.3-2.5.2 0 .5-.1.5-.4 0-.2-.1-.5-.4-.5-.6 0-1.2-.1-1.8-.1zm3.7.6c-.2 0-.3.1-.4.3-.1.2 0 .5.3.6.3.1.6.2 1 .4h.2c.2 0 .3-.1.4-.2.1-.2 0-.5-.2-.6-.3-.2-.7-.3-1.1-.4-.1-.1-.2-.1-.2-.1zm2.6 1.4c-.1 0-.2.1-.3.2-.2.2-.1.5.1.6.3.2.6.5.9.7 3.7 3.5 3.7 9.2 0 12.7-.2.2-.2.4 0 .6.1.1.2.1.3.1.1 0 .2 0 .3-.1 4.1-3.8 4.1-10.1 0-13.9-.3-.3-.6-.5-1-.8 0-.1-.2-.1-.3-.1zm-6.9 1.5c-.1 0-.3 0-.4.1-.1.1-.2.2-.2.3v5.7c-.3-.1-.6-.1-.9-.1-2 0-3.7 1.3-3.7 3s1.6 3 3.7 3 3.7-1.3 3.7-3v-4.8l3.1.5c.1 0 .3 0 .4-.1.1-.1.2-.2.2-.3v-3c0-.2-.2-.4-.4-.4l-5.5-.9zm.3.9l4.6.7v2.1l-3.1-.5c-.1 0-.3 0-.4.1-.1.1-.2.2-.2.3v5.3c0 1.2-1.2 2.1-2.7 2.1s-2.7-1-2.7-2.1c0-1.2 1.2-2.1 2.7-2.1.4 0 .8.1 1.2.2.1.1.3 0 .4 0 .1-.1.2-.2.2-.4v-5.7zm-3.9 12.5c-.2 0-.4.1-.5.2l-.5.7c-.1.2-.1.5.2.6.1 0 .2.1.2.1.2 0 .3-.1.4-.2l.5-.7c.1-.2.1-.5-.2-.6 0-.1 0-.1-.1-.1zm8.8 0c-.1 0-.1 0-.2.1-.2.1-.3.4-.2.6l.5.7c.1.1.2.2.4.2.1 0 .2 0 .2-.1.2-.1.3-.4.2-.6l-.5-.7c-.1-.1-.2-.2-.4-.2zm-6.8.9c-.2 0-.3.1-.4.3l-.2.8c-.1.2.1.5.3.5h.1c.2 0 .4-.1.4-.3l.2-.8c.1-.2-.1-.5-.3-.5 0-.1 0-.1-.1 0zm4.8 0h-.2c-.2.1-.4.3-.3.5l.2.8c.1.2.2.3.4.3h.1c.2-.1.4-.3.3-.5l-.2-.8c0-.2-.2-.3-.3-.3zm-2.4.2c-.3 0-.5.2-.5.4v.9c0 .2.2.4.5.4s.5-.2.5-.4v-.9c-.1-.2-.3-.4-.5-.4z"
    />
  </g>
  <g id="INC_L_S_5" className="st0landingpage">
    <path
      id="image_19_"
      className="st1landingpage"
      d="M1174.3 585.2v17.5h22.9v-17.5h-22.9zm21.5 16.2h-20.1v-14.8h20.1v14.8zm-5.7-11.5c0 1.1 1 2 2.2 2s2.2-.9 2.2-2-1-2-2.2-2-2.2.9-2.2 2zm4.3 10.1h-17.2l4.3-10.8 5.7 6.7 2.9-2 4.3 6.1z"
    />
    <path
      id="Audio_1_19_"
      className="st1landingpage"
      d="M1271 596.1c-7.3 0-13.2 5.6-13.2 12.4s5.9 12.4 13.2 12.4 13.2-5.6 13.2-12.4-5.9-12.4-13.2-12.4zm0 .9c6.8 0 12.3 5.2 12.3 11.6s-5.5 11.6-12.3 11.6c-6.8 0-12.3-5.2-12.3-11.6s5.5-11.6 12.3-11.6zm-.2 1.7c-2.7.1-5.3 1.1-7.2 2.9-4.1 3.8-4.1 10.1 0 13.9.1.1.2.1.3.1.1 0 .2 0 .3-.1.2-.2.2-.4 0-.6-3.7-3.5-3.7-9.2 0-12.7 2.2-2 5.3-3 8.3-2.5.2 0 .5-.1.5-.4 0-.2-.1-.5-.4-.5-.5-.1-1.2-.1-1.8-.1zm3.7.6c-.2 0-.3.1-.4.3-.1.2 0 .5.3.6.3.1.6.2 1 .4h.2c.2 0 .3-.1.4-.2.1-.2 0-.5-.2-.6-.3-.2-.7-.3-1.1-.4-.1-.1-.1-.1-.2-.1zm2.6 1.4c-.1 0-.2.1-.3.2-.2.2-.1.5.1.6.3.2.6.5.9.7 3.7 3.5 3.7 9.2 0 12.7-.2.2-.2.4 0 .6.1.1.2.1.3.1.1 0 .2 0 .3-.1 4.1-3.8 4.1-10.1 0-13.9-.3-.3-.6-.5-1-.8 0-.1-.1-.1-.3-.1zm-6.9 1.4c-.1 0-.3 0-.4.1-.1.1-.2.2-.2.3v5.7c-.3-.1-.6-.1-.9-.1-2 0-3.7 1.3-3.7 3s1.6 3 3.7 3 3.7-1.3 3.7-3v-4.8l3.1.5c.1 0 .3 0 .4-.1.1-.1.2-.2.2-.3v-3c0-.2-.2-.4-.4-.4l-5.5-.9zm.4 1l4.6.7v2.1l-3.1-.5c-.1 0-.3 0-.4.1-.1.1-.2.2-.2.3v5.3c0 1.2-1.2 2.1-2.7 2.1s-2.7-1-2.7-2.1c0-1.2 1.2-2.1 2.7-2.1.4 0 .8.1 1.2.2.1.1.3 0 .4 0 .1-.1.2-.2.2-.4v-5.7zm-4 12.5c-.2 0-.4.1-.5.2l-.5.7c-.1.2-.1.5.2.6.1 0 .2.1.2.1.2 0 .3-.1.4-.2l.5-.7c.1-.2.1-.5-.2-.6 0-.1 0-.1-.1-.1zm8.8 0c-.1 0-.1 0-.2.1-.2.1-.3.4-.2.6l.5.7c.1.1.2.2.4.2.1 0 .2 0 .2-.1.2-.1.3-.4.2-.6l-.5-.7c0-.2-.2-.2-.4-.2zm-6.8.8c-.2 0-.3.1-.4.3l-.2.8c-.1.2.1.5.3.5h.1c.2 0 .4-.1.4-.3l.2-.8c.1-.2-.1-.5-.3-.5h-.1zm4.8 0h-.2c-.2.1-.4.3-.3.5l.2.8c.1.2.2.3.4.3h.1c.2-.1.4-.3.3-.5l-.2-.8c0-.1-.1-.2-.3-.3zm-2.4.3c-.3 0-.5.2-.5.4v.9c0 .2.2.4.5.4s.5-.2.5-.4v-.9c0-.2-.2-.4-.5-.4z"
    />
    <path
      id="Video_1_19_"
      className="st1landingpage"
      d="M1225.7 649.3c-4.3-6.5-13.7-8.8-21.1-5-7.4 3.8-9.9 12.1-5.7 18.6 4.3 6.5 13.7 8.8 21.1 5 7.4-3.7 9.9-12.1 5.7-18.6zm-7.2 16.3c-5.9 3-13.5 1.2-16.9-4-3.4-5.2-1.4-11.9 4.5-14.9s13.5-1.2 16.9 4c3.4 5.2 1.4 11.9-4.5 14.9zm-.7-10l-8.1-4.2c-.7-.4-1.3-.1-1.3.7v8.3c0 .8.6 1.1 1.3.7l8-4.1c.9-.4.9-1 .1-1.4z"
    />
    <path
      id="text_1_19_"
      className="st2landingpage"
      d="M1140.4 619.9H1126c-1 0-1.7.7-1.7 1.6V645c0 .9.8 1.6 1.7 1.6h17.6c1 0 1.7-.7 1.7-1.6v-20l-4.9-5.1zm.4 2.5l2.2 2.2h-2.2v-2.2zm3.1 22.6c0 .1-.1.3-.3.3H1126c-.2 0-.3-.1-.3-.3v-23.5c0-.1.1-.3.3-.3h13.3v4c0 .4.3.7.7.7h3.8l.1 19.1zm-15.6-17.7h12.5c.3 0 .6.2.6.5s-.2.5-.6.5h-12.5c-.3 0-.6-.2-.6-.5.1-.3.3-.5.6-.5zm13 3.9c0 .3-.2.5-.6.5h-12.5c-.3 0-.6-.2-.6-.5s.2-.5.6-.5h12.5c.4 0 .6.3.6.5zm0 3.4c0 .3-.2.5-.6.5h-12.5c-.3 0-.6-.2-.6-.5s.2-.5.6-.5h12.5c.4 0 .6.2.6.5zm0 3.4c0 .3-.2.5-.6.5h-12.5c-.3 0-.6-.2-.6-.5s.2-.5.6-.5h12.5c.4 0 .6.2.6.5z"
    />
    <path
      id="image_18_"
      className="st1landingpage"
      d="M1236.3 695.8v17.5h22.9v-17.5h-22.9zm21.5 16.2h-20.1v-14.8h20.1V712zm-5.7-11.5c0 1.1 1 2 2.2 2s2.2-.9 2.2-2-1-2-2.2-2-2.2.9-2.2 2zm4.3 10.1h-17.2l4.3-10.8 5.7 6.7 2.9-2 4.3 6.1z"
    />
    <path
      id="Video_1_18_"
      className="st1landingpage"
      d="M1226.2 749c-4.3-6.5-13.7-8.8-21.1-5-7.4 3.8-9.9 12.1-5.7 18.6 4.3 6.5 13.7 8.8 21.1 5 7.5-3.7 10-12.1 5.7-18.6zm-7.2 16.3c-5.9 3-13.5 1.2-16.9-4-3.4-5.2-1.4-11.9 4.5-14.9s13.5-1.2 16.9 4c3.5 5.2 1.4 11.8-4.5 14.9zm-.6-10l-8.1-4.2c-.7-.4-1.3-.1-1.3.7v8.3c0 .8.6 1.1 1.3.7l8-4.1c.8-.4.8-1.1.1-1.4z"
    />
    <path
      id="text_1_18_"
      className="st2landingpage"
      d="M1318.3 657.9H1304c-1 0-1.7.7-1.7 1.6V683c0 .9.8 1.6 1.7 1.6h17.6c1 0 1.7-.7 1.7-1.6v-20l-5-5.1zm.4 2.4l2.2 2.2h-2.2v-2.2zm3.1 22.7c0 .1-.1.3-.3.3h-17.6c-.2 0-.3-.1-.3-.3v-23.5c0-.1.1-.3.3-.3h13.3v4c0 .4.3.7.7.7h3.8V683zm-15.6-17.8h12.5c.3 0 .6.2.6.5s-.2.5-.6.5h-12.5c-.3 0-.6-.2-.6-.5s.3-.5.6-.5zm13 4c0 .3-.2.5-.6.5h-12.5c-.3 0-.6-.2-.6-.5s.2-.5.6-.5h12.5c.4 0 .6.2.6.5zm0 3.3c0 .3-.2.5-.6.5h-12.5c-.3 0-.6-.2-.6-.5s.2-.5.6-.5h12.5c.4 0 .6.3.6.5zm0 3.5c0 .3-.2.5-.6.5h-12.5c-.3 0-.6-.2-.6-.5s.2-.5.6-.5h12.5c.4-.1.6.2.6.5z"
    />
    <path
      id="Audio_1_18_"
      className="st1landingpage"
      d="M1152.1 697c-7.3 0-13.2 5.6-13.2 12.4 0 6.9 5.9 12.4 13.2 12.4s13.2-5.6 13.2-12.4-5.9-12.4-13.2-12.4zm0 .8c6.8 0 12.3 5.2 12.3 11.6s-5.5 11.6-12.3 11.6c-6.8 0-12.3-5.2-12.3-11.6 0-6.4 5.5-11.6 12.3-11.6zm-.2 1.7c-2.7.1-5.3 1.1-7.2 2.9-4.1 3.8-4.1 10.1 0 13.9.1.1.2.1.3.1.1 0 .2 0 .3-.1.2-.2.2-.4 0-.6-3.7-3.5-3.7-9.2 0-12.7 2.2-2 5.3-3 8.3-2.5.2 0 .5-.1.5-.4 0-.2-.1-.5-.4-.5-.5 0-1.1-.1-1.8-.1zm3.7.6c-.2 0-.3.1-.4.3-.1.2 0 .5.3.6.3.1.6.2 1 .4h.2c.2 0 .3-.1.4-.2.1-.2 0-.5-.2-.6-.3-.2-.7-.3-1.1-.4 0-.1-.1-.1-.2-.1zm2.7 1.4c-.1 0-.2.1-.3.2-.2.2-.1.5.1.6.3.2.6.5.9.7 3.7 3.5 3.7 9.2 0 12.7-.2.2-.2.4 0 .6.1.1.2.1.3.1.1 0 .2 0 .3-.1 4.1-3.8 4.1-10.1 0-13.9-.3-.3-.6-.5-1-.8-.1-.1-.2-.1-.3-.1zm-7 1.5c-.1 0-.3 0-.4.1-.1.1-.2.2-.2.3v5.7c-.3-.1-.6-.1-.9-.1-2 0-3.7 1.3-3.7 3s1.6 3 3.7 3 3.7-1.3 3.7-3v-4.8l3.1.5c.1 0 .3 0 .4-.1.1-.1.2-.2.2-.3v-3c0-.2-.2-.4-.4-.4l-5.5-.9zm.4.9l4.6.7v2.1l-3.1-.5c-.1 0-.3 0-.4.1-.1.1-.2.2-.2.3v5.3c0 1.2-1.2 2.1-2.7 2.1s-2.7-1-2.7-2.1 1.2-2.1 2.7-2.1c.4 0 .8.1 1.2.2.1.1.3 0 .4 0 .1-.1.2-.2.2-.4v-5.7zm-3.9 12.5c-.2 0-.4.1-.5.2l-.5.7c-.1.2-.1.5.2.6.1 0 .2.1.2.1.2 0 .3-.1.4-.2l.5-.7c.1-.2.1-.5-.2-.6 0-.1-.1-.1-.1-.1zm8.7 0c-.1 0-.1 0-.2.1-.2.1-.3.4-.2.6l.5.7c.1.1.2.2.4.2.1 0 .2 0 .2-.1.2-.1.3-.4.2-.6l-.5-.7c0-.1-.2-.2-.4-.2zm-6.7.9c-.2 0-.3.1-.4.3l-.2.8c-.1.2.1.5.3.5h.1c.2 0 .4-.1.4-.3l.2-.8c.1-.2-.1-.5-.3-.5 0-.1-.1-.1-.1 0zm4.7 0h-.2c-.2.1-.4.3-.3.5l.2.8c.1.2.2.3.4.3h.1c.2-.1.4-.3.3-.5l-.2-.8c0-.2-.1-.3-.3-.3zm-2.4.2c-.3 0-.5.2-.5.4v.9c0 .2.2.4.5.4s.5-.2.5-.4v-.8c0-.3-.2-.5-.5-.5z"
    />
  </g>
  <g id="INC_L_S_6" className="st0landingpage">
    <path
      id="image_11_"
      className="st1landingpage"
      d="M1576.8 505.1v7.7h9.5v-7.7h-9.5zm9 7.1h-8.3v-6.5h8.3v6.5zm-2.4-5c0 .5.4.9.9.9s.9-.4.9-.9-.4-.9-.9-.9-.9.4-.9.9zm1.8 4.4h-7.1l1.8-4.8 2.4 3 1.2-.9 1.7 2.7z"
    />
    <path
      id="Audio_1_11_"
      className="st1landingpage"
      d="M1616.9 509.9c-3 0-5.5 2.5-5.5 5.5s2.5 5.5 5.5 5.5 5.5-2.5 5.5-5.5-2.4-5.5-5.5-5.5zm0 .4c2.8 0 5.1 2.3 5.1 5.1s-2.3 5.1-5.1 5.1-5.1-2.3-5.1-5.1 2.3-5.1 5.1-5.1zm-.1.8c-1.1 0-2.2.5-3 1.3-1.7 1.7-1.7 4.5 0 6.2l.1.1s.1 0 .1-.1c.1-.1.1-.2 0-.3-1.6-1.5-1.6-4.1 0-5.6.9-.9 2.2-1.3 3.4-1.1.1 0 .2-.1.2-.2s-.1-.2-.2-.2c0-.1-.3-.1-.6-.1zm1.6.2c-.1 0-.1 0-.2.1 0 .1 0 .2.1.2s.3.1.4.2h.1c.1 0 .1 0 .2-.1 0-.1 0-.2-.1-.3-.2.1-.3 0-.5-.1zm1.1.7s-.1 0-.1.1c-.1.1-.1.2 0 .3.1.1.2.2.4.3 1.6 1.5 1.6 4.1 0 5.6-.1.1-.1.2 0 .3l.1.1s.1 0 .1-.1c1.7-1.7 1.7-4.5 0-6.2-.1-.1-.3-.2-.4-.4 0 0-.1-.1-.1 0zm-2.9.6h-.2l-.1.1v2.5h-.4c-.8 0-1.5.6-1.5 1.3s.7 1.3 1.5 1.3 1.5-.6 1.5-1.3v-2.1l1.3.2h.2l.1-.1v-1.3c0-.1-.1-.2-.2-.2l-2.2-.4zm.1.4l1.9.3v.9l-1.3-.2h-.2l-.1.1v2.3c0 .5-.5.9-1.1.9s-1.1-.4-1.1-.9.5-.9 1.1-.9c.2 0 .3 0 .5.1h.2c.1 0 .1-.1.1-.2V513zm-1.6 5.5c-.1 0-.1 0-.2.1l-.2.3c-.1.1 0 .2.1.3h.1c.1 0 .1 0 .2-.1l.2-.3c0-.1 0-.2-.2-.3.1 0 0 0 0 0zm3.7 0c-.1 0-.1 0 0 0-.2.1-.2.2-.1.3l.2.3c0 .1.1.1.2.1h.1c.1-.1.1-.2.1-.3l-.2-.3c-.2-.1-.3-.1-.3-.1zm-2.9.4c-.1 0-.1.1-.2.1l-.1.4c0 .1 0 .2.1.2h.1c.1 0 .2-.1.2-.1l.1-.4c.1-.1 0-.2-.2-.2.1 0 .1 0 0 0zm2 0c-.2 0-.2.1-.2.2l.1.4c0 .1.1.1.2.1h.1c.1 0 .2-.1.1-.2l-.1-.4c-.1 0-.1-.1-.2-.1zm-1 .1c-.1 0-.2.1-.2.2v.4c0 .1.1.2.2.2s.2-.1.2-.2v-.4c0-.1-.1-.2-.2-.2z"
    />
    <path
      id="Video_1_11_"
      className="st1landingpage"
      d="M1598.1 533.4c-1.8-2.9-5.7-3.9-8.8-2.2-3.1 1.7-4.1 5.3-2.3 8.2s5.7 3.9 8.8 2.2c3-1.6 4.1-5.3 2.3-8.2zm-3 7.2c-2.5 1.3-5.6.5-7-1.8-1.4-2.3-.6-5.2 1.9-6.6 2.5-1.3 5.6-.5 7 1.8 1.4 2.3.6 5.3-1.9 6.6zm-.2-4.4l-3.4-1.8c-.3-.2-.6 0-.6.3v3.6c0 .3.3.5.6.3l3.3-1.8c.4-.2.4-.5.1-.6z"
    />
    <path
      id="text_1_11_"
      className="st2landingpage"
      d="M1562.8 520.4h-5.9c-.4 0-.7.3-.7.7v10.4c0 .4.3.7.7.7h7.3c.4 0 .7-.3.7-.7v-8.9l-2.1-2.2zm.1 1.1l.9 1h-.9v-1zm1.3 10c0 .1-.1.1-.1.1h-7.3c-.1 0-.1-.1-.1-.1v-10.4c0-.1.1-.1.1-.1h5.5v1.8c0 .2.1.3.3.3h1.6v8.4zm-6.4-7.8h5.2c.1 0 .2.1.2.2s-.1.2-.2.2h-5.2c-.1 0-.2-.1-.2-.2s.1-.2.2-.2zm5.4 1.7c0 .1-.1.2-.2.2h-5.2c-.1 0-.2-.1-.2-.2s.1-.2.2-.2h5.2c.1 0 .2.1.2.2zm0 1.5c0 .1-.1.2-.2.2h-5.2c-.1 0-.2-.1-.2-.2s.1-.2.2-.2h5.2c.1 0 .2.1.2.2zm0 1.5c0 .1-.1.2-.2.2h-5.2c-.1 0-.2-.1-.2-.2s.1-.2.2-.2h5.2c.1 0 .2.1.2.2z"
    />
    <path
      id="image_10_"
      className="st1landingpage"
      d="M1602.5 554v7.7h9.5V554h-9.5zm9 7.1h-8.3v-6.5h8.3v6.5zm-2.4-5.1c0 .5.4.9.9.9s.9-.4.9-.9-.4-.9-.9-.9-.9.4-.9.9zm1.8 4.5h-7.1l1.8-4.8 2.4 3 1.2-.9 1.7 2.7z"
    />
    <path
      id="Video_1_10_"
      className="st1landingpage"
      d="M1598.4 577.4c-1.8-2.9-5.7-3.9-8.8-2.2-3.1 1.7-4.1 5.3-2.3 8.2 1.8 2.9 5.7 3.9 8.8 2.2 3-1.6 4-5.3 2.3-8.2zm-3 7.2c-2.5 1.3-5.6.5-7-1.8-1.4-2.3-.6-5.2 1.9-6.6 2.5-1.3 5.6-.5 7 1.8 1.4 2.3.5 5.3-1.9 6.6zm-.3-4.4l-3.4-1.8c-.3-.2-.6 0-.6.3v3.6c0 .3.3.5.6.3l3.3-1.8c.4-.2.4-.4.1-.6z"
    />
    <path
      id="text_1_10_"
      className="st2landingpage"
      d="M1636.5 537.2h-5.9c-.4 0-.7.3-.7.7v10.4c0 .4.3.7.7.7h7.3c.4 0 .7-.3.7-.7v-8.9l-2.1-2.2zm.2 1.1l.9 1h-.9v-1zm1.3 10c0 .1-.1.1-.1.1h-7.3c-.1 0-.1-.1-.1-.1v-10.4c0-.1.1-.1.1-.1h5.5v1.8c0 .2.1.3.3.3h1.6v8.4zm-6.5-7.9h5.2c.1 0 .2.1.2.2s-.1.2-.2.2h-5.2c-.1 0-.2-.1-.2-.2s.1-.2.2-.2zm5.4 1.8c0 .1-.1.2-.2.2h-5.2c-.1 0-.2-.1-.2-.2s.1-.2.2-.2h5.2c.1 0 .2.1.2.2zm0 1.5c0 .1-.1.2-.2.2h-5.2c-.1 0-.2-.1-.2-.2s.1-.2.2-.2h5.2c.1-.1.2 0 .2.2zm0 1.5c0 .1-.1.2-.2.2h-5.2c-.1 0-.2-.1-.2-.2s.1-.2.2-.2h5.2c.1 0 .2.1.2.2z"
    />
    <path
      id="Audio_1_10_"
      className="st1landingpage"
      d="M1567.7 554.5c-3 0-5.5 2.5-5.5 5.5s2.5 5.5 5.5 5.5 5.5-2.5 5.5-5.5-2.5-5.5-5.5-5.5zm0 .3c2.8 0 5.1 2.3 5.1 5.1s-2.3 5.1-5.1 5.1-5.1-2.3-5.1-5.1 2.2-5.1 5.1-5.1zm-.1.8c-1.1 0-2.2.5-3 1.3-1.7 1.7-1.7 4.5 0 6.2l.1.1s.1 0 .1-.1c.1-.1.1-.2 0-.3-1.6-1.5-1.6-4.1 0-5.6.9-.9 2.2-1.3 3.4-1.1.1 0 .2-.1.2-.2s-.1-.2-.2-.2c-.1-.1-.4-.1-.6-.1zm1.5.3c-.1 0-.1 0-.2.1 0 .1 0 .2.1.2s.3.1.4.2h.1c.1 0 .1 0 .2-.1 0-.1 0-.2-.1-.3-.1 0-.3-.1-.5-.1.1 0 0 0 0 0zm1.1.6s-.1 0-.1.1c-.1.1-.1.2 0 .3.1.1.2.2.4.3 1.6 1.5 1.6 4.1 0 5.6-.1.1-.1.2 0 .3l.1.1s.1 0 .1-.1c1.7-1.7 1.7-4.5 0-6.2-.1-.1-.3-.2-.4-.4h-.1zm-2.9.6h-.2l-.1.1v2.5h-.4c-.8 0-1.5.6-1.5 1.3s.7 1.3 1.5 1.3 1.5-.6 1.5-1.3v-2l1.3.2h.2l.1-.1v-1.3c0-.1-.1-.2-.2-.2l-2.2-.5zm.2.4l1.9.3v.9l-1.3-.2h-.2l-.1.1v2.3c0 .5-.5.9-1.1.9s-1.1-.4-1.1-.9.5-.9 1.1-.9c.2 0 .3 0 .5.1h.2c.1 0 .1-.1.1-.2v-2.4zm-1.7 5.5c-.1 0-.1 0-.2.1l-.2.3c-.1.1 0 .2.1.3h.1c.1 0 .1 0 .2-.1l.2-.3c0-.1 0-.2-.2-.3.1.1.1.1 0 0zm3.7 0c0 .1-.1.1 0 0-.2.1-.2.2-.1.3l.2.3c0 .1.1.1.2.1h.1c.1-.1.1-.2.1-.3l-.2-.3c-.2 0-.2-.1-.3-.1zm-2.8.4c-.1 0-.1.1-.2.1l-.1.4c0 .1 0 .2.1.2h.1c.1 0 .2-.1.2-.1l.1-.4s0-.2-.2-.2zm1.9 0c-.2 0-.2.1-.2.2l.1.4c0 .1.1.1.2.1h.1c.1 0 .2-.1.1-.2l-.1-.4s-.1-.1-.2-.1zm-.9.1c-.1 0-.2.1-.2.2v.4c0 .1.1.2.2.2s.2-.1.2-.2v-.4c-.1-.1-.1-.2-.2-.2z"
    />
  </g>
</svg>
  
 