<?xml version="1.0" encoding="utf-8"?>
<!-- Generator: Adobe Illustrator 21.0.2, SVG Export Plug-In . SVG Version: 6.00 Build 0)  -->
<svg version="1.1" id="bg" xmlns="http://www.w3.org/2000/svg" xmlns:xlink="http://www.w3.org/1999/xlink" x="0px" y="0px"
	 viewBox="0 0 1920 1080" style="enable-background:new 0 0 1920 1080;" xml:space="preserve">
<style type="text/css">
	.st0{opacity:0.5;fill:#FFFFFF;animation: dotsAnimation 5s infinite linear;}

@keyframes dotsAnimation { 
  0% { transform: translate(0px, 0px);}
  13% { transform: translate(5px, 5px);}
 25% {transform: translate(10px, 10px);}
  38% {transform: translate(5px, 15px);}
  50% {transform: translate(0px, 20px);}
  63%{transform: translate(-5px, 15px);}
  75%{transform: translate(-10px,10px);}
  88%{transform: translate(-5px, 5px);}
  100%{transform: translate(-0px, 0px);}
}
	
</style>
 <animateTransform attributeName="transform"
                          attributeType="XML"
                          type="rotate"
                          from="0 60 70"
                          to="0 60 70"
                          dur="1000s"
                          repeatCount="indefinite"/>
<g id="Solid_Particles_set_1" class="st0">
	<circle class="st1" cx="386.1" cy="212.6" r="2.5"/>
	<circle class="st1" cx="248.2" cy="403.9" r="2.5"/>
	<circle class="st1" cx="112.9" cy="314.3" r="2.5"/>
	<circle class="st1" cx="405.1" cy="314.3" r="2.5"/>
	<circle class="st1" cx="195.5" cy="244.4" r="2.5"/>
	<circle class="st1" cx="115.4" cy="196.1" r="3.9"/>
	<circle class="st1" cx="274.9" cy="151.6" r="2.7"/>
	<circle class="st1" cx="142.7" cy="400.7" r="2.7"/>
	<circle class="st1" cx="290.8" cy="300.9" r="1.3"/>
	<circle class="st1" cx="367" cy="403.2" r="1.3"/>
</g>
<g id="Solid_Particles_set_2" class="st0">
	<circle class="st1" cx="594.1" cy="370.2" r="4"/>
	<circle class="st1" cx="811.1" cy="69.2" r="4"/>
	<circle class="st1" cx="1024.1" cy="210.2" r="4"/>
	<circle class="st1" cx="564.1" cy="210.2" r="4"/>
	<circle class="st1" cx="894.1" cy="320.2" r="4"/>
	<circle class="st1" cx="1020.1" cy="396.2" r="6.2"/>
	<circle class="st1" cx="769.1" cy="466.2" r="4.2"/>
	<circle class="st1" cx="977.1" cy="74.2" r="4.2"/>
	<circle class="st1" cx="744.1" cy="231.2" r="2.1"/>
	<circle class="st1" cx="624.1" cy="70.2" r="2.1"/>
</g>
<g id="Solid_Particles_set_3" class="st0">
	<circle class="st1" cx="1623.8" cy="213.3" r="1.9"/>
	<circle class="st1" cx="1726.3" cy="71.1" r="1.9"/>
	<circle class="st1" cx="1827" cy="137.7" r="1.9"/>
	<circle class="st1" cx="1609.6" cy="137.7" r="1.9"/>
	<circle class="st1" cx="1765.6" cy="189.7" r="1.9"/>
	<circle class="st1" cx="1825.1" cy="225.6" r="2.9"/>
	<circle class="st1" cx="1706.5" cy="258.7" r="2"/>
	<circle class="st1" cx="1804.8" cy="73.5" r="2"/>
	<circle class="st1" cx="1694.7" cy="147.7" r="1"/>
	<circle class="st1" cx="1638" cy="71.6" r="1"/>
</g>
<g id="Solid_Particles_set_4" class="st0">
	<circle class="st1" cx="600.8" cy="989.2" r="1.9"/>
	<circle class="st1" cx="703.4" cy="847" r="1.9"/>
	<circle class="st1" cx="804" cy="913.6" r="1.9"/>
	<circle class="st1" cx="586.7" cy="913.6" r="1.9"/>
	<circle class="st1" cx="742.6" cy="965.6" r="1.9"/>
	<circle class="st1" cx="802.1" cy="1001.5" r="2.9"/>
	<circle class="st1" cx="683.5" cy="1034.6" r="2"/>
	<circle class="st1" cx="781.8" cy="849.3" r="2"/>
	<circle class="st1" cx="671.7" cy="923.5" r="1"/>
	<circle class="st1" cx="615" cy="847.4" r="1"/>
</g>
<g id="Solid_Particles_set_5" class="st0">
	<circle class="st1" cx="137.7" cy="653.2" r="1.9"/>
	<circle class="st1" cx="240.3" cy="511" r="1.9"/>
	<circle class="st1" cx="340.9" cy="577.6" r="1.9"/>
	<circle class="st1" cx="123.6" cy="577.6" r="1.9"/>
	<circle class="st1" cx="279.5" cy="629.6" r="1.9"/>
	<circle class="st1" cx="339.1" cy="665.5" r="2.9"/>
	<circle class="st1" cx="220.4" cy="698.6" r="2"/>
	<circle class="st1" cx="318.7" cy="513.3" r="2"/>
	<circle class="st1" cx="208.6" cy="587.5" r="1"/>
	<circle class="st1" cx="151.9" cy="511.4" r="1"/>
</g>
<g id="Solid_Particles_set_6" class="st0">
	<circle class="st1" cx="1045.2" cy="168.7" r="1.9"/>
	<circle class="st1" cx="1147.7" cy="26.5" r="1.9"/>
	<circle class="st1" cx="1248.4" cy="93.1" r="1.9"/>
	<circle class="st1" cx="1031" cy="93.1" r="1.9"/>
	<circle class="st1" cx="1187" cy="145.1" r="1.9"/>
	<circle class="st1" cx="1246.5" cy="181" r="2.9"/>
	<circle class="st1" cx="1127.9" cy="214.1" r="2"/>
	<circle class="st1" cx="1226.2" cy="28.9" r="2"/>
	<circle class="st1" cx="1116.1" cy="103.1" r="1"/>
	<circle class="st1" cx="1059.4" cy="27" r="1"/>
</g>
<g id="Solid_Particles_set_7" class="st0">
	<circle class="st1" cx="1556.3" cy="709.1" r="1.9"/>
	<circle class="st1" cx="1658.8" cy="566.9" r="1.9"/>
	<circle class="st1" cx="1759.5" cy="633.5" r="1.9"/>
	<circle class="st1" cx="1542.1" cy="633.5" r="1.9"/>
	<circle class="st1" cx="1698.1" cy="685.5" r="1.9"/>
	<circle class="st1" cx="1757.6" cy="721.4" r="2.9"/>
	<circle class="st1" cx="1639" cy="754.5" r="2"/>
	<circle class="st1" cx="1737.3" cy="569.2" r="2"/>
	<circle class="st1" cx="1627.2" cy="643.4" r="1"/>
	<circle class="st1" cx="1570.5" cy="567.3" r="1"/>
</g>
<g id="Solid_Particles_set_8" class="st0">
	<circle class="st1" cx="1572.2" cy="1002.9" r="2.6"/>
	<circle class="st1" cx="1712.2" cy="808.5" r="2.6"/>
	<circle class="st1" cx="1849.7" cy="899.6" r="2.6"/>
	<circle class="st1" cx="1552.8" cy="899.6" r="2.6"/>
	<circle class="st1" cx="1765.8" cy="970.6" r="2.6"/>
	<circle class="st1" cx="1847.2" cy="1019.6" r="4"/>
	<circle class="st1" cx="1685.1" cy="1064.8" r="2.7"/>
	<circle class="st1" cx="1819.4" cy="811.8" r="2.7"/>
	<circle class="st1" cx="1669" cy="913.1" r="1.3"/>
	<circle class="st1" cx="1591.5" cy="809.2" r="1.3"/>
</g>
<g id="Solid_Particles_set_9" class="st0">
	<circle class="st1" cx="1061.6" cy="1003.8" r="2.6"/>
	<circle class="st1" cx="1201.7" cy="809.5" r="2.6"/>
	<circle class="st1" cx="1339.2" cy="900.5" r="2.6"/>
	<circle class="st1" cx="1042.2" cy="900.5" r="2.6"/>
	<circle class="st1" cx="1255.2" cy="971.5" r="2.6"/>
	<circle class="st1" cx="1336.6" cy="1020.6" r="4"/>
	<circle class="st1" cx="1174.5" cy="1065.8" r="2.7"/>
	<circle class="st1" cx="1308.8" cy="812.7" r="2.7"/>
	<circle class="st1" cx="1158.4" cy="914.1" r="1.3"/>
	<circle class="st1" cx="1080.9" cy="810.1" r="1.3"/>
</g>
<g id="Solid_Particles_set_10" class="st0">
	<circle class="st1" cx="949.2" cy="822.7" r="1.9"/>
	<circle class="st1" cx="1051.8" cy="680.5" r="1.9"/>
	<circle class="st1" cx="1152.4" cy="747.1" r="1.9"/>
	<circle class="st1" cx="935" cy="747.1" r="1.9"/>
	<circle class="st1" cx="1091" cy="799.1" r="1.9"/>
	<circle class="st1" cx="1150.5" cy="835" r="2.9"/>
	<circle class="st1" cx="1031.9" cy="868.1" r="2"/>
	<circle class="st1" cx="1130.2" cy="682.8" r="2"/>
	<circle class="st1" cx="1020.1" cy="757" r="1"/>
	<circle class="st1" cx="963.4" cy="680.9" r="1"/>
</g>
<g id="Solid_Particles_set_11" class="st0">
	<circle class="st1" cx="1301" cy="888" r="4.4"/>
	<circle class="st1" cx="1540" cy="556.5" r="4.4"/>
	<circle class="st1" cx="1774.6" cy="711.8" r="4.4"/>
	<circle class="st1" cx="1268" cy="711.8" r="4.4"/>
	<circle class="st1" cx="1631.4" cy="833" r="4.4"/>
	<circle class="st1" cx="1770.2" cy="916.7" r="6.8"/>
	<circle class="st1" cx="1493.8" cy="993.8" r="4.7"/>
	<circle class="st1" cx="1722.9" cy="562" r="4.7"/>
	<circle class="st1" cx="1466.2" cy="734.9" r="2.3"/>
	<circle class="st1" cx="1334" cy="557.6" r="2.3"/>
</g>
<g id="Solid_Particles_set_12" class="st0">
	<circle class="st1" cx="418.1" cy="592.2" r="2.7"/>
	<circle class="st1" cx="564.1" cy="389.7" r="2.7"/>
	<circle class="st1" cx="707.3" cy="484.5" r="2.7"/>
	<circle class="st1" cx="397.9" cy="484.5" r="2.7"/>
	<circle class="st1" cx="619.9" cy="558.5" r="2.7"/>
	<circle class="st1" cx="704.7" cy="609.6" r="4.2"/>
	<circle class="st1" cx="535.8" cy="656.7" r="2.9"/>
	<circle class="st1" cx="675.7" cy="393" r="2.9"/>
	<circle class="st1" cx="519" cy="498.6" r="1.4"/>
	<circle class="st1" cx="438.3" cy="390.3" r="1.4"/>
</g>
<g id="Solid_Particles_set_13" class="st0">
	<circle class="st1" cx="768.4" cy="548.3" r="3.3"/>
	<circle class="st1" cx="945.8" cy="302.3" r="3.3"/>
	<circle class="st1" cx="1119.9" cy="417.5" r="3.3"/>
	<circle class="st1" cx="743.9" cy="417.5" r="3.3"/>
	<circle class="st1" cx="1013.6" cy="507.5" r="3.3"/>
	<circle class="st1" cx="1116.7" cy="569.6" r="5.1"/>
	<circle class="st1" cx="911.4" cy="626.8" r="3.5"/>
	<circle class="st1" cx="1081.5" cy="306.3" r="3.5"/>
	<circle class="st1" cx="891" cy="434.7" r="1.7"/>
	<circle class="st1" cx="792.9" cy="303.1" r="1.7"/>
</g>
<g id="Solid_Particles_set_14" class="st0">
	<circle class="st1" cx="801.1" cy="515.6" r="5.3"/>
	<circle class="st1" cx="1091.3" cy="113.1" r="5.3"/>
	<circle class="st1" cx="1376.1" cy="301.6" r="5.3"/>
	<circle class="st1" cx="761" cy="301.6" r="5.3"/>
	<circle class="st1" cx="1202.3" cy="448.7" r="5.3"/>
	<circle class="st1" cx="1370.8" cy="550.4" r="8.3"/>
	<circle class="st1" cx="1035.1" cy="644" r="5.7"/>
	<circle class="st1" cx="1313.3" cy="119.8" r="5.7"/>
	<circle class="st1" cx="1001.7" cy="329.7" r="2.8"/>
	<circle class="st1" cx="841.2" cy="114.4" r="2.8"/>
</g>
<g id="Solid_Particles_set_15" class="st0">
	<circle class="st1" cx="1421.2" cy="875" r="4"/>
	<circle class="st1" cx="1636.2" cy="576.9" r="4"/>
	<circle class="st1" cx="1847.1" cy="716.5" r="4"/>
	<circle class="st1" cx="1391.5" cy="716.5" r="4"/>
	<circle class="st1" cx="1718.4" cy="825.5" r="4"/>
	<circle class="st1" cx="1843.1" cy="900.7" r="6.1"/>
	<circle class="st1" cx="1594.6" cy="970.1" r="4.2"/>
	<circle class="st1" cx="1800.6" cy="581.9" r="4.2"/>
	<circle class="st1" cx="1569.8" cy="737.3" r="2.1"/>
	<circle class="st1" cx="1451" cy="577.9" r="2.1"/>
</g>
<g id="Solid_Particles_set_16" class="st0">
	<circle class="st1" cx="435" cy="968.1" r="4"/>
	<circle class="st1" cx="649.9" cy="670" r="4"/>
	<circle class="st1" cx="860.8" cy="809.6" r="4"/>
	<circle class="st1" cx="405.3" cy="809.6" r="4"/>
	<circle class="st1" cx="732.1" cy="918.5" r="4"/>
	<circle class="st1" cx="856.9" cy="993.8" r="6.1"/>
	<circle class="st1" cx="608.3" cy="1063.1" r="4.2"/>
	<circle class="st1" cx="814.3" cy="674.9" r="4.2"/>
	<circle class="st1" cx="583.5" cy="830.4" r="2.1"/>
	<circle class="st1" cx="464.7" cy="670.9" r="2.1"/>
</g>
<g id="Solid_Particles_set_17" class="st0">
	<circle class="st1" cx="61.2" cy="973" r="4"/>
	<circle class="st1" cx="276.1" cy="674.9" r="4"/>
	<circle class="st1" cx="487.1" cy="814.5" r="4"/>
	<circle class="st1" cx="31.5" cy="814.5" r="4"/>
	<circle class="st1" cx="358.3" cy="923.4" r="4"/>
	<circle class="st1" cx="483.1" cy="998.7" r="6.1"/>
	<circle class="st1" cx="234.5" cy="1068" r="4.2"/>
	<circle class="st1" cx="440.5" cy="679.8" r="4.2"/>
	<circle class="st1" cx="209.8" cy="835.3" r="2.1"/>
	<circle class="st1" cx="90.9" cy="675.9" r="2.1"/>
</g>
<g id="Solid_Particles_set_18" class="st0">
	<circle class="st1" cx="1280.7" cy="549.8" r="4"/>
	<circle class="st1" cx="1495.6" cy="251.7" r="4"/>
	<circle class="st1" cx="1706.5" cy="391.4" r="4"/>
	<circle class="st1" cx="1251" cy="391.4" r="4"/>
	<circle class="st1" cx="1577.8" cy="500.3" r="4"/>
	<circle class="st1" cx="1702.6" cy="575.6" r="6.1"/>
	<circle class="st1" cx="1454" cy="644.9" r="4.2"/>
	<circle class="st1" cx="1660" cy="256.7" r="4.2"/>
	<circle class="st1" cx="1429.2" cy="412.2" r="2.1"/>
	<circle class="st1" cx="1310.4" cy="252.7" r="2.1"/>
</g>
<g id="Solid_Particles_set_19" class="st0">
	<circle class="st1" cx="252.1" cy="935.6" r="4"/>
	<circle class="st1" cx="467" cy="637.5" r="4"/>
	<circle class="st1" cx="678" cy="777.1" r="4"/>
	<circle class="st1" cx="222.4" cy="777.1" r="4"/>
	<circle class="st1" cx="549.2" cy="886.1" r="4"/>
	<circle class="st1" cx="674" cy="961.3" r="6.1"/>
	<circle class="st1" cx="425.4" cy="1030.6" r="4.2"/>
	<circle class="st1" cx="631.4" cy="642.4" r="4.2"/>
	<circle class="st1" cx="400.7" cy="797.9" r="2.1"/>
	<circle class="st1" cx="281.8" cy="638.5" r="2.1"/>
</g>
<g id="Solid_Particles_set_20" class="st0">
	<circle class="st3" cx="1481.5" cy="338.9" r="4"/>
	<circle class="st3" cx="1696.4" cy="40.8" r="4"/>
	<circle class="st3" cx="1907.4" cy="180.4" r="4"/>
	<circle class="st3" cx="1451.8" cy="180.4" r="4"/>
	<circle class="st3" cx="1778.6" cy="289.3" r="4"/>
	<circle class="st3" cx="1903.4" cy="364.6" r="6.1"/>
	<circle class="st3" cx="1654.8" cy="433.9" r="4.2"/>
	<circle class="st3" cx="1860.8" cy="45.7" r="4.2"/>
	<circle class="st3" cx="1630.1" cy="201.2" r="2.1"/>
	<circle class="st3" cx="1511.2" cy="41.7" r="2.1"/>
</g>
<g id="Solid_Particles_set_21" class="st0">
	<circle class="st3" cx="93" cy="359.6" r="4"/>
	<circle class="st3" cx="307.9" cy="61.5" r="4"/>
	<circle class="st3" cx="518.9" cy="201.1" r="4"/>
	<circle class="st3" cx="63.3" cy="201.1" r="4"/>
	<circle class="st3" cx="390.1" cy="310.1" r="4"/>
	<circle class="st3" cx="514.9" cy="385.3" r="6.1"/>
	<circle class="st3" cx="266.3" cy="454.7" r="4.2"/>
	<circle class="st3" cx="472.3" cy="66.4" r="4.2"/>
	<circle class="st3" cx="241.6" cy="221.9" r="2.1"/>
	<circle class="st3" cx="122.7" cy="62.5" r="2.1"/>
</g>
</svg>
