<svg xmlns="http://www.w3.org/2000/svg" xmlns:xlink="http://www.w3.org/1999/xlink" viewBox="0 0 323.95 181.5">
  <defs>
    <linearGradient id="linear-gradient" x1="658.22" y1="5580.53" x2="645.78" y2="5567.2" gradientTransform="matrix(1, -0.08, -0.08, -1, 55.36, 5724.48)" gradientUnits="userSpaceOnUse">
      <stop offset="0" stop-color="#bc82ff"/>
      <stop offset="0.18" stop-color="#b782ff"/>
      <stop offset="0.39" stop-color="#a980ff"/>
      <stop offset="0.61" stop-color="#917eff"/>
      <stop offset="0.85" stop-color="#707aff"/>
      <stop offset="1" stop-color="#5778ff"/>
    </linearGradient>
    <linearGradient id="linear-gradient-2" x1="656.25" y1="5578.37" x2="647.77" y2="5569.28" xlink:href="#linear-gradient"/>
    <linearGradient id="linear-gradient-3" x1="-320.92" y1="-3723.5" x2="-330.45" y2="-3733.72" gradientTransform="translate(33.02 3778.97) rotate(4.85)" xlink:href="#linear-gradient"/>
    <linearGradient id="linear-gradient-4" x1="-335.26" y1="-3713.92" x2="-340.93" y2="-3720" gradientTransform="translate(33.02 3778.97) rotate(4.85)" xlink:href="#linear-gradient"/>
    <linearGradient id="linear-gradient-5" x1="0" y1="-214.32" x2="205.38" y2="-214.32" gradientTransform="translate(0 312)" xlink:href="#linear-gradient"/>
    <linearGradient id="linear-gradient-6" x1="1028.92" y1="4248.34" x2="1084.03" y2="4248.34" gradientTransform="matrix(1.07, -0.04, -0.04, -1.23, -653.55, 5397.11)" gradientUnits="userSpaceOnUse">
      <stop offset="0" stop-color="#bc82ff"/>
      <stop offset="0.12" stop-color="#b782ff"/>
      <stop offset="0.22" stop-color="#a980ff"/>
      <stop offset="0.34" stop-color="#917eff"/>
      <stop offset="0.46" stop-color="#707aff"/>
      <stop offset="1" stop-color="#5778ff"/>
    </linearGradient>
    <linearGradient id="linear-gradient-7" x1="473.83" y1="6416.97" x2="533.2" y2="6416.97" gradientTransform="matrix(0.89, -0.17, -0.19, -0.98, 1002.78, 6513.71)" xlink:href="#linear-gradient-6"/>
    <linearGradient id="linear-gradient-8" x1="146.96" y1="-4446.85" x2="153.2" y2="-4446.85" gradientTransform="translate(0 4512)" gradientUnits="userSpaceOnUse">
      <stop offset="0" stop-color="#00b3ff"/>
      <stop offset="0.32" stop-color="#1fadff"/>
      <stop offset="0.76" stop-color="#44a6ff"/>
      <stop offset="1" stop-color="#52a3ff"/>
    </linearGradient>
    <linearGradient id="linear-gradient-9" x1="166.98" y1="-4390.47" x2="175.6" y2="-4390.47" xlink:href="#linear-gradient-8"/>
    <linearGradient id="linear-gradient-10" x1="70.65" y1="-4424.33" x2="79.13" y2="-4424.33" xlink:href="#linear-gradient-8"/>
    <linearGradient id="linear-gradient-11" x1="72.66" y1="-4483.99" x2="83.51" y2="-4501.73" gradientTransform="translate(0 4512)" gradientUnits="userSpaceOnUse">
      <stop offset="0" stop-color="#6700e7"/>
      <stop offset="0.09" stop-color="#6a05e8"/>
      <stop offset="0.19" stop-color="#7413ec"/>
      <stop offset="0.29" stop-color="#832af2"/>
      <stop offset="0.41" stop-color="#984afb"/>
      <stop offset="0.45" stop-color="#a259ff"/>
      <stop offset="0.68" stop-color="#9f57fc"/>
      <stop offset="0.85" stop-color="#9752f3"/>
      <stop offset="0.99" stop-color="#8948e4"/>
      <stop offset="1" stop-color="#8747e2"/>
    </linearGradient>
    <linearGradient id="linear-gradient-12" x1="74.27" y1="-4490.56" x2="89.27" y2="-4490.56" xlink:href="#linear-gradient-8"/>
    <linearGradient id="linear-gradient-13" x1="60.75" y1="-4500.8" x2="67.4" y2="-4511.68" xlink:href="#linear-gradient-11"/>
    <linearGradient id="linear-gradient-14" x1="61.73" y1="-4504.84" x2="70.92" y2="-4504.84" xlink:href="#linear-gradient-8"/>
    <linearGradient id="linear-gradient-15" x1="105.08" y1="-4371.97" x2="115.68" y2="-4386.22" xlink:href="#linear-gradient-11"/>
    <linearGradient id="linear-gradient-16" x1="103.88" y1="-4374.96" x2="121.26" y2="-4374.96" xlink:href="#linear-gradient-8"/>
    <linearGradient id="linear-gradient-17" x1="62.49" y1="-4387.91" x2="78.59" y2="-4415.45" xlink:href="#linear-gradient-11"/>
    <linearGradient id="linear-gradient-18" x1="62.48" y1="-4393.94" x2="88.74" y2="-4393.94" xlink:href="#linear-gradient-8"/>
    <linearGradient id="linear-gradient-19" x1="66.45" y1="-4394.01" x2="84.74" y2="-4394.01" gradientTransform="translate(0 4512)" gradientUnits="userSpaceOnUse">
      <stop offset="0" stop-color="#00dfff"/>
      <stop offset="0.14" stop-color="#00e2ff"/>
      <stop offset="1" stop-color="#00f0ff"/>
    </linearGradient>
    <linearGradient id="linear-gradient-20" x1="147.56" y1="-4406.99" x2="165.05" y2="-4430.5" xlink:href="#linear-gradient-11"/>
    <linearGradient id="linear-gradient-21" x1="145.67" y1="-4411.97" x2="174.33" y2="-4411.97" xlink:href="#linear-gradient-8"/>
    <linearGradient id="linear-gradient-22" x1="102.04" y1="-4438.06" x2="121.61" y2="-4472.25" gradientTransform="translate(0 4512)" gradientUnits="userSpaceOnUse">
      <stop offset="0" stop-color="#6700e7"/>
      <stop offset="0.13" stop-color="#6903e8"/>
      <stop offset="0.22" stop-color="#6f0cea"/>
      <stop offset="0.29" stop-color="#791bee"/>
      <stop offset="0.36" stop-color="#8730f4"/>
      <stop offset="0.42" stop-color="#994cfb"/>
      <stop offset="0.45" stop-color="#a259ff"/>
      <stop offset="0.86" stop-color="#a058fd"/>
      <stop offset="1" stop-color="#9a54f7"/>
    </linearGradient>
    <linearGradient id="linear-gradient-23" x1="103.11" y1="-4454.18" x2="136.52" y2="-4454.18" xlink:href="#linear-gradient-8"/>
    <linearGradient id="linear-gradient-24" x1="112.1" y1="-4453.81" x2="127.4" y2="-4453.81" xlink:href="#linear-gradient-8"/>
    <linearGradient id="linear-gradient-25" x1="44.69" y1="-4434.62" x2="67.65" y2="-4472.18" xlink:href="#linear-gradient-11"/>
    <linearGradient id="linear-gradient-26" x1="48.12" y1="-4448.48" x2="79.95" y2="-4448.48" xlink:href="#linear-gradient-8"/>
    <linearGradient id="linear-gradient-27" x1="-160.85" y1="-3596.61" x2="-173.27" y2="-3609.93" gradientTransform="translate(33.02 3778.97) rotate(4.85)" gradientUnits="userSpaceOnUse">
      <stop offset="0" stop-color="#5778ff"/>
      <stop offset="0.15" stop-color="#707aff"/>
      <stop offset="0.39" stop-color="#917eff"/>
      <stop offset="0.61" stop-color="#a980ff"/>
      <stop offset="0.82" stop-color="#b782ff"/>
      <stop offset="1" stop-color="#bc82ff"/>
    </linearGradient>
  </defs>
  <title>Asset 1</title>
  <g id="Layer_2" data-name="Layer 2">
    <g id="StepOne">
      <path id="Ripple_Path_2" data-name="Ripple Path 2" d="M255.77,123.45a15.81,15.81,0,0,1-8.08-2c-2.29-1.35-3.53-3.17-3.53-5.08s1.3-3.74,3.58-5.09c4.46-2.59,11.76-2.54,16.22.06,2.28,1.34,3.53,3.16,3.53,5.08s-1.3,3.73-3.58,5.08h0A15.77,15.77,0,0,1,255.77,123.45Zm0-12.71a14.63,14.63,0,0,0-7.46,1.77c-1.87,1.09-3,2.49-3,4s1,2.9,2.91,4a16.58,16.58,0,0,0,15,.06h0c1.87-1.09,2.95-2.49,2.95-4s-1-2.9-2.9-4A14.61,14.61,0,0,0,255.82,110.74Z" fill="url(#linear-gradient)"/>
      <g id="Ripple_Path_1" data-name="Ripple Path 1">
        <path id="Ripple_path1" data-name="Ripple path1" d="M261.53,113.18a12.62,12.62,0,0,0-11.46-.05c-3.16,1.81-3.16,4.77,0,6.64a12.62,12.62,0,0,0,11.46,0C264.64,118,264.64,115.05,261.53,113.18Zm-2.7,5.08a6.88,6.88,0,0,1-6.22,0c-1.71-1-1.71-2.59,0-3.57a6.88,6.88,0,0,1,6.22,0C260.59,115.67,260.54,117.28,258.83,118.26Z" fill="url(#linear-gradient-2)"/>
      </g>
      <g id="Path_Circle_2" data-name="Path Circle 2">
        <g>
          <path d="M23.27,41.57a11.66,11.66,0,0,1-5.6-1.87,4.56,4.56,0,0,1-2.33-4.15,4.59,4.59,0,0,1,3-3.68,12.43,12.43,0,0,1,11.45,1C31.46,34,32.29,35.45,32.14,37a4.63,4.63,0,0,1-3,3.68h0A12.09,12.09,0,0,1,23.27,41.57ZM24,33a9.74,9.74,0,0,0-4.82.73,2.92,2.92,0,0,0-1.87,2A2.85,2.85,0,0,0,18.81,38a10.74,10.74,0,0,0,9.49.83h0a3,3,0,0,0,1.87-2,2.84,2.84,0,0,0-1.51-2.33A9.82,9.82,0,0,0,24,33Z" fill="url(#linear-gradient-3)"/>
          <path d="M10.11,50.07A6.48,6.48,0,0,1,6.89,49a3,3,0,0,1-1.45-2.59,3,3,0,0,1,1.87-2.33,7.11,7.11,0,0,1,6.53.57,3,3,0,0,1,1.45,2.59,3,3,0,0,1-1.87,2.33A6.29,6.29,0,0,1,10.11,50.07Zm.36-4.51a4.52,4.52,0,0,0-2.28.37,1.27,1.27,0,0,0-.73.67,1.2,1.2,0,0,0,.57.78,5,5,0,0,0,4.51.36,1.34,1.34,0,0,0,.73-.67,1.2,1.2,0,0,0-.57-.78A4.32,4.32,0,0,0,10.47,45.56Z" fill="url(#linear-gradient-4)"/>
        </g>
      </g>
      <ellipse id="Path_Circle_1" data-name="Path Circle 1" cx="102.69" cy="97.68" rx="101.19" ry="61.4" fill="none" stroke-miterlimit="10" stroke-width="3" stroke="url(#linear-gradient-5)"/>
      <path id="Path_Line_2" data-name="Path Line 2" d="M265.17,119l28.25,17.87a6.6,6.6,0,0,0,6.34.4l23.56-10.94" fill="none" stroke-miterlimit="10" stroke-width="3" stroke="url(#linear-gradient-6)"/>
      <path id="Path_Line_1" data-name="Path Line 1" d="M194.6,124.65l26.32,11.06a5.79,5.79,0,0,0,5.36-.41l21.33-13.89" fill="none" stroke-miterlimit="10" stroke-width="3" stroke="url(#linear-gradient-7)"/>
      <path id="Element_Circle_S1_3" data-name="Element Circle S1 3" d="M150.07,61.54A6.94,6.94,0,0,0,147,66.93c0,2,1.35,2.86,3.11,1.82a6.91,6.91,0,0,0,3.11-5.45C153.23,61.44,151.88,60.5,150.07,61.54Z" opacity="0.52" fill="url(#linear-gradient-8)" style="isolation: isolate"/>
      <path id="Element_Circle_S1_2" data-name="Element Circle S1 2" d="M171.27,116.54A9.48,9.48,0,0,0,167,124c0,2.75,1.86,3.94,4.3,2.49a9.53,9.53,0,0,0,4.3-7.47C175.63,116.38,173.76,115.09,171.27,116.54Z" opacity="0.41" fill="url(#linear-gradient-9)" style="isolation: isolate"/>
      <path id="Element_Circle_S1_1" data-name="Element Circle S1 1" d="M74.9,82.74a9.48,9.48,0,0,0-4.25,7.37c0,2.69,1.87,3.89,4.25,2.49a9.43,9.43,0,0,0,4.26-7.37C79.16,82.59,77.34,81.34,74.9,82.74Z" opacity="0.41" fill="url(#linear-gradient-10)" style="isolation: isolate"/>
      <g id="Element_Circle_S2_2" data-name="Element Circle S2 2">
        <path d="M78.47,10.77c-4.25,2.43-7.57,8.35-7.57,13.12,0,2.28.78,4.09,2.23,4.92s3.37,2,3.37,2S86,19.58,85.93,15.07a4.88,4.88,0,0,1,1.14-2.85s-2.9-1.71-3.37-2C82.41,9.47,80.54,9.57,78.47,10.77Z" fill="url(#linear-gradient-11)"/>
        <path d="M81.79,12.74a16.59,16.59,0,0,0-7.52,13c0,4.77,3.27,6.85,7.52,4.36a16.51,16.51,0,0,0,7.46-13C89.3,12.48,86.09,10.25,81.79,12.74Z" fill="url(#linear-gradient-12)"/>
      </g>
      <g id="Element_Crcle_S2_1" data-name="Element Crcle S2 1">
        <path d="M64.32.62a10.36,10.36,0,0,0-4.67,8,3.18,3.18,0,0,0,1.4,3c.78.47,2.08,1.19,2.08,1.19S68.93,6,68.88,3.22a3.1,3.1,0,0,1,.73-1.77S67.85.42,67.53.26A3.39,3.39,0,0,0,64.32.62Z" fill="url(#linear-gradient-13)"/>
        <path d="M66.34,1.82a10.17,10.17,0,0,0-4.61,8c0,2.91,2,4.2,4.61,2.7a10.28,10.28,0,0,0,4.62-8C71,1.66,69,.31,66.34,1.82Z" fill="url(#linear-gradient-14)"/>
      </g>
      <g id="Element_Box_S1_1" data-name="Element Box S1 1">
        <path d="M117.46,129c0-1.09,2.8-2.49,2.8-2.49l-3.83-2.23a1.33,1.33,0,0,0-1.25,0c-2.74,1.4-5.54,2.9-8.29,4.56-1,.57-2,1.25-3,1.87-.41.26-.88.57-1.29.88a4.33,4.33,0,0,0-1.4,1.61,7.79,7.79,0,0,0-.93,3.22c-.06.72-.06,1.5-.11,2.22V141a2.6,2.6,0,0,0,0,.62c.06.73.06,1.5.16,2.18a2.1,2.1,0,0,0,1,1.71l3.78,2.18s2.7-5,5.24-6.54c1.14-.67,2.33-1.45,3.47-2.12.41-.26.83-.52,1.24-.83a5.27,5.27,0,0,0,1.51-2,8.18,8.18,0,0,0,.77-3C117.41,131.8,117.52,130.35,117.46,129Z" fill="url(#linear-gradient-15)"/>
        <path d="M121,128a1.93,1.93,0,0,0-.88-1.6,1.31,1.31,0,0,0-1.24,0c-2.75,1.4-5.55,2.9-8.3,4.56-1,.57-2,1.24-3,1.87-.42.26-.88.57-1.3.88a4.18,4.18,0,0,0-1.4,1.61,7.7,7.7,0,0,0-.93,3.21c-.05.73-.05,1.5-.11,2.23v2.33a2.25,2.25,0,0,0,.06.63c.05.72.05,1.5.15,2.17a2.16,2.16,0,0,0,1,1.72,1.21,1.21,0,0,0,1.29-.11c2.6-1.29,5.14-2.75,7.73-4.25,1.14-.67,2.33-1.45,3.47-2.13.42-.26.83-.51,1.25-.83a5.17,5.17,0,0,0,1.5-2,8,8,0,0,0,.78-2.95c0-1.45.15-2.91.1-4.25C121.2,130.09,121.15,129.05,121,128Z" fill="url(#linear-gradient-16)"/>
      </g>
      <g id="Icon_File" data-name="Icon File">
        <path d="M81.57,96.55l-.26-.13a1.94,1.94,0,0,0-1.68.18,1.78,1.78,0,0,0-.4.22L68.48,103c-1.06-.62-1.94-1.15-2.12-1.24a1.49,1.49,0,0,0-.62-.22,2.64,2.64,0,0,0-1.59.44c-1.63,1-3.3,1.9-4.93,2.87a6.47,6.47,0,0,0-2.83,3.7,6.71,6.71,0,0,0-.26,1.24v20.51a4.61,4.61,0,0,0,.09.48,1.84,1.84,0,0,0,.84,1.24c.44.22,6.26,3.61,6.26,3.61S72.66,124,79.41,120.06a6.74,6.74,0,0,0,3-4.63,3.4,3.4,0,0,0,0-.71c0-5.42,5.55-14.55,5.55-14.55S82.1,96.91,81.57,96.55Z" fill="url(#linear-gradient-17)"/>
        <g>
          <path d="M62.48,134.08v-20.5a4.51,4.51,0,0,1,.26-1.24,6.47,6.47,0,0,1,2.83-3.7c1.63-1,3.3-1.94,4.93-2.87a2.87,2.87,0,0,1,1.59-.44,1.65,1.65,0,0,1,1.41,1.5c0,.22,0,.44.09.66,0,0,0,0,.09,0q6-3.45,11.86-6.88c.13-.09.26-.14.39-.22a2.09,2.09,0,0,1,1.68-.18c.71.31,1.06,1,1.06,2.12v16.27a3.64,3.64,0,0,1,0,.71,6.84,6.84,0,0,1-3,4.63c-6.75,3.92-13.49,7.8-20.24,11.73a2.64,2.64,0,0,1-.57.26,1.65,1.65,0,0,1-2.38-1.23A2.73,2.73,0,0,0,62.48,134.08Zm13.14-6.74c3.35-1.94,6.7-3.88,10.09-5.87a.4.4,0,0,0,.22-.18,2.2,2.2,0,0,0,.8-1.63V103.12c-.09-.53-.53-.66-1-.35L65.57,114.46a2.28,2.28,0,0,0-1.06,1.81v16.36c0,.7.44.93,1.06.62C68.87,131.26,72.22,129.32,75.62,127.34Z" fill="url(#linear-gradient-18)"/>
          <path d="M75.62,127.34l-10.1,5.86c-.57.36-1.06.09-1.06-.62V116.22a2.21,2.21,0,0,1,1.06-1.81l20.15-11.68c.53-.31.93-.18,1,.35v16.54a2.22,2.22,0,0,1-.79,1.63.69.69,0,0,0-.22.18C82.32,123.46,79,125.4,75.62,127.34Z" fill="#fff"/>
          <polygon points="66.45 116.27 76.63 110.31 84.74 105.59 84.74 119.71 74.6 125.66 66.45 130.38 66.45 116.27" opacity="0.33" fill="url(#linear-gradient-19)" style="isolation: isolate"/>
        </g>
      </g>
      <g id="Icon_Video" data-name="Icon Video">
        <path d="M168.11,86.84c-.05-1.76,4.62-4.15,4.62-4.15s-5.55-3.21-6.33-3.68a2,2,0,0,0-2,.1c-4.56,2.28-9.12,4.83-13.74,7.57-1.66,1-3.26,2-4.92,3.06-.73.47-1.45.94-2.13,1.4a7.56,7.56,0,0,0-2.33,2.7,11.89,11.89,0,0,0-1.56,5.34c0,1.25-.1,2.49-.2,3.73a.4.4,0,0,1-.06.26v3.58c0,.31.06.68.06,1,.1,1.19.1,2.43.26,3.58a3.47,3.47,0,0,0,1.65,2.8c.63.31,6.23,3.57,6.23,3.57s4.4-8.19,8.65-10.73c1.92-1.14,3.84-2.33,5.76-3.53.67-.41,1.34-.88,2.07-1.35a8.26,8.26,0,0,0,2.49-3.26,13.28,13.28,0,0,0,1.29-4.88A63.39,63.39,0,0,0,168.11,86.84Z" fill="url(#linear-gradient-20)"/>
        <g>
          <path d="M145.67,110.28V106.7c0-.1.05-.16.05-.26.05-1.24.1-2.49.2-3.73a12.76,12.76,0,0,1,1.56-5.34,7,7,0,0,1,2.33-2.7c.73-.47,1.45-1,2.13-1.4,1.66-1,3.26-2.07,4.92-3.06,4.56-2.75,9.18-5.29,13.74-7.57a2,2,0,0,1,2-.1,3.09,3.09,0,0,1,1.4,2.59c.16,1.71.26,3.42.31,5.18.11,2.29-.1,4.67-.2,7.06a13.78,13.78,0,0,1-1.3,4.87,8.3,8.3,0,0,1-2.49,3.27c-.67.46-1.35.93-2.07,1.35-1.92,1.19-3.84,2.38-5.76,3.52-4.25,2.54-8.5,4.88-12.7,7a2.33,2.33,0,0,1-2.17.16,3.32,3.32,0,0,1-1.66-2.8c-.16-1.14-.21-2.39-.26-3.58A6.16,6.16,0,0,0,145.67,110.28Zm10.78-2.08,9-11.15-9-.77Z" fill="url(#linear-gradient-21)"/>
          <path d="M156.45,108.2V96.28l9,.77Z" fill="#fff"/>
        </g>
      </g>
      <g id="Icon_Image" data-name="Icon Image">
        <path d="M128.61,33.48a2.63,2.63,0,0,0-2.7.31c0,.05-.15.05-.15.1-1.82-1-3.89-2.28-4.15-2.38a3.22,3.22,0,0,0-3.26.21l-11,6.37A11.19,11.19,0,0,0,103,44.16c-.26,1-.52,2-.78,2.91a1.13,1.13,0,0,1-.57.83,21.34,21.34,0,0,0-2.43,1.45,7.66,7.66,0,0,0-2.86,5.81V73.62a3.64,3.64,0,0,0,.06.83,2.57,2.57,0,0,0,1.14,2c.67.41,6.79,3.94,6.79,3.94s4.35-9.23,8.6-11.67l13-7.57c.21-.16.47-.26.73-.47a9.14,9.14,0,0,0,3.06-6.38V48.83c0-4.31,5.86-11.36,5.86-11.36S129.28,33.89,128.61,33.48Z" fill="url(#linear-gradient-22)"/>
        <g>
          <path d="M136.49,40c0-2.54-1.61-3.47-3.78-2.23-.68.42-1.35.78-2,1.14-.26.16-.42.16-.47-.1-.26-.73-.52-1.35-.78-2.08-.67-1.65-2.49-2.12-4.35-1L114.1,42a11.09,11.09,0,0,0-4.36,6.06c-.26,1-.52,2-.78,2.91a1.13,1.13,0,0,1-.57.83A21.34,21.34,0,0,0,106,53.29a7.68,7.68,0,0,0-2.85,5.81V77.56a4.36,4.36,0,0,0,0,.83c.2,1.66,1.6,3,3.78,1.66,4.3-2.6,8.55-5,12.86-7.47l13-7.57c.21-.16.47-.26.73-.47a9.13,9.13,0,0,0,3.05-6.38V52.72C136.49,48.57,136.49,44.27,136.49,40Zm-7.57,17.22a18.41,18.41,0,0,1-5.34,9.28A16.12,16.12,0,0,1,115.75,71c-2.69.52-4.45-.57-5.28-3.32a14.53,14.53,0,0,1,.26-8.76,22,22,0,0,1,7.62-11c4.35-3.26,9.59-3.47,10.93,2.39.16.67.16,1.45.26,2.18A21.92,21.92,0,0,1,128.92,57.18Z" fill="url(#linear-gradient-23)"/>
          <path d="M118.35,47.79a21.73,21.73,0,0,0-7.62,11.05,14.53,14.53,0,0,0-.26,8.76c.77,2.75,2.59,3.84,5.28,3.32a15.36,15.36,0,0,0,7.83-4.51,18.62,18.62,0,0,0,5.34-9.28,21.92,21.92,0,0,0,.62-4.77c-.1-.78-.15-1.51-.26-2.18C128,44.32,122.7,44.52,118.35,47.79Zm1.4,19.29c-4.2,2.44-7.62.47-7.62-4.41s3.47-10.83,7.67-13.27,7.62-.47,7.62,4.46S123.94,64.59,119.75,67.08Z" fill="#fff"/>
          <path d="M119.8,49.35c-4.25,2.43-7.67,8.4-7.67,13.27s3.42,6.85,7.62,4.41a16.82,16.82,0,0,0,7.67-13.22C127.42,48.88,124.05,46.91,119.8,49.35Z" fill="url(#linear-gradient-24)"/>
        </g>
      </g>
      <g id="Icon_Audio" data-name="Icon Audio">
        <path d="M57,40.84C48,46,41,58.53,41,68.59c0,4.87,1.66,8.71,4.77,10.42,2.75,1.55,7.1,4.15,7.1,4.15s20.06-23.7,20-33.24a10,10,0,0,1,2.44-6l-7.16-4.15C65.31,38.15,61.43,38.35,57,40.84Z" fill="url(#linear-gradient-25)"/>
        <g>
          <path d="M72.26,56.09v-8a9.55,9.55,0,0,0-.05-1.19c0-.26-.1-.31-.31-.16a2.92,2.92,0,0,0-.52.32c-1.4.93-2.8,1.81-4.15,2.85A53,53,0,0,0,60,56.14c-.62.67-.67.57-.67,1.56V71.33c0,.73,0,.73-.62.94a6.93,6.93,0,0,0-3.06,2.33A7.38,7.38,0,0,0,54,78.08c-.2,1.29.26,2.28,1.09,2.28,1.4,0,2.8-.73,4.2-2.44A6.85,6.85,0,0,0,61,74.19a7,7,0,0,0,.05-1V62.67c0-.77,0-.77.68-1.4,1.5-1.34,3.06-2.69,4.61-3.83,1.19-.88,2.39-1.77,3.63-2.6.52-.36.57-.31.57.32v7.05c0,.67,0,.72-.57.88a7.28,7.28,0,0,0-3.58,3.06,5.38,5.38,0,0,0-1.09,3.52,1.41,1.41,0,0,0,1.61,1.46,4.9,4.9,0,0,0,3-1.56,7.84,7.84,0,0,0,2.54-5.5C72.26,61.38,72.26,58.73,72.26,56.09Z" fill="#fff"/>
          <path d="M64.17,45c-9,5.14-16.07,17.68-16,27.74-.11,9.18,6.16,14.78,15.75,9.29S80.09,63.61,80,54.07C79.83,44.27,73,39.91,64.17,45Zm5.6,24.53a4.63,4.63,0,0,1-3,1.56,1.4,1.4,0,0,1-1.61-1.46A5.94,5.94,0,0,1,66.3,66.1,7,7,0,0,1,69.88,63c.57-.21.57-.26.57-.88V55.1c0-.62-.06-.67-.57-.31-1.2.83-2.44,1.71-3.63,2.6-1.56,1.19-3.06,2.48-4.62,3.83-.67.57-.67.62-.67,1.4V73.15a6.44,6.44,0,0,1-.05,1,6.92,6.92,0,0,1-1.71,3.74c-1.4,1.71-2.8,2.49-4.2,2.44-.83-.06-1.3-1-1.09-2.29a7.91,7.91,0,0,1,1.61-3.47,6.62,6.62,0,0,1,3.06-2.33c.57-.21.62-.21.62-.94V57.64c0-1,0-.88.67-1.55a56,56,0,0,1,7.26-6.22c1.4-1,2.8-1.92,4.15-2.86.15-.1.36-.2.51-.31s.32-.05.32.16c0,.41,0,.78,0,1.19v8c0,2.64,0,5.29,0,7.93A7.08,7.08,0,0,1,69.77,69.52Z" fill="url(#linear-gradient-26)"/>
        </g>
      </g>
      <g id="Path_Circle_2-2" data-name="Path Circle 2">
        <path d="M170.6,181.42a15.11,15.11,0,0,1-7.41-2.49c-2.13-1.5-3.22-3.37-3-5.28s1.56-3.63,3.89-4.72a16.34,16.34,0,0,1,15.14,1.29c2.12,1.51,3.21,3.37,3,5.29s-1.55,3.63-3.89,4.72A15.22,15.22,0,0,1,170.6,181.42Zm1-11.56a13.18,13.18,0,0,0-6.64,1c-1.61.77-2.54,1.81-2.64,3s.67,2.33,2.12,3.37a14.24,14.24,0,0,0,13,1.09h0c1.61-.78,2.54-1.81,2.65-3s-.68-2.33-2.13-3.37A14.29,14.29,0,0,0,171.59,169.86Z" fill="url(#linear-gradient-27)"/>
      </g>
    </g>
  </g>
</svg>
