<svg id="svgStepOne" xmlns="http://www.w3.org/2000/svg" xmlns:xlink="http://www.w3.org/1999/xlink" viewBox="0 0 1920 1080">
  <defs>
    <linearGradient id="linear-gradient" x1="1351.11" y1="5116.3" x2="1306.73" y2="5068.71" gradientTransform="matrix(1, -0.08, -0.08, -1, 65.83, 5983.59)" gradientUnits="userSpaceOnUse">
      <stop offset="0" stop-color="#bc82ff"/>
      <stop offset="0.18" stop-color="#b782ff"/>
      <stop offset="0.39" stop-color="#a980ff"/>
      <stop offset="0.61" stop-color="#917eff"/>
      <stop offset="0.85" stop-color="#707aff"/>
      <stop offset="1" stop-color="#5778ff"/>
    </linearGradient>
    <linearGradient id="linear-gradient-2" x1="1344.07" y1="5108.58" x2="1313.83" y2="5076.15" xlink:href="#linear-gradient"/>
    <linearGradient id="linear-gradient-3" x1="-151.87" y1="-3241.49" x2="-185.86" y2="-3277.95" gradientTransform="translate(44 3776.72) rotate(4.85)" xlink:href="#linear-gradient"/>
    <linearGradient id="linear-gradient-4" x1="-203.05" y1="-3207.28" x2="-223.29" y2="-3228.99" gradientTransform="translate(44 3776.72) rotate(4.85)" xlink:href="#linear-gradient"/>
    <linearGradient id="linear-gradient-5" x1="70.5" y1="421.76" x2="795.99" y2="421.76" gradientTransform="translate(0.5 312.5)" xlink:href="#linear-gradient"/>
    <linearGradient id="linear-gradient-6" x1="1708.1" y1="3878.73" x2="1901.53" y2="3878.73" gradientTransform="matrix(1.07, -0.04, -0.04, -1.23, -650.27, 5684.93)" gradientUnits="userSpaceOnUse">
      <stop offset="0" stop-color="#bc82ff"/>
      <stop offset="0.12" stop-color="#b782ff"/>
      <stop offset="0.22" stop-color="#a980ff"/>
      <stop offset="0.34" stop-color="#917eff"/>
      <stop offset="0.46" stop-color="#707aff"/>
      <stop offset="1" stop-color="#5778ff"/>
    </linearGradient>
    <linearGradient id="linear-gradient-7" x1="962.93" y1="5855.09" x2="1171.54" y2="5855.09" gradientTransform="matrix(0.89, -0.17, -0.19, -0.98, 1030.91, 6773.84)" xlink:href="#linear-gradient-6"/>
    <linearGradient id="linear-gradient-8" x1="591.29" y1="-3894.37" x2="613.55" y2="-3894.37" gradientTransform="translate(0 4512)" gradientUnits="userSpaceOnUse">
      <stop offset="0" stop-color="#00b3ff"/>
      <stop offset="0.32" stop-color="#1fadff"/>
      <stop offset="0.76" stop-color="#44a6ff"/>
      <stop offset="1" stop-color="#52a3ff"/>
    </linearGradient>
    <linearGradient id="linear-gradient-9" x1="662.76" y1="-3693.1" x2="693.53" y2="-3693.1" xlink:href="#linear-gradient-8"/>
    <linearGradient id="linear-gradient-10" x1="318.88" y1="-3813.95" x2="349.13" y2="-3813.95" xlink:href="#linear-gradient-8"/>
    <linearGradient id="linear-gradient-11" x1="326.05" y1="-4026.94" x2="364.77" y2="-4090.27" gradientTransform="translate(0 4512)" gradientUnits="userSpaceOnUse">
      <stop offset="0" stop-color="#6700e7"/>
      <stop offset="0.09" stop-color="#6a05e8"/>
      <stop offset="0.19" stop-color="#7413ec"/>
      <stop offset="0.29" stop-color="#832af2"/>
      <stop offset="0.41" stop-color="#984afb"/>
      <stop offset="0.45" stop-color="#a259ff"/>
      <stop offset="0.68" stop-color="#9f57fc"/>
      <stop offset="0.85" stop-color="#9752f3"/>
      <stop offset="0.99" stop-color="#8948e4"/>
      <stop offset="1" stop-color="#8747e2"/>
    </linearGradient>
    <linearGradient id="linear-gradient-12" x1="331.78" y1="-4050.42" x2="385.35" y2="-4050.42" xlink:href="#linear-gradient-8"/>
    <linearGradient id="linear-gradient-13" x1="283.54" y1="-4086.98" x2="307.27" y2="-4125.8" xlink:href="#linear-gradient-11"/>
    <linearGradient id="linear-gradient-14" x1="287.01" y1="-4101.38" x2="319.84" y2="-4101.38" xlink:href="#linear-gradient-8"/>
    <linearGradient id="linear-gradient-15" x1="441.78" y1="-3627.03" x2="479.63" y2="-3677.91" xlink:href="#linear-gradient-11"/>
    <linearGradient id="linear-gradient-16" x1="437.49" y1="-3637.71" x2="499.54" y2="-3637.71" xlink:href="#linear-gradient-8"/>
    <linearGradient id="linear-gradient-17" x1="289.73" y1="-3683.94" x2="347.22" y2="-3782.25" xlink:href="#linear-gradient-11"/>
    <linearGradient id="linear-gradient-18" x1="289.69" y1="-3705.49" x2="383.45" y2="-3705.49" xlink:href="#linear-gradient-8"/>
    <linearGradient id="linear-gradient-19" x1="303.86" y1="-3705.74" x2="369.18" y2="-3705.74" gradientTransform="translate(0.5 4512.5)" gradientUnits="userSpaceOnUse">
      <stop offset="0" stop-color="#00dfff"/>
      <stop offset="0.14" stop-color="#00e2ff"/>
      <stop offset="1" stop-color="#00f0ff"/>
    </linearGradient>
    <linearGradient id="linear-gradient-20" x1="593.44" y1="-3752.08" x2="655.87" y2="-3835.99" xlink:href="#linear-gradient-11"/>
    <linearGradient id="linear-gradient-21" x1="586.67" y1="-3769.86" x2="688.98" y2="-3769.86" xlink:href="#linear-gradient-8"/>
    <linearGradient id="linear-gradient-22" x1="430.92" y1="-3862.99" x2="500.77" y2="-3985.05" gradientTransform="translate(0 4512)" gradientUnits="userSpaceOnUse">
      <stop offset="0" stop-color="#6700e7"/>
      <stop offset="0.13" stop-color="#6903e8"/>
      <stop offset="0.22" stop-color="#6f0cea"/>
      <stop offset="0.29" stop-color="#791bee"/>
      <stop offset="0.36" stop-color="#8730f4"/>
      <stop offset="0.42" stop-color="#994cfb"/>
      <stop offset="0.45" stop-color="#a259ff"/>
      <stop offset="0.86" stop-color="#a058fd"/>
      <stop offset="1" stop-color="#9a54f7"/>
    </linearGradient>
    <linearGradient id="linear-gradient-23" x1="434.73" y1="-3920.52" x2="554.01" y2="-3920.52" xlink:href="#linear-gradient-8"/>
    <linearGradient id="linear-gradient-24" x1="466.85" y1="-3919.21" x2="521.45" y2="-3919.21" xlink:href="#linear-gradient-8"/>
    <linearGradient id="linear-gradient-25" x1="226.18" y1="-3850.69" x2="308.16" y2="-3984.78" xlink:href="#linear-gradient-11"/>
    <linearGradient id="linear-gradient-26" x1="238.42" y1="-3900.17" x2="352.06" y2="-3900.17" xlink:href="#linear-gradient-8"/>
    <linearGradient id="linear-gradient-27" x1="1154.83" y1="3473.4" x2="1813.18" y2="3473.4" gradientTransform="matrix(1, 0, 0, -1, 0, 4232)" xlink:href="#linear-gradient-6"/>
    <linearGradient id="linear-gradient-28" x1="419.58" y1="-2788.49" x2="375.25" y2="-2836.03" gradientTransform="translate(44 3776.72) rotate(4.85)" gradientUnits="userSpaceOnUse">
      <stop offset="0" stop-color="#5778ff"/>
      <stop offset="0.15" stop-color="#707aff"/>
      <stop offset="0.39" stop-color="#917eff"/>
      <stop offset="0.61" stop-color="#a980ff"/>
      <stop offset="0.82" stop-color="#b782ff"/>
      <stop offset="1" stop-color="#bc82ff"/>
    </linearGradient>
    <linearGradient id="linear-gradient-29" x1="726.68" y1="-3527.95" x2="1250.96" y2="-3527.95" gradientTransform="translate(44 3776.72) rotate(4.85)" gradientUnits="userSpaceOnUse">
      <stop offset="0" stop-color="#c0d6ff"/>
      <stop offset="0.3" stop-color="#c5dbff"/>
      <stop offset="0.65" stop-color="#d3e9ff"/>
      <stop offset="1" stop-color="#e9ffff"/>
    </linearGradient>
    <linearGradient id="linear-gradient-30" x1="726.64" y1="-3392.97" x2="816.8" y2="-3392.97" gradientTransform="translate(44 3776.72) rotate(4.85)" gradientUnits="userSpaceOnUse">
      <stop offset="0" stop-color="#5778ff"/>
      <stop offset="0.18" stop-color="#5c7dff"/>
      <stop offset="0.39" stop-color="#6a8aff"/>
      <stop offset="0.61" stop-color="#82a0ff"/>
      <stop offset="0.85" stop-color="#a3beff"/>
      <stop offset="1" stop-color="#bcd5ff"/>
    </linearGradient>
    <linearGradient id="linear-gradient-31" x1="796.87" y1="-3240.95" x2="1537.44" y2="-3240.95" xlink:href="#linear-gradient-30"/>
    <linearGradient id="linear-gradient-32" x1="1045.79" y1="-3265.78" x2="1786.63" y2="-3265.78" xlink:href="#linear-gradient-29"/>
    <linearGradient id="linear-gradient-33" x1="1171.26" y1="-3223.63" x2="1360.75" y2="-3223.63" xlink:href="#linear-gradient-29"/>
    <clipPath id="clip-path" transform="translate(0.5 0.5)">
      <polygon points="1549.74 77.5 1092.45 293.17 1119.47 618.06 1576.39 402.39 1549.74 77.5" fill="none"/>
    </clipPath>
    <linearGradient id="linear-gradient-34" x1="762.69" y1="-3431.07" x2="1503.55" y2="-3431.07" xlink:href="#linear-gradient-29"/>
    <linearGradient id="linear-gradient-35" x1="714.03" y1="-3485.74" x2="903.52" y2="-3485.74" xlink:href="#linear-gradient-29"/>
  </defs>
  <title>S1_Animation</title>
  <rect id="Backdrop" width="1920" height="1080" fill="none"/>
  <path id="Ripple_Path_2" data-name="Ripple Path 2" d="M979.74,825.76c-10.54,0-20.91-2.4-28.87-7.22-8.14-4.81-12.58-11.29-12.58-18.14s4.63-13.33,12.77-18.14c15.91-9.26,42-9.07,57.92.19,8.15,4.81,12.59,11.29,12.59,18.14s-4.63,13.33-12.77,18.14h0C1000.66,823.54,990.11,826,979.74,825.76Zm.19-45.35c-9.62-.19-19.43,2-26.65,6.29-6.66,3.89-10.55,8.89-10.55,14.26,0,5.18,3.7,10.36,10.36,14.25,14.63,8.52,38.68,8.7,53.49.19h0c6.66-3.89,10.55-8.89,10.55-14.26,0-5.18-3.7-10.36-10.37-14.25C999.18,782.45,989.55,780.22,979.93,780.41Z" transform="translate(0.5 0.5)" fill="url(#linear-gradient)"/>
  <g id="Ripple_Path_1" data-name="Ripple Path 1">
    <path id="Ripple_path1" data-name="Ripple path1" d="M1000.29,789.11c-11.29-6.66-29.61-6.66-40.9-.19s-11.29,17,0,23.7,29.61,6.66,40.9.19C1011.39,806.33,1011.39,795.77,1000.29,789.11Zm-9.63,18.14c-6.1,3.52-15.91,3.52-22.2,0-6.11-3.52-6.11-9.25,0-12.77s15.91-3.52,22.2,0S996.77,803.73,990.66,807.25Z" transform="translate(0.5 0.5)" fill="url(#linear-gradient-2)"/>
  </g>
  <g id="Path_Circle_2" data-name="Path Circle 2">
    <g>
      <path d="M149.73,533.46a41.48,41.48,0,0,1-20-6.67c-5.92-4.07-8.88-9.26-8.33-14.81.37-5.37,4.26-10.18,10.74-13.14,12-5.74,30-4.08,40.9,3.51,5.92,4.08,8.88,9.26,8.32,14.81-.37,5.37-4.25,10.19-10.73,13.15h0C164.72,533.08,157.13,534,149.73,533.46Zm2.59-30.74a34.82,34.82,0,0,0-17.21,2.6c-3.89,1.85-6.29,4.44-6.67,7.22-.18,2.77,1.67,5.73,5.37,8.33,8.7,6.11,24.25,7.4,33.87,3h0c3.89-1.85,6.29-4.44,6.66-7.22.19-2.78-1.66-5.74-5.37-8.33C164.53,505.13,158.43,503.28,152.32,502.72Z" transform="translate(0.5 0.5)" fill="url(#linear-gradient-3)"/>
      <path d="M102.72,563.82a23.64,23.64,0,0,1-11.47-3.89c-3.52-2.41-5.37-5.93-5.18-9.26.37-3.52,2.77-6.48,6.66-8.33,6.84-3.15,17-2.41,23.32,2,3.51,2.4,5.36,5.92,5.18,9.25-.37,3.52-2.78,6.48-6.66,8.33A22.92,22.92,0,0,1,102.72,563.82Zm1.3-16.11a16.33,16.33,0,0,0-8.15,1.3,4.73,4.73,0,0,0-2.59,2.4,4.25,4.25,0,0,0,2,2.78c4.07,3,11.47,3.52,16.1,1.29a4.73,4.73,0,0,0,2.59-2.4,4.25,4.25,0,0,0-2-2.78A15.55,15.55,0,0,0,104,547.71Z" transform="translate(0.5 0.5)" fill="url(#linear-gradient-4)"/>
    </g>
  </g>
  <ellipse id="Path_Circle_1" data-name="Path Circle 1" cx="433.75" cy="734.26" rx="361.25" ry="219.19" fill="none" stroke-miterlimit="10" stroke-width="3" stroke="url(#linear-gradient-5)"/>
  <path id="Path_Line_2" data-name="Path Line 2" d="M1013.3,809.93l100.84,63.77a23.61,23.61,0,0,0,22.65,1.45l84.09-39.07" transform="translate(0.5 0.5)" fill="none" stroke-miterlimit="10" stroke-width="3" stroke="url(#linear-gradient-6)"/>
  <path id="Path_Line_1" data-name="Path Line 1" d="M761.37,830l94,39.49a20.6,20.6,0,0,0,19.13-1.45l76.16-49.6" transform="translate(0.5 0.5)" fill="none" stroke-miterlimit="10" stroke-width="3" stroke="url(#linear-gradient-7)"/>
  <path id="Element_Circle_S1_3" data-name="Element Circle S1 3" d="M602.39,604.75c-6.29,3.7-11.1,12.4-11.1,19.25,0,7,4.81,10.19,11.1,6.48,6.48-3.7,11.11-12.59,11.11-19.43C613.68,604.38,608.87,601.05,602.39,604.75Z" transform="translate(0.5 0.5)" opacity="0.52" fill="url(#linear-gradient-8)" style="isolation: isolate"/>
  <path id="Element_Circle_S1_2" data-name="Element Circle S1 2" d="M678.08,801.1c-8.7,5-15.36,17-15.36,26.66,0,9.81,6.66,14.06,15.36,8.88,8.88-5.18,15.36-17.21,15.36-26.66C693.62,800.54,687,795.91,678.08,801.1Z" transform="translate(0.5 0.5)" opacity="0.41" fill="url(#linear-gradient-9)" style="isolation: isolate"/>
  <path id="Element_Circle_S1_1" data-name="Element Circle S1 1" d="M334.05,680.44c-8.51,5-15.17,16.85-15.17,26.29,0,9.63,6.66,13.88,15.17,8.89,8.7-5,15.18-17,15.18-26.29C349.23,679.89,342.75,675.44,334.05,680.44Z" transform="translate(0.5 0.5)" opacity="0.41" fill="url(#linear-gradient-10)" style="isolation: isolate"/>
  <g id="Element_Circle_S2_2" data-name="Element Circle S2 2">
    <path d="M346.77,423.49c-15.17,8.7-27,29.8-27,46.84,0,8.14,2.77,14.62,7.95,17.58,4.63,2.59,12,7,12,7s33.87-40,33.68-56.09c0-5.56,4.08-10.19,4.08-10.19s-10.37-6.11-12-7C360.84,418.86,354.18,419.23,346.77,423.49Z" transform="translate(0.5 0.5)" fill="url(#linear-gradient-11)"/>
    <path d="M358.62,430.52c-15.18,8.89-26.84,29.62-26.84,46.47,0,17,11.66,24.44,26.84,15.55,15.36-8.88,26.83-30.17,26.65-46.46C385.45,429.6,374,421.64,358.62,430.52Z" transform="translate(0.5 0.5)" fill="url(#linear-gradient-12)"/>
  </g>
  <g id="Element_Crcle_S2_1" data-name="Element Crcle S2 1">
    <path d="M296.27,387.28c-9.26,5.37-16.66,18.33-16.66,28.69,0,5,1.67,9.08,5,10.74,2.77,1.67,7.4,4.26,7.4,4.26s20.73-24.44,20.54-34.43c0-3.34,2.59-6.3,2.59-6.3s-6.29-3.7-7.4-4.26C304.78,384.5,300.71,384.69,296.27,387.28Z" transform="translate(0.5 0.5)" fill="url(#linear-gradient-13)"/>
    <path d="M303.48,391.54c-9.25,5.37-16.47,18.14-16.47,28.51s7.22,15,16.47,9.62c9.44-5.55,16.47-18.51,16.47-28.51C320,391,312.92,386.17,303.48,391.54Z" transform="translate(0.5 0.5)" fill="url(#linear-gradient-14)"/>
  </g>
  <g id="Element_Box_S1_1" data-name="Element Box S1 1">
    <path d="M486,845.57c-.18-3.89,10-8.88,10-8.88s-12-7-13.69-8c-1.3-.74-2.59-.56-4.44.18-9.81,5-19.8,10.37-29.61,16.29-3.52,2-7,4.45-10.55,6.67-1.48.92-3.15,2-4.63,3.14a15.29,15.29,0,0,0-5,5.74,27.92,27.92,0,0,0-3.34,11.48c-.18,2.59-.18,5.37-.37,8v8.33a8.78,8.78,0,0,0,.19,2.22c.18,2.59.18,5.37.55,7.78.37,3,1.67,5,3.71,6.11l13.51,7.77s9.62-17.77,18.69-23.32c4.07-2.41,8.32-5.19,12.4-7.59,1.48-.93,3-1.85,4.44-3a18.62,18.62,0,0,0,5.36-7A28.66,28.66,0,0,0,486,860.94C485.81,855.57,486.18,850.39,486,845.57Z" transform="translate(0.5 0.5)" fill="url(#linear-gradient-15)"/>
    <path d="M498.76,842.06a6.94,6.94,0,0,0-3.15-5.74c-1.29-.74-2.59-.56-4.44.18-9.81,5-19.8,10.37-29.61,16.29-3.51,2-7,4.45-10.55,6.67-1.48.92-3.14,2-4.62,3.14a15.31,15.31,0,0,0-5,5.74,27.75,27.75,0,0,0-3.33,11.48c-.19,2.59-.19,5.37-.37,8v8.33a9.25,9.25,0,0,0,.18,2.22c.19,2.59.19,5.37.56,7.78.37,3,1.66,5,3.7,6.11,1.3.74,2.78.74,4.63-.37,9.25-4.63,18.32-9.82,27.57-15.18,4.07-2.41,8.33-5.19,12.4-7.59,1.48-.93,3-1.86,4.44-3a18.74,18.74,0,0,0,5.37-7,28.91,28.91,0,0,0,2.78-10.55c.18-5.19.55-10.37.37-15.18C499.32,849.46,499.13,845.76,498.76,842.06Z" transform="translate(0.5 0.5)" fill="url(#linear-gradient-16)"/>
  </g>
  <g id="Icon_File" data-name="Icon File">
    <path d="M357.85,729.74l-1-.47c-1.73-.79-3.78-.47-6,.63a6.54,6.54,0,0,0-1.42.79c-12.75,7.4-25.49,14.8-38.4,22.2-3.78-2.21-6.93-4.1-7.56-4.41a5.33,5.33,0,0,0-2.2-.79,9.25,9.25,0,0,0-5.67,1.58c-5.82,3.46-11.8,6.77-17.62,10.23-4.73,2.68-8,7.24-10.08,13.23a24.08,24.08,0,0,0-.94,4.41v73.21c.15.63.15,1.26.31,1.73a6.47,6.47,0,0,0,3,4.41c1.58.79,22.35,12.91,22.35,12.91s33.37-41.72,57.45-55.74c5.2-3,9.76-10.07,10.55-16.53a13.34,13.34,0,0,0,.16-2.52c0-19.36,19.83-52,19.83-52S359.73,731,357.85,729.74Z" transform="translate(0.5 0.5)" fill="url(#linear-gradient-17)"/>
    <g>
      <path d="M289.69,863.73V790.52a15.91,15.91,0,0,1,.95-4.41c2-6,5.35-10.55,10.07-13.23,5.82-3.46,11.81-6.92,17.63-10.23a10.34,10.34,0,0,1,5.67-1.57c2.67.31,4.4,2.2,5,5.35.16.79.16,1.57.32,2.36.15,0,.15-.16.31-.16,14.17-8.18,28.33-16.37,42.34-24.56.47-.31.95-.47,1.42-.79a7.48,7.48,0,0,1,6-.63q3.78,1.67,3.78,7.56v58.1a14.2,14.2,0,0,1-.16,2.52c-.79,6.3-5.35,13.54-10.55,16.53-24.08,14-48.16,27.87-72.24,41.88a11.74,11.74,0,0,1-2.05,1c-4.09,1.57-7.71-.32-8.5-4.41A8.52,8.52,0,0,0,289.69,863.73Zm46.91-24.09c12-6.93,23.92-13.85,36-20.94a1.56,1.56,0,0,0,.79-.63,8,8,0,0,0,2.83-5.82v-59c-.31-1.89-1.89-2.36-3.62-1.26-23.92,13.86-48,27.87-71.93,41.73a8.2,8.2,0,0,0-3.78,6.45v58.42c0,2.51,1.58,3.3,3.78,2.2C312.52,853.65,324.48,846.73,336.6,839.64Z" transform="translate(0.5 0.5)" fill="url(#linear-gradient-18)"/>
      <path d="M336.6,839.64c-12,6.93-23.93,13.86-36.05,20.94-2,1.26-3.77.32-3.77-2.2V800a7.83,7.83,0,0,1,3.77-6.45c23.93-13.86,48-27.87,71.93-41.72,1.89-1.11,3.31-.63,3.62,1.26v59a8,8,0,0,1-2.83,5.82,4,4,0,0,0-.79.63C360.52,825.79,348.56,832.71,336.6,839.64Z" transform="translate(0.5 0.5)" fill="#fff"/>
      <polygon points="304.36 800.62 340.72 779.37 369.68 762.52 369.68 812.9 333.48 834.16 304.36 851 304.36 800.62" opacity="0.33" fill="url(#linear-gradient-19)" style="isolation: isolate"/>
    </g>
  </g>
  <g id="Icon_Video" data-name="Icon Video">
    <path d="M666.8,695.07c-.19-6.3,16.47-14.81,16.47-14.81s-19.8-11.48-22.58-13.15c-2-1.11-4.44-1.11-7.22.37-16.28,8.15-32.57,17.22-49,27-5.92,3.52-11.66,7.22-17.58,10.92-2.59,1.67-5.18,3.34-7.59,5a26.69,26.69,0,0,0-8.32,9.63,42.32,42.32,0,0,0-5.56,19.07c-.18,4.44-.37,8.88-.74,13.33a1.69,1.69,0,0,1-.18.92v12.77c0,1.12.18,2.41.18,3.52.37,4.26.37,8.7.93,12.78.74,4.81,2.59,8.33,5.92,10,2.22,1.11,22.21,12.78,22.21,12.78S609.43,776,624.6,766.9c6.85-4.08,13.7-8.34,20.55-12.59,2.4-1.48,4.81-3.15,7.4-4.82,3.89-2.77,6.66-7,8.88-11.66a47.72,47.72,0,0,0,4.63-17.4A237.63,237.63,0,0,0,666.8,695.07Z" transform="translate(0.5 0.5)" fill="url(#linear-gradient-20)"/>
    <g>
      <path d="M586.67,778.74V766c0-.37.18-.56.18-.93.19-4.44.37-8.88.74-13.32a45.61,45.61,0,0,1,5.55-19.07c2.22-4.08,4.82-7.41,8.33-9.63,2.59-1.67,5.18-3.52,7.59-5,5.92-3.7,11.66-7.4,17.58-10.92,16.29-9.81,32.76-18.88,49-27,2.78-1.48,5.18-1.48,7.22-.37,3,1.67,4.63,5,5,9.26.55,6.11.92,12.22,1.11,18.51.37,8.15-.37,16.66-.74,25.18a48.77,48.77,0,0,1-4.63,17.4c-2.22,4.63-5,8.88-8.88,11.66-2.41,1.67-4.81,3.33-7.41,4.81-6.84,4.26-13.69,8.52-20.54,12.59-15.17,9.07-30.35,17.4-45.34,25-3,1.49-5.55,1.67-7.77.56-3.33-1.67-5.37-5.18-5.92-10-.56-4.07-.74-8.51-.93-12.77A22.07,22.07,0,0,0,586.67,778.74Zm38.49-7.4c10.73-13.33,21.28-26.47,32-39.8l-32-2.78Z" transform="translate(0.5 0.5)" fill="url(#linear-gradient-21)"/>
      <path d="M625.16,771.34V728.76l32,2.78C646.44,744.87,635.89,758,625.16,771.34Z" transform="translate(0.5 0.5)" fill="#fff"/>
    </g>
  </g>
  <g id="Icon_Image" data-name="Icon Image">
    <path d="M525.78,504.58c-2.41-1.49-5.92-1.11-9.62,1.11-.19.18-.56.18-.56.37-6.48-3.71-13.88-8.15-14.8-8.52-3.15-1.85-7.41-1.66-11.66.74l-39.42,22.77c-6.48,3.7-13.14,13.15-15.55,21.66-.92,3.52-1.85,7-2.77,10.37a4,4,0,0,1-2,3,85.21,85.21,0,0,0-8.7,5.18A27.51,27.51,0,0,0,410.48,582v65.9a14.54,14.54,0,0,0,.19,3,9.24,9.24,0,0,0,4.07,7c2.41,1.48,24.24,14.07,24.24,14.07S454.53,639,469.7,630.27c15.55-9.07,30.91-17.95,46.46-27,.74-.56,1.66-.93,2.59-1.67,6.1-5,10.92-14.81,10.92-22.77V559.37c0-15.36,20.91-40.54,20.91-40.54S528.19,506.06,525.78,504.58Z" transform="translate(0.5 0.5)" fill="url(#linear-gradient-22)"/>
    <g>
      <path d="M553.91,527.72c0-9.07-5.74-12.41-13.51-8-2.41,1.48-4.81,2.77-7,4.07-.93.55-1.48.55-1.67-.37-.92-2.59-1.85-4.81-2.77-7.41-2.41-5.92-8.89-7.59-15.55-3.7L474,535.12c-6.48,3.7-13.14,13.14-15.54,21.66-.93,3.52-1.85,7-2.78,10.37a4,4,0,0,1-2,3,84,84,0,0,0-8.69,5.18A27.48,27.48,0,0,0,434.73,596v65.9a15.34,15.34,0,0,0,.18,3c.74,5.93,5.74,10.55,13.51,5.93,15.36-9.26,30.54-17.78,45.9-26.66,15.54-9.07,30.9-18,46.45-27,.74-.55,1.67-.92,2.59-1.67,6.11-5,10.92-14.81,10.92-22.77V573.26C553.91,558.45,553.91,543.08,553.91,527.72Zm-27,61.46a65.93,65.93,0,0,1-19.06,33.13c-9.25,8.89-18.69,14.26-27.95,16.11-9.62,1.85-15.91-2-18.87-11.85-2.59-8.88-3-18.88.92-31.28,5.37-16.66,14.62-29.81,27.21-39.43,15.54-11.67,34.23-12.41,39.05,8.51.55,2.41.55,5.18.92,7.78A79.48,79.48,0,0,1,526.89,589.18Z" transform="translate(0.5 0.5)" fill="url(#linear-gradient-23)"/>
      <path d="M489.14,555.67a77.66,77.66,0,0,0-27.21,39.43c-3.88,12.4-3.51,22.4-.92,31.29,2.77,9.81,9.25,13.7,18.87,11.84,9.26-1.66,18.7-7,27.95-16.1A66.76,66.76,0,0,0,526.89,589a79.4,79.4,0,0,0,2.22-17c-.37-2.78-.55-5.37-.92-7.77C523.56,543.27,504.68,544,489.14,555.67Zm5,68.87c-15,8.7-27.2,1.66-27.2-15.74s12.4-38.69,27.39-47.39c15.17-8.7,27.2-1.67,27.2,15.92C521.52,594.73,509.12,615.65,494.13,624.54Z" transform="translate(0.5 0.5)" fill="#fff"/>
      <path d="M494.32,561.22c-15.18,8.7-27.39,30-27.39,47.4s12.21,24.43,27.2,15.73c15.18-8.7,27.39-29.8,27.39-47.21C521.52,559.56,509.49,552.52,494.32,561.22Z" transform="translate(0.5 0.5)" fill="url(#linear-gradient-24)"/>
    </g>
  </g>
  <g id="Icon_Audio" data-name="Icon Audio">
    <path d="M270.2,530.86C238,549.19,212.83,594,213,629.9c-.19,17.41,5.92,31.1,17,37.21,9.8,5.56,25.35,14.81,25.35,14.81s71.62-84.6,71.25-118.66c-.19-11.66,8.7-21.47,8.7-21.47L309.81,527C299.82,521.24,285.94,522,270.2,530.86Z" transform="translate(0.5 0.5)" fill="url(#linear-gradient-25)"/>
    <g>
      <path d="M324.61,585.29V556.78a33.73,33.73,0,0,0-.18-4.26c0-.92-.37-1.11-1.11-.55a9.25,9.25,0,0,0-1.85,1.11c-5,3.33-10,6.48-14.81,10.18a190.26,190.26,0,0,0-25.91,22.21c-2.22,2.41-2.4,2-2.4,5.56v48.69c0,2.59,0,2.59-2.22,3.33-3.89,1.29-7.41,4.07-10.92,8.33-3,3.89-5.18,8-5.74,12.4-.74,4.63.93,8.15,3.89,8.15,5,.18,10-2.59,15-8.7,3.33-4.08,5.73-8.52,6.1-13.33a23.07,23.07,0,0,0,.19-3.52V608.8c0-2.78,0-2.78,2.41-5,5.36-4.81,10.91-9.62,16.47-13.7,4.25-3.14,8.51-6.29,13-9.25,1.85-1.3,2-1.11,2,1.11v25.17c0,2.41-.19,2.6-2,3.15-4.63,1.67-9.07,5.18-12.77,10.92-2.77,4.26-4.44,8.52-3.88,12.59.37,3.89,2.59,5.37,5.73,5.19,3.52-.19,7-2.23,10.55-5.56,5.18-5,9.07-12,9.07-19.62C324.61,604.17,324.61,594.73,324.61,585.29Z" transform="translate(0.5 0.5)" fill="#fff"/>
      <path d="M295.74,545.67c-32.2,18.33-57.37,63.13-57.18,99-.37,32.77,22,52.76,56.26,33.14,34.05-19.44,57.74-65.72,57.37-99.78C351.63,543.08,327.39,527.53,295.74,545.67Zm20,87.57c-3.52,3.33-7,5.55-10.55,5.55-3.14.19-5.36-1.3-5.73-5.18-.38-4.08,1.29-8.33,3.88-12.59,3.7-5.74,8-9.26,12.77-10.92,2-.74,2-.93,2-3.15V581.77c0-2.22-.19-2.4-2-1.11-4.26,3-8.7,6.11-13,9.26-5.56,4.26-10.92,8.88-16.47,13.7-2.41,2-2.41,2.22-2.41,5v37.57a21.81,21.81,0,0,1-.19,3.52c-.37,4.82-2.77,9.26-6.1,13.33-5,6.11-10,8.89-15,8.7-3-.18-4.63-3.52-3.89-8.14a28.1,28.1,0,0,1,5.74-12.41c3.33-4.25,7-7,10.92-8.33,2-.74,2.22-.74,2.22-3.33V590.84c0-3.51.18-3.14,2.4-5.55a204,204,0,0,1,25.91-22.22c5-3.51,10-6.84,14.81-10.18.55-.37,1.29-.74,1.85-1.11.74-.37,1.11-.18,1.11.56,0,1.48.18,2.77.18,4.26v28.5c0,9.45-.18,18.89,0,28.33C325,621,320.91,628.24,315.73,633.24Z" transform="translate(0.5 0.5)" fill="url(#linear-gradient-26)"/>
    </g>
  </g>
  <path id="Laptop_Shadow_Path" data-name="Laptop Shadow Path" d="M1219,829.47l-58.48-44.25a11.69,11.69,0,0,1,2.59-19.62l420.1-193.82a11.82,11.82,0,0,1,11.85,1.11L1806.8,726.54a11.77,11.77,0,0,1-1.85,20.18L1390.4,945.35a11.82,11.82,0,0,1-11.84-.92l-158.6-114A4,4,0,0,0,1219,829.47Z" transform="translate(0.5 0.5)" fill="none" stroke-miterlimit="10" stroke-width="3" stroke="url(#linear-gradient-27)"/>
  <g id="Laptop_Shadow" data-name="Laptop Shadow">
    <g opacity="0.5">
      <path d="M1569.55,588.37,1189,768.84a4.77,4.77,0,0,0-.72,8.2l191.51,134.82a29.62,29.62,0,0,0,29.45,2.67l365-173.15a4.78,4.78,0,0,0,.71-8.21Z" transform="translate(0.5 0.5)" fill="#242993"/>
    </g>
  </g>
  <g id="Path_Circle_2-2" data-name="Path Circle 2">
    <path d="M675.68,1032.73c-9.81-.74-19.24-3.89-26.46-8.88-7.59-5.37-11.48-12-10.74-18.89.56-6.85,5.56-13,13.88-16.84,15.92-7.59,39.61-5.56,54,4.63,7.59,5.36,11.48,12,10.74,18.88-.56,6.85-5.55,13-13.88,16.84C695.3,1032.18,685.31,1033.66,675.68,1032.73Zm3.52-41.28c-8.33-.74-17,.37-23.69,3.52-5.74,2.77-9.07,6.48-9.44,10.55s2.41,8.33,7.59,12c12.21,8.52,32.94,10.37,46.45,3.89h0c5.74-2.78,9.07-6.48,9.44-10.55s-2.41-8.33-7.59-12A51,51,0,0,0,679.2,991.45Z" transform="translate(0.5 0.5)" fill="url(#linear-gradient-28)"/>
  </g>
  <g id="Laptop">
    <g id="Laptop_Screen" data-name="Laptop Screen">
      <path d="M1585.83,399.8,1557.7,57.69l4.63-1.48-6.48-4.44h0c-1.29-.93-3.14-1.12-5.36,0L1076.35,275.39c-3.89,1.85-7.22,7-6.85,11.11l28.32,344.89a4.62,4.62,0,0,0,2,3.7h0l6.29,4.44,1.67-6.11h-.37L1579,410.9C1582.87,409.05,1586.2,403.68,1585.83,399.8Z" transform="translate(0.5 0.5)" fill="url(#linear-gradient-29)"/>
      <path d="M1078,284.83,1070.8,281a10.77,10.77,0,0,0-1.48,5.55l28.31,344.89a4.65,4.65,0,0,0,2,3.7h0l6.29,4.44,1.66-6.11h-.37l23.88-11.29Z" transform="translate(0.5 0.5)" fill="url(#linear-gradient-30)"/>
      <path d="M1585.83,415.53,1111.51,639.35c-3.7,1.66-6.48.37-6.85-3.34l-28.31-344.88c-.37-3.89,3-9.26,6.85-11.11L1557.52,56.21c3.7-1.67,6.47-.37,6.85,3.33l28.31,344.88C1592.87,408.5,1589.72,413.68,1585.83,415.53Z" transform="translate(0.5 0.5)" fill="#242993"/>
      <polygon points="1550.24 78 1092.95 293.67 1119.97 618.56 1576.89 402.89 1550.24 78" fill="#4553c7"/>
    </g>
    <g id="Laptop_Base" data-name="Laptop Base">
      <path d="M1856.4,600.65l-25.73,10.93L1595.27,447c-3.89-2.77-11.1-3.14-16.28-.74L1131.31,657.49c-3.88-2.59-21.83-13.15-21.83-13.15l7,24.44h0a4.89,4.89,0,0,0,2.22,3l247.8,173.46c3.89,2.78,11.1,3.15,16.29.74l458-216.22a8.66,8.66,0,0,0,4.07-3.52h0Z" transform="translate(0.5 0.5)" fill="url(#linear-gradient-31)"/>
      <path d="M1852.33,604.54,1382.82,826.13c-5.19,2.41-12.59,2-16.66-.74L1112.07,647.68c-4.08-2.78-3.15-7,2-9.45l469.51-221.59c5.18-2.4,12.59-2,16.66.74L1854.36,595.1C1858.25,597.88,1857.32,602.14,1852.33,604.54Z" transform="translate(0.5 0.5)" fill="url(#linear-gradient-32)"/>
      <path d="M1252.53,758.38l.37-5c0-.55.37-.74.74-.37l16.47,11.48a1.43,1.43,0,0,1,.56,1.29l-.37,5c0,.56-.37.74-.74.37l-16.47-11.47A2,2,0,0,1,1252.53,758.38Z" transform="translate(0.5 0.5)" fill="#2859cb"/>
      <path d="M1277.14,775.6l.37-5c0-.56.37-.74.74-.37l16.48,11.47a1.46,1.46,0,0,1,.55,1.3l-.37,5c0,.55-.37.74-.74.37l-16.47-11.48A2,2,0,0,1,1277.14,775.6Z" transform="translate(0.5 0.5)" fill="#2859cb"/>
      <path d="M1183,639l390.11-184a7.73,7.73,0,0,1,8,.74l126,88.31a2.88,2.88,0,0,1-.37,5L1316.75,733a7.73,7.73,0,0,1-8-.74l-126.21-88.12A3,3,0,0,1,1183,639Z" transform="translate(0.5 0.5)" fill="#adc8ff"/>
      <path d="M1182.58,644l1.29.93,388.82-183.46a7.73,7.73,0,0,1,8,.74l124.73,87.38,1.49-.74a2.88,2.88,0,0,0,.37-5l-126-88.3a8.17,8.17,0,0,0-8-.74l-390.12,184A3,3,0,0,0,1182.58,644Z" transform="translate(0.5 0.5)" fill="#91afff"/>
      <g>
        <polygon points="1590.03 476.38 1251.18 636.33 1237.48 626.7 1576.34 466.94 1590.03 476.38" fill="#242993"/>
        <polygon points="1623.53 499.89 1305.59 649.84 1291.89 640.22 1609.84 490.27 1623.53 499.89" fill="#242993"/>
        <polygon points="1645.37 515.07 1270.98 691.68 1257.29 682.24 1631.67 505.63 1645.37 515.07" fill="#242993"/>
        <polygon points="1667.21 530.44 1292.82 707.04 1279.12 697.42 1653.51 520.81 1667.21 530.44" fill="#242993"/>
        <polygon points="1688.86 545.62 1314.66 722.23 1300.96 712.6 1675.35 536.18 1688.86 545.62" fill="#242993"/>
        <polygon points="1230.64 645.95 1215.46 653.17 1201.95 643.55 1216.94 636.51 1230.64 645.95" fill="#242993"/>
        <polygon points="1280.23 661.69 1248.96 676.5 1235.45 667.06 1266.72 652.25 1280.23 661.69" fill="#242993"/>
      </g>
      <path d="M1564.92,724.13,1670,674.52c4.07-1.85,4.44-5.55.74-8.15l-65.15-45.72c-3.7-2.59-10-3.15-14.25-1.3L1486.27,669c-4.07,1.85-4.44,5.55-.74,8.14l65.14,45.73C1554.37,725.43,1560.66,726,1564.92,724.13Z" transform="translate(0.5 0.5)" fill="url(#linear-gradient-33)"/>
      <path d="M1485.9,672.48,1591,622.87c4.08-1.85,10.55-1.48,14.25,1.3l65.15,45.72a5.81,5.81,0,0,1,2.22,2.59c1.29-1.85.55-4.26-2-5.92l-65.14-45.73c-3.7-2.59-10-3.14-14.25-1.29l-105.12,49.61c-2.77,1.3-3.88,3.52-3,5.55A5.79,5.79,0,0,1,1485.9,672.48Z" transform="translate(0.5 0.5)" fill="#91afff"/>
    </g>
    <g id="Screen_Shadow" data-name="Screen Shadow" opacity="0.11" style="isolation: isolate">
      <g>
        <g clip-path="url(#clip-path)">
          <g>
            <path d="M1584.17,416.09l-469.51,221.4c-5.18,2.41-12.59,2-16.66-.74L843.91,459c-4.07-2.78-3.15-7,2-9.45L1315.45,228c5.18-2.4,12.59-2,16.66.74L1586.2,406.46C1590.09,409.42,1589.16,413.68,1584.17,416.09Z" transform="translate(0.5 0.5)" fill="url(#linear-gradient-34)"/>
            <path d="M1131.31,424.23l105.12-49.61c4.07-1.85,4.44-5.55.74-8.15L1172,320.75c-3.7-2.59-10-3.15-14.25-1.3l-105.12,49.62c-4.07,1.85-4.44,5.55-.74,8.14l65.14,45.73A15.05,15.05,0,0,0,1131.31,424.23Z" transform="translate(0.5 0.5)" fill="url(#linear-gradient-35)"/>
            <path d="M1052.29,372.58,1157.41,323c4.07-1.85,10.55-1.48,14.25,1.3l65.14,45.54a5.76,5.76,0,0,1,2.22,2.59c1.3-1.85.56-4.26-2-5.93l-65.14-45.72c-3.7-2.59-10-3.15-14.25-1.3l-105.12,49.62c-2.77,1.29-3.88,3.51-3,5.55A9,9,0,0,1,1052.29,372.58Z" transform="translate(0.5 0.5)" fill="#91afff"/>
            <g>
              <path d="M996.77,504.39l390.12-184a7.68,7.68,0,0,1,8,.74l126,88.3a2.87,2.87,0,0,1-.37,5l-389.93,184a7.68,7.68,0,0,1-8-.74L996.4,509.57A3,3,0,0,1,996.77,504.39Z" transform="translate(0.5 0.5)" fill="#adc8ff"/>
              <path d="M996.4,509.39l1.3.92,388.82-183.45a7.68,7.68,0,0,1,8,.74L1519.21,415l1.48-.74a2.88,2.88,0,0,0,.37-5l-126-88.31a8.2,8.2,0,0,0-8-.74L997,504.21A3,3,0,0,0,996.4,509.39Z" transform="translate(0.5 0.5)" fill="#91afff"/>
            </g>
          </g>
        </g>
        <g clip-path="url(#clip-path)">
          <polygon points="1487.14 401.59 1147.17 561.91 1159.39 570.61 1499.35 410.11 1487.14 401.59" fill="#242993"/>
        </g>
        <g clip-path="url(#clip-path)">
          <polygon points="1454.75 379.01 1131.63 531.36 1143.84 539.88 1466.78 387.52 1454.75 379.01" fill="#242993"/>
        </g>
        <g clip-path="url(#clip-path)">
          <polygon points="1107.38 542.66 1077.22 556.91 1089.43 565.43 1119.6 551.17 1107.38 542.66" fill="#242993"/>
        </g>
        <g clip-path="url(#clip-path)">
          <polygon points="1130.7 569.68 1109.79 579.68 1122 588.2 1142.92 578.38 1130.7 569.68" fill="#242993"/>
        </g>
        <g clip-path="url(#clip-path)">
          <polygon points="1434.39 364.75 1057.05 542.66 1069.08 551.17 1446.61 373.27 1434.39 364.75" fill="#242993"/>
        </g>
        <g clip-path="url(#clip-path)">
          <polygon points="1414.04 350.5 1036.69 528.4 1048.9 537.1 1426.25 359.01 1414.04 350.5" fill="#242993"/>
        </g>
        <g clip-path="url(#clip-path)">
          <polygon points="1393.68 336.24 1016.33 514.33 1028.55 522.85 1405.89 344.76 1393.68 336.24" fill="#242993"/>
        </g>
      </g>
    </g>
  </g>
</svg>
