<svg xmlns="http://www.w3.org/2000/svg" xmlns:xlink="http://www.w3.org/1999/xlink" viewBox="0 0 1920 1080">
  <defs>
    <linearGradient id="linear-gradient" x1="1338.89" y1="739.69" x2="1892.77" y2="729.12" gradientTransform="translate(18.76 -53.53) rotate(2.52)" gradientUnits="userSpaceOnUse">
      <stop offset="0" stop-color="#bc82ff"/>
      <stop offset="0.12" stop-color="#b782ff"/>
      <stop offset="0.22" stop-color="#a980ff"/>
      <stop offset="0.34" stop-color="#917eff"/>
      <stop offset="0.46" stop-color="#707aff"/>
      <stop offset="1" stop-color="#5778ff"/>
    </linearGradient>
    <linearGradient id="linear-gradient-2" x1="2219.26" y1="519.38" x2="2758.42" y2="519.38" gradientTransform="matrix(1.06, 0, 0, -1, -1040.86, 1080)" gradientUnits="userSpaceOnUse">
      <stop offset="0" stop-color="#a31fa9"/>
      <stop offset="0.07" stop-color="#8b17a0"/>
      <stop offset="0.15" stop-color="#740f98"/>
      <stop offset="0.24" stop-color="#640a92"/>
      <stop offset="0.34" stop-color="#5b078f"/>
      <stop offset="0.48" stop-color="#58068e"/>
      <stop offset="0.63" stop-color="#4d22a3"/>
      <stop offset="0.94" stop-color="#3168da"/>
      <stop offset="1" stop-color="#2c75e4"/>
    </linearGradient>
    <linearGradient id="linear-gradient-3" x1="1652.52" y1="312.08" x2="1924.61" y2="547.72" gradientTransform="matrix(0.92, 0.5, 1.06, -0.58, -510.43, -337.42)" gradientUnits="userSpaceOnUse">
      <stop offset="0" stop-color="#8d139b"/>
      <stop offset="0.17" stop-color="#851ba1"/>
      <stop offset="0.43" stop-color="#6e33b2"/>
      <stop offset="0.76" stop-color="#4958cd"/>
      <stop offset="1" stop-color="#2979e4"/>
    </linearGradient>
    <linearGradient id="linear-gradient-4" x1="1700.27" y1="353.57" x2="1878.7" y2="508.1" gradientTransform="matrix(0.92, 0.5, 1.06, -0.58, -510.43, -337.42)" gradientUnits="userSpaceOnUse">
      <stop offset="0" stop-color="#630692"/>
      <stop offset="0.23" stop-color="#5b0e94"/>
      <stop offset="0.59" stop-color="#432399"/>
      <stop offset="1" stop-color="#2142a1"/>
    </linearGradient>
    <clipPath id="clip-path">
      <path d="M1683.22,351.24l-155.34-92.52c-11.08-6.61-9.69-18.17,3-25.6l-58.42,35c12.74-7.71,32.12-8.53,43.19-1.92L1671,358.67c11.08,6.61,9.69,18.17-3,25.61l58.42-35C1713.4,357,1694.29,357.85,1683.22,351.24Z" fill="none"/>
    </clipPath>
    <linearGradient id="linear-gradient-5" x1="2219.26" y1="787.97" x2="2758.42" y2="787.97" xlink:href="#linear-gradient-2"/>
    <linearGradient id="linear-gradient-6" x1="1581.76" y1="373.36" x2="1853.85" y2="608.99" xlink:href="#linear-gradient-3"/>
    <linearGradient id="linear-gradient-7" x1="1629.5" y1="414.85" x2="1807.94" y2="569.37" xlink:href="#linear-gradient-4"/>
    <clipPath id="clip-path-4">
      <path d="M1683.22,280.47,1527.88,188c-11.08-6.61-9.69-18.17,3-25.61l-58.42,35c12.74-7.71,32.12-8.53,43.19-1.93L1671,287.91c11.08,6.61,9.69,18.17-3,25.61l58.42-35C1713.4,286.26,1694.29,287.08,1683.22,280.47Z" fill="none"/>
    </clipPath>
    <linearGradient id="linear-gradient-8" x1="2219.26" y1="848.27" x2="2758.42" y2="848.27" xlink:href="#linear-gradient-2"/>
    <linearGradient id="linear-gradient-9" x1="1521.46" y1="425.57" x2="1793.55" y2="661.21" xlink:href="#linear-gradient-3"/>
    <linearGradient id="linear-gradient-10" x1="1401.31" y1="391.5" x2="1502.1" y2="573" gradientTransform="translate(3088.43 1080) rotate(180) scale(1.06 1)" gradientUnits="userSpaceOnUse">
      <stop offset="0" stop-color="#5778ff"/>
      <stop offset="0.04" stop-color="#5c7dff"/>
      <stop offset="0.09" stop-color="#6a8aff"/>
      <stop offset="0.14" stop-color="#82a0ff"/>
      <stop offset="0.19" stop-color="#a3beff"/>
      <stop offset="0.22" stop-color="#bcd5ff"/>
    </linearGradient>
    <linearGradient id="linear-gradient-11" x1="1527.95" y1="385.25" x2="1456.98" y2="523.98" gradientTransform="translate(3088.43 1080) rotate(180) scale(1.06 1)" gradientUnits="userSpaceOnUse">
      <stop offset="0" stop-color="#c0d6ff"/>
      <stop offset="0.3" stop-color="#c5dbff"/>
      <stop offset="0.65" stop-color="#d3e9ff"/>
      <stop offset="1" stop-color="#e9ffff"/>
    </linearGradient>
    <linearGradient id="Áåçûìÿííûé_ãðàäèåíò_2" data-name="Áåçûìÿííûé ãðàäèåíò 2" x1="1148.64" y1="889.67" x2="1120.77" y2="859.77" gradientTransform="translate(-9.42 3.46) rotate(0.46)" gradientUnits="userSpaceOnUse">
      <stop offset="0" stop-color="#bc82ff"/>
      <stop offset="0.18" stop-color="#b782ff"/>
      <stop offset="0.39" stop-color="#a980ff"/>
      <stop offset="0.61" stop-color="#917eff"/>
      <stop offset="0.85" stop-color="#707aff"/>
      <stop offset="1" stop-color="#5778ff"/>
    </linearGradient>
    <linearGradient id="Áåçûìÿííûé_ãðàäèåíò_2-2" x1="1155.04" y1="896.53" x2="1114.37" y2="852.91" xlink:href="#Áåçûìÿííûé_ãðàäèåíò_2"/>
    <linearGradient id="Áåçûìÿííûé_ãðàäèåíò_2-3" x1="879.13" y1="-34.11" x2="1081.04" y2="-34.11" gradientTransform="matrix(1, 0, 0, -0.88, 0, 809.26)" xlink:href="#Áåçûìÿííûé_ãðàäèåíò_2"/>
    <linearGradient id="Áåçûìÿííûé_ãðàäèåíò_2-4" x1="1151.94" y1="789.23" x2="1325.77" y2="789.23" gradientTransform="matrix(1, 0, 0, 1, 0, 0)" xlink:href="#Áåçûìÿííûé_ãðàäèåíò_2"/>
    <linearGradient id="Áåçûìÿííûé_ãðàäèåíò_38" data-name="Áåçûìÿííûé ãðàäèåíò 38" x1="-225.32" y1="801.25" x2="-350.45" y2="579.53" gradientTransform="matrix(-1.06, 0, 0, 1, 1157, 0)" gradientUnits="userSpaceOnUse">
      <stop offset="0" stop-color="#c0d6ff"/>
      <stop offset="0.12" stop-color="#d6ecff"/>
      <stop offset="0.21" stop-color="#e9ffff"/>
      <stop offset="0.25" stop-color="#e3f9ff"/>
      <stop offset="0.41" stop-color="#c9dfff"/>
      <stop offset="0.51" stop-color="#c0d6ff"/>
      <stop offset="0.62" stop-color="#d0e6ff"/>
      <stop offset="0.75" stop-color="#e9ffff"/>
      <stop offset="1" stop-color="#c0d6ff"/>
    </linearGradient>
  </defs>
  <title>Portfolio_StepThree</title>
  <g id="StepThree">
    <path id="Server_Wire_Path" d="M1333.63,692.11l349.23,218.16a40.42,40.42,0,0,0,41.7.64L1866.89,828a15.83,15.83,0,0,0,.3-27.22L1523.89,590.7a31.68,31.68,0,0,0-30.55-1.39l-158.47,78.18A14.09,14.09,0,0,0,1333.63,692.11Z" fill="none" stroke-miterlimit="10" stroke-width="3" stroke="url(#linear-gradient)"/>
    <g id="Server">
      <g>
        <path d="M1834.68,370.51H1691.8l-159.22-94.72c-20.49-12.11-56.2-10.73-80,3.31l54.27-32.49H1364V672.84h0c-.56,8.26,3.87,16.24,13.84,22L1666.05,866.4c20.49,12.12,56.21,10.74,80-3.3l69.22-41c12.19-7.43,18.83-16.52,19.39-25.61h0Z" fill="url(#linear-gradient-2)"/>
        <path d="M1830.52,370.51V801.42h0c-.27,4.41-1.93,8.54-5,12.94,5.54-5.5,8.58-11.56,9.14-17.62h0V370.51Z" fill="#6ee8fc"/>
        <path d="M1666.05,440.45,1377.8,268.91c-20.49-12.11-18-33.59,5.82-47.63l69.22-41c23.54-14,59.53-15.69,80-3.3l288.25,171.53c20.49,12.12,18,33.6-5.82,47.64l-69.22,41C1722.26,451.19,1686.54,452.56,1666.05,440.45Z" fill="url(#linear-gradient-3)"/>
        <path d="M1671.86,440.45,1383.62,268.91c-20.49-12.11-18-33.59,5.81-47.63l69.22-41c12.19-7.16,27.42-11,42.37-11.56-16.61-.55-34.34,3.3-47.9,11.56l-69.23,41c-23.53,14-26.3,35.52-5.81,47.63l288.24,171.54c10,6.06,23.54,8.53,37.66,8.26C1691.8,448.16,1680.45,445.68,1671.86,440.45Z" fill="#f88b93"/>
        <path d="M1820.83,348.48,1532.58,177c-10-6.06-23.81-8.54-37.93-8.26,11.91.27,23.26,3,31.84,8.26l288.25,171.53c20.49,12.12,18,33.6-5.81,47.64l-69.23,41c-12.18,7.16-27.41,11-42.09,11.57,16.62.55,34.34-3.31,47.91-11.57l69.22-41C1838.83,382.08,1841.32,360.6,1820.83,348.48Z" fill="#6ee8fc"/>
        <path d="M1675.46,390.89,1460.87,263.13c-15.23-9.09-13.29-25.06,4.15-35.52l-1.66,1.1c17.72-10.46,44.3-11.56,59.53-2.48L1737.49,354c15.23,9.09,13.29,25.06-4.16,35.52l1.66-1.1C1717.55,398.87,1690.69,400,1675.46,390.89Z" fill="url(#linear-gradient-4)"/>
        <g>
          <path id="SVGID" d="M1683.22,351.24l-155.34-92.52c-11.08-6.61-9.69-18.17,3-25.6l-58.42,35c12.74-7.71,32.12-8.53,43.19-1.92L1671,358.67c11.08,6.61,9.69,18.17-3,25.61l58.42-35C1713.4,357,1694.29,357.85,1683.22,351.24Z" fill="#6de0f6"/>
          <g clip-path="url(#clip-path)">
            <path d="M1530.65,245.51l-58.15,35c12.74-7.7,32.12-8.53,43.19-1.92l155.62,92.51a19.81,19.81,0,0,1,5.54,5c3.6-6.33,2.21-12.94-5.54-17.62l-155.62-92.52c-11.07-6.61-30.45-5.78-43.19,1.93l58.15-35c-10,5.78-13,14-8.59,20.65A30.14,30.14,0,0,1,1530.65,245.51Z" fill="#267fe5"/>
          </g>
          <g clip-path="url(#clip-path)">
            <path d="M1530.65,260.65l-58.15,35c12.74-7.71,32.12-8.54,43.19-1.93l155.62,92.52a15.29,15.29,0,0,1,4.43,3.85c5-6.61,3.6-14-4.43-19l-155.62-92.51c-11.07-6.61-30.45-5.78-43.19,1.92l58.15-35c-10.53,6.33-13.29,15.14-7.76,21.75A31.37,31.37,0,0,1,1530.65,260.65Z" fill="#25bfec"/>
          </g>
          <g clip-path="url(#clip-path)">
            <path d="M1524.55,284.05a27.87,27.87,0,0,1,6.1-4.95l-58.15,35c12.74-7.71,32.12-8.54,43.19-1.93l155.62,92.51a28.57,28.57,0,0,1,3,2.21c6.65-7.16,5.82-15.42-3-20.65l-155.62-92.52c-11.07-6.61-30.45-5.78-43.19,1.93l58.15-35C1519.29,267.53,1517.08,277.45,1524.55,284.05Z" fill="#18d0f7"/>
          </g>
        </g>
      </g>
      <g>
        <path d="M1834.68,299.75H1691.8L1532.58,205c-20.49-12.11-56.2-10.74-80,3.31l54.27-32.49H1364v30.56h0c-.56,8.26,3.87,16.24,13.84,22L1666.05,400c20.49,12.12,56.21,10.74,80-3.3l69.22-41c12.19-7.43,18.83-16.52,19.39-25.6h0Z" fill="url(#linear-gradient-5)"/>
        <path d="M1830.52,299.75V335h0c-.27,4.41-1.93,8.54-5,12.94,5.54-5.5,8.58-11.56,9.14-17.62h0V299.75Z" fill="#6ee8fc"/>
        <path d="M1666.05,369.69,1377.8,198.15c-20.49-12.12-18-33.59,5.82-47.64l69.22-41c23.54-14,59.53-15.7,80-3.31l288.25,171.54c20.49,12.12,18,33.59-5.82,47.64l-69.22,41C1722.26,380.42,1686.54,381.8,1666.05,369.69Z" fill="url(#linear-gradient-6)"/>
        <path d="M1671.86,369.69,1383.62,198.15c-20.49-12.12-18-33.59,5.81-47.64l69.22-41c12.19-7.16,27.42-11,42.37-11.57-16.61-.55-34.34,3.31-47.9,11.57l-69.23,41c-23.53,14.05-26.3,35.52-5.81,47.64l288.24,171.54c10,6.05,23.54,8.53,37.66,8.26C1691.8,377.4,1680.45,374.92,1671.86,369.69Z" fill="#f88b93"/>
        <path d="M1820.83,277.72,1532.58,106.18c-10-6.05-23.81-8.53-37.93-8.26,11.91.28,23.26,3,31.84,8.26l288.25,171.54c20.49,12.12,18,33.59-5.81,47.64l-69.23,41c-12.18,7.16-27.41,11-42.09,11.57,16.62.55,34.34-3.31,47.91-11.57l69.22-41C1838.83,311.31,1841.32,289.84,1820.83,277.72Z" fill="#6ee8fc"/>
        <path d="M1675.46,320.12,1460.87,192.37c-15.23-9.09-13.29-25.06,4.15-35.52l-1.66,1.1c17.72-10.46,44.3-11.57,59.53-2.48l214.6,127.76c15.23,9.08,13.29,25-4.16,35.52l1.66-1.1C1717.55,328.11,1690.69,329.21,1675.46,320.12Z" fill="url(#linear-gradient-7)"/>
        <g>
          <path id="SVGID-2" data-name="SVGID" d="M1683.22,280.47,1527.88,188c-11.08-6.61-9.69-18.17,3-25.61l-58.42,35c12.74-7.71,32.12-8.53,43.19-1.93L1671,287.91c11.08,6.61,9.69,18.17-3,25.61l58.42-35C1713.4,286.26,1694.29,287.08,1683.22,280.47Z" fill="#6de0f6"/>
          <g clip-path="url(#clip-path-4)">
            <path d="M1530.65,174.74l-58.15,35c12.74-7.71,32.12-8.53,43.19-1.93l155.62,92.52a19.66,19.66,0,0,1,5.54,5c3.6-6.34,2.21-12.95-5.54-17.63l-155.62-92.51c-11.07-6.61-30.45-5.78-43.19,1.93l58.15-35c-10,5.78-13,14-8.59,20.65A30.3,30.3,0,0,1,1530.65,174.74Z" fill="#267fe5"/>
          </g>
          <g clip-path="url(#clip-path-4)">
            <path d="M1530.65,189.89l-58.15,35c12.74-7.71,32.12-8.54,43.19-1.93l155.62,92.51a15.31,15.31,0,0,1,4.43,3.86c5-6.61,3.6-14-4.43-19l-155.62-92.52c-11.07-6.6-30.45-5.78-43.19,1.93l58.15-35c-10.53,6.34-13.29,15.15-7.76,21.76A31.16,31.16,0,0,1,1530.65,189.89Z" fill="#25bfec"/>
          </g>
          <g clip-path="url(#clip-path-4)">
            <path d="M1524.55,213.29a27.87,27.87,0,0,1,6.1-4.95l-58.15,35c12.74-7.71,32.12-8.53,43.19-1.92l155.62,92.51a30,30,0,0,1,3,2.2c6.65-7.16,5.82-15.42-3-20.65l-155.62-92.51c-11.07-6.61-30.45-5.78-43.19,1.93l58.15-35C1519.29,196.77,1517.08,206.68,1524.55,213.29Z" fill="#18d0f7"/>
          </g>
        </g>
      </g>
      <g>
        <path d="M1834.68,239.45H1691.8l-159.22-94.72c-20.49-12.11-56.2-10.74-80,3.31l54.27-32.49H1364v30.56h0c-.56,8.26,3.87,16.24,13.84,22l288.25,171.53c20.49,12.12,56.21,10.74,80-3.3l69.22-41c12.19-7.43,18.83-16.52,19.39-25.6h0Z" fill="url(#linear-gradient-8)"/>
        <path d="M1830.52,239.45v35.24h0c-.27,4.41-1.93,8.54-5,12.94,5.54-5.5,8.58-11.56,9.14-17.62h0V239.45Z" fill="#6ee8fc"/>
        <path d="M1666.05,309.39,1377.8,137.85c-20.49-12.12-18-33.59,5.82-47.64l69.22-41c23.54-14,59.53-15.7,80-3.31l288.25,171.54c20.49,12.12,18,33.59-5.82,47.64l-69.22,41C1722.26,320.12,1686.54,321.5,1666.05,309.39Z" fill="url(#linear-gradient-9)"/>
        <path d="M1678.51,279.92,1425.43,129.31c-12.19-7.43-10.8-20.1,3.32-28.36l41.53-24.5c14.12-8.54,35.72-9.36,47.91-1.93l253.08,150.61c12.18,7.44,10.8,20.1-3.32,28.36L1726.41,278C1712.29,286.26,1690.69,287.36,1678.51,279.92Z" fill="#6ee8fc"/>
        <path d="M1429,105.36l41.53-24.51c14.12-8.53,35.72-9.36,47.9-1.92l253.09,150.61c4.7,2.75,7.19,6.33,8,9.91,1.1-5.51-1.67-10.74-8-14.59L1518.19,74.24c-12.19-7.43-33.78-6.33-47.91,1.93l-41.53,24.51c-8.86,5.23-12.74,12.11-11.35,18.44C1418.23,114.44,1422.1,109.49,1429,105.36Z" fill="#267fe5"/>
        <path d="M1671.86,309.39,1383.62,137.85c-20.49-12.12-18-33.59,5.81-47.64l69.22-41c12.19-7.16,27.42-11,42.37-11.57-16.61-.55-34.34,3.31-47.9,11.57l-69.23,41c-23.53,14.05-26.3,35.52-5.81,47.64l288.24,171.54c10,6.05,23.54,8.53,37.66,8.26C1691.8,317.1,1680.45,314.62,1671.86,309.39Z" fill="#f88b93"/>
        <path d="M1820.83,217.42,1532.58,45.88c-10-6.05-23.81-8.53-37.93-8.26,11.91.28,23.26,3,31.84,8.26l288.25,171.54c20.49,12.12,18,33.59-5.81,47.64l-69.23,41c-12.18,7.16-27.41,11-42.09,11.57,16.62.55,34.34-3.31,47.91-11.57l69.22-41C1838.83,251,1841.32,229.54,1820.83,217.42Z" fill="#6ee8fc"/>
      </g>
      <path d="M1645,802.52,1411,663.2c-6.37-3.86-11.35-13.77-11.35-22.58V344.35c0-8.53,5-12.66,11.35-8.81l234,139.33c6.37,3.85,11.36,13.76,11.36,22.57V793.71C1656.36,802.25,1651.37,806.38,1645,802.52Z" fill="#6de0f6"/>
      <path d="M1649.16,800.59l-234-139.32c-6.37-3.85-11.35-13.77-11.35-22.58V342.43c0-3.86,1.11-6.89,2.77-8.54-4.16,0-6.92,3.86-6.92,10.19V640.35c0,8.53,5,18.72,11.35,22.57l234,139.33c3.6,2.2,6.65,1.65,8.59-.55A5.65,5.65,0,0,1,1649.16,800.59Z" fill="#267fe5"/>
      <g>
        <path d="M1419.33,516.44l15.79-8.81h0c.27,0,.55-.27.83,0l199.36,111a2.86,2.86,0,0,1,1.11,2.21v36.34c0,.28,0,.83-.28.83h0l-16.06,8.81V649.16L1436,546.73a2.85,2.85,0,0,1-1.11-2.2V532.14Z" fill="url(#linear-gradient-10)"/>
        <path d="M1419.89,555.82l199.36,111c.56.27,1.11,0,1.11-.83V629.61a2.82,2.82,0,0,0-1.11-2.2l-199.36-111c-.56-.27-1.11,0-1.11.83v36.34A2.86,2.86,0,0,0,1419.89,555.82Z" fill="url(#linear-gradient-11)"/>
        <path d="M1425.7,544.8l188,104.63c.56.28.84,0,.84-.55V639.8a1.5,1.5,0,0,0-.84-1.38l-188-104.63c-.55-.28-.83,0-.83.55v9.09A1.5,1.5,0,0,0,1425.7,544.8Z" fill="#242993"/>
        <path d="M1425.7,533.79l3.88,2.2v5a1.5,1.5,0,0,0,.83,1.37L1614.55,645v4.13c0,.55-.28.82-.84.55l-188-104.63a1.53,1.53,0,0,1-.83-1.38v-9.09C1424.87,533.79,1425.15,533.51,1425.7,533.79Z" fill="#4553c7"/>
      </g>
      <path d="M1442.59,543.15l156.45,87a40.59,40.59,0,0,0-3.6,2.2h0l-156.45-87A16.05,16.05,0,0,1,1442.59,543.15Z" fill="#4553c7" opacity="0.8" style="isolation: isolate"/>
      <text transform="matrix(1.03, 0.6, 0, 1, 1421.61, 458.47)" font-size="45.16" fill="#991fe8" font-family="Montserrat-Bold, Montserrat" font-weight="700"><tspan letter-spacing="-0.01em">P</tspan><tspan x="32.56" y="0">o</tspan><tspan x="62.14" y="0" letter-spacing="0.01em">r</tspan><tspan x="82.28" y="0">t</tspan><tspan x="101.92" y="0" letter-spacing="-0.01em">f</tspan><tspan x="119.08" y="0" letter-spacing="0em">olio</tspan></text>
    </g>
    <g id="Path_Line5" data-name="Path Line5">
      <path d="M1136.27,877.08c-9.9-5.82-26-6-36-.3s-10.06,15-.16,20.77,26,6,36,.3S1146.18,882.9,1136.27,877.08ZM1127.88,893c-5.4,3.06-14.12,3-19.48-.16s-5.31-8.18.09-11.23,14.12-3,19.47.16S1133.28,890,1127.88,893Z" fill="url(#Áåçûìÿííûé_ãðàäèåíò_2)"/>
      <path d="M1118,909.26c-9.24-.08-18.46-2.19-25.47-6.3s-11.07-9.88-11-16,4-11.67,11.27-15.76c14.14-8,37-7.8,51,.43,7.16,4.21,11.07,9.87,11,16s-4,11.68-11.27,15.77h0C1136.51,907.39,1127.26,909.34,1118,909.26Zm.31-40c-8.52-.07-17.06,1.73-23.58,5.42-6,3.36-9.24,7.75-9.27,12.36s3.19,9.05,9.07,12.51c12.93,7.6,34.06,7.78,47.09.4h0c5.94-3.36,9.23-7.75,9.27-12.36s-3.19-9.05-9.08-12.51C1135.36,871.28,1126.85,869.33,1118.32,869.26Z" fill="url(#Áåçûìÿííûé_ãðàäèåíò_2-2)"/>
    </g>
    <path id="Wire_Path_10" d="M1081,887.42l-75.58-1.14c-15.41-.23-27.61-11.41-27.1-24.84l1.76-46.55c.49-12.73-11.15-23.31-25.77-23.42l-75.17-.58" fill="none" stroke-miterlimit="10" stroke-width="3" stroke="url(#Áåçûìÿííûé_ãðàäèåíò_2-3)"/>
    <path id="Wire_Path_11" d="M1325.75,687.8l-41.73-.7a19.5,19.5,0,0,0-19.78,19.31l-1.13,167a18.15,18.15,0,0,1-18.38,18l-92.78-1" fill="none" stroke-miterlimit="10" stroke-width="3" stroke="url(#Áåçûìÿííûé_ãðàäèåíò_2-4)"/>
    <g id="Paper">
      <path d="M1302.42,734.66l17.22-9.92c37-20.63,61.07-57.78,63.59-99,2.13-34.78,29.39-69,50.55-80.76h0l176,98h0c-20.85,11.6-43.79,44-46.41,78.23A123.86,123.86,0,0,1,1500,820.39l-21.51,16.5Z" opacity="0.96" fill="url(#Áåçûìÿííûé_ãðàäèåíò_38)"/>
    </g>
    <g id="PaperIcon">
      <g>
        <path d="M1529.06,713.25c5.6-6.44,2.84-14.42-6.22-18.7-2.73-1.24-5.47-2.63-8.17-3.85-1.08-.49-1.45-.93-1.13-1.87.73-2.71,1.33-5.45,2.07-8.18,1.6-6.56-2.73-14.21-10.3-17.63-14.77-6.74-29.11-13.15-43.16-19.39-6.86-3.09-16.35-2.06-22.11,2-2.34,1.71-4.68,3.27-6.92,5a2.42,2.42,0,0,1-2.88.24,59.13,59.13,0,0,0-8.57-3.87,13.6,13.6,0,0,0-16.06,5.59l-26.17,42a18.39,18.39,0,0,0-1,2c-1.74,4.12-.4,10.9,6,14.33,13.16,7.12,26.49,14.78,40.31,22.5,14.41,8.06,29.32,16.44,44.64,25a20,20,0,0,0,2.69,1.37c7.07,2.64,15.58,1.18,19.79-3.67L1502.46,744Q1515.26,729,1529.06,713.25Zm-55.26,15.4c-8.74,5.38-18.71,6.5-29.73,3.51A57.4,57.4,0,0,1,1418,717.71c-7.14-7-9.69-14.81-7.47-23.19,2-7.82,6.11-14.66,14.17-19.45,11.33-6.75,24.18-7.63,38.28-3,17.81,5.79,32.74,22.78,24.87,41.57a47.94,47.94,0,0,1-3.46,6A51.2,51.2,0,0,1,1473.8,728.65Z" fill="#242993"/>
        <path d="M1463,672.05c-14.1-4.61-27-3.73-38.28,3-8.06,4.79-12.18,11.69-14.17,19.45-2.22,8.38.33,16.18,7.47,23.19a57.64,57.64,0,0,0,26.08,14.45c11,2.85,21,1.72,29.73-3.51a51.17,51.17,0,0,0,10.53-9,68.47,68.47,0,0,0,3.46-6C1495.71,694.83,1480.78,677.84,1463,672.05Zm-29.41,49.42c-14-7.64-19.1-22.28-11.55-33.4,7.77-11.44,26.42-15.2,41.9-7.69,15.85,7.73,21.32,23.78,12,35.51C1466.93,727.12,1448,729.34,1433.56,721.47Z" fill="#fff"/>
        <path d="M1463.86,680.44c-15.36-7.49-34.08-3.81-41.89,7.69-7.51,11.06-2.36,25.78,11.55,33.4,14.43,7.87,33.37,5.65,42.27-5.61C1485.18,704.22,1479.76,688.11,1463.86,680.44Z" fill="#242993"/>
      </g>
    </g>
  </g>
  <g id="Background">
    <rect width="1920" height="1080" fill="none"/>
  </g>
</svg>
